<svg width="34" height="34" viewBox="0 0 34 34" fill="none" xmlns="http://www.w3.org/2000/svg">
<path d="M15.333 10.8185V14.372H25.2305V19.6283H15.333V23.1818L8.52422 17L15.333 10.8185ZM24.2305 15.372H14.333V13.0773L10.012 17L14.333 20.9228V18.6283H24.2305V15.372Z" fill="#FFB22C"/>
<path d="M24.2305 15.372H14.333V13.0773L10.012 17L14.333 20.9228V18.6283H24.2305V15.372Z" fill="#FFB22C"/>
<path d="M15.333 10.8185V14.372H25.2305V19.6283H15.333V23.1818L8.52422 17L15.333 10.8185ZM24.2305 15.372H14.333V13.0773L10.012 17L14.333 20.9228V18.6283H24.2305V15.372Z" stroke="#FFB22C" stroke-width="0.5"/>
<path d="M24.2305 15.372H14.333V13.0773L10.012 17L14.333 20.9228V18.6283H24.2305V15.372Z" stroke="#FFB22C" stroke-width="0.5"/>
<path d="M16.9992 1C25.7425 1 32.8555 8.17775 32.8555 17.0003H31.8555C31.8555 8.729 25.191 2 16.9992 2C8.80747 2 2.14297 8.729 2.14297 17.0003C2.14297 25.271 8.80747 32 16.9992 32V33C8.25597 33 1.14297 25.8225 1.14297 17.0003C1.14297 8.17775 8.25597 1 16.9992 1Z" fill="#0B0B0B" stroke="#0B0B0B"/>
<path d="M31.8555 17.0003H32.8555C32.8555 17.1685 32.8532 17.337 32.8477 17.504L31.8482 17.4715C31.8535 17.3153 31.8555 17.1578 31.8555 17.0003Z" fill="#0B0B0B"/>
<path d="M31.7877 18.45L32.7832 18.5445C32.7497 18.8978 32.7037 19.2548 32.647 19.6055L31.66 19.4453C31.7132 19.1163 31.7562 18.7815 31.7877 18.45ZM31.4662 20.4298L32.4402 20.6553C32.3602 21.0013 32.2672 21.349 32.1642 21.689L31.2072 21.3988C31.304 21.08 31.391 20.754 31.4662 20.4298ZM30.8837 22.3495L31.819 22.7033C31.6935 23.0353 31.5547 23.3678 31.4067 23.6918L30.497 23.2765C30.636 22.9725 30.766 22.6608 30.8837 22.3495ZM30.0497 24.175L30.9295 24.6505C30.7607 24.9628 30.579 25.2738 30.3892 25.5748L29.543 25.0418C29.721 24.7595 29.8915 24.468 30.0497 24.175ZM28.98 25.8725L29.7885 26.461C29.5795 26.7483 29.3577 27.0323 29.1302 27.3048L28.3627 26.664C28.5762 26.4083 28.784 26.142 28.98 25.8725ZM27.6937 27.4123L28.4167 28.1033C28.1707 28.3608 27.9132 28.6128 27.652 28.852L26.977 28.1143C27.2217 27.89 27.463 27.6538 27.6937 27.4123ZM26.2147 28.7668L26.8392 29.5478C26.5617 29.7698 26.273 29.985 25.9812 30.1875L25.411 29.3663C25.6842 29.1765 25.9545 28.9748 26.2147 28.7668ZM24.5685 29.9103L25.0825 30.768C24.778 30.9503 24.463 31.1248 24.1467 31.2865L23.692 30.3958C23.9882 30.2445 24.2832 30.081 24.5685 29.9103ZM22.7847 30.8205L23.1775 31.74C22.8502 31.8798 22.5147 32.0098 22.18 32.1265L21.851 31.1823C22.1642 31.073 22.4785 30.9513 22.7847 30.8205ZM20.8935 31.4798L21.1575 32.4443C20.8147 32.538 20.4642 32.6213 20.1155 32.6913L19.9182 31.7108C20.2445 31.6455 20.5727 31.5675 20.8935 31.4798ZM18.9292 31.875L19.0595 32.8665C18.717 32.9115 18.368 32.9453 18.0222 32.9675L17.9585 31.9695C18.282 31.9488 18.6087 31.917 18.9292 31.875Z" fill="#0B0B0B"/>
<path d="M17.471 31.9928L17.502 32.9923C17.3352 32.9975 17.1672 33 16.999 33V32C17.157 32 17.3145 31.9978 17.471 31.9928Z" fill="#0B0B0B"/>
</svg>
