<svg width="72" height="72" viewBox="0 0 72 72" fill="none" xmlns="http://www.w3.org/2000/svg">
<g clip-path="url(#clip0_799_25875)">
<path d="M56 35.9857C56 36.6125 55.7509 37.1797 55.3325 37.5878C54.9238 38.0057 54.3559 38.2544 53.7181 38.2544H38.2819V53.6782C38.2819 54.9319 37.2556 55.9569 36 55.9569C35.3722 55.9569 34.8041 55.6982 34.3856 55.29C33.9769 54.8722 33.7181 54.305 33.7181 53.6778V38.2544H18.2819C17.0163 38.2544 16 37.2394 16 35.9857C16 35.3588 16.2491 34.7816 16.6675 34.3735C17.0762 33.9653 17.6441 33.7066 18.2819 33.7066H33.7178V18.2832C33.7178 17.0294 34.7441 16.0144 35.9997 16.0144C36.6275 16.0144 37.1956 16.2732 37.6141 16.681C38.0228 17.0891 38.2816 17.6563 38.2816 18.2832V33.7069H53.7175C54.9834 33.7069 56 34.7219 56 35.9857Z" fill="#D7E5FF" fill-opacity="0.6"/>
</g>
<rect x="0.5" y="0.5" width="71" height="71" rx="3.5" stroke="#5774CD" stroke-dasharray="2 2"/>
<defs>
<clipPath id="clip0_799_25875">
<rect width="40" height="40" fill="white" transform="translate(16 16)"/>
</clipPath>
</defs>
</svg>
