<svg width="34" height="34" fill="none" xmlns="http://www.w3.org/2000/svg"><path d="M15.333 10.819v3.553h9.897v5.256h-9.897v3.554L8.524 17l6.809-6.181Zm8.897 4.553h-9.897v-2.295L10.012 17l4.321 3.923v-2.295h9.897v-3.256Z" fill="#FFB22C"/><path d="M24.23 15.372h-9.897v-2.295L10.012 17l4.321 3.923v-2.295h9.897v-3.256Z" fill="#FFB22C"/><path d="M15.333 10.819v3.553h9.897v5.256h-9.897v3.554L8.524 17l6.809-6.181Zm8.897 4.553h-9.897v-2.295L10.012 17l4.321 3.923v-2.295h9.897v-3.256Z" stroke="#FFB22C" stroke-width=".5"/><path d="M24.23 15.372h-9.897v-2.295L10.012 17l4.321 3.923v-2.295h9.897v-3.256Z" stroke="#FFB22C" stroke-width=".5"/><path d="M17 1c8.742 0 15.855 7.178 15.855 16h-1C31.855 8.73 25.191 2 17 2S2.143 8.729 2.143 17s6.664 15 14.856 15v1C8.256 33 1.143 25.823 1.143 17c0-8.822 7.113-16 15.856-16Z" fill="#0B0B0B" stroke="#0B0B0B"/><path d="M31.855 17h1c0 .169-.002.337-.007.504l-1-.033c.006-.156.008-.313.008-.47ZM31.788 18.45l.995.095c-.033.353-.08.71-.136 1.06l-.987-.16c.053-.329.096-.663.128-.995Zm-.322 1.98.974.225c-.08.346-.173.694-.276 1.034l-.957-.29c.097-.319.184-.645.26-.97Zm-.582 1.92.935.353a16.04 16.04 0 0 1-.412.989l-.91-.416c.139-.303.269-.615.387-.927Zm-.834 1.825.88.476c-.17.312-.351.623-.54.924l-.847-.533c.178-.283.349-.574.507-.867Zm-1.07 1.697.808.589c-.209.287-.43.571-.658.844l-.767-.641c.213-.256.421-.522.617-.792Zm-1.286 1.54.723.691c-.246.258-.504.51-.765.749l-.675-.738c.245-.224.486-.46.717-.702Zm-1.48 1.355.625.78c-.277.223-.566.438-.858.64l-.57-.82c.273-.19.543-.392.804-.6ZM24.57 29.91l.514.858c-.305.182-.62.357-.936.518l-.455-.89c.296-.152.591-.315.877-.486Zm-1.784.91.392.92c-.327.14-.662.27-.997.387l-.329-.945c.313-.109.628-.23.934-.361Zm-1.892.66.264.964c-.342.094-.693.177-1.041.247l-.198-.98c.326-.066.655-.143.976-.231Zm-1.964.395.13.992c-.342.044-.691.078-1.037.1l-.063-.997c.323-.021.65-.053.97-.095ZM17.471 31.993l.031 1c-.167.005-.335.007-.503.007v-1c.158 0 .316-.002.472-.007Z" fill="#0B0B0B"/></svg>