<svg width="132" height="132" fill="none" xmlns="http://www.w3.org/2000/svg"><g filter="url('#filter0_d_660_4955')"><rect x="16" y="12" width="100" height="100" rx="50" fill="#F2FAFD" shape-rendering="crispEdges"/><g clip-path="url('#clip0_660_4955')"><path d="M96 61.978c0 .94-.374 1.791-1.001 2.404-.613.626-1.465 1-2.422 1H69.423v23.135A3.43 3.43 0 0 1 66 91.935a3.465 3.465 0 0 1-2.422-1 3.454 3.454 0 0 1-1-2.418V65.382H39.422A3.407 3.407 0 0 1 36 61.978c0-.94.374-1.806 1.001-2.418.613-.612 1.465-1 2.422-1h23.154V35.425c0-1.881 1.54-3.403 3.422-3.403.942 0 1.794.388 2.422 1a3.393 3.393 0 0 1 1.001 2.403V58.56h23.154A3.41 3.41 0 0 1 96 61.978Z" fill="#FFB22C"/></g></g><defs><clipPath id="clip0_660_4955"><path fill="#fff" transform="translate(36 32)" d="M0 0h60v60H0z"/></clipPath><filter id="filter0_d_660_4955" x="0" y="0" width="132" height="132" filterUnits="userSpaceOnUse" color-interpolation-filters="sRGB"><feFlood flood-opacity="0" result="BackgroundImageFix"/><feColorMatrix in="SourceAlpha" values="0 0 0 0 0 0 0 0 0 0 0 0 0 0 0 0 0 0 127 0" result="hardAlpha"/><feOffset dy="4"/><feGaussianBlur stdDeviation="8"/><feComposite in2="hardAlpha" operator="out"/><feColorMatrix values="0 0 0 0 0.341176 0 0 0 0 0.454902 0 0 0 0 0.803922 0 0 0 0.2 0"/><feBlend in2="BackgroundImageFix" result="effect1_dropShadow_660_4955"/><feBlend in="SourceGraphic" in2="effect1_dropShadow_660_4955" result="shape"/></filter></defs></svg>