<svg><symbol id="filter" viewBox="0 0 112 112" fill="none" xmlns="http://www.w3.org/2000/svg"><g filter="url('#filter0_d_585_4999')"><rect x="16" y="12" width="80" height="80" rx="40" fill="#F2FAFD" shape-rendering="crispEdges"/><path d="M50.375 59.5c-7.237 0-13.125-5.888-13.125-13.125S43.138 33.25 50.375 33.25 63.5 39.138 63.5 46.375 57.612 59.5 50.375 59.5Zm0-23.75c-5.859 0-10.625 4.766-10.625 10.625S44.516 57 50.375 57 61 52.234 61 46.375 56.234 35.75 50.375 35.75Z" fill="#000"/><path d="M43.5 47.625a1.25 1.25 0 0 1-1.25-1.25c0-4.48 3.645-8.125 8.125-8.125a1.25 1.25 0 1 1 0 2.5 5.632 5.632 0 0 0-5.625 5.625c0 .691-.56 1.25-1.25 1.25Z" fill="#FFB22C"/><path d="M71 70.962c-.96 0-1.92-.365-2.65-1.096L56.615 58.131a1.249 1.249 0 1 1 1.767-1.767l11.735 11.735a1.249 1.249 0 0 0 1.768 0l.215-.215a1.25 1.25 0 0 0 0-1.768L60.365 54.381a1.249 1.249 0 1 1 1.767-1.767l11.735 11.735a3.753 3.753 0 0 1 0 5.302l-.215.215a3.735 3.735 0 0 1-2.651 1.096Z" fill="#0B0B0B"/></g><defs><filter id="filter0_d_585_4999" x="0" y="0" width="112" height="112" filterUnits="userSpaceOnUse" color-interpolation-filters="sRGB"><feFlood flood-opacity="0" result="BackgroundImageFix"/><feColorMatrix in="SourceAlpha" values="0 0 0 0 0 0 0 0 0 0 0 0 0 0 0 0 0 0 127 0" result="hardAlpha"/><feOffset dy="4"/><feGaussianBlur stdDeviation="8"/><feComposite in2="hardAlpha" operator="out"/><feColorMatrix values="0 0 0 0 0.341176 0 0 0 0 0.454902 0 0 0 0 0.803922 0 0 0 0.2 0"/><feBlend in2="BackgroundImageFix" result="effect1_dropShadow_585_4999"/><feBlend in="SourceGraphic" in2="effect1_dropShadow_585_4999" result="shape"/></filter></defs></symbol><symbol id="filterXl" viewBox="0 0 132 132" fill="none" xmlns="http://www.w3.org/2000/svg"><g filter="url('#filter0_d_580_4308')"><rect x="16" y="12" width="100" height="100" rx="50" fill="#F2FAFD" shape-rendering="crispEdges"/><path d="M57.563 73.25c-10.857 0-19.688-8.831-19.688-19.688 0-10.856 8.831-19.687 19.688-19.687 10.856 0 19.687 8.831 19.687 19.688 0 10.856-8.831 19.687-19.688 19.687Zm0-35.625c-8.789 0-15.938 7.15-15.938 15.938S48.775 69.5 57.563 69.5 73.5 62.35 73.5 53.562s-7.15-15.937-15.938-15.937Z" fill="#000"/><path d="M47.25 55.438a1.874 1.874 0 0 1-1.875-1.876c0-6.72 5.468-12.187 12.188-12.187a1.874 1.874 0 1 1 0 3.75c-4.652 0-8.438 3.786-8.438 8.438 0 1.036-.84 1.874-1.875 1.874Z" fill="#FFB22C"/><path d="M88.5 90.444a5.602 5.602 0 0 1-3.977-1.645L66.921 71.197a1.873 1.873 0 0 1 0-2.651 1.873 1.873 0 0 1 2.651 0l17.603 17.602a1.873 1.873 0 0 0 2.65 0l.323-.322a1.876 1.876 0 0 0 0-2.652L72.546 65.572a1.873 1.873 0 0 1 0-2.651 1.873 1.873 0 0 1 2.651 0L92.8 80.523a5.629 5.629 0 0 1 0 7.954l-.323.322a5.602 5.602 0 0 1-3.977 1.645Z" fill="#0B0B0B"/></g><defs><filter id="filter0_d_580_4308" x="0" y="0" width="132" height="132" filterUnits="userSpaceOnUse" color-interpolation-filters="sRGB"><feFlood flood-opacity="0" result="BackgroundImageFix"/><feColorMatrix in="SourceAlpha" values="0 0 0 0 0 0 0 0 0 0 0 0 0 0 0 0 0 0 127 0" result="hardAlpha"/><feOffset dy="4"/><feGaussianBlur stdDeviation="8"/><feComposite in2="hardAlpha" operator="out"/><feColorMatrix values="0 0 0 0 0.341176 0 0 0 0 0.454902 0 0 0 0 0.803922 0 0 0 0.2 0"/><feBlend in2="BackgroundImageFix" result="effect1_dropShadow_580_4308"/><feBlend in="SourceGraphic" in2="effect1_dropShadow_580_4308" result="shape"/></filter></defs></symbol><symbol id="message" viewBox="0 0 112 112" fill="none" xmlns="http://www.w3.org/2000/svg"><g filter="url('#filter0_d_585_5004')"><rect x="16" y="12" width="80" height="80" rx="40" fill="#F2FAFD" shape-rendering="crispEdges"/><path d="M72.25 60.75a1.26 1.26 0 0 1-.465-.089c-2.286-.915-4.495-2.385-6.564-4.367a1.25 1.25 0 1 1 1.731-1.804 20.462 20.462 0 0 0 3.14 2.492 43.503 43.503 0 0 1-1.11-4.762 1.252 1.252 0 0 1 .392-1.139c1.855-1.681 2.876-3.795 2.876-5.956 0-5.17-5.608-9.375-12.5-9.375s-12.5 4.205-12.5 9.375c0 .153.005.303.015.453a1.25 1.25 0 0 1-1.166 1.328c-.696.02-1.284-.477-1.329-1.166a9.072 9.072 0 0 1-.02-.615c0-6.547 6.729-11.875 15-11.875s15 5.328 15 11.875c0 2.663-1.126 5.237-3.186 7.32.705 3.696 1.836 6.563 1.847 6.591.185.465.076.995-.279 1.348a1.248 1.248 0 0 1-.882.366Z" fill="#000"/><path d="M39.75 70.75a1.25 1.25 0 0 1-1.163-1.713c.013-.028 1.143-2.895 1.848-6.59-2.059-2.086-3.185-4.66-3.185-7.322 0-6.547 6.729-11.875 15-11.875s15 5.328 15 11.875S60.521 67 52.25 67c-1.847 0-3.653-.267-5.381-.795-2.096 2.029-4.331 3.526-6.655 4.455-.15.061-.308.09-.464.09Zm12.5-25c-6.892 0-12.5 4.205-12.5 9.375 0 2.16 1.021 4.275 2.876 5.956.317.288.465.716.392 1.139a43.324 43.324 0 0 1-1.11 4.764c1.28-.816 2.526-1.846 3.728-3.078a1.25 1.25 0 0 1 1.313-.305c1.685.597 3.468.899 5.301.899 6.892 0 12.5-4.205 12.5-9.375s-5.608-9.375-12.5-9.375Z" fill="#0B0B0B"/><path d="M43.5 56.375a1.25 1.25 0 0 1-1.25-1.25c0-3.32 4.019-6.875 10-6.875a1.25 1.25 0 1 1 0 2.5c-4.579 0-7.5 2.591-7.5 4.375 0 .691-.56 1.25-1.25 1.25Z" fill="#FFB22C"/></g><defs><filter id="filter0_d_585_5004" x="0" y="0" width="112" height="112" filterUnits="userSpaceOnUse" color-interpolation-filters="sRGB"><feFlood flood-opacity="0" result="BackgroundImageFix"/><feColorMatrix in="SourceAlpha" values="0 0 0 0 0 0 0 0 0 0 0 0 0 0 0 0 0 0 127 0" result="hardAlpha"/><feOffset dy="4"/><feGaussianBlur stdDeviation="8"/><feComposite in2="hardAlpha" operator="out"/><feColorMatrix values="0 0 0 0 0.341176 0 0 0 0 0.454902 0 0 0 0 0.803922 0 0 0 0.2 0"/><feBlend in2="BackgroundImageFix" result="effect1_dropShadow_585_5004"/><feBlend in="SourceGraphic" in2="effect1_dropShadow_585_5004" result="shape"/></filter></defs></symbol><symbol id="messageXl" viewBox="0 0 132 132" fill="none" xmlns="http://www.w3.org/2000/svg"><g filter="url('#filter0_d_580_4313')"><rect x="16" y="12" width="100" height="100" rx="50" fill="#F2FAFD" shape-rendering="crispEdges"/><path d="M90.375 75.125c-.234 0-.47-.043-.698-.133-3.429-1.373-6.742-3.578-9.845-6.551a1.875 1.875 0 1 1 2.597-2.706c1.526 1.463 3.101 2.713 4.71 3.739a65.226 65.226 0 0 1-1.665-7.144 1.877 1.877 0 0 1 .587-1.708c2.782-2.522 4.314-5.693 4.314-8.934 0-7.756-8.411-14.063-18.75-14.063s-18.75 6.307-18.75 14.063c0 .228.008.453.023.678a1.874 1.874 0 0 1-1.75 1.993c-1.044.03-1.926-.716-1.993-1.749-.02-.304-.03-.613-.03-.922 0-9.822 10.093-17.813 22.5-17.813s22.5 7.991 22.5 17.813c0 3.993-1.69 7.856-4.78 10.98 1.058 5.544 2.755 9.843 2.772 9.886a1.871 1.871 0 0 1-.418 2.022 1.87 1.87 0 0 1-1.324.549Z" fill="#000"/><path d="M41.625 90.125a1.875 1.875 0 0 1-1.744-2.569c.019-.043 1.714-4.342 2.772-9.887-3.089-3.127-4.778-6.988-4.778-10.981 0-9.822 10.093-17.813 22.5-17.813s22.5 7.991 22.5 17.813c0 9.82-10.093 17.812-22.5 17.812-2.771 0-5.479-.401-8.072-1.192-3.144 3.043-6.497 5.289-9.982 6.682a1.836 1.836 0 0 1-.696.135Zm18.75-37.5c-10.339 0-18.75 6.307-18.75 14.063 0 3.24 1.532 6.412 4.314 8.934.475.431.698 1.074.587 1.708a64.95 64.95 0 0 1-1.665 7.146c1.92-1.225 3.79-2.77 5.593-4.617a1.873 1.873 0 0 1 1.97-.457 23.773 23.773 0 0 0 7.951 1.348c10.339 0 18.75-6.308 18.75-14.063 0-7.755-8.411-14.062-18.75-14.062Z" fill="#0B0B0B"/><path d="M47.25 68.563a1.874 1.874 0 0 1-1.875-1.876c0-4.98 6.028-10.312 15-10.312a1.874 1.874 0 1 1 0 3.75c-6.868 0-11.25 3.887-11.25 6.563 0 1.036-.84 1.874-1.875 1.874Z" fill="#FFB22C"/></g><defs><filter id="filter0_d_580_4313" x="0" y="0" width="132" height="132" filterUnits="userSpaceOnUse" color-interpolation-filters="sRGB"><feFlood flood-opacity="0" result="BackgroundImageFix"/><feColorMatrix in="SourceAlpha" values="0 0 0 0 0 0 0 0 0 0 0 0 0 0 0 0 0 0 127 0" result="hardAlpha"/><feOffset dy="4"/><feGaussianBlur stdDeviation="8"/><feComposite in2="hardAlpha" operator="out"/><feColorMatrix values="0 0 0 0 0.341176 0 0 0 0 0.454902 0 0 0 0 0.803922 0 0 0 0.2 0"/><feBlend in2="BackgroundImageFix" result="effect1_dropShadow_580_4313"/><feBlend in="SourceGraphic" in2="effect1_dropShadow_580_4313" result="shape"/></filter></defs></symbol><symbol id="makeIt" viewBox="0 0 112 112" fill="none" xmlns="http://www.w3.org/2000/svg"><g filter="url('#filter0_d_585_5008')"><rect x="16" y="12" width="80" height="80" rx="40" fill="#F2FAFD" shape-rendering="crispEdges"/><path d="M73.5 45.75H66c-.691 0-1.25-.559-1.25-1.25v-6.25c0-2.758 2.243-5 5-5s5 2.242 5 5v6.25c0 .691-.559 1.25-1.25 1.25Zm-6.25-2.5h5v-5c0-1.379-1.121-2.5-2.5-2.5a2.502 2.502 0 0 0-2.5 2.5v5Z" fill="#000"/><path d="M66 70.75H38.5c-.691 0-1.25-.559-1.25-1.25V38.25c0-2.758 2.242-5 5-5h27.5a1.249 1.249 0 1 1 0 2.5 2.503 2.503 0 0 0-2.5 2.5V69.5c0 .691-.559 1.25-1.25 1.25Zm-26.25-2.5h25v-30c0-.91.244-1.764.671-2.5H42.25a2.502 2.502 0 0 0-2.5 2.5v30Z" fill="#0B0B0B"/><path d="M61 43.25H43.5a1.249 1.249 0 1 1 0-2.5H61a1.249 1.249 0 1 1 0 2.5ZM61 48.25H43.5a1.249 1.249 0 1 1 0-2.5H61a1.249 1.249 0 1 1 0 2.5ZM51 53.25h-7.5a1.249 1.249 0 1 1 0-2.5H51a1.249 1.249 0 1 1 0 2.5Z" fill="#FFB22C"/><path d="M71.625 70.75c-.474 0-.906-.267-1.119-.691l-1.875-3.75a1.254 1.254 0 0 1-.131-.559V50.125A3.128 3.128 0 0 1 71.625 47a3.128 3.128 0 0 1 3.125 3.125V65.75c0 .194-.045.386-.131.559l-1.875 3.75a1.251 1.251 0 0 1-1.119.691ZM71 65.455l.625 1.25.625-1.25v-15.33a.627.627 0 0 0-.625-.625.627.627 0 0 0-.625.625v15.33Z" fill="#0B0B0B"/></g><defs><filter id="filter0_d_585_5008" x="0" y="0" width="112" height="112" filterUnits="userSpaceOnUse" color-interpolation-filters="sRGB"><feFlood flood-opacity="0" result="BackgroundImageFix"/><feColorMatrix in="SourceAlpha" values="0 0 0 0 0 0 0 0 0 0 0 0 0 0 0 0 0 0 127 0" result="hardAlpha"/><feOffset dy="4"/><feGaussianBlur stdDeviation="8"/><feComposite in2="hardAlpha" operator="out"/><feColorMatrix values="0 0 0 0 0.341176 0 0 0 0 0.454902 0 0 0 0 0.803922 0 0 0 0.2 0"/><feBlend in2="BackgroundImageFix" result="effect1_dropShadow_585_5008"/><feBlend in="SourceGraphic" in2="effect1_dropShadow_585_5008" result="shape"/></filter></defs></symbol><symbol id="makeItXl" viewBox="0 0 132 132" fill="none" xmlns="http://www.w3.org/2000/svg"><g filter="url('#filter0_d_580_4319')"><rect x="16" y="12" width="100" height="100" rx="50" fill="#F2FAFD" shape-rendering="crispEdges"/><path d="M92.25 52.625H81a1.873 1.873 0 0 1-1.875-1.875v-9.375c0-4.136 3.364-7.5 7.5-7.5s7.5 3.364 7.5 7.5v9.375a1.873 1.873 0 0 1-1.875 1.875Zm-9.375-3.75h7.5v-7.5a3.754 3.754 0 0 0-3.75-3.75 3.754 3.754 0 0 0-3.75 3.75v7.5Z" fill="#000"/><path d="M81 90.125H39.75a1.873 1.873 0 0 1-1.875-1.875V41.375c0-4.136 3.364-7.5 7.5-7.5h41.25c1.037 0 1.875.838 1.875 1.875a1.873 1.873 0 0 1-1.875 1.875 3.754 3.754 0 0 0-3.75 3.75V88.25A1.873 1.873 0 0 1 81 90.125Zm-39.375-3.75h37.5v-45c0-1.365.366-2.646 1.007-3.75H45.375a3.754 3.754 0 0 0-3.75 3.75v45Z" fill="#0B0B0B"/><path d="M73.5 48.875H47.25A1.873 1.873 0 0 1 45.375 47c0-1.037.838-1.875 1.875-1.875H73.5c1.037 0 1.875.838 1.875 1.875a1.873 1.873 0 0 1-1.875 1.875ZM73.5 56.375H47.25a1.873 1.873 0 0 1-1.875-1.875c0-1.037.838-1.875 1.875-1.875H73.5c1.037 0 1.875.838 1.875 1.875a1.873 1.873 0 0 1-1.875 1.875ZM58.5 63.875H47.25A1.873 1.873 0 0 1 45.375 62c0-1.037.838-1.875 1.875-1.875H58.5c1.037 0 1.875.838 1.875 1.875a1.873 1.873 0 0 1-1.875 1.875Z" fill="#FFB22C"/><path d="M89.438 90.125c-.711 0-1.36-.401-1.679-1.037l-2.812-5.625a1.879 1.879 0 0 1-.197-.838V59.187a4.692 4.692 0 0 1 4.688-4.687 4.692 4.692 0 0 1 4.687 4.688v23.437c0 .29-.067.58-.197.838l-2.812 5.625a1.877 1.877 0 0 1-1.678 1.037Zm-.938-7.942.938 1.874.937-1.874V59.187a.94.94 0 0 0-.938-.937.94.94 0 0 0-.937.938v22.995Z" fill="#0B0B0B"/></g><defs><filter id="filter0_d_580_4319" x="0" y="0" width="132" height="132" filterUnits="userSpaceOnUse" color-interpolation-filters="sRGB"><feFlood flood-opacity="0" result="BackgroundImageFix"/><feColorMatrix in="SourceAlpha" values="0 0 0 0 0 0 0 0 0 0 0 0 0 0 0 0 0 0 127 0" result="hardAlpha"/><feOffset dy="4"/><feGaussianBlur stdDeviation="8"/><feComposite in2="hardAlpha" operator="out"/><feColorMatrix values="0 0 0 0 0.341176 0 0 0 0 0.454902 0 0 0 0 0.803922 0 0 0 0.2 0"/><feBlend in2="BackgroundImageFix" result="effect1_dropShadow_580_4319"/><feBlend in="SourceGraphic" in2="effect1_dropShadow_580_4319" result="shape"/></filter></defs></symbol><symbol id="postxl" viewBox="0 0 48 48" fill="none" xmlns="http://www.w3.org/2000/svg"><path d="M42 46.5H6A4.505 4.505 0 0 1 1.5 42V19.5a1.5 1.5 0 0 1 3 0V42c0 .827.673 1.5 1.5 1.5h36c.827 0 1.5-.673 1.5-1.5V19.5a1.5 1.5 0 0 1 3 0V42c0 2.481-2.019 4.5-4.5 4.5Z" fill="#0B0B0B"/><path d="M3 21a1.5 1.5 0 0 1-.93-2.679l5.842-4.59a1.5 1.5 0 1 1 1.855 2.36l-5.84 4.59c-.275.214-.602.319-.928.319ZM16.421 10.455a1.5 1.5 0 0 1-.928-2.679l7.579-5.955a1.5 1.5 0 1 1 1.854 2.358l-7.58 5.955a1.49 1.49 0 0 1-.925.321Z" fill="#0B0B0B"/><path d="M31.29 10.23c-.323 0-.65-.105-.925-.32l-7.291-5.73a1.498 1.498 0 0 1-.252-2.107 1.498 1.498 0 0 1 2.106-.252l7.291 5.73a1.5 1.5 0 0 1-.928 2.679ZM45 21c-.324 0-.65-.105-.925-.321l-5.939-4.666a1.498 1.498 0 0 1-.252-2.107 1.496 1.496 0 0 1 2.106-.252l5.939 4.667A1.5 1.5 0 0 1 45 21ZM7.502 42a1.5 1.5 0 0 1-.91-2.694l12.089-9.193a1.5 1.5 0 1 1 1.816 2.386l-12.09 9.194a1.48 1.48 0 0 1-.905.307ZM40.498 42c-.317 0-.635-.099-.906-.306L27.502 32.5a1.5 1.5 0 1 1 1.816-2.386l12.09 9.193a1.5 1.5 0 0 1-.91 2.693Z" fill="#0B0B0B"/><path d="M24 36.021c-.305 0-.611-.093-.872-.28l-21-15.021a1.5 1.5 0 0 1 1.744-2.441l20.129 14.397 20.127-14.397a1.5 1.5 0 1 1 1.744 2.44l-21 15.021c-.26.188-.565.281-.871.281Z" fill="#0B0B0B"/><path d="M39 24.227a1.5 1.5 0 0 1-1.5-1.5V10.5h-27v12.227a1.5 1.5 0 0 1-3 0V10.5c0-1.655 1.345-3 3-3h27c1.654 0 3 1.345 3 3v12.227a1.5 1.5 0 0 1-1.5 1.5Z" fill="#0B0B0B"/><path d="M33 16.5H15a1.5 1.5 0 0 1 0-3h18a1.5 1.5 0 0 1 0 3ZM33 22.5H15a1.5 1.5 0 0 1 0-3h18a1.5 1.5 0 0 1 0 3Z" fill="#FFB22C"/></symbol><symbol id="post" viewBox="0 0 24 24" fill="none" xmlns="http://www.w3.org/2000/svg"><g clip-path="url('#clip0_585_4994')"><path d="M21 23.25H3C1.76 23.25.75 22.24.75 21V9.75a.75.75 0 0 1 1.5 0V21c0 .413.337.75.75.75h18c.413 0 .75-.337.75-.75V9.75a.75.75 0 0 1 1.5 0V21c0 1.24-1.01 2.25-2.25 2.25Z" fill="#0B0B0B"/><path d="M1.5 10.5a.75.75 0 0 1-.464-1.34l2.92-2.294a.75.75 0 1 1 .929 1.18l-2.92 2.294a.75.75 0 0 1-.464.16ZM8.21 5.228a.75.75 0 0 1-.465-1.34l3.79-2.977a.75.75 0 1 1 .927 1.179l-3.79 2.977a.745.745 0 0 1-.462.16Z" fill="#0B0B0B"/><path d="M15.645 5.115a.747.747 0 0 1-.462-.16L11.537 2.09a.749.749 0 1 1 .927-1.18l3.646 2.866a.749.749 0 0 1-.465 1.339ZM22.5 10.5a.746.746 0 0 1-.463-.16l-2.969-2.334a.749.749 0 1 1 .927-1.179l2.97 2.334a.749.749 0 0 1-.465 1.34ZM3.75 21a.749.749 0 0 1-.454-1.347l6.045-4.597a.75.75 0 1 1 .908 1.194l-6.045 4.596A.74.74 0 0 1 3.75 21ZM20.249 21a.744.744 0 0 1-.453-.153L13.75 16.25a.75.75 0 1 1 .908-1.193l6.045 4.597A.75.75 0 0 1 20.25 21Z" fill="#0B0B0B"/><path d="M12 18.01a.747.747 0 0 1-.436-.14l-10.5-7.51a.75.75 0 0 1 .872-1.22L12 16.338 22.064 9.14a.75.75 0 1 1 .872 1.22l-10.5 7.51a.743.743 0 0 1-.436.14Z" fill="#0B0B0B"/><path d="M19.5 12.113a.75.75 0 0 1-.75-.75V5.25H5.25v6.113a.75.75 0 0 1-1.5 0V5.25c0-.827.673-1.5 1.5-1.5h13.5c.827 0 1.5.673 1.5 1.5v6.113a.75.75 0 0 1-.75.75Z" fill="#0B0B0B"/><path d="M16.5 8.25h-9a.75.75 0 0 1 0-1.5h9a.75.75 0 0 1 0 1.5ZM16.5 11.25h-9a.75.75 0 0 1 0-1.5h9a.75.75 0 0 1 0 1.5Z" fill="#FFB22C"/></g><defs><clipPath id="clip0_585_4994"><path fill="#fff" d="M0 0h24v24H0z"/></clipPath></defs></symbol></svg>