<svg aria-hidden="true" style="width:0;height:0;position:absolute;overflow:hidden" xmlns="http://www.w3.org/2000/svg"><defs><symbol id="contecnt_block" viewBox="0 0 126 97" fill="none"><path d="M62.81 97c28.722 0 52.006-21.714 52.006-48.5S91.532 0 62.809 0C34.087 0 10.803 21.714 10.803 48.5S34.087 97 62.81 97Z" fill="#FFF4EA"/><path d="m98.114 34.442-6.764 1.809.862 2.812c-.741.217-1.314.398-1.673.534-4.055 1.511-5.88 1.7-7.502 1.89-.141.017-.272.029-.402.04h-.086l-.367.021H81.766l-.334-.011h-.03c-.108 0-.21-.017-.316-.028h-.033a5.73 5.73 0 0 1-.334-.045h-.02a12.16 12.16 0 0 1-.724-.133 30.77 30.77 0 0 1-1.005-.235c-1.623-.377-6.085-.756-8.313-.756-1.508 0-3.015-.687-4.706-1.02h-.053l-.105-.019-.347-.056-.09-.011a8.007 8.007 0 0 0-.418-.047h-.105c-.13 0-.264-.017-.397-.021h-.61c-.156 0-.312.023-.47.044-.607.078-1.2.236-1.759.469-2.238-.888-4.246-.307-5.653.276-1.824.757-5.276 1.701-9.328 3.215-4.053 1.513-7.907 3.025-10.552 2.458-1.663-.359-3.492-.34-6.558-.18v-3.36l-7.034.023.015 3.716v-3.013l-11.336.037a45.96 45.96 0 0 0-.347 5.65c-.01 6.94 1.584 13.803 4.673 20.118l7.115-.023v.703l7.035-.024-.018-4.482a38.558 38.558 0 0 1 1.616-.056c1.309-.026 2.61.2 3.821.663a.934.934 0 0 0-.068.094s-.11.36-.216.895a9.337 9.337 0 0 0-.188 1.75c0 1.324-.204 3.972 2.635 4.159a5.036 5.036 0 0 0 3.292-1.031l.19-.148.063-.053.123-.106.07-.066.106-.098.07-.07.096-.099a.915.915 0 0 1 .065-.072l.088-.101.058-.07.086-.108.05-.068.083-.117.037-.056a3.103 3.103 0 0 0 .227-.403c.017-.04.035-.078.05-.118.015-.04.017-.042.027-.065.01-.024.026-.068.036-.103l.02-.061.532.262c-1.123 1.427-2.535 3.416-1.316 5.403 1.603 2.617 5.381 3.013 7.23 1.38-.2.715-.412 1.596.676 2.781 1.216 1.324 3.447 1.891 5.987.8v.027c0 .07.02.141.033.209v.021a3.15 3.15 0 0 0 .616 1.359c.535.677 1.401 1.207 2.675 1.354 3.073.359 4.146-.642 5.972-2.837l.314.143.03.011c.293.124.595.23.902.32l.078.02c.13.035.264.068.402.099l.108.023c.347.07.699.116 1.053.14h.153c.14 0 .287.012.435.012h.173c.201 0 .405 0 .62-.023.113-.007.224-.02.335-.038l.08-.011c.1-.017.196-.038.287-.061h.012c.093-.026.178-.054.264-.085l.063-.025c.075-.03.148-.064.216-.099h.017c.07-.037.137-.079.201-.124l.05-.033a2.018 2.018 0 0 0 .325-.288l.037-.04c.038-.047.076-.091.108-.138a1.623 1.623 0 0 0 .12-.185l.026-.045c.025-.049.05-.096.073-.145a4.679 4.679 0 0 0 .078-.195.24.24 0 0 0 0-.04c.017-.048.033-.1.048-.15a.062.062 0 0 1 0-.02 2.27 2.27 0 0 0 .037-.166.155.155 0 0 0 0-.031c0-.052.018-.1.026-.15 0-.054.012-.105.015-.155v-.517a.41.41 0 0 0 0-.059s2.23.567 3.854-.567c1.062-.745 1.165-1.893 1.113-2.596a.628.628 0 0 0 0-.073v-.044c0-.054 0-.103-.018-.148v-.04c0-.035 0-.065-.015-.096v-.032c0-.036-.013-.066-.018-.092v-.082h.025c.317.082.638.146.963.192l.196.026h.037l.189.021h.03l.233.019.227.012H78.51l.252-.012h.068l.183-.019h.078c.068 0 .133-.016.201-.028h.053c.083-.014.163-.03.251-.05l.066-.013.183-.05.08-.023.179-.058.065-.026c.08-.028.158-.061.236-.096l.043-.021c.063-.029.123-.061.186-.094l.07-.042a2.507 2.507 0 0 0 .224-.14 2.611 2.611 0 0 0 .367-.3l.047-.05c.033-.035.066-.068.096-.103l.048-.063a1.595 1.595 0 0 0 .123-.169c.022-.035.045-.068.065-.103l.043-.073.055-.103.035-.077c.015-.035.033-.07.048-.108l.03-.08.038-.11a.767.767 0 0 0 .025-.082c0-.035.022-.072.032-.11.01-.037.013-.056.018-.084.005-.028.018-.075.025-.115l.015-.084c0-.038.013-.078.018-.115.005-.038 0-.056 0-.085v-1.012l-.015-.103-.015-.093c0-.03-.013-.061-.018-.092a2.198 2.198 0 0 0-.02-.103c-.008-.035 0-.042 0-.06a4.604 4.604 0 0 0-.384-1.074c-.023-.044-.048-.087-.07-.126-.023-.04-.048-.078-.071-.115l-.075-.106a1.088 1.088 0 0 0-.123-.143c.71-.426 1.379-.867 2.01-1.314 1.65 1.061 4.235.644 5.38-.78.8-.991.378-2.146-.35-3.196.921-.766 1.803-1.483 2.685-2.109l.332-.234c.108-.073.213-.143.321-.211 2.146-1.387 3.932-1.963 6.545-2.523l1.236 4.013 6.761-1.809-1.023-3.32.814 2.643 7.919-2.108c1.819-8.786 1.007-17.868-2.346-26.251l-13.24 3.542-.197-.677Zm-33.762 15.48c0-.018 0-.035.013-.054a.507.507 0 0 0-.013.054Z" fill="#CCC6C6" style="mix-blend-mode:multiply"/><path d="M88.511 48.877c-1.42.937-2.23 2.458-3.851 3.592-1.62 1.134-6.693 1.703-6.693 1.703s-3.852-2.457-6.894-3.781c-3.043-1.324-5.276-2.27-6.281-2.648-.603-.234-.503-.651-.297-.96-.25.267-.655.58-1.123.58-.467 0-.58-.11-.618-.213-.188.328-1.324.675-2.01 1.16-.48.335-.753.143-.884-.072.135.324.16.678.073 1.016a54.308 54.308 0 0 1-3.447 6.999c-1.028 1.675-3.108 1.76-4.653 1.172-6.59 14.407 12.966 19.446 12.966 19.446s9.125-7.186 14.396-9.84c5.271-2.655 8.517-6.24 11.763-8.51 3.246-2.27 5.475-2.648 10.341-3.592 4.867-.944 14.6-.757 24.333-2.647l-.141-13.768c-2.44.644-35.613 9.452-36.98 10.363Z" fill="#F4926C"/><path d="m88.107 49.255-.068-.024c-1.146.937-1.947 2.238-3.38 3.238-1.622 1.136-6.692 1.703-6.692 1.703s-3.852-2.457-6.894-3.781c-3.043-1.324-5.276-2.27-6.281-2.648-.603-.234-.503-.651-.297-.96-.25.267-.655.58-1.123.58-.467 0-.58-.11-.618-.212-.188.328-1.324.674-2.01 1.16-.48.334-.753.142-.884-.073.135.324.16.679.073 1.017a54.307 54.307 0 0 1-3.447 6.998c-1.028 1.675-3.108 1.76-4.653 1.172-6.59 14.407 12.966 19.447 12.966 19.447s9.125-7.186 14.396-9.841c5.271-2.655 8.517-6.24 11.763-8.51.224-.157.445-.304.663-.445 1.711-4.084-.133-7.467-3.514-8.821Z" fill="#FC9E7A"/><path d="M0 42.448c8.921.937 15.006.937 22.712.567 7.705-.37 10.745-.757 13.38-.19 2.636.567 6.49-.937 10.553-2.458 4.062-1.52 7.504-2.457 9.328-3.214 1.824-.757 4.663-1.514 7.706.937 3.042 2.45 6.28 5.672 6.28 5.672l-5.893 3.224s6.693 3.025 9.936 4.92c3.244 1.896 5.276 3.028 7.301 3.984 2.025.956 4.46 1.89 5.678 3.214 1.219 1.324 2.84 3.215 1.62 4.728-1.218 1.514-4.054 1.891-5.677.567-1.623-1.323-3.852-1.89-5.068-2.647-1.216-.757-6.085-2.648-6.693-3.025-.608-.377-1.42 0-.404.757 1.015.756 3.243 1.89 5.678 3.781 2.434 1.891 3.65 2.27 4.46 2.458.808.188 2.027 3.594.203 5.106-1.824 1.51-5.07.569-5.07.569s.608 2.078-1.005 3.215c-1.613 1.136-3.854.567-3.854.567s.407 2.647-2.432 2.834c-2.84.188-4.462-.754-5.882-1.7-1.42-.947-20.275-9.283-23.315-11.179-3.04-1.895-4.665-3.215-8.316-3.215C27.576 61.92 0 64.198 0 64.198v-21.75Z" fill="#FECCA7"/><path d="M76.14 72a3.306 3.306 0 0 0-.1-.618c-2.432-1.893-9.733-6.62-10.552-6.999-.82-.38-1.824-.377.61 1.137 2.435 1.513 7.515 4.536 8.726 5.473.525.42.974.757 1.316 1.007ZM59.717 67.127c-1.005-.57-1.216-.38 1.216 1.324 1.759 1.22 7.266 5.276 10.233 7.462.03-.242.03-.486 0-.728l-.103-.118c-2.224-1.51-10.331-7.373-11.346-7.94Z" fill="#EDB28A"/><path d="M81.032 65.76c.608 2.309-1.598 4.879-4.005 5.82 1.106.16 2.895.219 4.083-.768 1.734-1.436.724-4.578-.078-5.051ZM76.04 71.382h.025l-.226-.164-.113.072c-.076 2.186-2.586 3.45-5.108 3.224l-.251.164.814.469s2.23.567 3.854-.567c1.623-1.134 1.005-3.198 1.005-3.198ZM84.225 57.223c2.093 1.54-.279 6.216-4.68 5.321 1.1.469 2.366 1.005 3.389 1.84 1.623 1.323 4.462.936 5.678-.568 1.216-1.504-.405-3.404-1.62-4.728-.657-.71-1.662-1.312-2.767-1.865Z" fill="#FCD6BE"/><path d="m71.173 58.71.046.026c-1.292-1.375-2.191-3.54-2.478-3.807-.407-.38.164 3.191 1.704 4.243-.465-.55.206-.787.728-.461Z" fill="#EDB28A"/><path d="M68.741 77.999c2.113-.141 2.427-1.64 2.453-2.402l-1.76-.958c.503 2.122-1.909 3.172-5.057 2.556 1.34.66 2.857.94 4.364.804Z" fill="#FCD6BE"/><path d="M125.519 27.793s-30.925 7.469-34.98 8.992c-4.055 1.523-5.872 1.692-7.502 1.874-1.63.183-2.435 0-4.055-.38-1.62-.379-6.085-.756-8.314-.756-2.228 0-4.462-1.511-7.3-1.134-2.84.377-4.664 2.465-6.086 3.601-1.422 1.136-5.477 3.025-6.28 4.349-.805 1.324-.204 3.971-.408 5.857-.203 1.886-1.216 3.972-.608 5.673.608 1.7 4.867 3.027 6.49.38a54.328 54.328 0 0 0 3.447-7c.203-.566-.204-1.323-.204-1.323s.204.937 1.005.38c.802-.558 2.231-.938 2.028-1.324 0 0-.204.377.608.377.811 0 1.42-.937 1.42-.937s-1.006.937 0 1.323c1.004.387 3.243 1.324 6.28 2.648 3.038 1.324 6.894 3.782 6.894 3.782s5.07-.567 6.693-1.704c1.623-1.136 2.432-2.645 3.852-3.592 1.42-.946 37.12-10.402 37.12-10.402l-.1-10.684ZM64.787 76.864c-2.028 2.458-3.043 3.594-6.281 3.215-3.239-.38-3.854-3.215-3.043-4.728l3.854-7.186s2.84-1.891 3.65 1.136c.812 3.027-.208 6.612-.208 6.612l2.028.951Z" fill="#FFA579"/><path d="m59.312 68.165-3.854 7.186a3.174 3.174 0 0 0-.285 1.86c.096.633.382 1.228.825 1.715 3.377 1.683 6.153-.738 6.761-3.006 0 0 1.005-3.594.204-6.619-.802-3.025-3.65-1.136-3.65-1.136Z" fill="#FCA886"/><path d="M55.16 77.096c-2.54 1.092-4.774.525-5.988-.799-1.213-1.323-.811-2.27-.608-3.025.204-.754 5.07-7.186 6.083-8.132 1.012-.947 2.638-1.514 4.462-.377 1.824 1.136.608 3.591.203 4.348-.404.757-4.153 7.985-4.153 7.985Z" fill="#F4A082"/><path d="M48.564 73.46c-1.824 1.703-5.678 1.324-7.298-1.324s1.42-5.295 2.228-6.617c.81-1.321 4.867-5.857 8.72-4.728 3.855 1.13 1.55 5.352 1.55 5.352l-5.2 7.317Z" fill="#FCA886"/><path d="M34.98 62.682c1.417-2.27 6.69 1.701 7.095 3.025.404 1.324-2.028 3.972-4.867 3.782-2.838-.19-2.635-2.835-2.635-4.16.02-.894.157-1.783.407-2.647Z" fill="#FFA579"/><path d="M42.075 65.707c-.405-1.324-5.678-5.295-7.095-3.025 0 0-.113.363-.219.898.13 1.651 1.281 3.45 3.055 3.45 1.447 0 1.874.357 2.683 1.428 1.134-.841 1.804-2.006 1.576-2.75Z" fill="#F4926C"/><path d="M64.686 46.513c.81-1.134.201-1.7-.203-2.837-.404-1.137 1.42-3.025 2.231-6.05a.884.884 0 0 0-.13-.703 1.005 1.005 0 0 0-.624-.414 7.85 7.85 0 0 0-2.582-.113c-2.84.38-4.663 2.458-6.083 3.594-1.42 1.137-5.477 3.025-6.28 4.349a2.684 2.684 0 0 0-.33.916c2.01-3.709 7.324-.066 9.15 2.962l.05.081-.022-.06c.138.215.404.407.884.072.694-.485 1.83-.832 2.01-1.16.038.104.176.214.618.214s.867-.314 1.123-.581l-.02.035c.063-.101.133-.192.209-.305Z" fill="#FC9E7A"/><path d="M86.677 44.716c.958 2.186.91 3.38 1.385 4.49.14-.116.286-.235.44-.329 1.419-.937 37.107-10.4 37.107-10.4l-.1-10.684s-30.915 7.469-34.97 8.992c-4.055 1.523-5.871 1.692-7.502 1.874a8.396 8.396 0 0 1-3.055-.152c6.906 1.483 4.879 2.05 6.695 6.209Z" fill="#F79779"/><path d="M57.893 72.516c0 1.134 2.028.937 2.028.937l2.027-2.835s-.811-.937-1.623-1.136c-.811-.2-1.216 0-1.216 0l-1.216 3.034ZM57.893 65.897c-1.148-.802-1.827-.938-1.827-.938s-2.635 2.46-1.62 3.784c1.015 1.324 3.244-.19 3.648-.756l.812-1.137s-.201-.386-1.013-.953ZM51.808 62.492a17.494 17.494 0 0 0-2.837-.567s-2.24 2.273-2.03 3.594c.211 1.322 2.867 2.796 4.271 1.406a28.105 28.105 0 0 0 2.623-3.1 4.93 4.93 0 0 0-2.027-1.333ZM37.817 67.03c-1.345 0-2.332-1.035-2.787-2.258-.206.6-.25 1.237.151 1.692.84.937 2.374 1.487 2.992.576a8.663 8.663 0 0 0-.356-.01ZM49.883 55.78c2.028.937 4.46-1.514 4.46-1.514s1.623-3.983-1.42-4.159c-3.042-.175-3.04 5.673-3.04 5.673Z" fill="#F7B69F"/><g opacity=".42" stroke="#AF6038" stroke-miterlimit="10" stroke-linecap="round"><path opacity=".44" d="M64.787 47.31c4.203-1.624 7.444-7.104 6.632-8.435M66.301 38.894c-.148 3.21-2.376 3.022-1.758 4.723.618 1.701.603 2.73-.103 3.538M84.59 46.626c-.405 3.779-7.36 6.628-7.36 6.628M58.757 45.59c.576.21 1.074.573 1.434 1.042.36.47.566 1.026.593 1.603M58.453 44.175c.724.079 1.4.382 1.916.862.517.48.846 1.108.933 1.783M73.96 38.071c2.728 1.378 1.507 6.858-3.35 9.504"/></g><path opacity=".39" d="M67.877 60.4c1.256 1.296-.563 1.76-3.346 1.914-2.784.155-3.638-2.783-1.822-3.024 2.837-.378 4.055-.05 5.168 1.11ZM71.264 53.655c.982.152.326-.764-1.31-2.29-1.635-1.525-4.27-.32-4.255.457.047 1.605 2.683 1.228 3.695 1.605a3.926 3.926 0 0 0 1.87.228Z" fill="#FFD9C0"/><path d="m98.113 31.631-6.761 1.81 8.037 26.124 6.762-1.81-8.038-26.124Z" fill="#fff"/><path d="m125.619 52.25-19.677 4.83-7.623-24.772 27.3-7.238v27.18Z" fill="#5774CD"/><path d="m22.597 66.485 7.034-.023-.101-27.178-7.035.023.102 27.178Z" fill="#fff"/><path d="m0 40.065 22.49-.054.101 25.773L0 65.897V40.065Z" fill="#FFB22C"/></symbol><symbol id="add" viewBox="0 0 84 53" fill="none"><rect y=".5" width="84" height="52" rx="10" fill="#FFB22C"/><g clip-path="url('#clip0_326_22009')"><path d="M52 26.493c0 .313-.124.597-.334.801a1.118 1.118 0 0 1-.807.333h-7.718v7.712a1.143 1.143 0 0 1-1.948.806 1.151 1.151 0 0 1-.334-.806v-7.712h-7.718a1.136 1.136 0 0 1-.807-1.94c.204-.204.488-.334.807-.334h7.718v-7.711c0-.627.513-1.135 1.14-1.135.315 0 .599.13.808.334.204.204.334.487.334.8v7.713h7.718c.633 0 1.141.507 1.141 1.139Z" fill="#fff"/></g><defs><clipPath id="clip0_326_22009"><path fill="#fff" transform="translate(32 16.5)" d="M0 0h20v20H0z"/></clipPath></defs></symbol><symbol id="appstore" viewBox="0 0 181 52" fill="none" xmlns="http://www.w3.org/2000/svg"><path d="M179.994 46.003c0 2.771-2.304 5.016-5.154 5.016H6.161C3.312 51.019 1 48.774 1 46.003v-40C1 3.233 3.312.981 6.161.981H174.84c2.851 0 5.154 2.252 5.154 5.022l.001 40Z" fill="#fff"/><path d="M174.296 1.042c3.104 0 5.63 2.449 5.63 5.458v39c0 3.01-2.526 5.458-5.63 5.458H6.699c-3.104 0-5.63-2.448-5.63-5.458v-39c0-3.01 2.526-5.458 5.63-5.458h167.597Zm0-1.042H6.699C3.013 0-.005 2.927-.005 6.5v39c0 3.573 3.018 6.5 6.704 6.5h167.597c3.686 0 6.704-2.927 6.704-6.5v-39c0-3.573-3.018-6.5-6.704-6.5Z" fill="#A6A6A6"/><path d="M40.39 25.72c-.039-4.19 3.538-6.23 3.702-6.324-2.026-2.864-5.166-3.255-6.27-3.287-2.637-.269-5.195 1.53-6.539 1.53-1.37 0-3.439-1.503-5.669-1.46-2.869.044-5.553 1.654-7.025 4.155-3.038 5.1-.772 12.595 2.138 16.717 1.456 2.02 3.158 4.273 5.385 4.194 2.179-.087 2.993-1.347 5.622-1.347 2.605 0 3.37 1.347 5.64 1.296 2.339-.036 3.811-2.028 5.216-4.065 1.683-2.314 2.359-4.593 2.385-4.71-.055-.018-4.54-1.678-4.585-6.7ZM36.1 13.398c1.171-1.421 1.973-3.354 1.75-5.316-1.696.073-3.817 1.138-5.038 2.527-1.08 1.225-2.046 3.232-1.797 5.12 1.905.137 3.862-.932 5.084-2.331ZM65.76 13.012c0 1.53-.473 2.682-1.419 3.455-.875.714-2.12 1.071-3.73 1.071-.8 0-1.484-.033-2.056-.101v-8.36a15.634 15.634 0 0 1 2.42-.177c1.535 0 2.692.324 3.472.971.875.732 1.313 1.778 1.313 3.14Zm-1.482.037c0-.991-.27-1.752-.812-2.282s-1.333-.795-2.374-.795c-.443 0-.82.029-1.132.089v6.355c.173.026.49.038.95.038 1.074 0 1.904-.29 2.489-.87.584-.58.88-1.424.88-2.534ZM73.616 14.348c0 .943-.278 1.715-.833 2.32-.582.623-1.353.934-2.316.934-.927 0-1.666-.298-2.217-.896-.55-.596-.825-1.349-.825-2.256 0-.95.283-1.728.852-2.333.568-.604 1.332-.907 2.295-.907.928 0 1.673.298 2.238.894.536.58.806 1.329.806 2.244Zm-1.458.044c0-.565-.126-1.05-.377-1.454-.294-.49-.714-.734-1.26-.734-.564 0-.993.245-1.288.734-.252.404-.377.897-.377 1.48 0 .565.126 1.05.377 1.454.304.489.728.733 1.275.733.536 0 .957-.248 1.26-.746.26-.412.39-.901.39-1.467ZM84.149 11.335l-1.978 6.128h-1.287l-.82-2.66a19.425 19.425 0 0 1-.507-1.98h-.026a14.133 14.133 0 0 1-.508 1.98l-.87 2.66H76.85l-1.86-6.128h1.444l.715 2.913c.173.69.315 1.346.429 1.967h.025c.105-.512.278-1.165.522-1.954l.897-2.925h1.145l.86 2.863c.207.698.376 1.37.506 2.018h.04c.094-.631.238-1.303.428-2.018l.767-2.863h1.38v-.001ZM91.433 17.463h-1.405v-3.51c0-1.082-.424-1.622-1.274-1.622-.417 0-.753.148-1.015.446-.258.297-.39.648-.39 1.05v3.635h-1.405v-4.376c0-.538-.017-1.122-.05-1.754h1.234l.066.958h.038c.164-.297.408-.543.728-.74.381-.228.808-.344 1.274-.344.59 0 1.081.185 1.471.555.486.454.728 1.131.728 2.03v3.672ZM95.308 17.463h-1.404v-8.94h1.404v8.94ZM103.581 14.348c0 .943-.278 1.715-.833 2.32-.582.623-1.354.934-2.315.934-.93 0-1.668-.298-2.218-.896-.55-.596-.824-1.349-.824-2.256 0-.95.282-1.728.851-2.333.569-.604 1.333-.907 2.294-.907.929 0 1.673.298 2.239.894.537.58.806 1.329.806 2.244Zm-1.459.044c0-.565-.126-1.05-.377-1.454-.293-.49-.714-.734-1.259-.734-.565 0-.994.245-1.288.734-.252.404-.377.897-.377 1.48 0 .565.126 1.05.377 1.454.304.489.728.733 1.275.733.536 0 .956-.248 1.259-.746.262-.412.39-.901.39-1.467ZM110.381 17.463h-1.261l-.105-.706h-.039c-.432.563-1.047.845-1.846.845-.597 0-1.08-.186-1.443-.555-.33-.335-.495-.753-.495-1.248 0-.749.322-1.32.97-1.715.646-.395 1.555-.589 2.726-.58v-.114c0-.807-.438-1.21-1.313-1.21-.624 0-1.173.152-1.648.454l-.285-.895c.587-.352 1.312-.529 2.168-.529 1.651 0 2.48.845 2.48 2.535v2.257c0 .612.031 1.1.091 1.461Zm-1.459-2.106v-.945c-1.55-.026-2.324.386-2.324 1.235 0 .32.088.559.269.719.181.16.412.239.686.239.309 0 .597-.095.86-.283.264-.19.426-.43.487-.726.014-.066.022-.147.022-.239ZM118.366 17.463h-1.247l-.066-.984h-.039c-.398.749-1.077 1.123-2.03 1.123-.761 0-1.396-.29-1.898-.87-.503-.58-.754-1.332-.754-2.256 0-.992.272-1.796.819-2.41.53-.571 1.179-.857 1.951-.857.849 0 1.443.277 1.781.832h.026V8.523h1.407v7.289c0 .597.016 1.147.05 1.651Zm-1.457-2.584v-1.022c0-.177-.013-.32-.038-.43a1.549 1.549 0 0 0-.509-.825 1.404 1.404 0 0 0-.939-.334c-.525 0-.935.202-1.237.606-.299.404-.45.92-.45 1.55 0 .607.143 1.098.432 1.476.304.403.714.605 1.228.605.461 0 .83-.168 1.11-.505.271-.31.403-.685.403-1.121ZM130.383 14.348c0 .943-.277 1.715-.832 2.32-.582.623-1.352.934-2.316.934-.926 0-1.665-.298-2.218-.896-.549-.596-.824-1.349-.824-2.256 0-.95.283-1.728.851-2.333.569-.604 1.333-.907 2.297-.907.927 0 1.673.298 2.236.894.537.58.806 1.329.806 2.244Zm-1.456.044c0-.565-.126-1.05-.377-1.454-.296-.49-.714-.734-1.261-.734-.563 0-.992.245-1.289.734-.252.404-.377.897-.377 1.48 0 .565.127 1.05.377 1.454.305.489.728.733 1.275.733.537 0 .959-.248 1.262-.746.259-.412.39-.901.39-1.467ZM137.938 17.463h-1.404v-3.51c0-1.082-.423-1.622-1.275-1.622-.417 0-.753.148-1.013.446-.26.297-.391.648-.391 1.05v3.635h-1.406v-4.376c0-.538-.016-1.122-.05-1.754h1.234l.066.958h.039c.164-.297.408-.543.728-.74a2.435 2.435 0 0 1 1.275-.344c.588 0 1.079.185 1.469.555.487.454.728 1.131.728 2.03v3.672ZM147.395 12.355h-1.547v2.977c0 .757.274 1.135.819 1.135.252 0 .461-.02.626-.063l.036 1.033c-.277.101-.642.152-1.091.152-.555 0-.987-.164-1.3-.491-.313-.328-.469-.88-.469-1.653v-3.09h-.924v-1.02h.924v-1.123l1.377-.403v1.525h1.547v1.021h.002ZM154.833 17.463h-1.406v-3.484c0-1.098-.424-1.648-1.272-1.648-.652 0-1.097.318-1.341.955a1.648 1.648 0 0 0-.066.49v3.686h-1.404v-8.94h1.404v3.694h.027c.442-.672 1.077-1.007 1.898-1.007.582 0 1.064.184 1.446.555.476.461.714 1.148.714 2.055v3.644ZM162.507 14.109c0 .244-.019.45-.052.617h-4.214c.018.606.219 1.068.61 1.387.356.287.816.43 1.379.43.624 0 1.192-.097 1.704-.29l.22.946c-.599.252-1.304.378-2.121.378-.979 0-1.75-.28-2.307-.838-.561-.56-.838-1.31-.838-2.25 0-.925.258-1.694.78-2.308.544-.655 1.28-.983 2.21-.983.909 0 1.599.328 2.066.983.377.52.563 1.164.563 1.928Zm-1.341-.352a1.792 1.792 0 0 0-.272-1.047c-.244-.378-.615-.568-1.118-.568-.459 0-.833.185-1.118.555a2.016 2.016 0 0 0-.417 1.06h2.925ZM71.921 40.955h-3.045l-1.668-5.081h-5.797l-1.59 5.081h-2.964l5.744-17.3h3.548l5.772 17.3Zm-5.216-7.213-1.508-4.518c-.16-.462-.459-1.548-.9-3.26h-.053c-.176.737-.459 1.824-.848 3.26l-1.481 4.518h4.79ZM86.692 34.565c0 2.121-.59 3.798-1.773 5.03-1.06 1.095-2.375 1.643-3.945 1.643-1.695 0-2.912-.59-3.654-1.771h-.053v6.572h-2.859V32.587c0-1.333-.036-2.702-.106-4.106h2.514l.16 1.977h.053c.954-1.49 2.4-2.233 4.342-2.233 1.518 0 2.785.58 3.798 1.744 1.017 1.165 1.523 2.696 1.523 4.596Zm-2.912.101c0-1.214-.281-2.215-.847-3.003-.618-.822-1.448-1.232-2.489-1.232a3.03 3.03 0 0 0-1.918.68 3.14 3.14 0 0 0-1.125 1.784 3.526 3.526 0 0 0-.133.845v2.08c0 .908.287 1.674.86 2.299.575.625 1.32.937 2.237.937 1.077 0 1.915-.403 2.514-1.206.6-.805.901-1.866.901-3.184ZM101.491 34.565c0 2.121-.591 3.798-1.775 5.03-1.058 1.095-2.373 1.643-3.944 1.643-1.694 0-2.912-.59-3.652-1.771h-.053v6.572h-2.859V32.587c0-1.333-.036-2.702-.106-4.106h2.514l.16 1.977h.053c.952-1.49 2.399-2.233 4.342-2.233 1.516 0 2.783.58 3.8 1.744 1.012 1.165 1.52 2.696 1.52 4.596Zm-2.912.101c0-1.214-.283-2.215-.849-3.003-.618-.822-1.445-1.232-2.487-1.232-.707 0-1.346.229-1.92.68a3.138 3.138 0 0 0-1.124 1.784c-.087.344-.132.624-.132.845v2.08c0 .908.286 1.674.858 2.299.574.624 1.319.937 2.239.937 1.076 0 1.914-.403 2.514-1.206.6-.805.9-1.866.9-3.184ZM118.036 36.104c0 1.471-.527 2.669-1.585 3.593-1.162 1.01-2.781 1.514-4.86 1.514-1.92 0-3.46-.358-4.625-1.077l.663-2.31c1.255.735 2.632 1.105 4.132 1.105 1.077 0 1.915-.237 2.517-.708.599-.47.898-1.102.898-1.89 0-.702-.247-1.293-.742-1.773-.492-.48-1.314-.926-2.461-1.338-3.124-1.13-4.685-2.784-4.685-4.96 0-1.423.547-2.589 1.643-3.496 1.091-.909 2.547-1.363 4.368-1.363 1.624 0 2.972.275 4.049.822l-.715 2.26c-1.005-.531-2.142-.796-3.415-.796-1.005 0-1.791.24-2.354.719-.476.427-.715.949-.715 1.566 0 .684.273 1.25.82 1.694.476.41 1.34.855 2.595 1.335 1.535.6 2.663 1.3 3.388 2.104.723.8 1.084 1.803 1.084 2.999ZM127.487 30.56h-3.15v6.057c0 1.54.555 2.31 1.667 2.31.511 0 .935-.043 1.27-.129l.079 2.105c-.563.204-1.304.307-2.223.307-1.129 0-2.011-.334-2.648-1.001-.634-.668-.953-1.789-.953-3.363v-6.288h-1.877v-2.08h1.877v-2.284l2.808-.822v3.106h3.15v2.082ZM141.704 34.615c0 1.918-.566 3.492-1.695 4.723-1.184 1.267-2.755 1.9-4.714 1.9-1.888 0-3.391-.608-4.512-1.822-1.121-1.214-1.681-2.747-1.681-4.594 0-1.933.576-3.517 1.733-4.748 1.155-1.232 2.713-1.848 4.671-1.848 1.888 0 3.407.607 4.554 1.822 1.097 1.18 1.644 2.702 1.644 4.567Zm-2.966.09c0-1.15-.254-2.137-.767-2.96-.599-.996-1.456-1.493-2.566-1.493-1.149 0-2.022.498-2.622 1.493-.513.824-.767 1.826-.767 3.012 0 1.15.254 2.137.767 2.959.618.995 1.482 1.492 2.596 1.492 1.091 0 1.948-.507 2.566-1.518.527-.839.793-1.836.793-2.985ZM150.995 30.918a5.12 5.12 0 0 0-.901-.076c-1.006 0-1.783.367-2.33 1.105-.476.65-.715 1.471-.715 2.463v6.546h-2.857l.027-8.547a65.78 65.78 0 0 0-.108-3.927h2.49l.105 2.387h.079c.302-.82.778-1.48 1.429-1.976a3.53 3.53 0 0 1 2.066-.668c.264 0 .503.018.715.05v2.643ZM163.779 34.128c0 .496-.033.915-.104 1.257h-8.576c.034 1.232.448 2.175 1.244 2.825.723.581 1.658.872 2.805.872 1.27 0 2.428-.196 3.47-.59l.448 1.924c-1.217.515-2.655.77-4.313.77-1.995 0-3.561-.569-4.701-1.706-1.137-1.137-1.707-2.665-1.707-4.581 0-1.881.53-3.448 1.59-4.697 1.111-1.334 2.611-2 4.499-2 1.854 0 3.258.666 4.211 2 .755 1.06 1.134 2.37 1.134 3.926Zm-2.725-.719c.018-.822-.168-1.531-.555-2.13-.495-.772-1.255-1.156-2.278-1.156-.935 0-1.695.375-2.276 1.13-.476.599-.759 1.318-.846 2.155h5.955v.001Z" fill="#000"/></symbol><symbol id="googleplay" viewBox="0 0 179 52" fill="none" xmlns="http://www.w3.org/2000/svg"><path d="M172.37 52H6.63C2.985 52 0 49.073 0 45.5v-39C0 2.927 2.985 0 6.63 0h165.74c3.645 0 6.63 2.927 6.63 6.5v39c0 3.573-2.985 6.5-6.63 6.5Z" fill="#fff"/><path d="M172.37 1.042c3.07 0 5.568 2.449 5.568 5.458v39c0 3.01-2.498 5.458-5.568 5.458H6.63c-3.07 0-5.568-2.448-5.568-5.458v-39c0-3.01 2.498-5.458 5.568-5.458h165.74Zm0-1.042H6.63C2.985 0 0 2.927 0 6.5v39C0 49.073 2.985 52 6.63 52h165.74c3.645 0 6.63-2.927 6.63-6.5v-39c0-3.573-2.985-6.5-6.63-6.5Z" fill="#A6A6A6"/><path d="M13.836 9.8c-.39.4-.615 1.023-.615 1.829v28.75c0 .805.226 1.427.615 1.827l.096.088L30.364 26.19v-.38L13.932 9.706l-.096.094Z" fill="url('#paint0_linear_749_7837')"/><path d="m35.835 31.56-5.471-5.37v-.38l5.478-5.371.122.07 6.487 3.619c1.852 1.027 1.852 2.717 0 3.75l-6.487 3.613-.13.07Z" fill="url('#paint1_linear_749_7837')"/><path d="m35.964 31.49-5.6-5.49-16.528 16.206c.615.634 1.618.71 2.758.076l19.37-10.791Z" fill="url('#paint2_linear_749_7837')"/><path d="M35.964 20.51 16.594 9.717c-1.14-.628-2.143-.551-2.758.082L30.364 26l5.6-5.49Z" fill="url('#paint3_linear_749_7837')"/><path d="M62.872 13.317c0 1.086-.331 1.955-.984 2.603-.751.77-1.729 1.156-2.927 1.156-1.145 0-2.123-.393-2.925-1.169-.804-.786-1.205-1.751-1.205-2.907 0-1.155.4-2.12 1.204-2.9.803-.782 1.78-1.175 2.926-1.175.57 0 1.114.115 1.632.33.517.216.938.508 1.243.87l-.692.685c-.532-.616-1.257-.92-2.183-.92a3.07 3.07 0 0 0-2.175.863c-.608.578-.913 1.328-.913 2.247 0 .92.305 1.676.913 2.254.615.57 1.34.863 2.175.863.886 0 1.632-.292 2.22-.87.389-.381.609-.908.667-1.58h-2.887v-.94h3.852c.046.203.06.4.06.59ZM68.983 10.06h-3.618v2.47h3.262v.94h-3.262v2.47h3.618v.957h-4.642V9.104h4.642v.957ZM73.296 16.897H72.27v-6.836h-2.219v-.957h5.465v.957h-2.221v6.836ZM79.471 16.897V9.104h1.025v7.793H79.47ZM85.027 16.897H84.01v-6.836h-2.228v-.957h5.471v.957h-2.227v6.836ZM97.6 15.894c-.784.789-1.755 1.182-2.914 1.182-1.165 0-2.136-.393-2.92-1.182-.782-.786-1.172-1.751-1.172-2.894 0-1.142.39-2.107 1.172-2.894.784-.788 1.755-1.181 2.92-1.181 1.152 0 2.123.393 2.907 1.188.79.793 1.179 1.751 1.179 2.887 0 1.143-.39 2.108-1.172 2.894Zm-5.076-.653c.59.584 1.307.876 2.162.876.849 0 1.573-.292 2.157-.876.588-.583.886-1.332.886-2.24 0-.91-.298-1.658-.886-2.242-.584-.583-1.308-.875-2.157-.875-.855 0-1.573.292-2.163.875-.588.584-.886 1.333-.886 2.241 0 .909.298 1.658.886 2.241ZM100.208 16.897V9.104h1.244l3.865 6.06h.044l-.044-1.498V9.104h1.022v7.793h-1.067l-4.048-6.36h-.044l.044 1.504v4.856h-1.016Z" fill="#000" stroke="#000" stroke-width=".16" stroke-miterlimit="10"/><path d="M90.342 28.278c-3.114 0-5.658 2.324-5.658 5.53 0 3.18 2.544 5.528 5.658 5.528 3.12 0 5.665-2.348 5.665-5.528 0-3.206-2.544-5.53-5.665-5.53Zm0 8.88c-1.709 0-3.179-1.382-3.179-3.35 0-1.994 1.47-3.352 3.179-3.352 1.709 0 3.186 1.358 3.186 3.352 0 1.968-1.477 3.35-3.186 3.35Zm-12.346-8.88c-3.121 0-5.658 2.324-5.658 5.53 0 3.18 2.537 5.528 5.658 5.528 3.12 0 5.658-2.348 5.658-5.528 0-3.206-2.539-5.53-5.658-5.53Zm0 8.88c-1.71 0-3.186-1.382-3.186-3.35 0-1.994 1.475-3.352 3.186-3.352 1.709 0 3.179 1.358 3.179 3.352 0 1.968-1.47 3.35-3.18 3.35Zm-14.691-7.185v2.35h5.723c-.168 1.313-.615 2.278-1.301 2.95-.836.813-2.137 1.715-4.422 1.715-3.522 0-6.28-2.787-6.28-6.24 0-3.453 2.758-6.24 6.28-6.24 1.904 0 3.29.73 4.312 1.676l1.69-1.656c-1.431-1.34-3.334-2.368-6.002-2.368-4.83 0-8.889 3.853-8.889 8.588 0 4.735 4.059 8.588 8.889 8.588 2.61 0 4.57-.838 6.112-2.411 1.58-1.549 2.072-3.726 2.072-5.484 0-.546-.046-1.049-.13-1.468h-8.054Zm60.074 1.822c-.466-1.237-1.903-3.517-4.83-3.517-2.9 0-5.315 2.241-5.315 5.53 0 3.097 2.39 5.528 5.594 5.528 2.59 0 4.085-1.548 4.7-2.45l-1.922-1.256c-.642.92-1.515 1.529-2.778 1.529-1.255 0-2.155-.564-2.732-1.675l7.543-3.06-.26-.63Zm-7.69 1.84a3.06 3.06 0 0 1 2.945-3.223c.984 0 1.82.483 2.098 1.173l-5.043 2.05ZM109.558 39h2.479V22.75h-2.479V39Zm-4.061-9.49h-.083c-.556-.647-1.619-1.232-2.965-1.232-2.824 0-5.406 2.431-5.406 5.548 0 3.099 2.582 5.51 5.406 5.51 1.346 0 2.409-.59 2.965-1.256h.083v.793c0 2.114-1.152 3.25-3.01 3.25-1.514 0-2.454-1.072-2.842-1.974l-2.156.882c.621 1.466 2.267 3.27 4.998 3.27 2.908 0 5.36-1.677 5.36-5.758v-9.928h-2.35v.895Zm-2.836 7.649c-1.708 0-3.139-1.402-3.139-3.333 0-1.948 1.431-3.37 3.139-3.37 1.684 0 3.012 1.422 3.012 3.37 0 1.93-1.328 3.333-3.012 3.333Zm32.327-14.409h-5.931V39h2.473v-6.157h3.458c2.746 0 5.439-1.949 5.439-5.047s-2.7-5.046-5.439-5.046Zm.064 7.832h-3.522V25.01h3.522a2.847 2.847 0 0 1 2.901 2.786 2.864 2.864 0 0 1-2.901 2.787Zm15.286-2.335c-1.786 0-3.644.774-4.408 2.488l2.194.902c.472-.902 1.341-1.194 2.259-1.194 1.283 0 2.584.755 2.604 2.09v.17c-.448-.253-1.406-.629-2.584-.629-2.363 0-4.772 1.276-4.772 3.657 0 2.177 1.936 3.58 4.112 3.58 1.664 0 2.583-.737 3.159-1.593h.085v1.256h2.388v-6.233c0-2.882-2.194-4.494-5.037-4.494Zm-.298 8.905c-.809 0-1.936-.393-1.936-1.376 0-1.258 1.406-1.74 2.622-1.74 1.089 0 1.6.235 2.261.546-.194 1.504-1.515 2.57-2.947 2.57Zm14.037-8.549-2.843 7.045h-.084l-2.939-7.045h-2.667l4.416 9.844-2.52 5.478h2.584l6.804-15.322h-2.751ZM141.786 39h2.48V22.75h-2.48V39Z" fill="#000"/><defs><linearGradient id="paint0_linear_749_7837" x1="28.905" y1="40.678" x2="7.092" y2="18.43" gradientUnits="userSpaceOnUse"><stop stop-color="#00A0FF"/><stop offset=".007" stop-color="#00A1FF"/><stop offset=".26" stop-color="#00BEFF"/><stop offset=".512" stop-color="#00D2FF"/><stop offset=".76" stop-color="#00DFFF"/><stop offset="1" stop-color="#00E3FF"/></linearGradient><linearGradient id="paint1_linear_749_7837" x1="44.862" y1="25.998" x2="12.779" y2="25.998" gradientUnits="userSpaceOnUse"><stop stop-color="#FFE000"/><stop offset=".409" stop-color="#FFBD00"/><stop offset=".775" stop-color="orange"/><stop offset="1" stop-color="#FF9C00"/></linearGradient><linearGradient id="paint2_linear_749_7837" x1="32.919" y1="23.015" x2="3.339" y2="-7.155" gradientUnits="userSpaceOnUse"><stop stop-color="#FF3A44"/><stop offset="1" stop-color="#C31162"/></linearGradient><linearGradient id="paint3_linear_749_7837" x1="9.676" y1="51.771" x2="22.884" y2="38.299" gradientUnits="userSpaceOnUse"><stop stop-color="#32A071"/><stop offset=".069" stop-color="#2DA771"/><stop offset=".476" stop-color="#15CF74"/><stop offset=".801" stop-color="#06E775"/><stop offset="1" stop-color="#00F076"/></linearGradient></defs></symbol><symbol id="logo" viewBox="0 0 111 40" fill="none" xmlns="http://www.w3.org/2000/svg"><path d="M16.088 34.577c-4.554 0-8.994.002-13.435-.002-1.876-.001-2.608-.72-2.61-2.577C.04 24.171.04 16.344.044 8.517c.001-1.937.712-2.64 2.66-2.64 9.37-.003 18.74-.002 28.11 0 1.955 0 2.67.703 2.67 2.634.004 7.827.004 15.654 0 23.481 0 1.855-.737 2.582-2.606 2.583-4.892.004-9.784.002-14.79.002ZM6.094 9.765c-.28.193-.8.379-.806.58-.06 2.094-.036 4.19-.036 6.331.387.02.644.044.9.044 5.198.002 10.396-.004 15.594.006.833.002 1.565-.123 1.575-1.15.01-1.042-.733-1.15-1.563-1.148-4.293.011-8.587.005-12.881.005h-1.26v-2.109c.111-.061.175-.127.238-.127 4.97-.006 9.941-.032 14.91.01 1.248.011 2.44 1.105 2.794 2.304.706 2.39-.928 4.505-3.556 4.515-5.16.018-10.32-.01-15.48-.017H5.322V30.57h6.915v-4.614c1.631 0 3.133-.037 4.63.03.315.015.713.35.9.646.685 1.08 1.247 2.239 1.963 3.294.241.355.799.681 1.222.696 2.107.07 4.217.035 6.327.026.232-.001.464-.081.798-.144-1.069-1.83-2.083-3.545-3.075-5.272-1.07-1.864-1.116-1.894-3.51-1.48l2.472 4.419c-2.453.262-2.453.262-3.61-1.734-.378-.65-.804-1.279-1.124-1.957-.315-.669-.75-.911-1.499-.895-2.221.05-4.444.014-6.666.021-.356.001-.712.047-1.172.08v4.52H7.55c0-1.928.053-3.803-.022-5.673-.039-.967.298-1.194 1.215-1.182 4.293.053 8.587.038 12.88.05 2.288.006 4.235-.722 5.51-2.716 1.217-1.905 1.27-3.92.189-5.894-1.11-2.025-2.913-3.006-5.197-3.018-5.272-.026-10.546-.009-16.032-.009Z" fill="#FFB22C"/><path d="M61.099 23.446c-.891-.927-1.708-1.9-2.503-2.891-.042-.053.103-.365.151-.363.197.01.455.035.572.163.328.358.598.769 1.023 1.335.059-.43.124-.691.126-.953.008-2.033-.006-4.066.008-6.099.008-1.328.576-2.02 1.602-2.008 1.023.012 1.59.697 1.596 2.034.015 3.915.005 7.83.005 11.746 0 .89-.214 1.66-1.181 1.953-.93.281-1.484-.262-1.971-.939a6648.55 6648.55 0 0 0-5.149-7.136c-.23-.32-.47-.635-.877-1.183 0 2.531.006 4.772-.006 7.013-.002.409-.01.839-.131 1.221-.247.772-.896 1.292-1.625 1.042-.56-.192-1.31-.861-1.348-1.366-.157-2.059-.082-4.136-.06-6.207.002-.194.235-.385.36-.578.127.193.352.38.361.579.04.864.019 1.731.019 2.597 0 1.016-.074 2.041.038 3.045.045.406.444 1.03.773 1.095.711.139.772-.511.771-1.069 0-2.635-.007-5.27.006-7.906.002-.384.097-.767.194-1.482.475.522.762.783.986 1.091 2.077 2.86 4.128 5.74 6.23 8.582.273.368.796.55 1.203.819.195-.476.554-.949.56-1.426.046-3.764.026-7.53.026-11.294 0-.113.044-.257-.008-.334-.261-.381-.548-.745-.825-1.116-.243.362-.686.717-.697 1.085-.065 2.257-.024 4.517-.038 6.776a14.6 14.6 0 0 1-.191 2.174ZM90.843 19.76c-.245.097-.442.127-.64.158-.014-.194-.11-.44-.026-.574.36-.572.752-1.127 1.177-1.652.14-.174.415-.239.628-.353.092.224.258.448.263.674.025 1.317.012 2.635.012 3.953 0 1.544-.047 3.091.037 4.63.019.35.494.674.76 1.01.264-.338.756-.673.76-1.014.054-4.103.048-8.208.012-12.313-.003-.337-.303-.92-.523-.95-.345-.045-.871.184-1.091.473-1.257 1.642-2.442 3.339-3.658 5.012-.235.323-.497.627-.851 1.07-.455-.587-.824-1.04-1.167-1.512-1.085-1.49-2.133-3.008-3.26-4.466-.25-.323-.764-.443-1.156-.656-.195.407-.516.802-.557 1.223-.087.896-.014 1.806-.034 2.71-.008.347-.092.693-.142 1.04l-.343.055c-.107-.288-.296-.572-.306-.862-.037-1.091-.14-2.205.034-3.268.099-.602.569-1.332 1.086-1.63.7-.402 1.442-.022 1.94.676 1.265 1.768 2.542 3.527 3.897 5.405 1.244-1.713 2.445-3.334 3.608-4.984.552-.782 1.137-1.474 2.207-1.135 1.055.335 1.186 1.213 1.181 2.185-.02 3.916-.003 7.832-.011 11.749-.003 1.255-.635 2.025-1.622 2.036-.983.01-1.592-.742-1.628-2.026-.011-.414 0-.829-.001-1.243-.003-1.883-.005-3.766-.01-5.649 0-.068-.04-.137-.098-.326-.172.195-.301.34-.478.553ZM47.63 21.608c-.907.17-1.746.332-2.59.38-1.006.055-2.017.013-3.083.013v3.23c1.648 0 3.255-.012 4.862.01.443.005.929.016 1.318.193.998.454 1.166 1.809.371 2.556-.649.61-2.838.667-3.707-.182.57-.06 1.141-.108 1.709-.183.64-.085 1.647.327 1.65-.789.001-1.084-.977-.807-1.644-.816-1.76-.024-3.522-.008-5.336-.008V21.22h4.272c.339 0 .724.1 1.005-.028.352-.16.619-.509.923-.776-.3-.268-.589-.749-.904-.768a41.987 41.987 0 0 0-4.287-.026c-.855.036-1.126-.257-1.08-1.098.064-1.193.016-2.391.016-3.547h2.721l.048.443-1.939.282v3.086c1.409 0 2.836-.09 4.242.04.622.058 1.438.417 1.732.902.248.41-.13 1.198-.298 1.879ZM104.724 21.996c-1.557.003-3.018.003-4.52.003v3.237h5.267c.949.001 1.674.407 1.727 1.388.026.48-.26 1.094-.606 1.454-.553.578-2.674.518-3.533-.257.522-.064 1.045-.116 1.565-.195.674-.102 1.774.368 1.796-.756.023-1.212-1.112-.829-1.828-.846-1.687-.04-3.376-.013-5.128-.013v-4.79h4.788c.607 0 1.32.076 1.352-.786.033-.888-.686-.829-1.294-.83-1.355-.005-2.71-.024-4.064.007-.63.014-.876-.207-.858-.85.035-1.24.01-2.48.01-3.779h2.687l.05.445-1.922.262v3.098c1.461 0 2.914-.015 4.366.005 1.113.015 1.878.626 1.86 1.543-.019 1.012-.585 1.586-1.715 1.66ZM67.699 13.108c-.37.366-.657.696-.944 1.026.384.232.748.612 1.156.665.813.106 1.654.077 2.477.02.792-.055 1.04.23 1.03 1.023-.037 3.31-.016 6.62-.016 9.93 0 .3-.09.645.026.892.164.35.48.629.732.938.282-.321.795-.632.81-.964.08-1.84.038-3.685.039-5.528 0-.263-.043-.537.017-.786.043-.172.23-.309.352-.462.126.147.363.293.364.44.016 2.294.05 4.59-.031 6.88-.029.813-.754 1.36-1.49 1.206-.582-.122-1.185-.677-1.534-1.203-.248-.374-.108-1.019-.109-1.543-.006-3.305-.003-6.61-.003-10.044-1.056 0-2.062.04-3.062-.012-.901-.047-1.457-.554-1.529-1.488-.063-.82.324-1.39 1.097-1.627.444-.135.989-.204.618.637Z" fill="#000"/><path d="M83.883 27.261c-.396.898-1.01 1.343-1.911 1.117-.95-.238-1.26-.959-1.25-1.89.019-1.769-.019-3.539.025-5.307.009-.37.269-.733.413-1.1.123.351.344.7.351 1.053.039 1.844-.013 3.69.06 5.532.014.32.474.624.728.936.293-.315.624-.604.862-.957.105-.155.02-.44.02-.665v-8.93c.514.427.837.607 1.039.878.83 1.116 1.619 2.263 2.435 3.39.806 1.113 1.22 1.112 2.041.035.218-.285.465-.549.863-1.016.42 1.23-.353 1.76-.871 2.212-.7.612-1.578.53-2.217-.194-.57-.645-1.028-1.388-1.54-2.085-.235-.319-.48-.63-.72-.945l-.311.052c0 2.599 0 5.197-.017 7.884ZM44.56 12.406c1.017.001 1.921-.009 2.825.006.994.017 1.534.584 1.63 1.526.09.87-.657 1.62-1.629 1.648-.77.022-1.544-.058-2.317-.092l-.028-.424c.247-.078.49-.203.74-.223.487-.038 1.018.098 1.456-.054.374-.13.643-.56.958-.858-.316-.258-.617-.712-.952-.74-1.16-.093-2.332-.04-3.5-.04-.979 0-1.959.029-2.937-.008-.974-.036-1.378.399-1.321 1.356.035.6.044 1.209-.015 1.806-.022.23-.266.437-.41.655-.12-.198-.338-.393-.347-.597-.04-.826-.073-1.661.003-2.483.089-.96.683-1.47 1.665-1.475 1.356-.005 2.712-.002 4.18-.003ZM73.017 16.72v-1.876c1.09 0 2.061.012 3.032-.005.657-.01 1.531.142 1.558-.825.028-.991-.846-.859-1.507-.862-1.915-.01-3.831 0-5.746-.007-.355-.001-.709-.044-1.062-.068l-.082-.323c.238-.114.474-.325.713-.327 2.329-.024 4.658-.033 6.986 0 .926.013 1.44.592 1.53 1.489.084.838-.59 1.609-1.486 1.659-1.01.056-2.026.013-3.273.013v2.903l-.523.024c-.047-.563-.093-1.126-.14-1.795ZM106.401 15.395c-1.098.226-2.114.428-3.06-.071l.009-.48c.634 0 1.269.007 1.903-.003.593-.01 1.284-.12 1.162-.845-.057-.338-.755-.793-1.178-.81-2.101-.083-4.207-.029-6.312-.041-.854-.005-1.236.395-1.219 1.24.017.85.004 1.701.004 2.627-.318-.07-.576-.101-.576-.133-.004-1.214-.104-2.45.106-3.63.064-.358.983-.778 1.525-.8a72.745 72.745 0 0 1 6.648.007c.593.03 1.367.473 1.684.967.435.677.119 1.45-.696 1.972ZM38.69 26.973c-.005-3.098-.005-6.099-.005-9.099l.561-.05c.089.372.25.743.254 1.116.023 2.44.044 4.88-.004 7.317-.02 1.024.349 1.45 1.379 1.365.67-.056 1.351-.036 2.025 0 .327.018.649.15.973.23l.023.307c-.238.1-.473.277-.714.285-.937.034-1.876.032-2.813.009-.903-.023-1.458-.505-1.678-1.48ZM57.592 17.93c.21.533.369 1.002.528 1.47-.37-.306-.814-.555-1.096-.927-1.11-1.465-2.146-2.985-3.262-4.444-.237-.309-.697-.447-1.054-.664-.215.39-.585.77-.615 1.174-.084 1.157-.013 2.325-.048 3.488-.006.2-.227.395-.348.592-.126-.196-.355-.39-.36-.59-.03-1.35-.1-2.711.037-4.049.049-.473.556-1.068 1.01-1.292.691-.34 1.385-.043 1.861.62 1.096 1.521 2.197 3.04 3.347 4.623ZM101.882 27.742c-.099.27-.261.662-.446.674-.972.061-1.954.075-2.926.011-.888-.058-1.51-.566-1.522-1.496a452.993 452.993 0 0 1-.007-8.446c.001-.214.17-.427.26-.64l.297.014c.059.363.166.725.169 1.088.015 2.366.004 4.73.01 7.096.002 1.479.106 1.57 1.621 1.587.824.01 1.647.038 2.544.112Z" fill="#000"/><path d="M6.201 9.765c5.38 0 10.653-.018 15.926.009 2.284.012 4.087.993 5.196 3.018 1.082 1.974 1.028 3.989-.19 5.893-1.274 1.995-3.221 2.723-5.508 2.716-4.294-.011-8.588.004-12.881-.05-.917-.011-1.253.215-1.215 1.183.075 1.87.022 3.745.022 5.672h2.34v-4.52c.46-.032.817-.078 1.173-.08 2.222-.006 4.445.029 6.666-.02.749-.017 1.184.226 1.5.895.319.678.745 1.306 1.123 1.957 1.157 1.995 1.157 1.996 3.61 1.734l-2.472-4.42c2.395-.413 2.441-.383 3.51 1.48.992 1.728 2.006 3.442 3.075 5.273-.334.063-.566.142-.798.143-2.11.01-4.22.044-6.327-.026-.423-.014-.98-.34-1.222-.695-.716-1.056-1.278-2.215-1.962-3.294-.188-.297-.586-.632-.901-.646-1.497-.067-2.999-.03-4.63-.03v4.614H5.32V19.008h1.203c5.16.009 10.32.036 15.48.017 2.628-.009 4.261-2.124 3.556-4.515-.354-1.198-1.547-2.292-2.794-2.303-4.97-.042-9.94-.016-14.91-.01-.064 0-.127.065-.24.127v2.108h1.261c4.294 0 8.588.007 12.881-.004.83-.002 1.573.105 1.563 1.148-.01 1.026-.742 1.152-1.575 1.15-5.198-.01-10.396-.004-15.593-.006-.257 0-.514-.025-.901-.044 0-2.141-.023-4.238.037-6.332.005-.2.525-.386.912-.58Z" fill="#FEFAF8"/></symbol><symbol id="facebook" viewBox="0 0 40 40" fill="none" xmlns="http://www.w3.org/2000/svg"><g clip-path="url('#clip0_1835_5492')"><path d="M0 19.976C0 8.92 8.757-.004 19.604 0c10.828.004 19.53 8.964 19.526 20.1-.004 11-8.8 19.908-19.647 19.9C8.726 39.992 0 31.024 0 19.976ZM21.627 33.54V21.204h4.066l.61-4.824H21.57c.043-1.368.043-2.696.145-4.02.054-.696.536-1.168 1.209-1.3.56-.108 1.138-.116 1.71-.136.594-.02 1.193-.004 1.8-.004V6.548c-1.452-.028-2.884-.108-4.313-.068-2.676.076-4.781 1.984-5.212 4.684-.11.68-.137 1.376-.156 2.068-.024 1.036-.008 2.072-.008 3.16h-4.042v4.82h4.05V33.54h4.875Z" fill="#FFB22C"/></g><defs><clipPath id="clip0_1835_5492"><path fill="#fff" d="M0 0h39.13v40H0z"/></clipPath></defs></symbol><symbol id="instagram" viewBox="0 0 41 40" fill="none" xmlns="http://www.w3.org/2000/svg"><g clip-path="url('#clip0_1835_5495')" fill="#FFB22C"><path d="M21.402 40h-2.5c-.488-.06-.976-.112-1.464-.18-3.688-.524-7.004-1.932-9.884-4.3C3.73 32.376 1.35 28.368.462 23.488.326 22.748.254 22 .15 21.252v-2.5c.128-.872.22-1.752.384-2.62C2.178 7.544 9.494.896 18.186.1c4.272-.392 8.332.372 11.992 2.628 7.16 4.412 10.476 10.892 9.86 19.28-.292 3.968-1.836 7.512-4.36 10.588-3.14 3.828-7.16 6.208-12.04 7.096-.74.132-1.492.208-2.236.308ZM8.606 20.012c.072 1.9.076 3.816.232 5.72.244 2.912 2.272 5.092 5.152 5.5 1.448.208 2.932.232 4.4.232 2.484 0 4.976.012 7.452-.164 2.296-.164 4.044-1.34 5.056-3.468.44-.928.64-1.928.652-2.952.04-2.692.064-5.388.064-8.084 0-.844-.06-1.692-.144-2.532-.3-2.916-2.272-5.08-5.164-5.5-1.436-.208-2.904-.232-4.36-.232-2.496 0-5.004-.012-7.492.16-3.104.212-5.364 2.504-5.62 5.608-.156 1.896-.156 3.8-.228 5.712Z"/><path d="M10.702 19.98c.052-1.744.056-3.476.16-5.204.144-2.4 1.664-3.988 4.068-4.052 3.472-.092 6.948-.096 10.42 0 2.452.064 4.02 1.636 4.088 4.1.092 3.472.088 6.948-.004 10.416-.064 2.372-1.66 3.912-4.032 4.048-3.496.2-7 .2-10.496 0-2.372-.136-3.892-1.676-4.036-4.056-.112-1.748-.12-3.508-.168-5.252Zm9.456 5.916a5.883 5.883 0 0 0 5.888-5.876 5.887 5.887 0 0 0-5.9-5.908 5.883 5.883 0 0 0-5.888 5.876 5.887 5.887 0 0 0 5.9 5.908Zm6.108-10.652a1.366 1.366 0 0 0 1.392-1.372c0-.756-.604-1.364-1.356-1.368a1.361 1.361 0 0 0-1.388 1.376c0 .752.596 1.356 1.352 1.364Z"/><path d="M23.978 20.012a3.83 3.83 0 0 1-3.828 3.816 3.834 3.834 0 0 1-3.828-3.856 3.83 3.83 0 0 1 3.844-3.796 3.832 3.832 0 0 1 3.812 3.836Z"/></g><defs><clipPath id="clip0_1835_5495"><path fill="#fff" transform="translate(.13)" d="M0 0h40v40H0z"/></clipPath></defs></symbol><symbol id="twitter" viewBox="0 0 41 40" fill="none" xmlns="http://www.w3.org/2000/svg"><g clip-path="url('#clip0_1835_5500')"><path d="M40.13 18.832v2.344c-.087.684-.151 1.368-.267 2.048-.756 4.476-2.752 8.316-6.1 11.376-5.072 4.636-11.044 6.296-17.776 4.948-4.864-.972-8.808-3.54-11.796-7.488C.887 27.688-.381 22.736.319 17.312c.516-4.02 2.164-7.56 4.864-10.58 3.1-3.464 6.944-5.624 11.536-6.424C17.459.18 18.21.1 18.955 0h2.344c.112.024.224.06.34.068 3.02.22 5.856 1.06 8.452 2.608 5.328 3.172 8.596 7.808 9.728 13.92.14.736.212 1.488.312 2.236Zm-24.74 5.916c-.92.604-1.843 1.008-2.847 1.172-.664.108-1.344.104-2.016.18-.136.016-.32.136-.372.256-.036.084.092.272.188.372.108.104.264.164.4.236 3.048 1.552 6.212 1.78 9.448.72 4.936-1.612 7.788-6.376 7.9-10.912.012-.48.152-.82.508-1.152.5-.468.936-1.008 1.38-1.532.072-.088.06-.248.084-.376-.14-.008-.292-.056-.416-.02-.368.108-.728.252-1.056.364.3-.524.612-1.04.892-1.576.06-.112.012-.284.016-.424-.144.016-.3 0-.428.052-.58.224-1.152.468-1.724.708-.324.136-.584.06-.856-.16-1.004-.82-2.168-1.1-3.436-.908a4.181 4.181 0 0 0-3.564 4.492c.024.34-.092.456-.416.396-.088-.016-.18-.012-.272-.028-2.848-.436-5.228-1.728-7.108-3.92-.324-.376-.428-.364-.644.104-.76 1.636-.584 3.176.488 4.616.072.096.148.184.224.276-.296-.028-.528-.132-.764-.228-.324-.132-.428-.064-.428.288.004.972.304 1.856.936 2.584.4.46.9.836 1.32 1.22-.076 0-.22.012-.36-.004-.484-.048-.572.056-.384.504.604 1.452 1.692 2.332 3.308 2.7Z" fill="#FFB22C"/></g><defs><clipPath id="clip0_1835_5500"><path fill="#fff" transform="translate(.13)" d="M0 0h40v40H0z"/></clipPath></defs></symbol><symbol id="telegram" viewBox="0 0 41 40" fill="none" xmlns="http://www.w3.org/2000/svg"><g clip-path="url('#clip0_1835_5503')"><path d="M.13 21.247v-2.5c.088-.68.156-1.363.272-2.044.7-4.135 2.516-7.715 5.456-10.703C8.85 2.956 12.462 1.04 16.682.308 17.41.18 18.146.1 18.878 0h2.5c.372.048.744.1 1.116.144 4.612.56 8.604 2.456 11.82 5.784 5.004 5.18 6.78 11.38 5.324 18.423C37.802 33.255 29.594 39.911 20.502 40c-4.148.04-7.984-1.016-11.428-3.344-4.7-3.18-7.592-7.58-8.636-13.168-.136-.74-.208-1.492-.308-2.24Zm19.724 5.092c.108.072.196.128.276.188l4.496 3.312c1.06.78 1.792.496 2.068-.8l2.088-9.804c.388-1.82.776-3.635 1.152-5.455.112-.54.2-1.112-.288-1.528-.48-.408-.984-.16-1.472.028-4.752 1.832-9.504 3.668-14.26 5.504-1.612.623-3.228 1.24-4.832 1.876-.372.148-.812.343-.792.811.02.484.492.588.872.708 1.46.464 2.928.912 4.388 1.384.308.1.548.076.832-.104 3.592-2.28 7.196-4.54 10.796-6.807.176-.112.352-.236.548-.292.14-.04.308.024.464.044-.068.116-.116.248-.204.344-.12.136-.264.248-.4.372-2.812 2.54-5.62 5.08-8.44 7.615-.248.224-.372.448-.388.796-.036.936-.124 1.868-.192 2.804-.04.596-.076 1.188-.116 1.792.412.032.684-.16.932-.4a792.08 792.08 0 0 1 2.472-2.388Z" fill="#FFB22C"/></g><defs><clipPath id="clip0_1835_5503"><path fill="#fff" transform="translate(.13)" d="M0 0h40v40H0z"/></clipPath></defs></symbol><symbol id="filter-setting" viewBox="0 0 84 53" fill="none"><path d="M28.166 6.667h-4M18.833 6.667H4.167M9.5 16H4.167M29.5 16H14.833M28.166 25.333h-4M18.833 25.333H4.167" stroke="#000" stroke-width="3.333" stroke-linecap="round" stroke-linejoin="round"/><path d="M18.833 21.867V27.2M14.833 13.333v5.334M18.833 4v5.333" stroke="#FFB22C" stroke-width="3.333" stroke-linecap="round" stroke-linejoin="round"/></symbol><symbol id="burger" xmlns="http://www.w3.org/2000/svg" viewBox="0 0 32 32" fill="none"><path d="M21.376 8.62H3.328c-.248 0-.493.09-.678.26a.906.906 0 0 0-.298.667c0 .258.112.497.298.668.185.17.43.26.678.26h18.048c.248 0 .492-.09.678-.26a.906.906 0 0 0 .298-.668.906.906 0 0 0-.298-.668c-.185-.17-.43-.26-.678-.26ZM21.376 15.072H3.328c-.248 0-.493.09-.678.26a.906.906 0 0 0-.298.668c0 .258.112.497.298.668.185.17.43.26.678.26h18.048c.248 0 .492-.09.678-.26a.906.906 0 0 0 .298-.668.906.906 0 0 0-.298-.668c-.185-.17-.43-.26-.678-.26ZM21.376 21.525H3.328c-.248 0-.493.09-.678.26a.906.906 0 0 0-.298.668c0 .258.112.497.298.668.185.17.43.26.678.26h18.048c.248 0 .492-.09.678-.26a.906.906 0 0 0 .298-.668.906.906 0 0 0-.298-.668c-.185-.17-.43-.26-.678-.26Z" fill="#0B0B0B" stroke="#000" stroke-width=".8"/></symbol><symbol id="logo" xmlns="http://www.w3.org/2000/svg" viewBox="0 0 111 40" fill="none"><path d="M16.088 34.576c-4.554 0-8.994.003-13.435 0-1.876-.002-2.608-.722-2.61-2.578C.04 24.171.04 16.344.044 8.517c.001-1.937.712-2.64 2.66-2.64 9.37-.003 18.74-.003 28.11 0 1.955 0 2.67.703 2.67 2.634.004 7.827.004 15.654 0 23.481 0 1.854-.737 2.582-2.606 2.583-4.892.004-9.784.002-14.79.001ZM6.094 9.766c-.28.192-.8.378-.806.578-.06 2.095-.036 4.191-.036 6.332.387.02.644.044.9.044 5.198.002 10.396-.004 15.594.006.833.002 1.565-.123 1.575-1.15.01-1.042-.733-1.15-1.563-1.148-4.293.011-8.587.005-12.881.004h-1.26v-2.108c.111-.062.175-.127.238-.127 4.97-.006 9.941-.032 14.91.01 1.248.011 2.44 1.105 2.794 2.304.706 2.39-.928 4.505-3.556 4.515-5.16.018-10.32-.01-15.48-.017H5.322V30.57h6.915v-4.614c1.631 0 3.133-.037 4.63.03.315.014.713.35.9.646.685 1.08 1.247 2.239 1.963 3.294.241.355.799.681 1.222.695 2.107.07 4.217.036 6.327.027.232-.002.464-.081.798-.144-1.069-1.83-2.083-3.545-3.075-5.272-1.07-1.864-1.116-1.894-3.51-1.48l2.472 4.419c-2.453.262-2.453.262-3.61-1.734-.378-.651-.804-1.279-1.124-1.957-.315-.669-.75-.911-1.499-.895-2.221.049-4.444.014-6.666.02-.356.002-.712.048-1.172.08v4.52H7.55c0-1.927.053-3.802-.022-5.672-.039-.968.298-1.194 1.215-1.182 4.293.053 8.587.038 12.88.05 2.288.006 4.235-.722 5.51-2.716 1.217-1.905 1.27-3.92.189-5.894-1.11-2.025-2.913-3.006-5.197-3.018-5.272-.027-10.546-.009-16.032-.009Z" fill="#FFB22C"/><path d="M61.099 23.445c-.891-.926-1.708-1.9-2.503-2.89-.042-.053.103-.366.151-.363.197.01.455.035.572.163.328.357.598.769 1.023 1.334.059-.43.124-.69.126-.952.008-2.033-.006-4.066.008-6.099.008-1.329.576-2.02 1.602-2.008 1.023.011 1.59.696 1.596 2.033.015 3.916.005 7.831.005 11.746 0 .89-.214 1.66-1.181 1.953-.93.282-1.484-.261-1.971-.938-1.715-2.38-3.431-4.759-5.149-7.137-.23-.32-.47-.634-.877-1.182 0 2.53.006 4.772-.006 7.013-.002.409-.01.839-.131 1.221-.247.772-.896 1.292-1.625 1.042-.56-.192-1.31-.861-1.348-1.366-.157-2.06-.082-4.137-.06-6.207.002-.194.235-.386.36-.578.127.192.352.38.361.579.04.864.019 1.73.019 2.597 0 1.016-.074 2.04.038 3.045.045.406.444 1.03.773 1.094.711.14.772-.51.771-1.068 0-2.635-.007-5.27.006-7.906.002-.384.097-.768.194-1.483.475.522.762.784.986 1.092 2.077 2.86 4.128 5.74 6.23 8.581.273.368.796.551 1.203.82.195-.476.554-.949.56-1.427.046-3.764.026-7.529.026-11.293 0-.113.044-.257-.008-.334-.261-.382-.548-.746-.825-1.116-.243.361-.686.717-.697 1.085-.065 2.257-.024 4.517-.038 6.775a14.6 14.6 0 0 1-.191 2.174ZM90.843 19.759c-.245.098-.442.128-.64.16-.014-.195-.11-.442-.026-.575.36-.572.752-1.127 1.177-1.652.14-.174.415-.239.628-.353.092.224.258.447.263.674.025 1.317.012 2.635.012 3.953 0 1.544-.047 3.09.037 4.63.019.35.494.674.76 1.01.264-.338.756-.673.76-1.014.054-4.104.048-8.208.012-12.313-.003-.337-.303-.92-.523-.95-.345-.045-.871.184-1.091.473-1.257 1.642-2.442 3.339-3.658 5.012-.235.323-.497.627-.851 1.07-.455-.587-.824-1.04-1.167-1.512-1.085-1.49-2.133-3.008-3.26-4.466-.25-.323-.764-.443-1.156-.657-.195.408-.516.802-.557 1.224-.087.896-.014 1.806-.034 2.709-.008.348-.092.694-.142 1.041l-.343.055c-.107-.288-.296-.572-.306-.863-.037-1.09-.14-2.204.034-3.267.099-.602.569-1.332 1.086-1.63.7-.402 1.442-.022 1.94.675 1.265 1.769 2.542 3.527 3.897 5.406 1.244-1.713 2.445-3.335 3.608-4.984.552-.783 1.137-1.474 2.207-1.135 1.055.335 1.186 1.213 1.181 2.185-.02 3.916-.003 7.832-.011 11.748-.003 1.255-.635 2.026-1.622 2.036-.983.011-1.592-.741-1.628-2.026-.011-.413 0-.828-.001-1.242-.003-1.883-.005-3.766-.01-5.649 0-.068-.04-.137-.098-.326-.172.195-.301.34-.478.553ZM47.63 21.608c-.907.17-1.746.333-2.59.38-1.006.056-2.017.013-3.083.013v3.231c1.648 0 3.255-.013 4.862.008.443.006.929.017 1.318.194.998.454 1.166 1.809.371 2.556-.649.61-2.838.667-3.707-.182.57-.06 1.141-.108 1.709-.183.64-.085 1.647.327 1.65-.788.001-1.085-.977-.808-1.644-.817-1.76-.024-3.522-.008-5.336-.008V21.22h4.272c.339 0 .724.1 1.005-.028.352-.16.619-.508.923-.776-.3-.268-.589-.749-.904-.768a41.987 41.987 0 0 0-4.287-.026c-.855.036-1.126-.256-1.08-1.098.064-1.192.016-2.391.016-3.547h2.721l.048.443-1.939.282v3.086c1.409 0 2.836-.09 4.242.04.622.058 1.438.417 1.732.902.248.41-.13 1.198-.298 1.879ZM104.724 21.996c-1.557.003-3.018.003-4.52.003v3.237h5.267c.949.001 1.674.407 1.727 1.388.026.481-.26 1.094-.606 1.454-.553.578-2.674.518-3.533-.257.522-.064 1.045-.116 1.565-.195.674-.102 1.774.368 1.796-.756.023-1.212-1.112-.829-1.828-.846-1.687-.04-3.376-.012-5.128-.012V21.22h4.788c.607 0 1.32.077 1.352-.785.033-.888-.686-.829-1.294-.83-1.355-.005-2.71-.024-4.064.007-.63.014-.876-.207-.858-.85.035-1.24.01-2.48.01-3.779h2.687l.05.445-1.922.262v3.098c1.461 0 2.914-.015 4.366.005 1.113.015 1.878.626 1.86 1.543-.019 1.012-.585 1.586-1.715 1.66ZM67.699 13.108c-.37.366-.657.696-.944 1.026.384.232.748.612 1.156.665.813.106 1.654.077 2.477.02.792-.055 1.04.23 1.03 1.023-.037 3.31-.016 6.62-.016 9.93 0 .3-.09.645.026.892.164.35.48.629.732.938.282-.32.795-.632.81-.964.08-1.84.038-3.685.039-5.528 0-.263-.043-.537.017-.786.043-.172.23-.309.352-.462.126.147.363.293.364.44.016 2.294.05 4.59-.031 6.88-.029.813-.754 1.36-1.49 1.206-.582-.122-1.185-.677-1.534-1.203-.248-.374-.108-1.019-.109-1.543-.006-3.305-.003-6.61-.003-10.043-1.056 0-2.062.04-3.062-.012-.901-.047-1.457-.555-1.529-1.489-.063-.82.324-1.39 1.097-1.626.444-.136.989-.205.618.636Z" fill="#000"/><path d="M83.883 27.262c-.396.897-1.01 1.342-1.911 1.116-.95-.238-1.26-.959-1.25-1.89.019-1.769-.019-3.539.025-5.307.009-.37.269-.733.413-1.1.123.351.344.7.351 1.053.039 1.844-.013 3.69.06 5.532.014.32.474.624.728.936.293-.315.624-.604.862-.956.105-.156.02-.44.02-.666v-8.93c.514.427.837.608 1.039.878.83 1.116 1.619 2.263 2.435 3.39.806 1.113 1.22 1.112 2.041.035.218-.285.465-.549.863-1.016.42 1.23-.353 1.76-.871 2.212-.7.612-1.578.531-2.217-.193-.57-.646-1.028-1.389-1.54-2.086-.235-.319-.48-.63-.72-.945l-.311.052c0 2.599 0 5.197-.017 7.885ZM44.56 12.406c1.017 0 1.921-.009 2.825.006.994.017 1.534.584 1.63 1.526.09.87-.657 1.62-1.629 1.648-.77.021-1.544-.058-2.317-.093l-.028-.423c.247-.078.49-.203.74-.223.487-.038 1.018.097 1.456-.054.374-.13.643-.56.958-.858-.316-.259-.617-.712-.952-.74-1.16-.093-2.332-.04-3.5-.04-.979-.001-1.959.028-2.937-.008-.974-.036-1.378.398-1.321 1.356.035.6.044 1.209-.015 1.805-.022.23-.266.438-.41.656-.12-.199-.338-.393-.347-.597-.04-.827-.073-1.662.003-2.483.089-.96.683-1.47 1.665-1.475 1.356-.005 2.712-.003 4.18-.003ZM73.017 16.72v-1.877c1.09 0 2.061.012 3.032-.004.657-.01 1.531.141 1.558-.825.028-.991-.846-.859-1.507-.862-1.915-.01-3.831 0-5.746-.007-.355-.001-.709-.044-1.062-.068l-.082-.324c.238-.114.474-.324.713-.327 2.329-.023 4.658-.032 6.986.001.926.013 1.44.591 1.53 1.488.084.84-.59 1.61-1.486 1.66-1.01.056-2.026.012-3.273.012v2.904l-.523.024c-.047-.563-.093-1.126-.14-1.795ZM106.401 15.395c-1.098.226-2.114.428-3.06-.071l.009-.481c.634 0 1.269.008 1.903-.002.593-.01 1.284-.12 1.162-.845-.057-.339-.755-.793-1.178-.81-2.101-.083-4.207-.029-6.312-.041-.854-.005-1.236.395-1.219 1.239.017.85.004 1.702.004 2.628-.318-.071-.576-.102-.576-.133-.004-1.214-.104-2.45.106-3.63.064-.358.983-.778 1.525-.8a72.781 72.781 0 0 1 6.648.007c.593.03 1.367.473 1.684.966.435.678.119 1.451-.696 1.973ZM38.69 26.974c-.005-3.1-.005-6.1-.005-9.1l.561-.05c.089.372.25.743.254 1.117.023 2.439.044 4.878-.004 7.317-.02 1.023.349 1.449 1.379 1.364.67-.055 1.351-.035 2.025 0 .327.018.649.15.973.23l.023.307c-.238.1-.473.277-.714.286-.937.033-1.876.031-2.813.008-.903-.022-1.458-.505-1.678-1.48ZM57.592 17.93c.21.533.369 1.002.528 1.47-.37-.305-.814-.555-1.096-.927-1.11-1.465-2.146-2.985-3.262-4.444-.237-.309-.697-.447-1.054-.664-.215.39-.585.77-.615 1.174-.084 1.157-.013 2.325-.048 3.488-.006.2-.227.395-.348.592-.126-.196-.355-.39-.36-.59-.03-1.35-.1-2.711.037-4.049.049-.473.556-1.068 1.01-1.292.691-.34 1.385-.042 1.861.62 1.096 1.521 2.197 3.04 3.347 4.623ZM101.882 27.742c-.099.27-.261.662-.446.674-.972.061-1.954.074-2.926.01-.888-.057-1.51-.565-1.522-1.495a453.003 453.003 0 0 1-.007-8.447c.001-.214.17-.427.26-.64l.297.015c.059.363.166.725.169 1.088.015 2.366.004 4.73.01 7.096.002 1.479.106 1.57 1.621 1.587.824.01 1.647.038 2.544.112Z" fill="#000"/><path d="M6.201 9.765c5.38 0 10.653-.017 15.926.01 2.284.01 4.087.992 5.196 3.017 1.082 1.974 1.028 3.989-.19 5.894-1.274 1.994-3.221 2.722-5.508 2.716-4.294-.012-8.588.003-12.881-.05-.917-.012-1.253.214-1.215 1.182.075 1.87.022 3.745.022 5.672h2.34v-4.52c.46-.032.817-.078 1.173-.079 2.222-.007 4.445.028 6.666-.02.749-.017 1.184.225 1.5.894.319.678.745 1.306 1.123 1.957 1.157 1.996 1.157 1.996 3.61 1.734-.83-1.486-1.642-2.935-2.472-4.419 2.395-.414 2.441-.384 3.51 1.48.992 1.727 2.006 3.441 3.075 5.272-.334.063-.566.143-.798.144-2.11.01-4.22.044-6.327-.027-.423-.014-.98-.34-1.222-.695-.716-1.055-1.278-2.215-1.962-3.294-.188-.296-.586-.632-.901-.646-1.497-.067-2.999-.03-4.63-.03v4.614H5.32V19.008h1.203c5.16.009 10.32.036 15.48.018 2.628-.01 4.261-2.124 3.556-4.515-.354-1.199-1.547-2.293-2.794-2.303-4.97-.043-9.94-.017-14.91-.011-.064 0-.127.066-.24.127v2.108h1.261c4.294 0 8.588.007 12.881-.004.83-.002 1.573.106 1.563 1.148-.01 1.027-.742 1.152-1.575 1.15-5.198-.01-10.396-.004-15.593-.006-.257 0-.514-.024-.901-.044 0-2.14-.023-4.237.037-6.332.005-.2.525-.386.912-.579Z" fill="#fff"/></symbol><symbol id="show-more" viewBox="0 0 25 26" fill="none" xmlns="http://www.w3.org/2000/svg"><path d="M7.864 14.25h2.665V6.825h3.942v7.423h2.665L12.5 19.357 7.864 14.25Zm3.415-6.674V15H9.558L12.5 18.24 15.442 15h-1.72V7.575h-2.443Z" fill="#FFB22C"/><path d="M11.279 7.576V15H9.558L12.5 18.24 15.442 15h-1.72V7.575h-2.443Z" fill="#FFB22C"/><path d="M7.864 14.25h2.665V6.825h3.942v7.423h2.665L12.5 19.357 7.864 14.25Zm3.415-6.674V15H9.558L12.5 18.24 15.442 15h-1.72V7.575h-2.443Z" stroke="#FFB22C" stroke-width=".5"/><path d="M11.279 7.576V15H9.558L12.5 18.24 15.442 15h-1.72V7.575h-2.443Z" stroke="#FFB22C" stroke-width=".5"/><path d="M.5 13c0-6.557 5.383-11.892 12-11.892v.75C6.297 1.858 1.25 6.856 1.25 13c0 6.144 5.047 11.142 11.25 11.142S23.75 19.144 23.75 13h.75c0 6.558-5.383 11.892-12 11.892S.5 19.558.5 13Z" fill="#0B0B0B" stroke="#0B0B0B"/><path d="M12.5 1.858v-.75c.126 0 .253.002.378.006l-.024.75a10.54 10.54 0 0 0-.354-.006ZM13.588 1.91l.07-.747c.265.025.533.06.796.102l-.12.74c-.247-.04-.498-.072-.746-.096Zm1.484.24.17-.73c.259.06.52.13.775.207l-.218.718a11.326 11.326 0 0 0-.727-.195Zm1.44.437.265-.701c.25.094.499.198.742.309l-.312.682a11.275 11.275 0 0 0-.695-.29Zm1.37.626.356-.66c.234.126.467.263.693.405l-.4.635c-.211-.134-.43-.262-.65-.38Zm1.272.802.442-.606c.215.156.428.323.633.493l-.481.576a11.33 11.33 0 0 0-.594-.463Zm1.155.965.518-.543c.193.185.382.378.562.574l-.553.506a11.305 11.305 0 0 0-.527-.537Zm1.016 1.109.586-.468c.166.208.328.424.48.643l-.616.428a11.217 11.217 0 0 0-.45-.603Zm.858 1.235.643-.386c.137.229.267.465.389.702l-.668.341a11.233 11.233 0 0 0-.364-.657Zm.682 1.337.69-.294c.105.245.202.497.29.748l-.708.247c-.082-.235-.174-.47-.272-.7Zm.495 1.419.723-.198c.07.257.133.52.185.781l-.735.148c-.049-.244-.107-.49-.173-.731Zm.296 1.473.744-.098c.034.257.059.519.076.778l-.749.048c-.015-.242-.04-.488-.07-.728ZM23.745 12.646l.75-.023c.003.125.005.25.005.377h-.75c0-.118-.002-.237-.005-.354Z" fill="#0B0B0B"/></symbol><symbol id="qr" viewBox="0 0 160 160" fill="none" xmlns="http://www.w3.org/2000/svg"><path fill="#fff" d="M0 0h160v160H0z"/><path d="M10.24 14.614h5.581v5.231h-5.58v-5.23Zm5.581 0h5.58v5.231h-5.58v-5.23Zm5.58 0h5.582v5.231h-5.581v-5.23Zm5.582 0h5.58v5.231h-5.58v-5.23Zm5.58 0h5.581v5.231h-5.58v-5.23Zm5.581 0h5.581v5.231h-5.58v-5.23Zm5.581 0h5.58v5.231h-5.58v-5.23Zm27.904 0h5.58v5.231h-5.58v-5.23Zm16.742 0h5.581v5.231h-5.58v-5.23Zm5.581 0h5.581v5.231h-5.58v-5.23Zm5.581 0h5.581v5.231h-5.581v-5.23Zm11.162 0h5.58v5.231h-5.58v-5.23Zm5.58 0h5.581v5.231h-5.581v-5.23Zm5.581 0h5.581v5.231h-5.581v-5.23Zm5.581 0h5.581v5.231h-5.581v-5.23Zm5.581 0h5.581v5.231h-5.581v-5.23Zm5.581 0h5.58v5.231h-5.58v-5.23Zm5.58 0h5.581v5.231h-5.581v-5.23ZM10.24 19.845h5.581v5.231h-5.58v-5.23Zm33.485 0h5.58v5.231h-5.58v-5.23Zm16.742 0h5.581v5.231h-5.58v-5.23Zm22.324 0h5.58v5.231h-5.58v-5.23Zm5.58 0h5.581v5.231h-5.58v-5.23Zm11.162 0h5.581v5.231h-5.581v-5.23Zm11.162 0h5.58v5.231h-5.58v-5.23Zm33.484 0h5.581v5.231h-5.581v-5.23ZM10.24 25.076h5.581v5.23h-5.58v-5.23Zm11.162 0h5.58v5.23h-5.58v-5.23Zm5.58 0h5.581v5.23h-5.58v-5.23Zm5.581 0h5.581v5.23h-5.58v-5.23Zm11.162 0h5.58v5.23h-5.58v-5.23Zm16.742 0h5.581v5.23h-5.58v-5.23Zm5.581 0h5.581v5.23h-5.58v-5.23Zm11.162 0h5.58v5.23h-5.58v-5.23Zm11.161 0h5.581v5.23h-5.58v-5.23Zm5.581 0h5.581v5.23h-5.58v-5.23Zm16.743 0h5.58v5.23h-5.58v-5.23Zm11.161 0h5.581v5.23h-5.581v-5.23Zm5.581 0h5.581v5.23h-5.581v-5.23Zm5.581 0h5.581v5.23h-5.581v-5.23Zm11.161 0h5.581v5.23h-5.581v-5.23ZM10.24 30.306h5.581v5.232h-5.58v-5.231Zm11.162 0h5.58v5.232h-5.58v-5.231Zm5.58 0h5.581v5.232h-5.58v-5.231Zm5.581 0h5.581v5.232h-5.58v-5.231Zm11.162 0h5.58v5.232h-5.58v-5.231Zm11.162 0h5.58v5.232h-5.58v-5.231Zm5.58 0h5.581v5.232h-5.58v-5.231Zm16.743 0h5.58v5.232h-5.58v-5.231Zm11.161 0h5.581v5.232h-5.58v-5.231Zm5.581 0h5.581v5.232h-5.58v-5.231Zm16.743 0h5.58v5.232h-5.58v-5.231Zm11.161 0h5.581v5.232h-5.581v-5.231Zm5.581 0h5.581v5.232h-5.581v-5.231Zm5.581 0h5.581v5.232h-5.581v-5.231Zm11.161 0h5.581v5.232h-5.581v-5.231ZM10.24 35.539h5.581v5.23h-5.58v-5.23Zm11.162 0h5.58v5.23h-5.58v-5.23Zm5.58 0h5.581v5.23h-5.58v-5.23Zm5.581 0h5.581v5.23h-5.58v-5.23Zm11.162 0h5.58v5.23h-5.58v-5.23Zm22.323 0h5.581v5.23h-5.58v-5.23Zm5.581 0h5.58v5.23h-5.58v-5.23Zm5.58 0h5.582v5.23H77.21v-5.23Zm5.582 0h5.58v5.23h-5.58v-5.23Zm5.58 0h5.581v5.23h-5.58v-5.23Zm22.324 0h5.58v5.23h-5.58v-5.23Zm11.161 0h5.581v5.23h-5.581v-5.23Zm5.581 0h5.581v5.23h-5.581v-5.23Zm5.581 0h5.581v5.23h-5.581v-5.23Zm11.161 0h5.581v5.23h-5.581v-5.23ZM10.24 40.768h5.581V46h-5.58v-5.23Zm33.485 0h5.58V46h-5.58v-5.23Zm11.162 0h5.58V46h-5.58v-5.23Zm16.742 0h5.58V46h-5.58v-5.23Zm27.904 0h5.581V46h-5.581v-5.23Zm11.162 0h5.58V46h-5.58v-5.23Zm33.484 0h5.581V46h-5.581v-5.23ZM10.24 46h5.581v5.231h-5.58V46Zm5.581 0h5.58v5.231h-5.58V46Zm5.58 0h5.582v5.231h-5.581V46Zm5.582 0h5.58v5.231h-5.58V46Zm5.58 0h5.581v5.231h-5.58V46Zm5.581 0h5.581v5.231h-5.58V46Zm5.581 0h5.58v5.231h-5.58V46Zm11.162 0h5.58v5.231h-5.58V46Zm11.161 0h5.581v5.231h-5.58V46Zm11.162 0h5.58v5.231h-5.58V46Zm11.161 0h5.581v5.231h-5.58V46Zm11.162 0h5.581v5.231h-5.581V46Zm11.162 0h5.58v5.231h-5.58V46Zm5.58 0h5.581v5.231h-5.581V46Zm5.581 0h5.581v5.231h-5.581V46Zm5.581 0h5.581v5.231h-5.581V46Zm5.581 0h5.581v5.231h-5.581V46Zm5.581 0h5.58v5.231h-5.58V46Zm5.58 0h5.581v5.231h-5.581V46ZM54.887 51.23h5.58v5.231h-5.58v-5.23Zm5.58 0h5.581v5.231h-5.58v-5.23Zm5.581 0h5.581v5.231h-5.58v-5.23Zm22.323 0h5.581v5.231h-5.58v-5.23Zm5.581 0h5.581v5.231h-5.58v-5.23Zm5.581 0h5.581v5.231h-5.581v-5.23Zm-83.712 5.231h5.58v5.23h-5.58v-5.23Zm5.58 0h5.582v5.23h-5.581v-5.23Zm22.324 0h5.58v5.23h-5.58v-5.23Zm39.066 0h5.58v5.23h-5.58v-5.23Zm5.58 0h5.581v5.23h-5.58v-5.23Zm11.162 0h5.581v5.23h-5.581v-5.23Zm11.162 0h5.58v5.23h-5.58v-5.23Zm5.58 0h5.581v5.23h-5.581v-5.23Zm11.162 0h5.581v5.23h-5.581v-5.23Zm-111.616 5.23h5.58v5.232h-5.58v-5.231Zm5.58 0h5.582v5.232h-5.581v-5.231Zm11.162 0h5.581v5.232h-5.58v-5.231Zm16.743 0h5.58v5.232h-5.58v-5.231Zm16.742 0h5.581v5.232h-5.58v-5.231Zm5.581 0h5.58v5.232h-5.58v-5.231Zm5.58 0h5.582v5.232H77.21v-5.231Zm5.582 0h5.58v5.232h-5.58v-5.231Zm5.58 0h5.581v5.232h-5.58v-5.231Zm5.581 0h5.581v5.232h-5.58v-5.231Zm5.581 0h5.581v5.232h-5.581v-5.231Zm11.162 0h5.58v5.232h-5.58v-5.231Zm5.58 0h5.581v5.232h-5.581v-5.231Zm11.162 0h5.581v5.232h-5.581v-5.231Zm11.162 0h5.58v5.232h-5.58v-5.231Zm5.58 0h5.581v5.232h-5.581v-5.231ZM43.725 66.924h5.58v5.23h-5.58v-5.23Zm27.904 0h5.58v5.23h-5.58v-5.23Zm22.323 0h5.581v5.23h-5.58v-5.23Zm11.162 0h5.581v5.23h-5.581v-5.23Zm11.161 0h5.581v5.23h-5.581v-5.23Zm11.162 0h5.581v5.23h-5.581v-5.23Zm5.581 0h5.581v5.23h-5.581v-5.23Zm11.161 0h5.581v5.23h-5.581v-5.23ZM10.24 72.153h5.581v5.231h-5.58v-5.23Zm5.581 0h5.58v5.231h-5.58v-5.23Zm16.742 0h5.581v5.231h-5.58v-5.23Zm16.743 0h5.58v5.231h-5.58v-5.23Zm11.161 0h5.581v5.231h-5.58v-5.23Zm5.581 0h5.581v5.231h-5.58v-5.23Zm16.743 0h5.58v5.231h-5.58v-5.23Zm11.161 0h5.581v5.231h-5.58v-5.23Zm11.162 0h5.581v5.231h-5.581v-5.23Zm11.161 0h5.581v5.231h-5.581v-5.23Zm11.162 0h5.581v5.231h-5.581v-5.23ZM10.24 77.385h5.581v5.231h-5.58v-5.23Zm5.581 0h5.58v5.231h-5.58v-5.23Zm11.162 0h5.58v5.231h-5.58v-5.23Zm16.742 0h5.58v5.231h-5.58v-5.23Zm5.58 0h5.582v5.231h-5.581v-5.23Zm5.582 0h5.58v5.231h-5.58v-5.23Zm5.58 0h5.581v5.231h-5.58v-5.23Zm5.581 0h5.581v5.231h-5.58v-5.23Zm16.743 0h5.58v5.231h-5.58v-5.23Zm11.161 0h5.581v5.231h-5.58v-5.23Zm5.581 0h5.581v5.231h-5.581v-5.23Zm11.162 0h5.58v5.231h-5.58v-5.23Zm5.58 0h5.581v5.231h-5.581v-5.23Zm27.904 0h5.581v5.231h-5.581v-5.23ZM21.402 82.615h5.58v5.231h-5.58v-5.23Zm5.58 0h5.581v5.231h-5.58v-5.23Zm5.581 0h5.581v5.231h-5.58v-5.23Zm33.485 0h5.581v5.231h-5.58v-5.23Zm5.581 0h5.58v5.231h-5.58v-5.23Zm5.58 0h5.582v5.231H77.21v-5.23Zm16.743 0h5.581v5.231h-5.58v-5.23Zm5.581 0h5.581v5.231h-5.581v-5.23Zm11.162 0h5.58v5.231h-5.58v-5.23Zm5.58 0h5.581v5.231h-5.581v-5.23Zm22.324 0h5.58v5.231h-5.58v-5.23Zm5.58 0h5.581v5.231h-5.581v-5.23ZM10.24 87.846h5.581v5.231h-5.58v-5.23Zm5.581 0h5.58v5.231h-5.58v-5.23Zm11.162 0h5.58v5.231h-5.58v-5.23Zm11.161 0h5.581v5.231h-5.58v-5.23Zm5.581 0h5.58v5.231h-5.58v-5.23Zm11.162 0h5.58v5.231h-5.58v-5.23Zm5.58 0h5.581v5.231h-5.58v-5.23Zm5.581 0h5.581v5.231h-5.58v-5.23Zm11.162 0h5.58v5.231h-5.58v-5.23Zm16.742 0h5.581v5.231h-5.58v-5.23Zm5.581 0h5.581v5.231h-5.581v-5.23Zm11.162 0h5.58v5.231h-5.58v-5.23Zm16.742 0h5.581v5.231h-5.581v-5.23Zm5.581 0h5.581v5.231h-5.581v-5.23Zm11.161 0h5.581v5.231h-5.581v-5.23ZM21.402 93.077h5.58v5.23h-5.58v-5.23Zm5.58 0h5.581v5.23h-5.58v-5.23Zm5.581 0h5.581v5.23h-5.58v-5.23Zm16.743 0h5.58v5.23h-5.58v-5.23Zm16.742 0h5.581v5.23h-5.58v-5.23Zm22.323 0h5.581v5.23h-5.58v-5.23Zm5.581 0h5.581v5.23h-5.58v-5.23Zm5.581 0h5.581v5.23h-5.581v-5.23Zm5.581 0h5.581v5.23h-5.581v-5.23Zm5.581 0h5.58v5.23h-5.58v-5.23Zm5.58 0h5.581v5.23h-5.581v-5.23Zm5.581 0h5.581v5.23h-5.581v-5.23Zm5.581 0h5.581v5.23h-5.581v-5.23ZM10.24 98.307h5.581v5.232h-5.58v-5.231Zm5.581 0h5.58v5.232h-5.58v-5.231Zm5.58 0h5.582v5.232h-5.581v-5.231Zm11.162 0h5.581v5.232h-5.58v-5.231Zm11.162 0h5.58v5.232h-5.58v-5.231Zm11.162 0h5.58v5.232h-5.58v-5.231Zm16.742 0h5.58v5.232h-5.58v-5.231Zm27.904 0h5.581v5.232h-5.581v-5.231Zm5.581 0h5.581v5.232h-5.581v-5.231Zm5.581 0h5.58v5.232h-5.58v-5.231Zm5.58 0h5.581v5.232h-5.581v-5.231Zm5.581 0h5.581v5.232h-5.581v-5.231Zm16.743 0h5.58v5.232h-5.58v-5.231Zm-83.712 5.232h5.58v5.231h-5.58v-5.231Zm5.58 0h5.581v5.231h-5.58v-5.231Zm5.581 0h5.581v5.231h-5.58v-5.231Zm5.581 0h5.58v5.231h-5.58v-5.231Zm11.162 0h5.58v5.231h-5.58v-5.231Zm5.58 0h5.581v5.231h-5.58v-5.231Zm11.162 0h5.581v5.231h-5.581v-5.231Zm22.323 0h5.581v5.231h-5.581v-5.231Zm22.323 0h5.581v5.231h-5.581v-5.231ZM10.24 108.77h5.581V114h-5.58v-5.23Zm5.581 0h5.58V114h-5.58v-5.23Zm5.58 0h5.582V114h-5.581v-5.23Zm5.582 0h5.58V114h-5.58v-5.23Zm5.58 0h5.581V114h-5.58v-5.23Zm5.581 0h5.581V114h-5.58v-5.23Zm5.581 0h5.58V114h-5.58v-5.23Zm22.323 0h5.581V114h-5.58v-5.23Zm5.581 0h5.58V114h-5.58v-5.23Zm16.742 0h5.581V114h-5.58v-5.23Zm11.162 0h5.581V114h-5.581v-5.23Zm11.162 0h5.58V114h-5.58v-5.23Zm11.161 0h5.581V114h-5.581v-5.23Zm22.323 0h5.581V114h-5.581v-5.23ZM10.24 114h5.581v5.231h-5.58V114Zm33.485 0h5.58v5.231h-5.58V114Zm16.742 0h5.581v5.231h-5.58V114Zm5.581 0h5.581v5.231h-5.58V114Zm11.162 0h5.58v5.231h-5.58V114Zm5.58 0h5.581v5.231h-5.58V114Zm16.743 0h5.581v5.231h-5.581V114Zm22.323 0h5.581v5.231h-5.581V114Zm16.743 0h5.58v5.231h-5.58V114ZM10.24 119.231h5.581v5.231h-5.58v-5.231Zm11.162 0h5.58v5.231h-5.58v-5.231Zm5.58 0h5.581v5.231h-5.58v-5.231Zm5.581 0h5.581v5.231h-5.58v-5.231Zm11.162 0h5.58v5.231h-5.58v-5.231Zm16.742 0h5.581v5.231h-5.58v-5.231Zm5.581 0h5.581v5.231h-5.58v-5.231Zm22.323 0h5.581v5.231h-5.58v-5.231Zm5.581 0h5.581v5.231h-5.58v-5.231Zm5.581 0h5.581v5.231h-5.581v-5.231Zm5.581 0h5.581v5.231h-5.581v-5.231Zm5.581 0h5.58v5.231h-5.58v-5.231Zm5.58 0h5.581v5.231h-5.581v-5.231Zm5.581 0h5.581v5.231h-5.581v-5.231Zm16.743 0h5.58v5.231h-5.58v-5.231Zm5.58 0h5.581v5.231h-5.581v-5.231ZM10.24 124.462h5.581v5.231h-5.58v-5.231Zm11.162 0h5.58v5.231h-5.58v-5.231Zm5.58 0h5.581v5.231h-5.58v-5.231Zm5.581 0h5.581v5.231h-5.58v-5.231Zm11.162 0h5.58v5.231h-5.58v-5.231Zm16.742 0h5.581v5.231h-5.58v-5.231Zm5.581 0h5.581v5.231h-5.58v-5.231Zm5.581 0h5.58v5.231h-5.58v-5.231Zm5.58 0h5.582v5.231H77.21v-5.231Zm16.743 0h5.581v5.231h-5.58v-5.231Zm11.162 0h5.581v5.231h-5.581v-5.231Zm16.742 0h5.581v5.231h-5.581v-5.231Zm11.162 0h5.581v5.231h-5.581v-5.231Zm5.581 0h5.58v5.231h-5.58v-5.231ZM10.24 129.693h5.581v5.231h-5.58v-5.231Zm11.162 0h5.58v5.231h-5.58v-5.231Zm5.58 0h5.581v5.231h-5.58v-5.231Zm5.581 0h5.581v5.231h-5.58v-5.231Zm11.162 0h5.58v5.231h-5.58v-5.231Zm11.162 0h5.58v5.231h-5.58v-5.231Zm27.904 0h5.58v5.231h-5.58v-5.231Zm5.58 0h5.581v5.231h-5.58v-5.231Zm5.581 0h5.581v5.231h-5.58v-5.231Zm5.581 0h5.581v5.231h-5.581v-5.231Zm5.581 0h5.581v5.231h-5.581v-5.231Zm11.161 0h5.581v5.231h-5.581v-5.231Zm5.581 0h5.581v5.231h-5.581v-5.231Zm5.581 0h5.581v5.231h-5.581v-5.231Zm11.162 0h5.58v5.231h-5.58v-5.231Zm5.58 0h5.581v5.231h-5.581v-5.231ZM10.24 134.924h5.581v5.231h-5.58v-5.231Zm33.485 0h5.58v5.231h-5.58v-5.231Zm11.162 0h5.58v5.231h-5.58v-5.231Zm5.58 0h5.581v5.231h-5.58v-5.231Zm5.581 0h5.581v5.231h-5.58v-5.231Zm16.743 0h5.58v5.231h-5.58v-5.231Zm16.742 0h5.581v5.231h-5.581v-5.231Zm5.581 0h5.581v5.231h-5.581v-5.231Zm5.581 0h5.58v5.231h-5.58v-5.231Zm5.58 0h5.581v5.231h-5.581v-5.231Zm5.581 0h5.581v5.231h-5.581v-5.231ZM10.24 140.155h5.581v5.231h-5.58v-5.231Zm5.581 0h5.58v5.231h-5.58v-5.231Zm5.58 0h5.582v5.231h-5.581v-5.231Zm5.582 0h5.58v5.231h-5.58v-5.231Zm5.58 0h5.581v5.231h-5.58v-5.231Zm5.581 0h5.581v5.231h-5.58v-5.231Zm5.581 0h5.58v5.231h-5.58v-5.231Zm22.323 0h5.581v5.231h-5.58v-5.231Zm11.162 0h5.58v5.231h-5.58v-5.231Zm22.323 0h5.581v5.231h-5.581v-5.231Zm11.162 0h5.58v5.231h-5.58v-5.231Zm16.742 0h5.581v5.231h-5.581v-5.231Zm16.742 0h5.581v5.231h-5.581v-5.231Z" fill="#000"/></symbol><symbol id="logoLg" viewBox="0 0 177 64" fill="none"><path d="M25.74 55.322c-7.285 0-14.39.004-21.495-.002C1.242 55.319.071 54.168.07 51.198.064 38.674.064 26.15.07 13.627c0-3.099 1.138-4.224 4.256-4.225 14.992-.003 29.984-.003 44.976 0 3.127.001 4.27 1.126 4.271 4.215.005 12.523.006 25.047 0 37.57-.001 2.967-1.18 4.131-4.17 4.134-7.828.006-15.655.002-23.663.001ZM9.75 15.624c-.449.309-1.28.606-1.289.927-.095 3.35-.058 6.705-.058 10.131.62.031 1.03.07 1.441.07 8.316.003 16.633-.007 24.949.01 1.333.003 2.505-.198 2.52-1.84.017-1.668-1.173-1.84-2.5-1.837-6.87.018-13.74.008-20.61.007h-2.017V19.72c.18-.099.28-.204.383-.204 7.952-.01 15.905-.05 23.856.017 1.995.017 3.904 1.767 4.47 3.685 1.129 3.826-1.485 7.21-5.69 7.224-8.255.03-16.511-.014-24.767-.027H8.514v18.5h11.063V41.53c2.61 0 5.013-.06 7.408.049.504.022 1.14.558 1.441 1.032 1.096 1.728 1.995 3.582 3.14 5.272.386.568 1.278 1.09 1.956 1.112 3.37.112 6.747.058 10.122.042.372-.002.743-.13 1.278-.23-1.71-2.93-3.334-5.672-4.92-8.435-1.711-2.982-1.785-3.03-5.616-2.368l3.955 7.07c-3.926.42-3.925.42-5.777-2.774-.604-1.042-1.286-2.046-1.798-3.13-.504-1.071-1.2-1.46-2.398-1.433-3.554.078-7.11.022-10.666.033-.57.002-1.14.075-1.876.127v7.232h-3.745c0-3.083.085-6.084-.035-9.076-.062-1.548.477-1.91 1.944-1.892 6.869.086 13.74.062 20.61.08 3.659.01 6.774-1.154 8.814-4.345 1.948-3.047 2.033-6.271.303-9.43-1.775-3.24-4.66-4.81-8.315-4.828-8.437-.043-16.873-.014-25.651-.015Z" fill="#FFB22C"/><path d="M97.758 37.513c-1.426-1.483-2.732-3.04-4.004-4.626-.068-.084.164-.584.241-.58.315.015.727.057.915.261.526.572.957 1.23 1.637 2.135.094-.687.199-1.105.2-1.524.014-3.253-.008-6.506.013-9.758.014-2.126.923-3.232 2.565-3.213 1.637.019 2.545 1.114 2.553 3.253.023 6.265.008 12.53.008 18.794.001 1.424-.343 2.655-1.89 3.125-1.487.45-2.374-.419-3.154-1.502-2.742-3.808-5.49-7.613-8.237-11.418-.37-.512-.753-1.015-1.404-1.893 0 4.05.01 7.636-.01 11.222-.003.654-.014 1.342-.21 1.954-.395 1.234-1.433 2.067-2.6 1.667-.896-.307-2.095-1.379-2.156-2.186-.25-3.295-.131-6.618-.095-9.93.003-.311.375-.618.576-.927.201.309.563.61.577.927.065 1.383.03 2.77.03 4.155 0 1.626-.118 3.266.06 4.873.072.65.712 1.648 1.238 1.75 1.137.223 1.234-.817 1.234-1.709-.002-4.216-.011-8.433.01-12.65.003-.614.155-1.227.31-2.372.76.836 1.22 1.254 1.577 1.747 3.323 4.577 6.605 9.184 9.97 13.73.435.59 1.272.881 1.923 1.31.312-.76.886-1.517.895-2.28.075-6.023.042-12.047.042-18.071 0-.18.071-.41-.013-.534-.417-.61-.876-1.193-1.32-1.785-.389.578-1.098 1.147-1.115 1.735-.104 3.611-.037 7.227-.06 10.841-.008 1.133-.117 2.265-.306 3.479ZM145.349 31.614c-.392.156-.708.206-1.024.255-.022-.31-.176-.705-.042-.918a27.24 27.24 0 0 1 1.883-2.644c.225-.277.664-.381 1.005-.565.147.36.413.716.42 1.078.041 2.108.02 4.218.02 6.326.001 2.47-.076 4.945.059 7.408.03.559.791 1.078 1.215 1.615.424-.54 1.211-1.076 1.218-1.621.085-6.566.075-13.134.018-19.701-.005-.54-.485-1.474-.837-1.52-.552-.073-1.393.294-1.746.755-2.009 2.629-3.907 5.343-5.852 8.021-.376.517-.795 1.002-1.362 1.712-.728-.94-1.318-1.665-1.867-2.42-1.735-2.384-3.413-4.813-5.216-7.145-.4-.518-1.222-.709-1.85-1.05-.311.65-.825 1.282-.891 1.957-.138 1.433-.021 2.889-.054 4.334-.012.557-.147 1.11-.227 1.666l-.549.087c-.171-.46-.474-.915-.49-1.38-.058-1.745-.223-3.526.056-5.228.157-.962.908-2.13 1.737-2.606 1.12-.644 2.306-.037 3.104 1.08 2.023 2.829 4.067 5.643 6.235 8.648 1.989-2.74 3.912-5.335 5.772-7.974.883-1.252 1.82-2.358 3.531-1.815 1.688.535 1.898 1.94 1.89 3.494-.031 6.266-.004 12.533-.018 18.799-.004 2.008-1.014 3.24-2.594 3.257-1.574.017-2.547-1.186-2.604-3.241-.019-.663-.003-1.326-.003-1.989-.004-3.012-.007-6.025-.017-9.037 0-.11-.063-.22-.156-.523-.275.312-.481.545-.764.886ZM76.209 34.572c-1.452.273-2.794.533-4.147.608-1.608.09-3.225.021-4.932.021v5.17c2.637 0 5.209-.02 7.78.014.709.009 1.486.026 2.11.31 1.596.726 1.865 2.893.593 4.09-1.038.976-4.541 1.066-5.931-.292.911-.096 1.825-.174 2.733-.294 1.026-.136 2.636.524 2.64-1.26.002-1.736-1.563-1.292-2.629-1.307-2.818-.038-5.636-.013-8.538-.013v-7.668h6.835c.542 0 1.158.16 1.607-.045.564-.257.991-.814 1.477-1.242-.48-.429-.941-1.199-1.446-1.229a67.182 67.182 0 0 0-6.86-.042c-1.367.057-1.8-.41-1.727-1.756.103-1.908.026-3.826.026-5.676h4.353l.077.71-3.102.45v4.938c2.254 0 4.537-.143 6.787.065.996.092 2.3.667 2.772 1.443.397.654-.21 1.917-.478 3.005ZM167.559 35.193a3393.7 3393.7 0 0 1-7.232.006v5.179c2.827 0 5.627-.002 8.427 0 1.518.001 2.678.65 2.763 2.22.042.77-.416 1.75-.969 2.327-.886.924-4.279.83-5.654-.41.835-.103 1.673-.187 2.505-.313 1.078-.163 2.838.588 2.873-1.21.038-1.939-1.778-1.326-2.924-1.353-2.7-.064-5.402-.02-8.206-.02v-7.667h7.662c.972.001 2.111.123 2.163-1.255.053-1.422-1.098-1.327-2.07-1.33-2.168-.007-4.337-.037-6.503.012-1.009.023-1.401-.331-1.373-1.36.056-1.982.017-3.968.017-6.045h4.299l.079.712-3.075.418v4.957c2.339 0 4.663-.024 6.986.007 1.781.024 3.005 1.002 2.976 2.47-.031 1.618-.935 2.538-2.744 2.655ZM108.319 20.972a27.71 27.71 0 0 0-1.511 1.642c.614.372 1.198.98 1.849 1.064 1.302.17 2.647.123 3.964.032 1.267-.088 1.663.37 1.649 1.638-.06 5.295-.026 10.591-.026 15.887 0 .482-.144 1.032.041 1.428.263.56.769 1.006 1.171 1.5.452-.513 1.272-1.01 1.296-1.542.128-2.944.062-5.896.062-8.844.001-.422-.069-.86.029-1.258.067-.276.366-.495.561-.74.203.235.581.469.583.705.026 3.67.081 7.343-.049 11.008-.046 1.3-1.207 2.176-2.384 1.929-.931-.196-1.896-1.084-2.454-1.924-.397-.6-.173-1.631-.174-2.47-.01-5.287-.005-10.575-.005-16.07-1.691 0-3.299.065-4.899-.019-1.443-.075-2.332-.887-2.447-2.38-.101-1.313.518-2.226 1.754-2.604.711-.217 1.583-.327.99 1.018Z" fill="#000"/><path d="M134.213 43.618c-.634 1.437-1.617 2.148-3.058 1.787-1.52-.38-2.016-1.534-2-3.024.03-2.83-.03-5.662.04-8.491.015-.592.431-1.173.662-1.76.196.562.549 1.12.561 1.685.062 2.95-.021 5.904.097 8.85.02.514.757 1 1.163 1.498.469-.504 1-.966 1.379-1.53.168-.25.032-.704.032-1.065V27.28c.822.683 1.34.971 1.663 1.405 1.33 1.784 2.59 3.62 3.896 5.422 1.29 1.782 1.952 1.78 3.266.058.348-.457.743-.88 1.38-1.626.674 1.966-.565 2.815-1.393 3.54-1.12.977-2.524.848-3.548-.311-.911-1.032-1.644-2.221-2.463-3.336-.376-.51-.769-1.009-1.153-1.512l-.497.083c0 4.157 0 8.314-.027 12.614ZM71.297 19.85c1.627 0 3.073-.015 4.519.01 1.59.026 2.455.933 2.609 2.44.142 1.393-1.052 2.593-2.607 2.637-1.233.035-2.471-.092-3.707-.148l-.045-.677c.394-.125.783-.325 1.184-.357.779-.06 1.628.156 2.33-.087.597-.207 1.027-.896 1.532-1.373-.507-.413-.987-1.139-1.523-1.182-1.856-.15-3.732-.064-5.6-.066-1.566 0-3.135.046-4.7-.012-1.559-.058-2.204.638-2.113 2.17.057.96.07 1.934-.023 2.889-.037.367-.427.7-.656 1.048-.194-.317-.542-.628-.557-.955-.062-1.322-.117-2.658.005-3.973.143-1.534 1.093-2.353 2.664-2.36 2.17-.008 4.339-.004 6.688-.005ZM116.828 26.752v-3.003c1.743 0 3.297.02 4.85-.006 1.051-.018 2.451.226 2.494-1.32.044-1.587-1.354-1.375-2.412-1.38-3.065-.017-6.13 0-9.195-.011-.566-.003-1.132-.071-1.699-.109l-.13-.518c.38-.182.759-.52 1.141-.523a464.25 464.25 0 0 1 11.177.001c1.482.02 2.305.946 2.448 2.381.134 1.342-.943 2.575-2.377 2.655-1.617.09-3.241.02-5.237.02v4.645l-.837.04c-.075-.901-.149-1.802-.223-2.872ZM170.242 24.631c-1.757.363-3.382.685-4.895-.113l.014-.77c1.015 0 2.029.014 3.044-.003.949-.015 2.054-.192 1.86-1.35-.092-.543-1.208-1.27-1.885-1.297-3.362-.133-6.732-.047-10.099-.066-1.366-.008-1.978.632-1.951 1.983.027 1.36.006 2.723.006 4.204-.508-.113-.921-.162-.921-.212-.006-1.943-.166-3.92.169-5.809.102-.573 1.573-1.244 2.441-1.28 3.542-.144 7.098-.168 10.637.011.948.048 2.187.757 2.694 1.547.696 1.084.19 2.321-1.114 3.155ZM61.905 43.158c-.009-4.958-.009-9.758-.009-14.559l.898-.081c.141.595.4 1.19.405 1.787.037 3.902.071 7.806-.005 11.707-.033 1.638.558 2.319 2.205 2.183 1.074-.089 2.162-.056 3.24.001.524.028 1.039.239 1.557.367l.038.492c-.38.16-.757.443-1.142.456-1.5.054-3.002.05-4.502.014-1.444-.036-2.332-.809-2.685-2.367ZM92.147 28.69c.336.851.59 1.6.845 2.35-.592-.489-1.302-.888-1.754-1.483-1.774-2.344-3.433-4.776-5.219-7.11-.379-.494-1.114-.716-1.685-1.063-.344.625-.937 1.231-.985 1.878-.135 1.852-.022 3.721-.076 5.582-.01.32-.363.632-.558.947-.2-.314-.568-.625-.575-.944-.049-2.161-.162-4.338.059-6.478.078-.758.89-1.71 1.616-2.068 1.105-.545 2.216-.068 2.978.99 1.753 2.436 3.514 4.865 5.354 7.398ZM163.011 44.388c-.159.433-.417 1.059-.713 1.078-1.556.098-3.126.119-4.681.017-1.421-.092-2.416-.905-2.436-2.393-.059-4.504-.036-9.01-.011-13.515.002-.342.27-.683.415-1.024l.476.023c.094.58.266 1.16.27 1.742.025 3.784.007 7.569.015 11.353.005 2.366.17 2.51 2.596 2.539a56.11 56.11 0 0 1 4.069.18Z" fill="#000"/><path d="M9.922 15.624c8.607 0 17.044-.028 25.48.015 3.655.018 6.54 1.589 8.315 4.828 1.73 3.159 1.645 6.383-.303 9.43-2.04 3.19-5.155 4.355-8.814 4.346-6.87-.019-13.74.005-20.61-.08-1.467-.019-2.005.343-1.943 1.891.12 2.992.035 5.993.035 9.076h3.745v-7.232c.736-.052 1.306-.125 1.875-.127 3.556-.01 7.112.045 10.666-.033 1.198-.027 1.894.362 2.399 1.432.511 1.085 1.193 2.09 1.797 3.13 1.852 3.194 1.852 3.194 5.777 2.775l-3.955-7.07c3.83-.663 3.905-.614 5.616 2.367 1.587 2.764 3.21 5.507 4.92 8.437-.535.1-.906.227-1.278.229-3.374.016-6.751.07-10.122-.042-.678-.023-1.57-.544-1.955-1.112-1.146-1.69-2.045-3.544-3.14-5.272-.3-.474-.938-1.01-1.442-1.032-2.395-.108-4.798-.049-7.408-.049v7.383H8.514v-18.5h1.924c8.256.013 16.512.056 24.768.027 4.204-.015 6.818-3.398 5.69-7.224-.567-1.918-2.476-3.668-4.47-3.685-7.952-.068-15.905-.026-23.857-.017-.102 0-.203.105-.383.204v3.373h2.017c6.87 0 13.74.01 20.61-.007 1.328-.003 2.517.17 2.501 1.837-.016 1.642-1.188 1.843-2.52 1.84-8.317-.017-16.633-.007-24.95-.01-.41 0-.821-.039-1.441-.07 0-3.426-.037-6.78.059-10.131.009-.321.84-.618 1.46-.927Z" fill="#fff"/></symbol><symbol id="logolg" viewBox="0 0 177 64" fill="none" xmlns="http://www.w3.org/2000/svg"><path d="M25.74 55.322c-7.285 0-14.39.004-21.495-.002C1.242 55.318.071 54.167.07 51.197.064 38.674.064 26.15.07 13.627c0-3.1 1.138-4.224 4.256-4.225 14.992-.003 29.984-.003 44.976 0 3.127.001 4.27 1.126 4.271 4.215.005 12.523.006 25.047 0 37.57-.001 2.967-1.18 4.131-4.17 4.134-7.828.006-15.655.001-23.663.001ZM9.75 15.624c-.449.308-1.28.606-1.289.927-.095 3.35-.058 6.705-.058 10.13.62.032 1.03.07 1.441.07 8.316.004 16.633-.006 24.949.011 1.333.003 2.505-.198 2.52-1.84.017-1.668-1.173-1.84-2.5-1.837-6.87.017-13.74.007-20.61.007h-2.017v-3.373c.18-.1.28-.204.383-.204 7.952-.01 15.905-.051 23.856.017 1.995.017 3.904 1.767 4.47 3.685 1.129 3.825-1.485 7.209-5.69 7.224-8.255.03-16.511-.014-24.767-.027H8.514v18.5h11.063V41.53c2.61 0 5.013-.06 7.408.049.504.022 1.14.558 1.441 1.032 1.096 1.727 1.995 3.582 3.14 5.272.386.568 1.278 1.09 1.956 1.112 3.37.112 6.747.057 10.122.042.372-.002.743-.13 1.278-.23-1.71-2.93-3.334-5.672-4.92-8.436-1.711-2.981-1.785-3.03-5.616-2.367l3.955 7.07c-3.926.42-3.925.419-5.777-2.774-.604-1.042-1.286-2.046-1.798-3.131-.504-1.07-1.2-1.459-2.398-1.432-3.554.078-7.11.022-10.666.033-.57.002-1.14.075-1.876.127v7.232h-3.745c0-3.083.085-6.084-.035-9.076-.062-1.548.477-1.91 1.944-1.892 6.869.086 13.74.062 20.61.08 3.659.01 6.774-1.154 8.814-4.345 1.948-3.047 2.033-6.271.303-9.43-1.775-3.24-4.66-4.81-8.315-4.828-8.437-.043-16.873-.014-25.651-.015Z" fill="#FFB22C"/><path d="M97.758 37.513c-1.426-1.483-2.732-3.04-4.004-4.626-.068-.084.164-.584.241-.58.315.015.727.056.915.261.526.572.957 1.23 1.637 2.135.094-.687.199-1.106.2-1.524.014-3.253-.008-6.506.013-9.758.014-2.126.923-3.232 2.565-3.213 1.637.018 2.545 1.114 2.553 3.253.023 6.265.008 12.53.008 18.794.001 1.424-.343 2.655-1.89 3.125-1.487.45-2.374-.419-3.154-1.502-2.742-3.808-5.49-7.613-8.237-11.418-.37-.512-.753-1.015-1.404-1.893 0 4.05.01 7.636-.01 11.222-.003.654-.014 1.342-.21 1.953-.395 1.235-1.433 2.068-2.6 1.668-.896-.308-2.095-1.379-2.156-2.186-.25-3.295-.131-6.618-.095-9.93.003-.311.375-.618.576-.927.201.309.563.61.577.927.065 1.382.03 2.77.03 4.155 0 1.626-.118 3.266.06 4.873.072.65.712 1.648 1.238 1.75 1.137.223 1.234-.817 1.234-1.709-.002-4.216-.011-8.433.01-12.65.003-.614.155-1.227.31-2.372.76.836 1.22 1.254 1.577 1.747 3.323 4.576 6.605 9.184 9.97 13.73.435.589 1.272.881 1.923 1.31.312-.76.886-1.517.895-2.28.075-6.023.042-12.048.042-18.071 0-.18.071-.41-.013-.534-.417-.61-.876-1.193-1.32-1.785-.389.578-1.098 1.147-1.115 1.735-.104 3.611-.037 7.227-.06 10.841-.008 1.133-.117 2.265-.306 3.479ZM145.349 31.614c-.392.156-.708.206-1.024.255-.022-.31-.176-.705-.042-.918a27.25 27.25 0 0 1 1.883-2.644c.225-.278.664-.382 1.005-.565.147.36.413.716.42 1.078.041 2.108.02 4.217.02 6.326.001 2.47-.076 4.945.059 7.408.03.559.791 1.078 1.215 1.615.424-.54 1.211-1.076 1.218-1.621.085-6.567.075-13.134.018-19.701-.005-.54-.485-1.474-.837-1.52-.552-.073-1.393.294-1.746.755-2.009 2.629-3.907 5.343-5.852 8.021-.376.517-.795 1.002-1.362 1.712-.728-.94-1.318-1.665-1.867-2.42-1.735-2.384-3.413-4.813-5.216-7.145-.4-.518-1.222-.71-1.85-1.05-.311.65-.825 1.282-.891 1.957-.138 1.433-.021 2.889-.054 4.334-.012.557-.147 1.11-.227 1.666l-.549.087c-.171-.46-.474-.915-.49-1.38-.058-1.745-.223-3.526.056-5.228.157-.962.908-2.13 1.737-2.606 1.12-.644 2.306-.037 3.104 1.08 2.023 2.829 4.067 5.643 6.235 8.648 1.989-2.74 3.912-5.335 5.772-7.974.883-1.252 1.82-2.359 3.531-1.815 1.688.535 1.898 1.94 1.89 3.494-.031 6.266-.004 12.532-.018 18.799-.004 2.007-1.014 3.24-2.594 3.257-1.574.017-2.547-1.186-2.604-3.241-.019-.663-.003-1.326-.003-1.989-.004-3.012-.007-6.025-.017-9.037 0-.11-.063-.22-.156-.523-.275.312-.481.545-.764.885ZM76.209 34.573c-1.452.273-2.794.532-4.147.607-1.608.09-3.225.021-4.932.021v5.17c2.637 0 5.209-.02 7.78.014.709.01 1.486.026 2.11.31 1.596.726 1.865 2.894.593 4.09-1.038.976-4.541 1.067-5.931-.291.911-.097 1.825-.174 2.733-.295 1.026-.135 2.636.524 2.64-1.26.002-1.736-1.563-1.292-2.629-1.306-2.818-.039-5.636-.013-8.538-.013V33.95h6.835c.542 0 1.158.16 1.607-.045.564-.257.991-.814 1.477-1.242-.48-.429-.941-1.198-1.446-1.229a67.182 67.182 0 0 0-6.86-.042c-1.367.058-1.8-.41-1.727-1.756.103-1.908.026-3.826.026-5.676h4.353l.077.71-3.102.45v4.938c2.254 0 4.537-.143 6.787.065.996.092 2.3.667 2.772 1.443.397.654-.21 1.917-.478 3.006ZM167.559 35.193a3393.7 3393.7 0 0 1-7.232.005v5.18c2.827 0 5.627-.002 8.427 0 1.518.001 2.678.65 2.763 2.22.042.77-.416 1.75-.969 2.327-.886.924-4.279.83-5.654-.41.835-.103 1.673-.187 2.505-.313 1.078-.163 2.838.588 2.873-1.21.038-1.94-1.778-1.326-2.924-1.353-2.7-.064-5.402-.02-8.206-.02v-7.667h7.662c.972.001 2.111.123 2.163-1.255.053-1.423-1.098-1.327-2.07-1.33-2.168-.007-4.337-.037-6.503.012-1.009.023-1.401-.332-1.373-1.36.056-1.982.017-3.968.017-6.045h4.299l.079.712-3.075.418v4.957c2.339 0 4.663-.024 6.986.007 1.781.024 3.005 1.002 2.976 2.47-.031 1.618-.935 2.538-2.744 2.655ZM108.319 20.973a27.71 27.71 0 0 0-1.511 1.642c.614.37 1.198.979 1.849 1.064 1.302.169 2.647.123 3.964.031 1.267-.088 1.663.37 1.649 1.638-.06 5.295-.026 10.591-.026 15.887 0 .482-.144 1.032.041 1.428.263.56.769 1.006 1.171 1.5.452-.513 1.272-1.01 1.296-1.542.128-2.944.062-5.896.062-8.844.001-.422-.069-.86.029-1.258.067-.276.366-.495.561-.74.203.235.581.469.583.705.026 3.67.081 7.343-.049 11.008-.046 1.3-1.207 2.176-2.384 1.929-.931-.196-1.896-1.083-2.454-1.924-.397-.6-.173-1.631-.174-2.47-.01-5.287-.005-10.575-.005-16.07-1.691 0-3.299.065-4.899-.018-1.443-.076-2.332-.888-2.447-2.381-.101-1.313.518-2.226 1.754-2.603.711-.218 1.583-.328.99 1.018Z" fill="#000"/><path d="M134.213 43.618c-.634 1.437-1.617 2.148-3.058 1.787-1.52-.381-2.016-1.534-2-3.024.03-2.83-.03-5.662.04-8.491.015-.592.431-1.173.662-1.76.196.562.549 1.12.561 1.684.062 2.95-.021 5.904.097 8.851.02.514.757 1 1.163 1.498.469-.504 1-.966 1.379-1.53.168-.25.032-.704.032-1.065V27.28c.822.683 1.34.971 1.663 1.405 1.33 1.784 2.59 3.62 3.896 5.422 1.29 1.782 1.952 1.78 3.266.057.348-.457.743-.878 1.38-1.626.674 1.967-.565 2.816-1.393 3.54-1.12.978-2.524.849-3.548-.31-.911-1.032-1.644-2.222-2.463-3.336-.376-.511-.769-1.009-1.153-1.513l-.497.084c0 4.157 0 8.314-.027 12.614ZM71.297 19.85c1.627.001 3.073-.015 4.519.01 1.59.026 2.455.933 2.609 2.44.142 1.393-1.052 2.594-2.607 2.637-1.233.035-2.471-.092-3.707-.148l-.045-.677c.394-.124.783-.325 1.184-.357.779-.06 1.628.156 2.33-.086.597-.207 1.027-.897 1.532-1.373-.507-.414-.987-1.14-1.523-1.183-1.856-.15-3.732-.064-5.6-.065-1.566-.002-3.135.045-4.7-.013-1.559-.058-2.204.638-2.113 2.17.057.96.07 1.934-.023 2.889-.037.367-.427.7-.656 1.049-.194-.318-.542-.63-.557-.956-.062-1.322-.117-2.658.005-3.973.143-1.534 1.093-2.352 2.664-2.36 2.17-.008 4.339-.003 6.688-.005ZM116.828 26.752V23.75c1.743 0 3.297.02 4.85-.006 1.051-.018 2.451.226 2.494-1.32.044-1.587-1.354-1.375-2.412-1.38-3.065-.017-6.13 0-9.195-.011-.566-.002-1.132-.07-1.699-.109l-.13-.518c.38-.182.759-.52 1.141-.523 3.725-.037 7.452-.051 11.177.001 1.482.021 2.305.947 2.448 2.381.134 1.343-.943 2.575-2.377 2.655-1.617.09-3.241.02-5.237.02v4.646l-.837.039c-.075-.901-.149-1.802-.223-2.872ZM170.242 24.631c-1.757.363-3.382.685-4.895-.113l.014-.77c1.015 0 2.029.014 3.044-.003.949-.016 2.054-.192 1.86-1.35-.092-.543-1.208-1.27-1.885-1.297-3.362-.133-6.732-.047-10.099-.066-1.366-.009-1.978.632-1.951 1.982.027 1.361.006 2.724.006 4.205-.508-.114-.921-.162-.921-.212-.006-1.943-.166-3.92.169-5.81.102-.572 1.573-1.243 2.441-1.279 3.542-.144 7.098-.168 10.637.011.948.048 2.187.757 2.694 1.547.696 1.084.19 2.32-1.114 3.155ZM61.905 43.158c-.009-4.958-.009-9.758-.009-14.559l.898-.081c.141.595.4 1.19.405 1.787.037 3.902.071 7.806-.005 11.707-.033 1.638.558 2.319 2.205 2.183 1.074-.089 2.162-.056 3.24.001.524.028 1.039.239 1.557.367l.038.492c-.38.16-.757.443-1.142.456-1.5.054-3.002.05-4.502.014-1.444-.036-2.332-.809-2.685-2.367ZM92.147 28.69c.336.85.59 1.6.845 2.35-.592-.489-1.302-.888-1.754-1.483-1.774-2.344-3.433-4.776-5.219-7.11-.379-.495-1.114-.716-1.685-1.063-.344.625-.937 1.231-.985 1.878-.135 1.852-.022 3.721-.076 5.582-.01.32-.363.631-.558.947-.2-.314-.568-.625-.575-.944-.049-2.161-.162-4.339.059-6.479.078-.757.89-1.709 1.616-2.067 1.105-.545 2.216-.068 2.978.99 1.753 2.436 3.514 4.865 5.354 7.398ZM163.011 44.387c-.159.434-.417 1.06-.713 1.078-1.556.098-3.126.12-4.681.018-1.421-.093-2.416-.905-2.436-2.393-.059-4.505-.036-9.01-.011-13.515.002-.342.27-.683.415-1.024l.476.023c.094.58.266 1.16.27 1.742.025 3.784.007 7.568.015 11.353.005 2.366.17 2.51 2.596 2.539 1.317.015 2.635.06 4.069.18Z" fill="#000"/><path d="M9.922 15.624c8.607 0 17.044-.028 25.48.015 3.655.018 6.54 1.588 8.315 4.828 1.73 3.159 1.645 6.383-.303 9.43-2.04 3.19-5.155 4.355-8.814 4.346-6.87-.019-13.74.005-20.61-.08-1.467-.019-2.005.343-1.943 1.891.12 2.992.035 5.992.035 9.076h3.745v-7.232c.736-.052 1.306-.125 1.875-.127 3.556-.01 7.112.045 10.666-.033 1.198-.027 1.894.362 2.399 1.432.511 1.085 1.193 2.09 1.797 3.13 1.852 3.194 1.852 3.194 5.777 2.775l-3.955-7.07c3.83-.663 3.905-.614 5.616 2.367 1.587 2.764 3.21 5.507 4.92 8.436-.535.1-.906.228-1.278.23-3.374.015-6.751.07-10.122-.042-.678-.023-1.57-.544-1.955-1.113-1.146-1.689-2.045-3.544-3.14-5.27-.3-.475-.938-1.01-1.442-1.034-2.395-.108-4.798-.048-7.408-.048v7.383H8.514v-18.5h1.924c8.256.013 16.512.056 24.768.027 4.204-.015 6.818-3.399 5.69-7.224-.567-1.918-2.476-3.668-4.47-3.685-7.952-.068-15.905-.026-23.857-.017-.102 0-.203.105-.383.204v3.373h2.017c6.87 0 13.74.01 20.61-.007 1.328-.003 2.517.169 2.501 1.837-.016 1.642-1.188 1.843-2.52 1.84-8.317-.017-16.633-.007-24.95-.01-.41 0-.821-.039-1.441-.07 0-3.426-.037-6.78.059-10.131.009-.321.84-.618 1.46-.927Z" fill="#fff"/></symbol></defs></svg>