<svg><symbol id="arrow-left" viewBox="0 0 34 34" fill="none" xmlns="http://www.w3.org/2000/svg"><path d="M15.334 10.819v3.553h9.897v5.256h-9.897v3.554L8.525 17l6.809-6.181Zm8.897 4.553h-9.897v-2.295L10.013 17l4.32 3.923v-2.295h9.898v-3.256Z" fill="#FFB22C"/><path d="M24.231 15.372h-9.897v-2.295L10.013 17l4.32 3.923v-2.295h9.898v-3.256Z" fill="#FFB22C"/><path d="M15.334 10.819v3.553h9.897v5.256h-9.897v3.554L8.525 17l6.809-6.181Zm8.897 4.553h-9.897v-2.295L10.013 17l4.32 3.923v-2.295h9.898v-3.256Z" stroke="#FFB22C" stroke-width=".5"/><path d="M24.231 15.372h-9.897v-2.295L10.013 17l4.32 3.923v-2.295h9.898v-3.256Z" stroke="#FFB22C" stroke-width=".5"/><rect x="33" y="33" width="32" height="32" rx="16" transform="rotate(-180 33 33)" stroke="#000" stroke-width="2"/></symbol><symbol id="walk" viewBox="0 0 100 33" fill="none" xmlns="http://www.w3.org/2000/svg"><g opacity=".8" filter="url('#filter0_b_407_3300')"><rect width="99.577" height="32.263" rx="6" fill="#D7E5FF"/><g clip-path="url('#clip0_407_3300')"><mask id="path-2-inside-1_407_3300" fill="#fff"><path d="m26.577 22.132-.18-.932c3.77-.727 6.112-2.305 6.112-4.118 0-1.6-1.694-2.978-4.647-3.78l.249-.916c4.652 1.262 5.347 3.484 5.347 4.696 0 2.331-2.572 4.219-6.88 5.05Zm-3.71-1.951-.671.67.794.798h-1.5c-6.056 0-10.98-2.048-10.98-4.567 0-1.44 1.316-2.678 3.709-3.485l-.3-.9c-2.812.947-4.36 2.505-4.36 4.385 0 3.146 5.129 5.517 11.93 5.517h1.501l-.794.798.67.67 1.944-1.943-1.943-1.943Zm-7.652-7.404c.016.407.099.737.247.99.282.473.786.71 1.511.71.588 0 1.033-.165 1.333-.493.3-.329.45-.71.45-1.144 0-.412-.128-.737-.386-.975-.171-.157-.303-.236-.395-.236a.917.917 0 0 0 .353-.265c.18-.208.269-.462.269-.764 0-.426-.15-.766-.45-1.02-.3-.252-.695-.38-1.185-.38-.263 0-.486.033-.667.096a1.348 1.348 0 0 0-.47.276c-.176.17-.305.355-.388.555a2.53 2.53 0 0 0-.13.724h.94c-.005-.252.049-.453.16-.604.112-.15.286-.226.523-.226.207 0 .368.061.482.183a.674.674 0 0 1 .17.477c0 .302-.11.503-.334.602-.129.058-.357.09-.683.095v.721c.333 0 .578.032.733.095.272.113.408.338.408.675 0 .255-.073.45-.22.585a.738.738 0 0 1-.517.203c-.322 0-.544-.123-.666-.37a1.158 1.158 0 0 1-.099-.51h-.99Zm7.492-2.262c-.036-.405-.195-.73-.477-.973-.283-.244-.662-.366-1.138-.366-.33 0-.613.075-.85.226-.237.15-.428.35-.575.597-.169.29-.283.653-.342 1.089-.033.245-.05.563-.05.954 0 .667.12 1.21.357 1.632.306.54.782.81 1.428.81.6 0 1.043-.183 1.329-.548.284-.365.427-.787.427-1.265 0-.48-.145-.876-.436-1.184-.291-.309-.664-.463-1.119-.463-.212 0-.4.034-.565.102a1.13 1.13 0 0 0-.435.326c.028-.396.08-.695.156-.898.139-.368.372-.552.7-.552.218 0 .382.08.49.24.064.1.096.19.096.273h1.004Zm-2.421 2.212c0-.341.099-.589.297-.742a.718.718 0 0 1 .456-.155.7.7 0 0 1 .537.238c.146.16.219.388.219.688 0 .268-.064.487-.193.655a.628.628 0 0 1-.528.253.71.71 0 0 1-.565-.262c-.149-.174-.223-.4-.223-.675Zm4.781-3.537c-.652 0-1.11.23-1.373.689-.262.46-.394 1.112-.394 1.958 0 .846.131 1.497.394 1.954.263.457.72.686 1.373.686s1.11-.229 1.373-.686c.263-.457.394-1.108.394-1.954 0-.846-.131-1.498-.394-1.958-.263-.46-.72-.69-1.373-.69Zm-.738 2.647c0-.617.048-1.075.145-1.371.096-.297.294-.445.593-.445.3 0 .496.148.589.445.093.296.14.754.14 1.37 0 .59-.047 1.04-.14 1.353-.093.312-.29.468-.589.468-.3 0-.497-.156-.593-.468-.097-.313-.145-.763-.145-1.352Zm4.243-3.809c0-.278-.081-.518-.244-.722-.162-.204-.409-.306-.74-.306s-.578.102-.74.306a1.123 1.123 0 0 0-.244.722c0 .282.081.524.244.725.162.2.409.3.74.3s.578-.1.74-.3c.163-.2.244-.443.244-.725Zm-.986.603a.401.401 0 0 1-.34-.157c-.08-.104-.12-.253-.12-.446s.04-.341.12-.445a.402.402 0 0 1 .34-.157.4.4 0 0 1 .34.157c.078.104.118.252.118.445s-.04.342-.119.446a.4.4 0 0 1-.34.157Z"/></mask><path d="m26.577 22.132-.18-.932c3.77-.727 6.112-2.305 6.112-4.118 0-1.6-1.694-2.978-4.647-3.78l.249-.916c4.652 1.262 5.347 3.484 5.347 4.696 0 2.331-2.572 4.219-6.88 5.05Zm-3.71-1.951-.671.67.794.798h-1.5c-6.056 0-10.98-2.048-10.98-4.567 0-1.44 1.316-2.678 3.709-3.485l-.3-.9c-2.812.947-4.36 2.505-4.36 4.385 0 3.146 5.129 5.517 11.93 5.517h1.501l-.794.798.67.67 1.944-1.943-1.943-1.943Zm-7.652-7.404c.016.407.099.737.247.99.282.473.786.71 1.511.71.588 0 1.033-.165 1.333-.493.3-.329.45-.71.45-1.144 0-.412-.128-.737-.386-.975-.171-.157-.303-.236-.395-.236a.917.917 0 0 0 .353-.265c.18-.208.269-.462.269-.764 0-.426-.15-.766-.45-1.02-.3-.252-.695-.38-1.185-.38-.263 0-.486.033-.667.096a1.348 1.348 0 0 0-.47.276c-.176.17-.305.355-.388.555a2.53 2.53 0 0 0-.13.724h.94c-.005-.252.049-.453.16-.604.112-.15.286-.226.523-.226.207 0 .368.061.482.183a.674.674 0 0 1 .17.477c0 .302-.11.503-.334.602-.129.058-.357.09-.683.095v.721c.333 0 .578.032.733.095.272.113.408.338.408.675 0 .255-.073.45-.22.585a.738.738 0 0 1-.517.203c-.322 0-.544-.123-.666-.37a1.158 1.158 0 0 1-.099-.51h-.99Zm7.492-2.262c-.036-.405-.195-.73-.477-.973-.283-.244-.662-.366-1.138-.366-.33 0-.613.075-.85.226-.237.15-.428.35-.575.597-.169.29-.283.653-.342 1.089-.033.245-.05.563-.05.954 0 .667.12 1.21.357 1.632.306.54.782.81 1.428.81.6 0 1.043-.183 1.329-.548.284-.365.427-.787.427-1.265 0-.48-.145-.876-.436-1.184-.291-.309-.664-.463-1.119-.463-.212 0-.4.034-.565.102a1.13 1.13 0 0 0-.435.326c.028-.396.08-.695.156-.898.139-.368.372-.552.7-.552.218 0 .382.08.49.24.064.1.096.19.096.273h1.004Zm-2.421 2.212c0-.341.099-.589.297-.742a.718.718 0 0 1 .456-.155.7.7 0 0 1 .537.238c.146.16.219.388.219.688 0 .268-.064.487-.193.655a.628.628 0 0 1-.528.253.71.71 0 0 1-.565-.262c-.149-.174-.223-.4-.223-.675Zm4.781-3.537c-.652 0-1.11.23-1.373.689-.262.46-.394 1.112-.394 1.958 0 .846.131 1.497.394 1.954.263.457.72.686 1.373.686s1.11-.229 1.373-.686c.263-.457.394-1.108.394-1.954 0-.846-.131-1.498-.394-1.958-.263-.46-.72-.69-1.373-.69Zm-.738 2.647c0-.617.048-1.075.145-1.371.096-.297.294-.445.593-.445.3 0 .496.148.589.445.093.296.14.754.14 1.37 0 .59-.047 1.04-.14 1.353-.093.312-.29.468-.589.468-.3 0-.497-.156-.593-.468-.097-.313-.145-.763-.145-1.352Zm4.243-3.809c0-.278-.081-.518-.244-.722-.162-.204-.409-.306-.74-.306s-.578.102-.74.306a1.123 1.123 0 0 0-.244.722c0 .282.081.524.244.725.162.2.409.3.74.3s.578-.1.74-.3c.163-.2.244-.443.244-.725Zm-.986.603a.401.401 0 0 1-.34-.157c-.08-.104-.12-.253-.12-.446s.04-.341.12-.445a.402.402 0 0 1 .34-.157.4.4 0 0 1 .34.157c.078.104.118.252.118.445s-.04.342-.119.446a.4.4 0 0 1-.34.157Z" fill="#0B0B0B" stroke="#000" stroke-width="2.39" mask="url('#path-2-inside-1_407_3300')"/></g><path d="M46.686 19.558c-.581 0-1.1-.123-1.553-.37a2.807 2.807 0 0 1-1.076-1.016 2.805 2.805 0 0 1-.382-1.458c0-.16.048-.295.143-.406a.465.465 0 0 1 .37-.167c.144 0 .264.055.36.167a.603.603 0 0 1 .142.406c0 .343.084.657.251.944.176.279.41.502.705.67.295.159.626.238.992.238.558 0 1.004-.155 1.339-.466.334-.31.501-.733.501-1.266 0-.359-.075-.674-.227-.944a1.702 1.702 0 0 0-.621-.658 1.695 1.695 0 0 0-.896-.239.56.56 0 0 1-.395-.155.575.575 0 0 1-.155-.406c0-.16.052-.291.156-.395a.56.56 0 0 1 .394-.155c.247 0 .478-.064.693-.191a1.55 1.55 0 0 0 .538-.502 1.21 1.21 0 0 0 .215-.705c0-.374-.136-.689-.407-.944-.27-.255-.617-.382-1.04-.382-.318 0-.605.063-.86.19-.254.12-.458.284-.609.49a1.19 1.19 0 0 0-.215.694.62.62 0 0 1-.143.418.465.465 0 0 1-.37.167.467.467 0 0 1-.36-.155.603.603 0 0 1-.143-.406c0-.446.116-.849.347-1.207.239-.367.557-.653.956-.86a2.89 2.89 0 0 1 1.374-.323c.47 0 .892.103 1.267.31.374.2.669.475.884.825.223.35.334.745.334 1.183 0 .295-.067.566-.203.813-.135.247-.31.462-.525.645-.216.183-.447.33-.694.442.415.135.753.327 1.016.574.271.239.47.521.598.848.127.319.19.665.19 1.04 0 .517-.13.983-.393 1.398a2.766 2.766 0 0 1-1.04.968 3.076 3.076 0 0 1-1.458.346Zm5.183-.024a.575.575 0 0 1-.406-.155.575.575 0 0 1-.156-.406v-8.21a.55.55 0 0 1 .156-.406.575.575 0 0 1 .406-.155h2.163c.685 0 1.306.115 1.864.346a4.182 4.182 0 0 1 1.47.968c.414.414.733.904.956 1.47.23.566.346 1.19.346 1.876 0 .685-.115 1.314-.346 1.888a4.392 4.392 0 0 1-.956 1.482 4.414 4.414 0 0 1-1.47.968 4.978 4.978 0 0 1-1.864.334h-2.163Zm.562-1.004h1.6c.694 0 1.303-.155 1.83-.466a3.398 3.398 0 0 0 1.254-1.302c.31-.558.466-1.191.466-1.9 0-.717-.156-1.35-.466-1.9-.303-.55-.721-.98-1.255-1.29-.526-.311-1.135-.466-1.828-.466H52.43v7.324Zm13.052 1.004a.569.569 0 0 1-.323-.095.59.59 0 0 1-.203-.263l-1.804-5.413c-.056-.231-.052-.415.012-.55.063-.143.199-.215.406-.215a.51.51 0 0 1 .335.107c.095.072.17.192.227.359l1.565 4.851h-.358l1.457-4.899a.607.607 0 0 1 .192-.299.513.513 0 0 1 .358-.12c.143 0 .259.04.347.12.095.072.159.172.19.3l1.28 4.683h-.192l1.494-4.636c.095-.31.279-.466.55-.466.206 0 .346.076.418.227.071.143.067.322-.012.538l-1.805 5.413a.513.513 0 0 1-.514.358.607.607 0 0 1-.322-.095.438.438 0 0 1-.191-.263l-1.339-4.72h.132l-1.374 4.72a.496.496 0 0 1-.204.263.569.569 0 0 1-.322.095Zm9.82.048a3.012 3.012 0 0 1-1.6-.43 3.058 3.058 0 0 1-1.112-1.183 3.516 3.516 0 0 1-.406-1.697c0-.637.143-1.203.43-1.697a3.265 3.265 0 0 1 2.868-1.625c.63 0 1.19.148 1.685.442a3.15 3.15 0 0 1 1.17 1.183c.296.502.447 1.068.455 1.697l-.43.108c0 .605-.136 1.15-.407 1.637-.27.486-.637.868-1.099 1.147a2.908 2.908 0 0 1-1.553.418Zm.18-.98c.43 0 .812-.1 1.147-.299a2.21 2.21 0 0 0 .789-.836c.199-.358.298-.757.298-1.195 0-.446-.1-.844-.298-1.195a2.102 2.102 0 0 0-.789-.836 2.134 2.134 0 0 0-1.147-.311c-.414 0-.793.104-1.135.31a2.16 2.16 0 0 0-.813.837c-.191.35-.287.749-.287 1.195 0 .438.096.837.287 1.195.2.35.47.63.813.836.342.2.72.3 1.135.3Zm2.748.944a.535.535 0 0 1-.394-.155.535.535 0 0 1-.155-.394v-1.912l.227-1.148.884.335v2.725c0 .159-.056.29-.167.394a.535.535 0 0 1-.395.155Zm3.857-.012c-.334 0-.633-.091-.896-.275a1.875 1.875 0 0 1-.621-.753 2.77 2.77 0 0 1-.215-1.123V10.74c0-.159.047-.286.143-.382a.534.534 0 0 1 .394-.155.51.51 0 0 1 .395.155.495.495 0 0 1 .155.382v6.644c0 .311.06.566.18.765.127.2.282.299.465.299h.299c.151 0 .27.052.359.155a.562.562 0 0 1 .13.395c0 .159-.067.29-.202.394-.128.095-.295.143-.502.143h-.084Zm3-2.306-.67-.74 3.836-3.43a.439.439 0 0 1 .346-.144c.136 0 .251.056.347.168a.487.487 0 0 1 .143.37.43.43 0 0 1-.167.335l-3.836 3.441Zm-.455 2.306a.559.559 0 0 1-.394-.143.559.559 0 0 1-.144-.394v-8.258c0-.159.048-.286.144-.382a.534.534 0 0 1 .394-.155c.16 0 .287.052.383.155a.495.495 0 0 1 .155.382v8.258c0 .159-.052.29-.156.394a.517.517 0 0 1-.382.143Zm4.326-.06a.519.519 0 0 1-.395.12.468.468 0 0 1-.346-.191l-2.51-3.095.753-.717 2.57 3.167a.497.497 0 0 1-.072.717Z" fill="#0B0B0B"/></g><defs><clipPath id="clip0_407_3300"><path fill="#fff" transform="translate(9.56 3.585)" d="M0 0h23.899v23.899H0z"/></clipPath><filter id="filter0_b_407_3300" x="-7.17" y="-7.17" width="113.916" height="46.602" filterUnits="userSpaceOnUse" color-interpolation-filters="sRGB"><feFlood flood-opacity="0" result="BackgroundImageFix"/><feGaussianBlur in="BackgroundImageFix" stdDeviation="3.585"/><feComposite in2="SourceAlpha" operator="in" result="effect1_backgroundBlur_407_3300"/><feBlend in="SourceGraphic" in2="effect1_backgroundBlur_407_3300" result="shape"/></filter></defs></symbol><symbol id="map" viewBox="0 0 24 24" fill="none" xmlns="http://www.w3.org/2000/svg"><path d="M3.494 15.281a.362.362 0 1 1-.725 0 .362.362 0 0 1 .725 0Z" fill="#0B0B0B" stroke="#0B0B0B"/><path d="M21.319 10.125a.863.863 0 1 0 0-1.725.863.863 0 0 0 0 1.725Z" fill="#0B0B0B"/><path d="M15.543 14.325c-.3 0-.58-.038-.843-.113l.187-.656c.263.075.6.094.9.075l.056.675c-.093.019-.187.019-.3.019Zm1.425-.338-.337-.6c.244-.13.45-.318.637-.58l.563.393c-.244.356-.525.6-.863.787Zm-13.162-.112-.675-.188c.094-.337.206-.675.319-.993l.656.243c-.113.282-.206.6-.3.938Zm9.862-.225a4.255 4.255 0 0 1-.712-.863l.581-.375c.206.3.394.544.6.713l-.469.525Zm4.707-1.388-.638-.28c.056-.132.131-.282.188-.413.075-.17.15-.357.243-.525l.62.3-.226.506a7.288 7.288 0 0 1-.187.412ZM4.5 12.02l-.62-.3a11.1 11.1 0 0 1 .526-.938l.581.356a6.643 6.643 0 0 0-.487.882Zm7.93-.132-.074-.13a15.346 15.346 0 0 0-.431-.75l.6-.338c.15.262.3.525.43.787l.076.131-.6.3Zm6.863-1.368-.562-.413c.262-.337.544-.581.862-.769l.338.6c-.225.132-.45.32-.638.582Zm-13.725-.132-.525-.45a6.07 6.07 0 0 1 .807-.75l.412.544a3.801 3.801 0 0 0-.694.656Zm5.813-.187a3.077 3.077 0 0 0-.675-.638L11.118 9c.3.206.563.45.807.769l-.544.43Zm-4.294-.938-.281-.637c.337-.15.712-.244 1.087-.3L7.987 9a3.566 3.566 0 0 0-.9.262Zm2.794-.112c-.281-.094-.6-.15-.938-.169L9 8.306c.393.038.768.094 1.087.206l-.206.638Z" fill="#FFB22C"/><path d="m17.775 2.681-5.756 2.344-5.794-2.344L0 5.213v15.956l6.225-2.513 5.7 2.306 5.85-2.156L24 21.356V5.231l-6.225-2.55Zm5.175 17.1L18.3 17.87v-4.725c-.262.412-.581.806-1.05 1.087v3.619l-4.8 1.762v-6.974c-.15-.244-.262-.47-.394-.713a12.277 12.277 0 0 0-.637-1.106v8.812L6.75 17.738V9.825c-.394.244-.75.563-1.05.919v6.994L1.05 19.63V5.888l4.669-1.894V8.85a4.975 4.975 0 0 1 1.031-.562V4.013l4.669 1.893v2.907c.412.318.75.693 1.05 1.087V5.963l4.781-1.95v8.175c.113-.226.244-.47.356-.75.188-.413.394-.863.675-1.294V4.013l4.669 1.912v13.856Z" fill="#0B0B0B"/></symbol><symbol id="like" fill="none" xmlns="http://www.w3.org/2000/svg"><path d="M20 36.945a2.49 2.49 0 0 1-1.768-.731L5.367 23.349C1.322 19.305.641 13.069 3.75 8.529c1.686-2.467 4.112-3.913 7.016-4.183 3.172-.294 6.55.865 9.235 3.136 2.685-2.27 6.065-3.43 9.235-3.136 2.904.27 5.33 1.716 7.016 4.183 3.108 4.542 2.426 10.776-1.619 14.82L21.767 36.214a2.497 2.497 0 0 1-1.767.73ZM11.726 6.8a8.3 8.3 0 0 0-.73.033c-2.139.2-3.931 1.272-5.185 3.105-2.427 3.55-1.871 8.447 1.324 11.64L20 34.447l12.865-12.865c3.195-3.195 3.751-8.091 1.324-11.641-1.253-1.833-3.047-2.905-5.184-3.104-2.764-.251-5.873.979-8.12 3.228a1.248 1.248 0 0 1-1.768 0C17.065 8.01 14.294 6.8 11.727 6.8Z" fill="#0B0B0B"/><path d="M9.788 20.18a1.247 1.247 0 0 1-.884-.366c-2.308-2.308-2.749-5.947-1.029-8.464.93-1.36 2.228-2.05 3.858-2.05a1.25 1.25 0 1 1 0 2.5c-.808 0-1.328.279-1.794.961-1.054 1.542-.74 3.814.731 5.285a1.249 1.249 0 0 1-.882 2.134Z" fill="#FFB22C"/></symbol><symbol id="planH" fill="none" xmlns="http://www.w3.org/2000/svg"><path d="M35 2.5H5A2.507 2.507 0 0 0 2.5 5v30c0 1.375 1.125 2.5 2.5 2.5h18.75V35c0-3.5 2.75-6.25 6.25-6.25v-2.5A8.696 8.696 0 0 0 21.25 35H17.5v-5H15v5H5V5h10v17.5h2.5v-6.25h5v-2.5h-5V5H35v8.75h-5v2.5h5V35h-5v2.5h5c1.375 0 2.5-1.125 2.5-2.5V5c0-1.375-1.125-2.5-2.5-2.5Z" fill="#0B0B0B"/></symbol><symbol id="likemd" viewBox="0 0 24 24" xmlns="http://www.w3.org/2000/svg"><path d="M12 22.167a1.493 1.493 0 0 1-1.06-.439L3.22 14.01C.793 11.583.385 7.842 2.25 5.117c1.01-1.48 2.467-2.347 4.209-2.51 1.903-.175 3.93.52 5.54 1.883 1.612-1.362 3.64-2.058 5.542-1.882 1.742.162 3.198 1.03 4.21 2.51 1.864 2.725 1.455 6.465-.972 8.891l-7.719 7.72a1.498 1.498 0 0 1-1.06.438ZM7.036 4.081a4.98 4.98 0 0 0-.438.02c-1.284.12-2.36.763-3.111 1.862-1.457 2.131-1.123 5.069.794 6.985L12 20.668l7.719-7.72c1.917-1.916 2.25-4.854.794-6.984-.751-1.1-1.828-1.743-3.11-1.862-1.658-.151-3.524.587-4.872 1.936a.75.75 0 0 1-1.06 0c-1.232-1.232-2.895-1.957-4.435-1.957Z" fill="#0B0B0B"/><path d="M5.873 12.108a.748.748 0 0 1-.53-.22c-1.385-1.384-1.65-3.567-.618-5.078.558-.816 1.337-1.23 2.315-1.23a.75.75 0 0 1 0 1.5c-.485 0-.797.167-1.076.577-.633.925-.444 2.288.438 3.17a.75.75 0 0 1-.53 1.281Z" fill="#FFB22C"/></symbol><symbol id="planHmd" viewBox="0 0 24 24" fill="none" xmlns="http://www.w3.org/2000/svg"><path d="M21 1.5H3c-.825 0-1.5.675-1.5 1.5v18c0 .825.675 1.5 1.5 1.5h11.25V21c0-2.1 1.65-3.75 3.75-3.75v-1.5A5.218 5.218 0 0 0 12.75 21H10.5v-3H9v3H3V3h6v10.5h1.5V9.75h3v-1.5h-3V3H21v5.25h-3v1.5h3V21h-3v1.5h3c.825 0 1.5-.675 1.5-1.5V3c0-.825-.675-1.5-1.5-1.5Z" fill="#0B0B0B"/></symbol><symbol id="star" viewBox="0 0 18 18" fill="none" xmlns="http://www.w3.org/2000/svg"><path fill-rule="evenodd" clip-rule="evenodd" d="m9 13.703 4.635 2.797-1.23-5.273L16.5 7.68l-5.393-.457L9 2.25 6.893 7.223 1.5 7.68l4.095 3.547-1.23 5.273L9 13.703Z" fill="#FFB22C"/></symbol></svg>