<svg><symbol id="stats" viewBox="0 0 26 24" fill="none" xmlns="http://www.w3.org/2000/svg"><path d="M24.993 17.413H1V3.293c0-.562.454-1.02 1.012-1.02h3.657v.75H2.012a.266.266 0 0 0-.262.27v13.37h22.493V3.294a.266.266 0 0 0-.262-.269h-9.135v-.75h9.135c.558 0 1.012.457 1.012 1.019v14.12Z" fill="#282D33" stroke="#000" stroke-width=".7"/><path d="M24.024 20.185H2.137c-.573 0-1.135-.583-1.135-1.178V16.65H25v2.39c0 .563-.365 1.145-.976 1.145ZM1.752 17.4v1.607c0 .18.223.428.385.428h21.887c.13 0 .226-.209.226-.395V17.4H1.752Z" fill="#282D33" stroke="#000" stroke-width=".7"/><path d="m9.49 23.228-.3-.687c.247-.109.453-.206.564-.268l.033-.018c.047-.026.105-.058.117-.071.007-.01.036-.061.084-.306.056-.288.05-.805.043-1.262-.004-.314-.008-.61.01-.82l.747.06c-.014.175-.01.455-.007.75.007.517.014 1.052-.057 1.416-.109.555-.226.695-.571.887l-.034.02c-.18.1-.471.23-.629.299ZM16.487 23.23a9.157 9.157 0 0 1-.633-.3l-.023-.013c-.367-.206-.462-.357-.567-.895-.071-.363-.065-.888-.058-1.395a9.448 9.448 0 0 0-.007-.744l.748-.06c.017.21.013.503.009.814-.006.447-.012.954.044 1.241.046.237.072.3.083.317.01.01.068.042.115.068l.02.012c.11.06.319.16.57.269l-.3.686Z" fill="#282D33" stroke="#000" stroke-width=".7"/><path d="M17.302 22.47H8.703v.75h8.6v-.75ZM7.297 15.264h-3.67V10.83h3.67v4.434Zm-2.92-.75h2.17V11.58h-2.17v2.934ZM12.11 15.264H8.44V5.878h3.67v9.386Zm-2.92-.75h2.17V6.628H9.19v7.886ZM16.925 15.264h-3.671V8.215h3.671v7.05Zm-2.921-.75h2.171V8.965h-2.171v5.55ZM21.736 15.264h-3.67V3.878h3.67v11.386Zm-2.92-.75h2.17V4.628h-2.17v9.886Z" fill="#282D33" stroke="#000" stroke-width=".7"/><path d="m10.207 5.168-.444-.777-.101-.177H7.519a.418.418 0 0 1-.415-.418V1.538c0-.083.024-.16.065-.225v.124a.361.361 0 0 0-.015.1v2.259a.364.364 0 0 0 .365.368h2.172l.212.372.304.533.304-.534.211-.37h2.173a.366.366 0 0 0 .365-.37v-2.38l-.076-.095-.015-.019-.105-.132H7.323a.41.41 0 0 1 .196-.05h5.377a.414.414 0 0 1 .414.418v2.259a.417.417 0 0 1-.415.418h-2.143l-.1.176-.445.778Z" fill="#FFB22C" stroke="#FFB22C" stroke-width=".7"/><path d="M9.106 2.712v-.05h2.2v.05h-2.2Z" fill="#FFB22C" stroke="#FFB22C" stroke-width=".7"/><path d="M22.936 14.514H3.063v.75h19.873v-.75Z" fill="#282D33" stroke="#000" stroke-width=".7"/></symbol><symbol id="statsxl" viewBox="0 0 50 48" fill="none" xmlns="http://www.w3.org/2000/svg"><path d="M48.986 34.827H1V6.586c0-1.124.907-2.038 2.023-2.038h7.315v1.5H3.024a.532.532 0 0 0-.524.538v26.741h44.986V6.587a.532.532 0 0 0-.524-.539h-18.27v-1.5h18.27c1.116 0 2.024.915 2.024 2.038v28.241Z" fill="#0B0B0B" stroke="#000"/><path d="M47.049 40.37H3.275c-1.146 0-2.271-1.167-2.271-2.356V33.3H49v4.78c0 1.126-.73 2.291-1.951 2.291ZM2.504 34.8v3.214c0 .36.446.856.77.856H47.05c.258 0 .45-.418.45-.791v-3.28H2.505Z" fill="#0B0B0B" stroke="#000"/><path d="m17.982 46.456-.601-1.374c.496-.217.907-.412 1.129-.535l.067-.038c.093-.052.208-.116.233-.141.015-.02.072-.123.168-.612.113-.576.1-1.61.087-2.523-.008-.628-.016-1.221.018-1.642l1.495.12c-.029.351-.021.91-.013 1.502.013 1.034.027 2.102-.115 2.831-.218 1.11-.452 1.39-1.143 1.775l-.067.037c-.36.2-.942.462-1.258.6ZM31.973 46.461c-.318-.14-.905-.402-1.267-.602l-.046-.025c-.734-.412-.925-.713-1.134-1.79-.143-.727-.13-1.776-.116-2.79.008-.584.015-1.136-.014-1.488l1.495-.121c.035.422.027 1.008.019 1.628-.012.895-.025 1.909.087 2.484.093.472.144.6.166.633.023.02.138.084.23.136l.042.024c.22.12.637.318 1.139.538l-.601 1.373Z" fill="#0B0B0B" stroke="#000"/><path d="M33.603 44.94H16.404v1.5h17.199v-1.5Z" fill="#0B0B0B" stroke="#000"/><path d="M13.595 30.528h-7.34V21.66h7.34v8.868Zm-5.84-1.5h4.34V23.16h-4.34v5.868ZM23.225 30.529h-7.342V11.756h7.342v18.773Zm-5.842-1.5h4.342V13.256h-4.342v15.773ZM32.85 30.528h-7.342V16.43h7.342v14.098Zm-5.843-1.5h4.343V17.93h-4.343v11.098ZM42.477 30.528h-7.34V7.756h7.34v22.772Zm-5.84-1.5h4.34V9.256h-4.34v19.772Z" fill="#0B0B0B" stroke="#000" stroke-width="1.2"/><path d="m20.474 8.379-.172.301.172-.301Zm-7.216-5.304c0-.076.01-.15.03-.219v.012a.767.767 0 0 0-.03.207Zm5.095 5.304.183.32-.183-.32Zm-5.095-.757Zm0-.03Zm12.308.073Zm-.226-5.148a.793.793 0 0 1 .129.169l-.062-.078-.03-.036-.06-.078a.74.74 0 0 1 .023.023Z" fill="#FFB22C" stroke="#FFB22C" stroke-width="1.5"/><mask id="path-11-inside-1_660_5214" fill="#fff"><path d="M22.314 4.624h-5.8v1.5h5.8v-1.5Z"/></mask><path d="M22.314 4.624h-5.8v1.5h5.8v-1.5Z" fill="#FFB22C"/><path d="M16.514 4.624v-1.5h-1.5v1.5h1.5Zm5.8 0h1.5v-1.5h-1.5v1.5Zm0 1.5v1.5h1.5v-1.5h-1.5Zm-5.8 0h-1.5v1.5h1.5v-1.5Zm0 0h5.8v-3h-5.8v3Zm4.3-1.5v1.5h3v-1.5h-3Zm1.5 0h-5.8v3h5.8v-3Zm-4.3 1.5v-1.5h-3v1.5h3Z" fill="#FFB22C" mask="url('#path-11-inside-1_660_5214')"/><path d="M44.873 29.028H5.127v1.5h39.746v-1.5Z" fill="#0B0B0B" stroke="#000" stroke-width="1.2"/></symbol><symbol id="add" viewBox="0 0 112 112" fill="none" xmlns="http://www.w3.org/2000/svg"><g filter="url('#filter0_d_660_5351')"><rect x="16" y="12" width="80" height="80" rx="40" fill="#F2FAFD" shape-rendering="crispEdges"/><g clip-path="url('#clip0_660_5351')"><path d="M76 51.986c0 .627-.25 1.194-.668 1.602a2.234 2.234 0 0 1-1.614.666H58.282v15.424A2.286 2.286 0 0 1 56 71.957a2.31 2.31 0 0 1-1.614-.667 2.303 2.303 0 0 1-.668-1.612V54.254H38.282A2.271 2.271 0 0 1 36 51.986c0-.627.25-1.204.667-1.612a2.274 2.274 0 0 1 1.615-.667h15.436V34.283A2.278 2.278 0 0 1 56 32.014c.627 0 1.196.26 1.614.667.409.408.668.975.668 1.602v15.424h15.436A2.274 2.274 0 0 1 76 51.986Z" fill="#FFB22C"/></g></g><defs><clipPath id="clip0_660_5351"><path fill="#fff" transform="translate(36 32)" d="M0 0h40v40H0z"/></clipPath><filter id="filter0_d_660_5351" x="0" y="0" width="112" height="112" filterUnits="userSpaceOnUse" color-interpolation-filters="sRGB"><feFlood flood-opacity="0" result="BackgroundImageFix"/><feColorMatrix in="SourceAlpha" values="0 0 0 0 0 0 0 0 0 0 0 0 0 0 0 0 0 0 127 0" result="hardAlpha"/><feOffset dy="4"/><feGaussianBlur stdDeviation="8"/><feComposite in2="hardAlpha" operator="out"/><feColorMatrix values="0 0 0 0 0.341176 0 0 0 0 0.454902 0 0 0 0 0.803922 0 0 0 0.2 0"/><feBlend in2="BackgroundImageFix" result="effect1_dropShadow_660_5351"/><feBlend in="SourceGraphic" in2="effect1_dropShadow_660_5351" result="shape"/></filter></defs></symbol><symbol id="addxl" viewBox="0 0 132 132" fill="none" xmlns="http://www.w3.org/2000/svg"><g filter="url('#filter0_d_660_4955')"><rect x="16" y="12" width="100" height="100" rx="50" fill="#F2FAFD" shape-rendering="crispEdges"/><g clip-path="url('#clip0_660_4955')"><path d="M96 61.978c0 .94-.374 1.791-1.001 2.404-.613.626-1.465 1-2.422 1H69.423v23.135A3.43 3.43 0 0 1 66 91.935a3.465 3.465 0 0 1-2.422-1 3.454 3.454 0 0 1-1-2.418V65.382H39.422A3.407 3.407 0 0 1 36 61.978c0-.94.374-1.806 1.001-2.418.613-.612 1.465-1 2.422-1h23.154V35.425c0-1.881 1.54-3.403 3.422-3.403.942 0 1.794.388 2.422 1a3.393 3.393 0 0 1 1.001 2.403V58.56h23.154A3.41 3.41 0 0 1 96 61.978Z" fill="#FFB22C"/></g></g><defs><clipPath id="clip0_660_4955"><path fill="#fff" transform="translate(36 32)" d="M0 0h60v60H0z"/></clipPath><filter id="filter0_d_660_4955" x="0" y="0" width="132" height="132" filterUnits="userSpaceOnUse" color-interpolation-filters="sRGB"><feFlood flood-opacity="0" result="BackgroundImageFix"/><feColorMatrix in="SourceAlpha" values="0 0 0 0 0 0 0 0 0 0 0 0 0 0 0 0 0 0 127 0" result="hardAlpha"/><feOffset dy="4"/><feGaussianBlur stdDeviation="8"/><feComposite in2="hardAlpha" operator="out"/><feColorMatrix values="0 0 0 0 0.341176 0 0 0 0 0.454902 0 0 0 0 0.803922 0 0 0 0.2 0"/><feBlend in2="BackgroundImageFix" result="effect1_dropShadow_660_4955"/><feBlend in="SourceGraphic" in2="effect1_dropShadow_660_4955" result="shape"/></filter></defs></symbol></svg>