<svg width="72" height="72" fill="none" xmlns="http://www.w3.org/2000/svg"><g clip-path="url('#clip0_799_25875')"><path d="M56 35.986c0 .627-.25 1.194-.667 1.602a2.234 2.234 0 0 1-1.615.666H38.282v15.424A2.286 2.286 0 0 1 36 55.957a2.31 2.31 0 0 1-1.614-.667 2.303 2.303 0 0 1-.668-1.612V38.254H18.282A2.271 2.271 0 0 1 16 35.986c0-.627.25-1.204.668-1.612a2.274 2.274 0 0 1 1.614-.667h15.436V18.283A2.278 2.278 0 0 1 36 16.014c.627 0 1.196.26 1.614.667.409.408.668.975.668 1.602v15.424h15.436A2.274 2.274 0 0 1 56 35.986Z" fill="#D7E5FF" fill-opacity=".6"/></g><rect x=".5" y=".5" width="71" height="71" rx="3.5" stroke="#5774CD" stroke-dasharray="2 2"/><defs><clipPath id="clip0_799_25875"><path fill="#fff" transform="translate(16 16)" d="M0 0h40v40H0z"/></clipPath></defs></svg>