
  
<svg>
          <symbol id='arrow-left'  width="34" height="34" viewBox="0 0 34 34" fill="none" xmlns="http://www.w3.org/2000/svg">
<path d="M15.3339 10.8185V14.372H25.2314V19.6283H15.3339V23.1818L8.5252 17L15.3339 10.8185ZM24.2314 15.372H14.3339V13.0773L10.0129 17L14.3339 20.9228V18.6283H24.2314V15.372Z" fill="#FFB22C"/>
<path d="M24.2314 15.372H14.3339V13.0773L10.0129 17L14.3339 20.9228V18.6283H24.2314V15.372Z" fill="#FFB22C"/>
<path d="M15.3339 10.8185V14.372H25.2314V19.6283H15.3339V23.1818L8.5252 17L15.3339 10.8185ZM24.2314 15.372H14.3339V13.0773L10.0129 17L14.3339 20.9228V18.6283H24.2314V15.372Z" stroke="#FFB22C" stroke-width="0.5"/>
<path d="M24.2314 15.372H14.3339V13.0773L10.0129 17L14.3339 20.9228V18.6283H24.2314V15.372Z" stroke="#FFB22C" stroke-width="0.5"/>
<rect x="33" y="33" width="32" height="32" rx="16" transform="rotate(-180 33 33)" stroke="black" stroke-width="2"/>
</symbol>

<symbol id='walk' width="100" height="33" viewBox="0 0 100 33" fill="none" xmlns="http://www.w3.org/2000/svg">
<g opacity="0.8" filter="url(#filter0_b_407_3300)">
<rect width="99.5772" height="32.2633" rx="6" fill="#D7E5FF"/>
<g clip-path="url(#clip0_407_3300)">
<mask id="path-2-inside-1_407_3300" fill="white">
<path d="M26.5772 22.1322L26.3972 21.1999C30.1668 20.4725 32.5087 18.8947 32.5087 17.0823C32.5087 15.4814 30.8151 14.1037 27.8621 13.3024L28.1106 12.3858C32.7634 13.6483 33.4583 15.8702 33.4583 17.0821C33.4583 19.4131 30.8858 21.301 26.5772 22.1322ZM22.8667 20.1807L22.1957 20.8517L22.9901 21.6494H21.4897C15.4344 21.6494 10.5092 19.6013 10.5092 17.0817C10.5092 15.6414 11.826 14.4037 14.2189 13.5966L13.9183 12.6976C11.1074 13.6442 9.55957 15.2016 9.55957 17.0817C9.55957 20.2281 14.6875 22.599 21.4897 22.599H22.9901L22.1957 23.3966L22.8667 24.0676L24.8101 22.1242L22.8667 20.1807ZM15.2148 12.777C15.2312 13.1844 15.3138 13.5143 15.462 13.7665C15.7443 14.24 16.248 14.4769 16.973 14.4769C17.5614 14.4769 18.0055 14.3124 18.3056 13.9838C18.6058 13.6552 18.7557 13.2742 18.7557 12.8404C18.7557 12.4284 18.6275 12.1031 18.3705 11.8653C18.1986 11.7077 18.0668 11.6285 17.9749 11.6285C18.0974 11.5815 18.215 11.4931 18.3282 11.3636C18.5072 11.1561 18.5968 10.9018 18.5968 10.6001C18.5968 10.1739 18.4465 9.83405 18.1467 9.58068C17.8465 9.32751 17.4518 9.20073 16.9622 9.20073C16.6988 9.20073 16.4762 9.23266 16.2951 9.29632C16.1136 9.35999 15.9571 9.45185 15.8255 9.57209C15.6491 9.74144 15.5195 9.92665 15.4374 10.127C15.3597 10.3553 15.3162 10.5969 15.3067 10.8512H16.2467C16.2421 10.5994 16.2957 10.3977 16.4071 10.2469C16.5188 10.0964 16.693 10.0209 16.9305 10.0209C17.1373 10.0209 17.2977 10.0822 17.4118 10.2045C17.5255 10.327 17.5828 10.486 17.5828 10.6815C17.5828 10.9832 17.4712 11.1836 17.2481 11.2825C17.1192 11.3413 16.8913 11.3731 16.5649 11.3781V12.099C16.8983 12.099 17.1426 12.1309 17.2977 12.1942C17.5701 12.3074 17.7064 12.5324 17.7064 12.8694C17.7064 13.1239 17.6329 13.3188 17.4861 13.4541C17.3394 13.5895 17.167 13.6573 16.9695 13.6573C16.6474 13.6573 16.4254 13.5337 16.3031 13.2863C16.2376 13.1521 16.2045 12.9825 16.2045 12.7775H15.2148V12.777ZM22.7067 10.5152C22.6714 10.1098 22.5123 9.78532 22.2296 9.54166C21.9468 9.29782 21.5676 9.17571 21.0918 9.17571C20.7617 9.17571 20.4785 9.25114 20.2417 9.402C20.005 9.55286 19.8136 9.75189 19.6674 9.99928C19.4981 10.2889 19.3836 10.6518 19.3246 11.0876C19.292 11.3328 19.2752 11.6509 19.2752 12.0419C19.2752 12.7086 19.3941 13.2527 19.6321 13.6743C19.9385 14.2141 20.4143 14.4835 21.0599 14.4835C21.6605 14.4835 22.1034 14.3011 22.3885 13.9357C22.6734 13.5707 22.8161 13.1489 22.8161 12.6707C22.8161 12.1901 22.6708 11.7952 22.3799 11.4868C22.0887 11.1784 21.716 11.0238 21.2612 11.0238C21.0491 11.0238 20.8609 11.0581 20.6958 11.1264C20.5311 11.1948 20.3861 11.3029 20.2612 11.4517C20.2894 11.0557 20.3413 10.7566 20.4167 10.554C20.5558 10.1864 20.7888 10.0025 21.1165 10.0025C21.3353 10.0025 21.4992 10.0827 21.6077 10.2429C21.671 10.3419 21.7029 10.4324 21.7029 10.515L22.7067 10.5152ZM20.286 12.7275C20.286 12.386 20.385 12.1382 20.5827 11.9853C20.7147 11.8817 20.8668 11.8298 21.0386 11.8298C21.2507 11.8298 21.4296 11.9091 21.5758 12.0684C21.7216 12.2273 21.795 12.4564 21.795 12.7555C21.795 13.0242 21.7307 13.2426 21.6021 13.4112C21.4738 13.5796 21.2976 13.6638 21.0739 13.6638C20.8456 13.6638 20.657 13.5766 20.5086 13.4022C20.3601 13.2279 20.286 13.0029 20.286 12.7275ZM25.067 9.1899C24.4145 9.1899 23.9571 9.41955 23.6942 9.87886C23.4315 10.3385 23.3 10.9911 23.3 11.8369C23.3 12.6827 23.4315 13.3339 23.6942 13.7912C23.9569 14.248 24.4145 14.4767 25.067 14.4767C25.7196 14.4767 26.1774 14.248 26.4401 13.7912C26.7028 13.3339 26.8342 12.6827 26.8342 11.8369C26.8342 10.9911 26.7028 10.3385 26.4401 9.87886C26.1774 9.41955 25.7196 9.1899 25.067 9.1899ZM24.3286 11.8369C24.3286 11.2196 24.3768 10.7624 24.4735 10.4657C24.57 10.169 24.7678 10.0206 25.067 10.0206C25.3663 10.0206 25.5626 10.169 25.6556 10.4657C25.7485 10.7624 25.7952 11.2196 25.7952 11.8369C25.7952 12.4258 25.7485 12.8765 25.6556 13.1886C25.5626 13.5006 25.3662 13.6567 25.067 13.6567C24.7678 13.6567 24.57 13.5006 24.4735 13.1886C24.3768 12.8765 24.3286 12.4258 24.3286 11.8369ZM28.5721 8.02801C28.5721 7.75038 28.4909 7.50971 28.3283 7.30582C28.1657 7.1025 27.919 7.00037 27.588 7.00037C27.257 7.00037 27.0103 7.10231 26.8477 7.30582C26.6851 7.50952 26.6038 7.75038 26.6038 8.02801C26.6038 8.3105 26.6851 8.55229 26.8477 8.75282C27.0103 8.95334 27.257 9.0536 27.588 9.0536C27.919 9.0536 28.1657 8.95353 28.3283 8.75282C28.4907 8.55229 28.5721 8.3105 28.5721 8.02801ZM27.5859 8.63145C27.4388 8.63145 27.3253 8.57918 27.2459 8.47443C27.1666 8.36988 27.1266 8.22088 27.1266 8.02801C27.1266 7.83514 27.1666 7.68671 27.2459 7.58252C27.3253 7.47834 27.4388 7.42644 27.5859 7.42644C27.7331 7.42644 27.8462 7.47834 27.9254 7.58252C28.0042 7.68671 28.0437 7.83514 28.0437 8.02801C28.0437 8.22088 28.0042 8.36988 27.9254 8.47443C27.8462 8.57918 27.7331 8.63145 27.5859 8.63145Z"/>
</mask>
<path d="M26.5772 22.1322L26.3972 21.1999C30.1668 20.4725 32.5087 18.8947 32.5087 17.0823C32.5087 15.4814 30.8151 14.1037 27.8621 13.3024L28.1106 12.3858C32.7634 13.6483 33.4583 15.8702 33.4583 17.0821C33.4583 19.4131 30.8858 21.301 26.5772 22.1322ZM22.8667 20.1807L22.1957 20.8517L22.9901 21.6494H21.4897C15.4344 21.6494 10.5092 19.6013 10.5092 17.0817C10.5092 15.6414 11.826 14.4037 14.2189 13.5966L13.9183 12.6976C11.1074 13.6442 9.55957 15.2016 9.55957 17.0817C9.55957 20.2281 14.6875 22.599 21.4897 22.599H22.9901L22.1957 23.3966L22.8667 24.0676L24.8101 22.1242L22.8667 20.1807ZM15.2148 12.777C15.2312 13.1844 15.3138 13.5143 15.462 13.7665C15.7443 14.24 16.248 14.4769 16.973 14.4769C17.5614 14.4769 18.0055 14.3124 18.3056 13.9838C18.6058 13.6552 18.7557 13.2742 18.7557 12.8404C18.7557 12.4284 18.6275 12.1031 18.3705 11.8653C18.1986 11.7077 18.0668 11.6285 17.9749 11.6285C18.0974 11.5815 18.215 11.4931 18.3282 11.3636C18.5072 11.1561 18.5968 10.9018 18.5968 10.6001C18.5968 10.1739 18.4465 9.83405 18.1467 9.58068C17.8465 9.32751 17.4518 9.20073 16.9622 9.20073C16.6988 9.20073 16.4762 9.23266 16.2951 9.29632C16.1136 9.35999 15.9571 9.45185 15.8255 9.57209C15.6491 9.74144 15.5195 9.92665 15.4374 10.127C15.3597 10.3553 15.3162 10.5969 15.3067 10.8512H16.2467C16.2421 10.5994 16.2957 10.3977 16.4071 10.2469C16.5188 10.0964 16.693 10.0209 16.9305 10.0209C17.1373 10.0209 17.2977 10.0822 17.4118 10.2045C17.5255 10.327 17.5828 10.486 17.5828 10.6815C17.5828 10.9832 17.4712 11.1836 17.2481 11.2825C17.1192 11.3413 16.8913 11.3731 16.5649 11.3781V12.099C16.8983 12.099 17.1426 12.1309 17.2977 12.1942C17.5701 12.3074 17.7064 12.5324 17.7064 12.8694C17.7064 13.1239 17.6329 13.3188 17.4861 13.4541C17.3394 13.5895 17.167 13.6573 16.9695 13.6573C16.6474 13.6573 16.4254 13.5337 16.3031 13.2863C16.2376 13.1521 16.2045 12.9825 16.2045 12.7775H15.2148V12.777ZM22.7067 10.5152C22.6714 10.1098 22.5123 9.78532 22.2296 9.54166C21.9468 9.29782 21.5676 9.17571 21.0918 9.17571C20.7617 9.17571 20.4785 9.25114 20.2417 9.402C20.005 9.55286 19.8136 9.75189 19.6674 9.99928C19.4981 10.2889 19.3836 10.6518 19.3246 11.0876C19.292 11.3328 19.2752 11.6509 19.2752 12.0419C19.2752 12.7086 19.3941 13.2527 19.6321 13.6743C19.9385 14.2141 20.4143 14.4835 21.0599 14.4835C21.6605 14.4835 22.1034 14.3011 22.3885 13.9357C22.6734 13.5707 22.8161 13.1489 22.8161 12.6707C22.8161 12.1901 22.6708 11.7952 22.3799 11.4868C22.0887 11.1784 21.716 11.0238 21.2612 11.0238C21.0491 11.0238 20.8609 11.0581 20.6958 11.1264C20.5311 11.1948 20.3861 11.3029 20.2612 11.4517C20.2894 11.0557 20.3413 10.7566 20.4167 10.554C20.5558 10.1864 20.7888 10.0025 21.1165 10.0025C21.3353 10.0025 21.4992 10.0827 21.6077 10.2429C21.671 10.3419 21.7029 10.4324 21.7029 10.515L22.7067 10.5152ZM20.286 12.7275C20.286 12.386 20.385 12.1382 20.5827 11.9853C20.7147 11.8817 20.8668 11.8298 21.0386 11.8298C21.2507 11.8298 21.4296 11.9091 21.5758 12.0684C21.7216 12.2273 21.795 12.4564 21.795 12.7555C21.795 13.0242 21.7307 13.2426 21.6021 13.4112C21.4738 13.5796 21.2976 13.6638 21.0739 13.6638C20.8456 13.6638 20.657 13.5766 20.5086 13.4022C20.3601 13.2279 20.286 13.0029 20.286 12.7275ZM25.067 9.1899C24.4145 9.1899 23.9571 9.41955 23.6942 9.87886C23.4315 10.3385 23.3 10.9911 23.3 11.8369C23.3 12.6827 23.4315 13.3339 23.6942 13.7912C23.9569 14.248 24.4145 14.4767 25.067 14.4767C25.7196 14.4767 26.1774 14.248 26.4401 13.7912C26.7028 13.3339 26.8342 12.6827 26.8342 11.8369C26.8342 10.9911 26.7028 10.3385 26.4401 9.87886C26.1774 9.41955 25.7196 9.1899 25.067 9.1899ZM24.3286 11.8369C24.3286 11.2196 24.3768 10.7624 24.4735 10.4657C24.57 10.169 24.7678 10.0206 25.067 10.0206C25.3663 10.0206 25.5626 10.169 25.6556 10.4657C25.7485 10.7624 25.7952 11.2196 25.7952 11.8369C25.7952 12.4258 25.7485 12.8765 25.6556 13.1886C25.5626 13.5006 25.3662 13.6567 25.067 13.6567C24.7678 13.6567 24.57 13.5006 24.4735 13.1886C24.3768 12.8765 24.3286 12.4258 24.3286 11.8369ZM28.5721 8.02801C28.5721 7.75038 28.4909 7.50971 28.3283 7.30582C28.1657 7.1025 27.919 7.00037 27.588 7.00037C27.257 7.00037 27.0103 7.10231 26.8477 7.30582C26.6851 7.50952 26.6038 7.75038 26.6038 8.02801C26.6038 8.3105 26.6851 8.55229 26.8477 8.75282C27.0103 8.95334 27.257 9.0536 27.588 9.0536C27.919 9.0536 28.1657 8.95353 28.3283 8.75282C28.4907 8.55229 28.5721 8.3105 28.5721 8.02801ZM27.5859 8.63145C27.4388 8.63145 27.3253 8.57918 27.2459 8.47443C27.1666 8.36988 27.1266 8.22088 27.1266 8.02801C27.1266 7.83514 27.1666 7.68671 27.2459 7.58252C27.3253 7.47834 27.4388 7.42644 27.5859 7.42644C27.7331 7.42644 27.8462 7.47834 27.9254 7.58252C28.0042 7.68671 28.0437 7.83514 28.0437 8.02801C28.0437 8.22088 28.0042 8.36988 27.9254 8.47443C27.8462 8.57918 27.7331 8.63145 27.5859 8.63145Z" fill="#0B0B0B" stroke="black" stroke-width="2.38987" mask="url(#path-2-inside-1_407_3300)"/>
</g>
<path d="M46.686 19.5581C46.1045 19.5581 45.5867 19.4346 45.1326 19.1876C44.6785 18.9407 44.3201 18.6021 44.0572 18.172C43.8023 17.7418 43.6748 17.2558 43.6748 16.7141C43.6748 16.5548 43.7226 16.4194 43.8182 16.3079C43.9138 16.1963 44.0373 16.1406 44.1886 16.1406C44.332 16.1406 44.4515 16.1963 44.5471 16.3079C44.6427 16.4194 44.6905 16.5548 44.6905 16.7141C44.6905 17.0567 44.7741 17.3713 44.9414 17.6581C45.1167 17.9369 45.3517 18.16 45.6464 18.3273C45.9412 18.4866 46.2718 18.5663 46.6382 18.5663C47.1959 18.5663 47.642 18.4109 47.9766 18.1003C48.3111 17.7896 48.4784 17.3674 48.4784 16.8336C48.4784 16.4751 48.4028 16.1605 48.2514 15.8896C48.1 15.6108 47.8929 15.3917 47.63 15.2324C47.3671 15.0731 47.0684 14.9934 46.7338 14.9934C46.5825 14.9934 46.451 14.9416 46.3395 14.8381C46.2359 14.7266 46.1842 14.5911 46.1842 14.4318C46.1842 14.2725 46.2359 14.141 46.3395 14.0375C46.451 13.9339 46.5825 13.8821 46.7338 13.8821C46.9808 13.8821 47.2118 13.8184 47.4269 13.6909C47.6499 13.5635 47.8292 13.3962 47.9646 13.1891C48.108 12.9819 48.1797 12.7469 48.1797 12.4841C48.1797 12.1096 48.0443 11.795 47.7734 11.5401C47.5026 11.2851 47.156 11.1577 46.7338 11.1577C46.4152 11.1577 46.1284 11.2214 45.8735 11.3489C45.6186 11.4684 45.4154 11.6317 45.2641 11.8388C45.1207 12.0459 45.049 12.2769 45.049 12.5319C45.049 12.6991 45.0012 12.8386 44.9056 12.9501C44.81 13.0616 44.6865 13.1174 44.5351 13.1174C44.3918 13.1174 44.2723 13.0656 44.1767 12.962C44.0811 12.8505 44.0333 12.7151 44.0333 12.5557C44.0333 12.1096 44.1488 11.7073 44.3798 11.3489C44.6188 10.9824 44.9374 10.6956 45.3358 10.4885C45.742 10.2734 46.2001 10.1659 46.7099 10.1659C47.1799 10.1659 47.6022 10.2694 47.9766 10.4766C48.351 10.6757 48.6457 10.9506 48.8608 11.3011C49.0839 11.6516 49.1954 12.0459 49.1954 12.4841C49.1954 12.7788 49.1277 13.0497 48.9923 13.2966C48.8568 13.5436 48.6816 13.7587 48.4665 13.9419C48.2514 14.1251 48.0204 14.2725 47.7734 14.384C48.1877 14.5194 48.5262 14.7106 48.7891 14.9576C49.06 15.1966 49.2591 15.4794 49.3866 15.806C49.5141 16.1246 49.5778 16.4712 49.5778 16.8456C49.5778 17.3634 49.4463 17.8294 49.1835 18.2436C48.9285 18.6499 48.582 18.9726 48.1439 19.2115C47.7057 19.4426 47.2198 19.5581 46.686 19.5581ZM51.8691 19.5342C51.7097 19.5342 51.5743 19.4824 51.4628 19.3788C51.3592 19.2673 51.3075 19.1319 51.3075 18.9726V10.7633C51.3075 10.5961 51.3592 10.4606 51.4628 10.3571C51.5743 10.2535 51.7097 10.2017 51.8691 10.2017H54.0319C54.717 10.2017 55.3384 10.3172 55.896 10.5483C56.4616 10.7713 56.9515 11.0939 57.3658 11.5162C57.78 11.9304 58.0987 12.4203 58.3217 12.9859C58.5528 13.5515 58.6683 14.1769 58.6683 14.862C58.6683 15.5471 58.5528 16.1764 58.3217 16.75C58.0987 17.3156 57.78 17.8095 57.3658 18.2317C56.9515 18.6459 56.4616 18.9686 55.896 19.1996C55.3384 19.4227 54.717 19.5342 54.0319 19.5342H51.8691ZM52.4307 18.5304H54.0319C54.725 18.5304 55.3344 18.3751 55.8602 18.0644C56.3939 17.7458 56.8121 17.3116 57.1148 16.7619C57.4255 16.2043 57.5809 15.571 57.5809 14.862C57.5809 14.145 57.4255 13.5117 57.1148 12.962C56.8121 12.4124 56.3939 11.9822 55.8602 11.6715C55.3344 11.3608 54.725 11.2055 54.0319 11.2055H52.4307V18.5304ZM65.4829 19.5342C65.3634 19.5342 65.2558 19.5023 65.1602 19.4386C65.0646 19.3669 64.9969 19.2793 64.9571 19.1757L63.1527 13.7626C63.097 13.5316 63.1009 13.3484 63.1647 13.213C63.2284 13.0696 63.3638 12.9979 63.571 12.9979C63.7064 12.9979 63.8179 13.0337 63.9055 13.1054C64.0011 13.1771 64.0768 13.2966 64.1326 13.4639L65.6979 18.3153H65.3395L66.7973 13.4161C66.8371 13.2886 66.9008 13.1891 66.9885 13.1174C67.0761 13.0377 67.1956 12.9979 67.347 12.9979C67.4904 12.9979 67.6059 13.0377 67.6935 13.1174C67.7891 13.1891 67.8528 13.2886 67.8847 13.4161L69.1633 18.1003H68.9721L70.4657 13.4639C70.5613 13.1532 70.7446 12.9979 71.0154 12.9979C71.2225 12.9979 71.3619 13.0736 71.4336 13.2249C71.5053 13.3683 71.5014 13.5475 71.4217 13.7626L69.6173 19.1757C69.5855 19.2793 69.5217 19.3669 69.4261 19.4386C69.3385 19.5023 69.231 19.5342 69.1035 19.5342C68.992 19.5342 68.8844 19.5023 68.7809 19.4386C68.6773 19.3669 68.6136 19.2793 68.5897 19.1757L67.2514 14.4557H67.3828L66.0086 19.1757C65.9768 19.2793 65.9091 19.3669 65.8055 19.4386C65.7099 19.5023 65.6023 19.5342 65.4829 19.5342ZM75.3036 19.582C74.7062 19.582 74.1724 19.4386 73.7024 19.1518C73.2324 18.865 72.862 18.4707 72.5911 17.9688C72.3203 17.4669 72.1849 16.9013 72.1849 16.272C72.1849 15.6347 72.3283 15.0691 72.615 14.5752C72.9098 14.0733 73.3041 13.679 73.798 13.3922C74.2999 13.0975 74.8615 12.9501 75.4829 12.9501C76.1122 12.9501 76.6738 13.0975 77.1677 13.3922C77.6617 13.679 78.052 14.0733 78.3388 14.5752C78.6335 15.0771 78.7849 15.6427 78.7929 16.272L78.3627 16.3795C78.3627 16.985 78.2273 17.5307 77.9564 18.0166C77.6856 18.5026 77.3191 18.8849 76.8571 19.1637C76.403 19.4426 75.8852 19.582 75.3036 19.582ZM75.4829 18.6021C75.9131 18.6021 76.2954 18.5026 76.63 18.3034C76.9646 18.0963 77.2275 17.8175 77.4187 17.4669C77.6178 17.1085 77.7174 16.7101 77.7174 16.272C77.7174 15.8259 77.6178 15.4276 77.4187 15.0771C77.2275 14.7186 76.9646 14.4398 76.63 14.2406C76.2954 14.0335 75.9131 13.9299 75.4829 13.9299C75.0686 13.9299 74.6902 14.0335 74.3477 14.2406C74.0052 14.4398 73.7343 14.7186 73.5351 15.0771C73.344 15.4276 73.2484 15.8259 73.2484 16.272C73.2484 16.7101 73.344 17.1085 73.5351 17.4669C73.7343 17.8175 74.0052 18.0963 74.3477 18.3034C74.6902 18.5026 75.0686 18.6021 75.4829 18.6021ZM78.2312 19.5461C78.0719 19.5461 77.9405 19.4943 77.8369 19.3908C77.7334 19.2872 77.6816 19.1558 77.6816 18.9965V17.0846L77.9086 15.9374L78.7929 16.272V18.9965C78.7929 19.1558 78.7371 19.2872 78.6256 19.3908C78.522 19.4943 78.3906 19.5461 78.2312 19.5461ZM82.0883 19.5342C81.7537 19.5342 81.455 19.4426 81.1921 19.2593C80.9292 19.0761 80.7221 18.8252 80.5707 18.5065C80.4273 18.1799 80.3556 17.8055 80.3556 17.3833V10.7394C80.3556 10.5801 80.4034 10.4527 80.499 10.3571C80.6026 10.2535 80.734 10.2017 80.8933 10.2017C81.0606 10.2017 81.1921 10.2535 81.2877 10.3571C81.3912 10.4527 81.443 10.5801 81.443 10.7394V17.3833C81.443 17.694 81.5028 17.9489 81.6223 18.1481C81.7497 18.3472 81.9051 18.4468 82.0883 18.4468H82.387C82.5384 18.4468 82.6579 18.4986 82.7455 18.6021C82.8331 18.6977 82.8769 18.8292 82.8769 18.9965C82.8769 19.1558 82.8092 19.2872 82.6738 19.3908C82.5463 19.4864 82.379 19.5342 82.1719 19.5342H82.0883ZM85.0872 17.228L84.418 16.4871L88.2538 13.0576C88.3573 12.9541 88.4728 12.9063 88.6003 12.9142C88.7357 12.9142 88.8512 12.97 88.9468 13.0815C89.0504 13.193 89.0982 13.3165 89.0902 13.452C89.0902 13.5794 89.0345 13.6909 88.9229 13.7865L85.0872 17.228ZM84.6331 19.5342C84.4738 19.5342 84.3423 19.4864 84.2388 19.3908C84.1432 19.2872 84.0954 19.1558 84.0954 18.9965V10.7394C84.0954 10.5801 84.1432 10.4527 84.2388 10.3571C84.3423 10.2535 84.4738 10.2017 84.6331 10.2017C84.7924 10.2017 84.9199 10.2535 85.0155 10.3571C85.1191 10.4527 85.1708 10.5801 85.1708 10.7394V18.9965C85.1708 19.1558 85.1191 19.2872 85.0155 19.3908C84.9199 19.4864 84.7924 19.5342 84.6331 19.5342ZM88.9588 19.4744C88.8393 19.57 88.7079 19.6099 88.5645 19.5939C88.429 19.586 88.3135 19.5222 88.2179 19.4027L85.7086 16.3079L86.4614 15.5909L89.0305 18.7575C89.1261 18.869 89.1659 18.9925 89.15 19.1279C89.142 19.2554 89.0783 19.3709 88.9588 19.4744Z" fill="#0B0B0B"/>
</g>
<defs>
<filter id="filter0_b_407_3300" x="-7.16962" y="-7.16962" width="113.916" height="46.6025" filterUnits="userSpaceOnUse" color-interpolation-filters="sRGB">
<feFlood flood-opacity="0" result="BackgroundImageFix"/>
<feGaussianBlur in="BackgroundImageFix" stdDeviation="3.58481"/>
<feComposite in2="SourceAlpha" operator="in" result="effect1_backgroundBlur_407_3300"/>
<feBlend mode="normal" in="SourceGraphic" in2="effect1_backgroundBlur_407_3300" result="shape"/>
</filter>
<clipPath id="clip0_407_3300">
<rect width="23.8987" height="23.8987" fill="white" transform="translate(9.55957 3.58472)"/>
</clipPath>
</defs>
</symbol>
<symbol id='map' width="24" height="24" viewBox="0 0 24 24" fill="none" xmlns="http://www.w3.org/2000/svg">
<path d="M3.49355 15.2812C3.49355 15.4814 3.33126 15.6437 3.13105 15.6437C2.93085 15.6437 2.76855 15.4814 2.76855 15.2812C2.76855 15.081 2.93085 14.9187 3.13105 14.9187C3.33126 14.9187 3.49355 15.081 3.49355 15.2812Z" fill="#0B0B0B" stroke="#0B0B0B"/>
<path d="M21.3186 10.1249C21.7949 10.1249 22.1811 9.73875 22.1811 9.2624C22.1811 8.78606 21.7949 8.3999 21.3186 8.3999C20.8422 8.3999 20.4561 8.78606 20.4561 9.2624C20.4561 9.73875 20.8422 10.1249 21.3186 10.1249Z" fill="#0B0B0B"/>
<path d="M15.5434 14.3249C15.2434 14.3249 14.9621 14.2874 14.6996 14.2124L14.8871 13.5562C15.1496 13.6312 15.4871 13.6499 15.7871 13.6312L15.8434 14.3062C15.7496 14.3249 15.6559 14.3249 15.5434 14.3249ZM16.9684 13.9874L16.6309 13.3874C16.8746 13.2562 17.0809 13.0687 17.2684 12.8062L17.8309 13.1999C17.5871 13.5562 17.3059 13.7999 16.9684 13.9874ZM3.80586 13.8749L3.13086 13.6874C3.22461 13.3499 3.33711 13.0124 3.44961 12.6937L4.10586 12.9374C3.99336 13.2187 3.89961 13.5374 3.80586 13.8749ZM13.6684 13.6499C13.4246 13.4249 13.1809 13.1437 12.9559 12.7874L13.5371 12.4124C13.7434 12.7124 13.9309 12.9562 14.1371 13.1249L13.6684 13.6499ZM18.3746 12.2624L17.7371 11.9812C17.7934 11.8499 17.8684 11.6999 17.9246 11.5687C17.9996 11.3999 18.0746 11.2124 18.1684 11.0437L18.7871 11.3437C18.7121 11.5124 18.6371 11.6812 18.5621 11.8499C18.5059 11.9812 18.4496 12.1124 18.3746 12.2624ZM4.49961 12.0187L3.88086 11.7187C4.04961 11.3812 4.21836 11.0812 4.40586 10.7812L4.98711 11.1374C4.79961 11.4187 4.64961 11.6999 4.49961 12.0187ZM12.4309 11.8874L12.3559 11.7562C12.2246 11.5124 12.0746 11.2499 11.9246 11.0062L12.5246 10.6687C12.6746 10.9312 12.8246 11.1937 12.9559 11.4562L13.0309 11.5874L12.4309 11.8874ZM19.2934 10.5187L18.7309 10.1062C18.9934 9.76865 19.2746 9.5249 19.5934 9.3374L19.9309 9.9374C19.7059 10.0687 19.4809 10.2562 19.2934 10.5187ZM5.56836 10.3874L5.04336 9.9374C5.28711 9.65615 5.56836 9.4124 5.84961 9.1874L6.26211 9.73115C6.01836 9.91865 5.77461 10.1249 5.56836 10.3874ZM11.3809 10.1999C11.1746 9.9374 10.9496 9.73115 10.7059 9.5624L11.1184 8.9999C11.4184 9.20615 11.6809 9.4499 11.9246 9.76865L11.3809 10.1999ZM7.08711 9.2624L6.80586 8.6249C7.14336 8.4749 7.51836 8.38115 7.89336 8.3249L7.98711 8.9999C7.66836 9.05615 7.36836 9.13115 7.08711 9.2624ZM9.88086 9.1499C9.59961 9.05615 9.28086 8.9999 8.94336 8.98115L8.99961 8.30615C9.39336 8.34365 9.76836 8.3999 10.0871 8.5124L9.88086 9.1499Z" fill="#FFB22C"/>
<path d="M17.775 2.68127L12.0187 5.02502L6.225 2.68127L0 5.21252V21.1688L6.225 18.6563L11.925 20.9625L17.775 18.8063L24 21.3563V5.23127L17.775 2.68127ZM22.95 19.7813L18.3 17.8688V13.1438C18.0375 13.5563 17.7188 13.95 17.25 14.2313V17.85L12.45 19.6125V12.6375C12.3 12.3938 12.1875 12.1688 12.0563 11.925C11.85 11.5313 11.6438 11.1563 11.4188 10.8188V19.6313L6.75 17.7375V9.82503C6.35625 10.0688 6 10.3875 5.7 10.7438V17.7375L1.05 19.6313V5.88752L5.71875 3.99377V8.85003C6.0375 8.62503 6.375 8.43753 6.75 8.28753V4.01252L11.4188 5.90627V8.81253C11.8313 9.13128 12.1687 9.50628 12.4688 9.90002V5.96252L17.25 4.01252V12.1875C17.3625 11.9625 17.4937 11.7188 17.6063 11.4375C17.7938 11.025 18 10.575 18.2812 10.1438V4.01252L22.95 5.92502V19.7813Z" fill="#0B0B0B"/>
</symbol>

<symbol id='like' width="40" height="40"  fill="none" xmlns="http://www.w3.org/2000/svg">
<path d="M19.9998 36.9449C19.6716 36.9455 19.3464 36.8812 19.0431 36.7557C18.7398 36.6302 18.4642 36.446 18.2323 36.2137L5.36732 23.3487C1.32232 19.3049 0.641072 13.0699 3.74857 8.52868C5.43482 6.06243 7.86107 4.61618 10.7648 4.34618C13.9373 4.05243 17.3148 5.21118 19.9998 7.48243C22.6848 5.21243 26.0648 4.05243 29.2348 4.34618C32.1386 4.61618 34.5648 6.06243 36.2511 8.52868C39.3586 13.0712 38.6773 19.3049 34.6323 23.3487L21.7673 36.2137C21.2798 36.6999 20.6398 36.9449 19.9998 36.9449ZM11.7261 6.80118C11.4824 6.80129 11.2388 6.81214 10.9961 6.83368C8.85732 7.03368 7.06482 8.10618 5.81107 9.93868C3.38357 13.4899 3.93982 18.3862 7.13482 21.5799L19.9998 34.4462L32.8648 21.5812C36.0598 18.3862 36.6161 13.4899 34.1886 9.93993C32.9361 8.10743 31.1423 7.03493 29.0048 6.83618C26.2411 6.58493 23.1323 7.81493 20.8848 10.0637C20.7688 10.1799 20.6311 10.272 20.4794 10.3349C20.3278 10.3978 20.1652 10.4302 20.0011 10.4302C19.8369 10.4302 19.6743 10.3978 19.5227 10.3349C19.3711 10.272 19.2333 10.1799 19.1173 10.0637C17.0648 8.00993 14.2936 6.80118 11.7261 6.80118Z" fill="#0B0B0B"/>
<path d="M9.78762 20.18C9.62345 20.1802 9.46086 20.1479 9.3092 20.0851C9.15754 20.0222 9.01979 19.93 8.90387 19.8138C6.59637 17.5063 6.15512 13.8675 7.87512 11.35C8.80512 9.99005 10.1026 9.30005 11.7326 9.30005C12.0641 9.30005 12.3821 9.43174 12.6165 9.66616C12.8509 9.90059 12.9826 10.2185 12.9826 10.55C12.9826 10.8816 12.8509 11.1995 12.6165 11.4339C12.3821 11.6684 12.0641 11.8 11.7326 11.8C10.9251 11.8 10.4051 12.0788 9.93887 12.7613C8.88512 14.3025 9.19887 16.575 10.6701 18.0463C10.8454 18.2208 10.9649 18.4434 11.0135 18.686C11.0621 18.9285 11.0376 19.18 10.9431 19.4086C10.8485 19.6371 10.6883 19.8325 10.4825 19.9698C10.2768 20.1072 10.035 20.1803 9.78762 20.18Z" fill="#FFB22C"/>
</symbol>

<symbol id='planH'  width="40" height="40"  fill="none" xmlns="http://www.w3.org/2000/svg">
<path d="M35 2.5H5C3.625 2.5 2.5 3.625 2.5 5V35C2.5 36.375 3.625 37.5 5 37.5H23.75V35C23.75 31.5 26.5 28.75 30 28.75V26.25C25.125 26.25 21.25 30.125 21.25 35H17.5V30H15V35H5V5H15V22.5H17.5V16.25H22.5V13.75H17.5V5H35V13.75H30V16.25H35V35H30V37.5H35C36.375 37.5 37.5 36.375 37.5 35V5C37.5 3.625 36.375 2.5 35 2.5Z" fill="#0B0B0B"/>

</symbol>

<symbol id='likemd'width="24" height="24" viewBox="0 0 24 24" xmlns="http://www.w3.org/2000/svg">
<path d="M11.9999 22.167C11.8029 22.1674 11.6079 22.1288 11.4259 22.0535C11.2439 21.9782 11.0785 21.8677 10.9394 21.7283L3.22039 14.0093C0.793393 11.583 0.384643 7.84201 2.24914 5.11726C3.26089 3.63751 4.71664 2.76976 6.45889 2.60776C8.36239 2.43151 10.3889 3.12676 11.9999 4.48951C13.6109 3.12751 15.6389 2.43151 17.5409 2.60776C19.2831 2.76976 20.7389 3.63751 21.7506 5.11726C23.6151 7.84276 23.2064 11.583 20.7794 14.0093L13.0604 21.7283C12.7679 22.02 12.3839 22.167 11.9999 22.167ZM7.03564 4.08076C6.88943 4.08083 6.74329 4.08733 6.59764 4.10026C5.31439 4.22026 4.23889 4.86376 3.48664 5.96326C2.03014 8.09401 2.36389 11.0318 4.28089 12.948L11.9999 20.6678L19.7189 12.9488C21.6359 11.0318 21.9696 8.09401 20.5131 5.96401C19.7616 4.86451 18.6854 4.22101 17.4029 4.10176C15.7446 3.95101 13.8794 4.68901 12.5309 6.03826C12.4613 6.10797 12.3786 6.16327 12.2877 6.201C12.1967 6.23874 12.0991 6.25816 12.0006 6.25816C11.9021 6.25816 11.8046 6.23874 11.7136 6.201C11.6226 6.16327 11.54 6.10797 11.4704 6.03826C10.2389 4.80601 8.57614 4.08076 7.03564 4.08076Z" fill="#0B0B0B"/>
<path d="M5.87277 12.1081C5.77426 12.1082 5.67671 12.0888 5.58572 12.0511C5.49472 12.0134 5.41207 11.9581 5.34252 11.8883C3.95802 10.5038 3.69327 8.32058 4.72527 6.81008C5.28327 5.99408 6.06177 5.58008 7.03977 5.58008C7.23868 5.58008 7.42944 5.6591 7.5701 5.79975C7.71075 5.9404 7.78977 6.13117 7.78977 6.33008C7.78977 6.52899 7.71075 6.71976 7.5701 6.86041C7.42944 7.00106 7.23868 7.08008 7.03977 7.08008C6.55527 7.08008 6.24327 7.24733 5.96352 7.65683C5.33127 8.58158 5.51952 9.94508 6.40227 10.8278C6.50745 10.9325 6.57916 11.0661 6.60832 11.2116C6.63747 11.3571 6.62276 11.508 6.56604 11.6452C6.50932 11.7823 6.41315 11.8995 6.28972 11.9819C6.16629 12.0644 6.02117 12.1083 5.87277 12.1081Z" fill="#FFB22C"/>

</symbol>

<symbol id='planHmd'   width="24" height="24" viewBox="0 0 24 24" fill="none" xmlns="http://www.w3.org/2000/svg">
<path d="M21 1.5H3C2.175 1.5 1.5 2.175 1.5 3V21C1.5 21.825 2.175 22.5 3 22.5H14.25V21C14.25 18.9 15.9 17.25 18 17.25V15.75C15.075 15.75 12.75 18.075 12.75 21H10.5V18H9V21H3V3H9V13.5H10.5V9.75H13.5V8.25H10.5V3H21V8.25H18V9.75H21V21H18V22.5H21C21.825 22.5 22.5 21.825 22.5 21V3C22.5 2.175 21.825 1.5 21 1.5Z" fill="#0B0B0B"/>

</symbol>


<symbol id='star'  width="18" height="18" viewBox="0 0 18 18" fill="none" xmlns="http://www.w3.org/2000/svg">

<path fill-rule="evenodd" clip-rule="evenodd" d="M9 13.7025L13.635 16.5L12.405 11.2275L16.5 7.68L11.1075 7.2225L9 2.25L6.8925 7.2225L1.5 7.68L5.595 11.2275L4.365 16.5L9 13.7025Z" fill="#FFB22C"/>

</symbol>
</svg>