
  
<svg>
          <symbol id='filter' width="112" height="112" viewBox="0 0 112 112" fill="none" xmlns="http://www.w3.org/2000/svg">
<g filter="url(#filter0_d_585_4999)">
<rect x="16" y="12" width="80" height="80" rx="40" fill="#F2FAFD" shape-rendering="crispEdges"/>
<path d="M50.375 59.5C43.1375 59.5 37.25 53.6125 37.25 46.375C37.25 39.1375 43.1375 33.25 50.375 33.25C57.6125 33.25 63.5 39.1375 63.5 46.375C63.5 53.6125 57.6125 59.5 50.375 59.5ZM50.375 35.75C44.5163 35.75 39.75 40.5163 39.75 46.375C39.75 52.2337 44.5163 57 50.375 57C56.2337 57 61 52.2337 61 46.375C61 40.5163 56.2337 35.75 50.375 35.75Z" fill="black"/>
<path d="M43.5 47.625C42.81 47.625 42.25 47.0662 42.25 46.375C42.25 41.895 45.895 38.25 50.375 38.25C51.065 38.25 51.625 38.8088 51.625 39.5C51.625 40.1912 51.065 40.75 50.375 40.75C47.2738 40.75 44.75 43.2738 44.75 46.375C44.75 47.0662 44.19 47.625 43.5 47.625Z" fill="#FFB22C"/>
<path d="M71.0009 70.9624C70.0396 70.9624 69.0809 70.5974 68.3496 69.8661L56.6146 58.1311C56.1259 57.6424 56.1259 56.8524 56.6146 56.3636C57.1034 55.8749 57.8934 55.8749 58.3821 56.3636L70.1171 68.0986C70.6059 68.5874 71.3959 68.5874 71.8846 68.0986L72.0996 67.8836C72.5871 67.3961 72.5871 66.6036 72.0996 66.1161L60.3646 54.3811C59.8759 53.8924 59.8759 53.1024 60.3646 52.6136C60.8534 52.1249 61.6434 52.1249 62.1321 52.6136L73.8671 64.3486C75.3296 65.8111 75.3296 68.1886 73.8671 69.6511L73.6521 69.8661C72.9209 70.5974 71.9621 70.9624 71.0009 70.9624Z" fill="#0B0B0B"/>
</g>
<defs>
<filter id="filter0_d_585_4999" x="0" y="0" width="112" height="112" filterUnits="userSpaceOnUse" color-interpolation-filters="sRGB">
<feFlood flood-opacity="0" result="BackgroundImageFix"/>
<feColorMatrix in="SourceAlpha" type="matrix" values="0 0 0 0 0 0 0 0 0 0 0 0 0 0 0 0 0 0 127 0" result="hardAlpha"/>
<feOffset dy="4"/>
<feGaussianBlur stdDeviation="8"/>
<feComposite in2="hardAlpha" operator="out"/>
<feColorMatrix type="matrix" values="0 0 0 0 0.341176 0 0 0 0 0.454902 0 0 0 0 0.803922 0 0 0 0.2 0"/>
<feBlend mode="normal" in2="BackgroundImageFix" result="effect1_dropShadow_585_4999"/>
<feBlend mode="normal" in="SourceGraphic" in2="effect1_dropShadow_585_4999" result="shape"/>
</filter>
</defs>
</symbol>

          <symbol id='filterXl' width="132" height="132" viewBox="0 0 132 132" fill="none" xmlns="http://www.w3.org/2000/svg">
<g filter="url(#filter0_d_580_4308)">
<rect x="16" y="12" width="100" height="100" rx="50" fill="#F2FAFD" shape-rendering="crispEdges"/>
<path d="M57.5625 73.25C46.7063 73.25 37.875 64.4188 37.875 53.5625C37.875 42.7063 46.7063 33.875 57.5625 33.875C68.4188 33.875 77.25 42.7063 77.25 53.5625C77.25 64.4188 68.4188 73.25 57.5625 73.25ZM57.5625 37.625C48.7744 37.625 41.625 44.7744 41.625 53.5625C41.625 62.3506 48.7744 69.5 57.5625 69.5C66.3506 69.5 73.5 62.3506 73.5 53.5625C73.5 44.7744 66.3506 37.625 57.5625 37.625Z" fill="black"/>
<path d="M47.25 55.4375C46.215 55.4375 45.375 54.5994 45.375 53.5625C45.375 46.8425 50.8425 41.375 57.5625 41.375C58.5975 41.375 59.4375 42.2131 59.4375 43.25C59.4375 44.2869 58.5975 45.125 57.5625 45.125C52.9106 45.125 49.125 48.9106 49.125 53.5625C49.125 54.5994 48.285 55.4375 47.25 55.4375Z" fill="#FFB22C"/>
<path d="M88.5003 90.4438C87.0584 90.4438 85.6203 89.8963 84.5234 88.7994L66.9209 71.1969C66.1878 70.4638 66.1878 69.2788 66.9209 68.5457C67.6541 67.8126 68.8391 67.8126 69.5722 68.5457L87.1747 86.1482C87.9078 86.8813 89.0928 86.8813 89.8259 86.1482L90.1484 85.8257C90.8797 85.0944 90.8797 83.9057 90.1484 83.1744L72.5459 65.5719C71.8128 64.8388 71.8128 63.6538 72.5459 62.9207C73.2791 62.1876 74.4641 62.1876 75.1972 62.9207L92.7997 80.5232C94.9934 82.7169 94.9934 86.2832 92.7997 88.4769L92.4772 88.7994C91.3803 89.8963 89.9422 90.4438 88.5003 90.4438Z" fill="#0B0B0B"/>
</g>
<defs>
<filter id="filter0_d_580_4308" x="0" y="0" width="132" height="132" filterUnits="userSpaceOnUse" color-interpolation-filters="sRGB">
<feFlood flood-opacity="0" result="BackgroundImageFix"/>
<feColorMatrix in="SourceAlpha" type="matrix" values="0 0 0 0 0 0 0 0 0 0 0 0 0 0 0 0 0 0 127 0" result="hardAlpha"/>
<feOffset dy="4"/>
<feGaussianBlur stdDeviation="8"/>
<feComposite in2="hardAlpha" operator="out"/>
<feColorMatrix type="matrix" values="0 0 0 0 0.341176 0 0 0 0 0.454902 0 0 0 0 0.803922 0 0 0 0.2 0"/>
<feBlend mode="normal" in2="BackgroundImageFix" result="effect1_dropShadow_580_4308"/>
<feBlend mode="normal" in="SourceGraphic" in2="effect1_dropShadow_580_4308" result="shape"/>
</filter>
</defs>
</symbol>

<symbol id='message' width="112" height="112" viewBox="0 0 112 112" fill="none" xmlns="http://www.w3.org/2000/svg">
<g filter="url(#filter0_d_585_5004)">
<rect x="16" y="12" width="80" height="80" rx="40" fill="#F2FAFD" shape-rendering="crispEdges"/>
<path d="M72.25 60.75C72.0938 60.75 71.9363 60.7213 71.785 60.6613C69.4988 59.7463 67.29 58.2762 65.2213 56.2937C64.7238 55.8162 64.7062 55.025 65.185 54.5262C65.6625 54.0287 66.4537 54.01 66.9525 54.49C67.97 55.465 69.02 56.2987 70.0925 56.9825C69.7125 55.68 69.295 54.0363 68.9825 52.22C68.9088 51.7975 69.0588 51.3687 69.3737 51.0813C71.2287 49.4 72.25 47.2863 72.25 45.125C72.25 39.955 66.6425 35.75 59.75 35.75C52.8575 35.75 47.25 39.955 47.25 45.125C47.25 45.2775 47.255 45.4275 47.265 45.5775C47.31 46.2663 46.7888 46.8612 46.0988 46.9062C45.4025 46.9263 44.815 46.4287 44.77 45.74C44.7562 45.5375 44.75 45.3313 44.75 45.125C44.75 38.5775 51.4787 33.25 59.75 33.25C68.0212 33.25 74.75 38.5775 74.75 45.125C74.75 47.7875 73.6238 50.3625 71.5638 52.445C72.2688 56.1413 73.4 59.0075 73.4113 59.0362C73.5963 59.5012 73.4875 60.0312 73.1325 60.3838C72.8937 60.6225 72.575 60.75 72.25 60.75Z" fill="black"/>
<path d="M39.75 70.75C39.425 70.75 39.105 70.6225 38.8663 70.385C38.5125 70.0325 38.4025 69.5025 38.5875 69.0375C38.6 69.0087 39.73 66.1425 40.435 62.4463C38.3763 60.3612 37.25 57.7875 37.25 55.125C37.25 48.5775 43.9787 43.25 52.25 43.25C60.5212 43.25 67.25 48.5775 67.25 55.125C67.25 61.6725 60.5212 67 52.25 67C50.4025 67 48.5975 66.7325 46.8687 66.205C44.7725 68.2338 42.5375 69.7312 40.2138 70.66C40.0638 70.7212 39.9062 70.75 39.75 70.75ZM52.25 45.75C45.3575 45.75 39.75 49.955 39.75 55.125C39.75 57.285 40.7713 59.4 42.6263 61.0812C42.9425 61.3687 43.0912 61.7975 43.0175 62.22C42.705 64.035 42.2887 65.6812 41.9075 66.9837C43.1875 66.1675 44.4338 65.1375 45.6363 63.9062C45.9762 63.5575 46.49 63.4375 46.9487 63.6012C48.6337 64.1975 50.4175 64.5 52.25 64.5C59.1425 64.5 64.75 60.295 64.75 55.125C64.75 49.955 59.1425 45.75 52.25 45.75Z" fill="#0B0B0B"/>
<path d="M43.5 56.375C42.81 56.375 42.25 55.8162 42.25 55.125C42.25 51.805 46.2688 48.25 52.25 48.25C52.94 48.25 53.5 48.8088 53.5 49.5C53.5 50.1912 52.94 50.75 52.25 50.75C47.6712 50.75 44.75 53.3412 44.75 55.125C44.75 55.8162 44.19 56.375 43.5 56.375Z" fill="#FFB22C"/>
</g>
<defs>
<filter id="filter0_d_585_5004" x="0" y="0" width="112" height="112" filterUnits="userSpaceOnUse" color-interpolation-filters="sRGB">
<feFlood flood-opacity="0" result="BackgroundImageFix"/>
<feColorMatrix in="SourceAlpha" type="matrix" values="0 0 0 0 0 0 0 0 0 0 0 0 0 0 0 0 0 0 127 0" result="hardAlpha"/>
<feOffset dy="4"/>
<feGaussianBlur stdDeviation="8"/>
<feComposite in2="hardAlpha" operator="out"/>
<feColorMatrix type="matrix" values="0 0 0 0 0.341176 0 0 0 0 0.454902 0 0 0 0 0.803922 0 0 0 0.2 0"/>
<feBlend mode="normal" in2="BackgroundImageFix" result="effect1_dropShadow_585_5004"/>
<feBlend mode="normal" in="SourceGraphic" in2="effect1_dropShadow_585_5004" result="shape"/>
</filter>
</defs>
</symbol>

<symbol id='messageXl'  width="132" height="132" viewBox="0 0 132 132" fill="none" xmlns="http://www.w3.org/2000/svg">

<g filter="url(#filter0_d_580_4313)">
<rect x="16" y="12" width="100" height="100" rx="50" fill="#F2FAFD" shape-rendering="crispEdges"/>
<path d="M90.375 75.125C90.1406 75.125 89.9044 75.0819 89.6775 74.9919C86.2481 73.6194 82.935 71.4144 79.8319 68.4406C79.0856 67.7244 79.0594 66.5375 79.7775 65.7894C80.4937 65.0431 81.6806 65.015 82.4287 65.735C83.955 67.1975 85.53 68.4481 87.1388 69.4738C86.5687 67.52 85.9425 65.0544 85.4738 62.33C85.3631 61.6963 85.5881 61.0531 86.0606 60.6219C88.8431 58.1 90.375 54.9294 90.375 51.6875C90.375 43.9325 81.9637 37.625 71.625 37.625C61.2863 37.625 52.875 43.9325 52.875 51.6875C52.875 51.9163 52.8825 52.1413 52.8975 52.3663C52.965 53.3994 52.1831 54.2919 51.1481 54.3594C50.1038 54.3894 49.2225 53.6431 49.155 52.61C49.1344 52.3062 49.125 51.9969 49.125 51.6875C49.125 41.8663 59.2181 33.875 71.625 33.875C84.0319 33.875 94.125 41.8663 94.125 51.6875C94.125 55.6812 92.4356 59.5438 89.3456 62.6675C90.4031 68.2119 92.1 72.5112 92.1169 72.5544C92.3944 73.2519 92.2312 74.0469 91.6987 74.5756C91.3406 74.9338 90.8625 75.125 90.375 75.125Z" fill="black"/>
<path d="M41.625 90.125C41.1375 90.125 40.6575 89.9338 40.2994 89.5775C39.7687 89.0488 39.6037 88.2537 39.8812 87.5562C39.9 87.5131 41.595 83.2137 42.6525 77.6694C39.5644 74.5419 37.875 70.6812 37.875 66.6875C37.875 56.8663 47.9681 48.875 60.375 48.875C72.7819 48.875 82.875 56.8663 82.875 66.6875C82.875 76.5087 72.7819 84.5 60.375 84.5C57.6038 84.5 54.8962 84.0988 52.3031 83.3075C49.1587 86.3506 45.8063 88.5969 42.3206 89.99C42.0956 90.0819 41.8594 90.125 41.625 90.125ZM60.375 52.625C50.0363 52.625 41.625 58.9325 41.625 66.6875C41.625 69.9275 43.1569 73.1 45.9394 75.6219C46.4138 76.0531 46.6369 76.6963 46.5262 77.33C46.0575 80.0525 45.4331 82.5219 44.8612 84.4756C46.7812 83.2512 48.6506 81.7062 50.4544 79.8594C50.9644 79.3362 51.735 79.1562 52.4231 79.4019C54.9506 80.2962 57.6262 80.75 60.375 80.75C70.7137 80.75 79.125 74.4425 79.125 66.6875C79.125 58.9325 70.7137 52.625 60.375 52.625Z" fill="#0B0B0B"/>
<path d="M47.25 68.5625C46.215 68.5625 45.375 67.7244 45.375 66.6875C45.375 61.7075 51.4031 56.375 60.375 56.375C61.41 56.375 62.25 57.2131 62.25 58.25C62.25 59.2869 61.41 60.125 60.375 60.125C53.5069 60.125 49.125 64.0119 49.125 66.6875C49.125 67.7244 48.285 68.5625 47.25 68.5625Z" fill="#FFB22C"/>
</g>
<defs>
<filter id="filter0_d_580_4313" x="0" y="0" width="132" height="132" filterUnits="userSpaceOnUse" color-interpolation-filters="sRGB">
<feFlood flood-opacity="0" result="BackgroundImageFix"/>
<feColorMatrix in="SourceAlpha" type="matrix" values="0 0 0 0 0 0 0 0 0 0 0 0 0 0 0 0 0 0 127 0" result="hardAlpha"/>
<feOffset dy="4"/>
<feGaussianBlur stdDeviation="8"/>
<feComposite in2="hardAlpha" operator="out"/>
<feColorMatrix type="matrix" values="0 0 0 0 0.341176 0 0 0 0 0.454902 0 0 0 0 0.803922 0 0 0 0.2 0"/>
<feBlend mode="normal" in2="BackgroundImageFix" result="effect1_dropShadow_580_4313"/>
<feBlend mode="normal" in="SourceGraphic" in2="effect1_dropShadow_580_4313" result="shape"/>
</filter>
</defs>
</symbol>


<symbol id='makeIt' width="112" height="112" viewBox="0 0 112 112" fill="none" xmlns="http://www.w3.org/2000/svg">

<g filter="url(#filter0_d_585_5008)">
<rect x="16" y="12" width="80" height="80" rx="40" fill="#F2FAFD" shape-rendering="crispEdges"/>
<path d="M73.5 45.75H66C65.3088 45.75 64.75 45.1912 64.75 44.5V38.25C64.75 35.4925 66.9925 33.25 69.75 33.25C72.5075 33.25 74.75 35.4925 74.75 38.25V44.5C74.75 45.1912 74.1912 45.75 73.5 45.75ZM67.25 43.25H72.25V38.25C72.25 36.8712 71.1287 35.75 69.75 35.75C68.3712 35.75 67.25 36.8712 67.25 38.25V43.25Z" fill="black"/>
<path d="M66 70.75H38.5C37.8088 70.75 37.25 70.1912 37.25 69.5V38.25C37.25 35.4925 39.4925 33.25 42.25 33.25H69.75C70.4412 33.25 71 33.8088 71 34.5C71 35.1912 70.4412 35.75 69.75 35.75C68.3713 35.75 67.25 36.8712 67.25 38.25V69.5C67.25 70.1912 66.6912 70.75 66 70.75ZM39.75 68.25H64.75V38.25C64.75 37.34 64.9938 36.4862 65.4213 35.75H42.25C40.8712 35.75 39.75 36.8712 39.75 38.25V68.25Z" fill="#0B0B0B"/>
<path d="M61 43.25H43.5C42.8088 43.25 42.25 42.6912 42.25 42C42.25 41.3088 42.8088 40.75 43.5 40.75H61C61.6912 40.75 62.25 41.3088 62.25 42C62.25 42.6912 61.6912 43.25 61 43.25Z" fill="#FFB22C"/>
<path d="M61 48.25H43.5C42.8088 48.25 42.25 47.6912 42.25 47C42.25 46.3088 42.8088 45.75 43.5 45.75H61C61.6912 45.75 62.25 46.3088 62.25 47C62.25 47.6912 61.6912 48.25 61 48.25Z" fill="#FFB22C"/>
<path d="M51 53.25H43.5C42.8088 53.25 42.25 52.6912 42.25 52C42.25 51.3088 42.8088 50.75 43.5 50.75H51C51.6912 50.75 52.25 51.3088 52.25 52C52.25 52.6912 51.6912 53.25 51 53.25Z" fill="#FFB22C"/>
<path d="M71.625 70.75C71.1512 70.75 70.7187 70.4825 70.5062 70.0588L68.6312 66.3088C68.545 66.1363 68.5 65.9438 68.5 65.75V50.125C68.5 48.4013 69.9013 47 71.625 47C73.3488 47 74.75 48.4013 74.75 50.125V65.75C74.75 65.9438 74.705 66.1363 74.6188 66.3088L72.7438 70.0588C72.5313 70.4825 72.0988 70.75 71.625 70.75ZM71 65.455L71.625 66.705L72.25 65.455V50.125C72.25 49.7812 71.9688 49.5 71.625 49.5C71.2812 49.5 71 49.7812 71 50.125V65.455Z" fill="#0B0B0B"/>
</g>
<defs>
<filter id="filter0_d_585_5008" x="0" y="0" width="112" height="112" filterUnits="userSpaceOnUse" color-interpolation-filters="sRGB">
<feFlood flood-opacity="0" result="BackgroundImageFix"/>
<feColorMatrix in="SourceAlpha" type="matrix" values="0 0 0 0 0 0 0 0 0 0 0 0 0 0 0 0 0 0 127 0" result="hardAlpha"/>
<feOffset dy="4"/>
<feGaussianBlur stdDeviation="8"/>
<feComposite in2="hardAlpha" operator="out"/>
<feColorMatrix type="matrix" values="0 0 0 0 0.341176 0 0 0 0 0.454902 0 0 0 0 0.803922 0 0 0 0.2 0"/>
<feBlend mode="normal" in2="BackgroundImageFix" result="effect1_dropShadow_585_5008"/>
<feBlend mode="normal" in="SourceGraphic" in2="effect1_dropShadow_585_5008" result="shape"/>
</filter>
</defs>
</symbol>

<symbol id='makeItXl' width="132" height="132" viewBox="0 0 132 132" fill="none" xmlns="http://www.w3.org/2000/svg">
<g filter="url(#filter0_d_580_4319)">
<rect x="16" y="12" width="100" height="100" rx="50" fill="#F2FAFD" shape-rendering="crispEdges"/>
<path d="M92.25 52.625H81C79.9631 52.625 79.125 51.7869 79.125 50.75V41.375C79.125 37.2387 82.4887 33.875 86.625 33.875C90.7613 33.875 94.125 37.2387 94.125 41.375V50.75C94.125 51.7869 93.2869 52.625 92.25 52.625ZM82.875 48.875H90.375V41.375C90.375 39.3069 88.6931 37.625 86.625 37.625C84.5569 37.625 82.875 39.3069 82.875 41.375V48.875Z" fill="black"/>
<path d="M81 90.125H39.75C38.7131 90.125 37.875 89.2869 37.875 88.25V41.375C37.875 37.2387 41.2387 33.875 45.375 33.875H86.625C87.6619 33.875 88.5 34.7131 88.5 35.75C88.5 36.7869 87.6619 37.625 86.625 37.625C84.5569 37.625 82.875 39.3069 82.875 41.375V88.25C82.875 89.2869 82.0369 90.125 81 90.125ZM41.625 86.375H79.125V41.375C79.125 40.01 79.4906 38.7294 80.1319 37.625H45.375C43.3069 37.625 41.625 39.3069 41.625 41.375V86.375Z" fill="#0B0B0B"/>
<path d="M73.5 48.875H47.25C46.2131 48.875 45.375 48.0369 45.375 47C45.375 45.9631 46.2131 45.125 47.25 45.125H73.5C74.5369 45.125 75.375 45.9631 75.375 47C75.375 48.0369 74.5369 48.875 73.5 48.875Z" fill="#FFB22C"/>
<path d="M73.5 56.375H47.25C46.2131 56.375 45.375 55.5369 45.375 54.5C45.375 53.4631 46.2131 52.625 47.25 52.625H73.5C74.5369 52.625 75.375 53.4631 75.375 54.5C75.375 55.5369 74.5369 56.375 73.5 56.375Z" fill="#FFB22C"/>
<path d="M58.5 63.875H47.25C46.2131 63.875 45.375 63.0369 45.375 62C45.375 60.9631 46.2131 60.125 47.25 60.125H58.5C59.5369 60.125 60.375 60.9631 60.375 62C60.375 63.0369 59.5369 63.875 58.5 63.875Z" fill="#FFB22C"/>
<path d="M89.4375 90.125C88.7269 90.125 88.0781 89.7238 87.7594 89.0881L84.9469 83.4631C84.8175 83.2044 84.75 82.9156 84.75 82.625V59.1875C84.75 56.6019 86.8519 54.5 89.4375 54.5C92.0231 54.5 94.125 56.6019 94.125 59.1875V82.625C94.125 82.9156 94.0575 83.2044 93.9281 83.4631L91.1156 89.0881C90.7969 89.7238 90.1481 90.125 89.4375 90.125ZM88.5 82.1825L89.4375 84.0575L90.375 82.1825V59.1875C90.375 58.6719 89.9531 58.25 89.4375 58.25C88.9219 58.25 88.5 58.6719 88.5 59.1875V82.1825Z" fill="#0B0B0B"/>
</g>
<defs>
<filter id="filter0_d_580_4319" x="0" y="0" width="132" height="132" filterUnits="userSpaceOnUse" color-interpolation-filters="sRGB">
<feFlood flood-opacity="0" result="BackgroundImageFix"/>
<feColorMatrix in="SourceAlpha" type="matrix" values="0 0 0 0 0 0 0 0 0 0 0 0 0 0 0 0 0 0 127 0" result="hardAlpha"/>
<feOffset dy="4"/>
<feGaussianBlur stdDeviation="8"/>
<feComposite in2="hardAlpha" operator="out"/>
<feColorMatrix type="matrix" values="0 0 0 0 0.341176 0 0 0 0 0.454902 0 0 0 0 0.803922 0 0 0 0.2 0"/>
<feBlend mode="normal" in2="BackgroundImageFix" result="effect1_dropShadow_580_4319"/>
<feBlend mode="normal" in="SourceGraphic" in2="effect1_dropShadow_580_4319" result="shape"/>
</filter>
</defs>
</symbol>

<symbol id='postxl' width="48" height="48" viewBox="0 0 48 48" fill="none" xmlns="http://www.w3.org/2000/svg">
<path d="M42 46.5H6C3.519 46.5 1.5 44.481 1.5 42V19.5C1.5 18.672 2.172 18 3 18C3.828 18 4.5 18.672 4.5 19.5V42C4.5 42.8265 5.1735 43.5 6 43.5H42C42.8265 43.5 43.5 42.8265 43.5 42V19.5C43.5 18.672 44.172 18 45 18C45.828 18 46.5 18.672 46.5 19.5V42C46.5 44.481 44.481 46.5 42 46.5Z" fill="#0B0B0B"/>
<path d="M2.99916 21C2.55516 21 2.11566 20.8035 1.81866 20.427C1.30716 19.776 1.41966 18.834 2.07066 18.321L7.91166 13.731C8.56266 13.218 9.50616 13.332 10.0192 13.9845C10.5307 14.6355 10.4182 15.5775 9.76716 16.0905L3.92616 20.6805C3.65166 20.895 3.32466 21 2.99916 21Z" fill="#0B0B0B"/>
<path d="M16.421 10.455C15.977 10.455 15.5375 10.2585 15.2405 9.88195C14.729 9.23095 14.8415 8.28745 15.4925 7.77595L23.072 1.82095C23.723 1.30945 24.665 1.42045 25.178 2.07295C25.6895 2.72395 25.577 3.66745 24.926 4.17895L17.3465 10.134C17.072 10.35 16.7465 10.455 16.421 10.455Z" fill="#0B0B0B"/>
<path d="M31.2907 10.2301C30.9667 10.2301 30.6397 10.125 30.3652 9.90905L23.0737 4.17905C22.4212 3.66755 22.3087 2.72405 22.8217 2.07305C23.3347 1.41905 24.2782 1.30955 24.9277 1.82105L32.2192 7.55105C32.8717 8.06255 32.9842 9.00605 32.4712 9.65705C32.1742 10.0336 31.7347 10.2301 31.2907 10.2301Z" fill="#0B0B0B"/>
<path d="M45.0002 21C44.6762 21 44.3492 20.895 44.0747 20.679L38.1362 16.0125C37.4837 15.501 37.3712 14.5575 37.8842 13.9065C38.3957 13.254 39.3377 13.14 39.9902 13.6545L45.9287 18.321C46.5812 18.8325 46.6937 19.776 46.1807 20.427C45.8837 20.8035 45.4442 21 45.0002 21Z" fill="#0B0B0B"/>
<path d="M7.5015 42C7.0485 42 6.6015 41.796 6.306 41.4075C5.805 40.7475 5.9325 39.8071 6.591 39.3061L18.681 30.1126C19.341 29.6101 20.2815 29.7391 20.7825 30.3976C21.2835 31.0576 21.156 31.9981 20.4975 32.4991L8.4075 41.6925C8.136 41.901 7.818 42 7.5015 42Z" fill="#0B0B0B"/>
<path d="M40.4978 42C40.1813 42 39.8633 41.901 39.5918 41.694L27.5018 32.5005C26.8433 31.9995 26.7143 31.059 27.2168 30.399C27.7178 29.7405 28.6583 29.6115 29.3183 30.114L41.4083 39.3075C42.0668 39.8085 42.1958 40.749 41.6933 41.409C41.3978 41.796 40.9508 42 40.4978 42Z" fill="#0B0B0B"/>
<path d="M24.0006 36.021C23.6946 36.021 23.3886 35.928 23.1276 35.7405L2.12759 20.7195C1.45409 20.238 1.29809 19.3005 1.77959 18.627C2.26109 17.9535 3.19559 17.796 3.87209 18.279L24.0006 32.676L44.1276 18.279C44.8011 17.796 45.7371 17.9535 46.2201 18.627C46.7016 19.3005 46.5456 20.238 45.8721 20.7195L24.8721 35.7405C24.6126 35.928 24.3066 36.021 24.0006 36.021Z" fill="#0B0B0B"/>
<path d="M39 24.2265C38.172 24.2265 37.5 23.5545 37.5 22.7265V10.5H10.5V22.7265C10.5 23.5545 9.828 24.2265 9 24.2265C8.172 24.2265 7.5 23.5545 7.5 22.7265V10.5C7.5 8.8455 8.8455 7.5 10.5 7.5H37.5C39.1545 7.5 40.5 8.8455 40.5 10.5V22.7265C40.5 23.556 39.828 24.2265 39 24.2265Z" fill="#0B0B0B"/>
<path d="M33 16.5H15C14.172 16.5 13.5 15.828 13.5 15C13.5 14.172 14.172 13.5 15 13.5H33C33.828 13.5 34.5 14.172 34.5 15C34.5 15.828 33.828 16.5 33 16.5Z" fill="#FFB22C"/>
<path d="M33 22.5H15C14.172 22.5 13.5 21.828 13.5 21C13.5 20.172 14.172 19.5 15 19.5H33C33.828 19.5 34.5 20.172 34.5 21C34.5 21.828 33.828 22.5 33 22.5Z" fill="#FFB22C"/>
</symbol>

<symbol id='post' width="24" height="24" viewBox="0 0 24 24" fill="none" xmlns="http://www.w3.org/2000/svg">
<g clip-path="url(#clip0_585_4994)">
<path d="M21 23.25H3C1.7595 23.25 0.75 22.2405 0.75 21V9.75C0.75 9.336 1.086 9 1.5 9C1.914 9 2.25 9.336 2.25 9.75V21C2.25 21.4132 2.58675 21.75 3 21.75H21C21.4132 21.75 21.75 21.4132 21.75 21V9.75C21.75 9.336 22.086 9 22.5 9C22.914 9 23.25 9.336 23.25 9.75V21C23.25 22.2405 22.2405 23.25 21 23.25Z" fill="#0B0B0B"/>
<path d="M1.50056 10.5C1.27856 10.5 1.05881 10.4018 0.910306 10.2135C0.654556 9.88802 0.710806 9.41702 1.03631 9.16052L3.95681 6.86552C4.28231 6.60902 4.75406 6.66602 5.01056 6.99227C5.26631 7.31777 5.21006 7.78877 4.88456 8.04527L1.96406 10.3403C1.82681 10.4475 1.66331 10.5 1.50056 10.5Z" fill="#0B0B0B"/>
<path d="M8.20954 5.22754C7.98754 5.22754 7.76779 5.12929 7.61929 4.94104C7.36354 4.61554 7.41979 4.14379 7.74529 3.88804L11.535 0.910537C11.8605 0.654787 12.3315 0.710287 12.588 1.03654C12.8438 1.36204 12.7875 1.83379 12.462 2.08954L8.67229 5.06704C8.53504 5.17504 8.37229 5.22754 8.20954 5.22754Z" fill="#0B0B0B"/>
<path d="M15.6454 5.11503C15.4834 5.11503 15.3199 5.06252 15.1826 4.95452L11.5369 2.08953C11.2106 1.83378 11.1544 1.36203 11.4109 1.03653C11.6674 0.709525 12.1391 0.654775 12.4639 0.910525L16.1096 3.77552C16.4359 4.03127 16.4921 4.50303 16.2356 4.82853C16.0871 5.01678 15.8674 5.11503 15.6454 5.11503Z" fill="#0B0B0B"/>
<path d="M22.5001 10.5001C22.3381 10.5001 22.1746 10.4476 22.0374 10.3396L19.0681 8.00631C18.7419 7.75056 18.6856 7.27881 18.9421 6.95331C19.1979 6.62706 19.6689 6.57006 19.9951 6.82731L22.9644 9.16056C23.2906 9.41631 23.3469 9.88806 23.0904 10.2136C22.9419 10.4018 22.7221 10.5001 22.5001 10.5001Z" fill="#0B0B0B"/>
<path d="M3.75075 21C3.52425 21 3.30075 20.898 3.153 20.7038C2.9025 20.3738 2.96625 19.9035 3.2955 19.653L9.3405 15.0563C9.6705 14.805 10.1408 14.8695 10.3913 15.1988C10.6418 15.5288 10.578 15.999 10.2488 16.2495L4.20375 20.8463C4.068 20.9505 3.909 21 3.75075 21Z" fill="#0B0B0B"/>
<path d="M20.2489 21C20.0907 21 19.9317 20.9505 19.7959 20.847L13.7509 16.2503C13.4216 15.9998 13.3572 15.5295 13.6084 15.1995C13.8589 14.8703 14.3291 14.8058 14.6591 15.057L20.7042 19.6538C21.0334 19.9043 21.0979 20.3745 20.8467 20.7045C20.6989 20.898 20.4754 21 20.2489 21Z" fill="#0B0B0B"/>
<path d="M12.0003 18.0105C11.8473 18.0105 11.6943 17.964 11.5638 17.8703L1.06379 10.3598C0.727045 10.119 0.649045 9.65026 0.889795 9.31351C1.13054 8.97676 1.5978 8.89801 1.93605 9.13951L12.0003 16.338L22.0638 9.13951C22.4005 8.89801 22.8685 8.97676 23.11 9.31351C23.3508 9.65026 23.2728 10.119 22.936 10.3598L12.436 17.8703C12.3063 17.964 12.1533 18.0105 12.0003 18.0105Z" fill="#0B0B0B"/>
<path d="M19.5 12.1132C19.086 12.1132 18.75 11.7773 18.75 11.3633V5.25H5.25V11.3633C5.25 11.7773 4.914 12.1132 4.5 12.1132C4.086 12.1132 3.75 11.7773 3.75 11.3633V5.25C3.75 4.42275 4.42275 3.75 5.25 3.75H18.75C19.5773 3.75 20.25 4.42275 20.25 5.25V11.3633C20.25 11.778 19.914 12.1132 19.5 12.1132Z" fill="#0B0B0B"/>
<path d="M16.5 8.25H7.5C7.086 8.25 6.75 7.914 6.75 7.5C6.75 7.086 7.086 6.75 7.5 6.75H16.5C16.914 6.75 17.25 7.086 17.25 7.5C17.25 7.914 16.914 8.25 16.5 8.25Z" fill="#FFB22C"/>
<path d="M16.5 11.25H7.5C7.086 11.25 6.75 10.914 6.75 10.5C6.75 10.086 7.086 9.75 7.5 9.75H16.5C16.914 9.75 17.25 10.086 17.25 10.5C17.25 10.914 16.914 11.25 16.5 11.25Z" fill="#FFB22C"/>
</g>
<defs>
<clipPath id="clip0_585_4994">
<rect width="24" height="24" fill="white"/>
</clipPath>
</defs>
</symbol>


</svg>