<svg aria-hidden="true" style="position: absolute; width: 0; height: 0; overflow: hidden;" version="1.1" xmlns="http://www.w3.org/2000/svg" xmlns:xlink="http://www.w3.org/1999/xlink">
<defs>

<symbol id="contecnt_block" width="126" height="97" viewBox="0 0 126 97" fill="none">
<path d="M62.8095 97C91.5317 97 114.816 75.2858 114.816 48.5C114.816 21.7142 91.5317 0 62.8095 0C34.0872 0 10.8032 21.7142 10.8032 48.5C10.8032 75.2858 34.0872 97 62.8095 97Z" fill="#FFF4EA"/>
<g style="mix-blend-mode:multiply">
<path d="M98.1135 34.4421L91.3502 36.2509L92.2119 39.0625C91.4707 39.2804 90.8979 39.4608 90.5387 39.5967C86.4837 41.108 84.6597 41.2977 83.0367 41.4875C82.896 41.5039 82.7654 41.5156 82.6347 41.5274H82.5493L82.1825 41.5484H82.1548C82.0418 41.5484 81.9313 41.5484 81.8257 41.5484H81.7654L81.4313 41.5367H81.4011C81.2931 41.5367 81.1901 41.5203 81.0846 41.5086H81.0519C80.9414 41.4969 80.8308 41.4828 80.7178 41.4641H80.6977C80.464 41.429 80.2279 41.3844 79.9741 41.3305C79.6701 41.2649 79.3435 41.19 78.9692 41.0962C77.3462 40.719 72.8842 40.3395 70.6557 40.3395C69.1483 40.3395 67.6408 39.653 65.95 39.3203H65.9374H65.8972L65.7917 39.3015L65.445 39.2453L65.3546 39.2336C65.2164 39.2148 65.0782 39.1984 64.9375 39.1867H64.832C64.7013 39.1867 64.5682 39.1703 64.435 39.1656H64.3798C64.2315 39.1656 64.0833 39.1656 63.9326 39.1656H63.8245C63.6688 39.1656 63.513 39.1891 63.3547 39.2101C62.7477 39.2881 62.1556 39.4458 61.596 39.6787C59.3575 38.7907 57.3501 39.3718 55.9432 39.9552C54.1192 40.712 50.6672 41.6562 46.6147 43.1698C42.5623 44.6834 38.7083 46.1946 36.0627 45.6276C34.3995 45.2691 32.5705 45.2879 29.5054 45.4472V42.0873L22.4708 42.1108L22.4858 45.8268V42.8137L11.15 42.8512C10.9184 44.7264 10.8027 46.6125 10.8033 48.5001C10.7937 55.4417 12.3875 62.3037 15.4763 68.6194L22.5914 68.596V69.2989L29.626 69.2755L29.6084 64.7933C30.3295 64.7582 30.8822 64.7371 31.2239 64.7371C32.5329 64.7114 33.8337 64.9371 35.0452 65.4001C35.0206 65.4301 34.9979 65.4614 34.9774 65.4939C34.9774 65.4939 34.8668 65.8547 34.7613 66.3889C34.6434 66.966 34.5804 67.5517 34.5729 68.1391C34.5729 69.4629 34.3694 72.1105 37.2084 72.2979C38.4048 72.3485 39.5785 71.9809 40.4996 71.267L40.6905 71.1194L40.7533 71.0655L40.8764 70.9601L40.9468 70.8945L41.0523 70.7961L41.1227 70.7258L41.2181 70.6274C41.2385 70.6021 41.2603 70.5779 41.2835 70.5547L41.3714 70.454L41.4292 70.3837L41.5146 70.2759L41.5648 70.208L41.6478 70.0908L41.6854 70.0346C41.7602 69.9222 41.8273 69.8056 41.8864 69.6855C41.8937 69.6671 41.9021 69.6491 41.9116 69.6316C41.9291 69.5918 41.9467 69.5543 41.9618 69.5144C41.9769 69.4746 41.9794 69.4723 41.9894 69.4488C41.9995 69.4254 42.0146 69.3809 42.0246 69.3457L42.0447 69.2848L42.5773 69.5472C41.4543 70.9741 40.0423 72.9633 41.2608 74.9502C42.8637 77.5673 46.6424 77.9633 48.4915 76.3302C48.2905 77.0448 48.0794 77.9258 49.1673 79.1113C50.3833 80.4351 52.6143 81.0021 55.1543 79.9103C55.1543 79.9103 55.1543 79.9291 55.1543 79.9384C55.1543 80.0087 55.1744 80.079 55.187 80.147C55.187 80.147 55.187 80.161 55.187 80.168C55.2325 80.409 55.3057 80.6447 55.4055 80.8709C55.5097 81.1034 55.6429 81.3236 55.8025 81.527C56.3376 82.2041 57.2044 82.7336 58.4782 82.8812C61.5508 83.2397 62.6236 82.2392 64.4501 80.0439L64.7642 80.1868L64.7943 80.1985C65.0874 80.3223 65.3887 80.4288 65.6962 80.5171L65.7741 80.5382C65.9048 80.5734 66.0379 80.6062 66.1761 80.6366L66.2841 80.6601C66.6312 80.7294 66.9829 80.7763 67.3368 80.8006H67.4901C67.6308 80.8006 67.7765 80.8124 67.9247 80.8124H68.0981C68.2991 80.8124 68.5026 80.8124 68.7186 80.7889C68.8306 80.7818 68.9422 80.7692 69.0528 80.7514L69.1332 80.7397C69.2337 80.7233 69.3291 80.7022 69.4196 80.6788H69.4322C69.5251 80.653 69.6105 80.6249 69.696 80.5945L69.7588 80.5687C69.8341 80.5382 69.907 80.5054 69.9748 80.4703H69.9924C70.062 80.4327 70.1292 80.3913 70.1934 80.3461L70.2437 80.3133C70.2989 80.2735 70.3517 80.2313 70.3994 80.1891C70.4072 80.185 70.4141 80.1794 70.4195 80.1727C70.4721 80.1264 70.5216 80.0771 70.5678 80.0251L70.6054 79.9853C70.6431 79.9384 70.6808 79.8939 70.7135 79.847C70.7199 79.8396 70.7258 79.8318 70.7311 79.8236C70.7687 79.7716 70.8031 79.7176 70.8341 79.6619L70.8592 79.6174C70.8843 79.5682 70.9094 79.5214 70.932 79.4722C70.9352 79.4632 70.9394 79.4545 70.9446 79.4464C70.9672 79.3902 70.9898 79.3339 71.0099 79.2777C71.011 79.2644 71.011 79.2511 71.0099 79.2379C71.0275 79.1887 71.0426 79.1371 71.0577 79.0879C71.0565 79.0809 71.0565 79.0738 71.0577 79.0668C71.0727 79.0106 71.0853 78.9544 71.0954 78.9005C71.0964 78.8903 71.0964 78.8801 71.0954 78.87C71.0954 78.8185 71.1129 78.7693 71.1205 78.7201C71.1205 78.6662 71.133 78.6146 71.1356 78.5654V78.549C71.1356 78.5209 71.1356 78.4951 71.1356 78.467C71.1356 78.4295 71.1356 78.3944 71.1356 78.3592V78.2562C71.1356 78.2304 71.1356 78.207 71.1356 78.1859V78.1718C71.1356 78.1203 71.1356 78.0781 71.1356 78.0476C71.137 78.0281 71.137 78.0085 71.1356 77.989C71.1356 77.989 73.3665 78.5561 74.9895 77.422C76.0523 76.677 76.1553 75.5289 76.1025 74.826C76.1039 74.8018 76.1039 74.7776 76.1025 74.7534C76.1025 74.737 76.1025 74.7229 76.1025 74.7089C76.1025 74.655 76.1025 74.6058 76.0849 74.5613V74.5214C76.0849 74.4863 76.0849 74.4558 76.0699 74.4254V74.3926C76.0699 74.3574 76.0573 74.327 76.0523 74.3012V74.2848C76.0523 74.2637 76.0523 74.2473 76.0523 74.2356V74.2192H76.0774C76.3938 74.301 76.7151 74.3652 77.0396 74.4113L77.2356 74.4371H77.2733L77.4617 74.4582H77.4919L77.7255 74.4769L77.9516 74.4886H78.0119H78.1953H78.2607H78.5119L78.7631 74.4769H78.831L79.0144 74.4582H79.0923C79.1601 74.4582 79.2254 74.4418 79.2932 74.43H79.346C79.4289 74.416 79.5093 74.3996 79.5973 74.3808L79.6626 74.3668L79.846 74.3176L79.9264 74.2941L80.1047 74.2356L80.1701 74.2098C80.2505 74.1817 80.3284 74.1489 80.4062 74.1137L80.4489 74.0927C80.5117 74.0645 80.5721 74.0317 80.6349 73.9989L80.7052 73.9568C80.7605 73.9263 80.8132 73.8935 80.8635 73.8607C80.8863 73.8472 80.9081 73.8323 80.9288 73.8162C81.0011 73.7672 81.0707 73.7148 81.1373 73.6592C81.1926 73.6147 81.2454 73.5655 81.2956 73.5163L81.3433 73.4671C81.376 73.4319 81.4087 73.3991 81.4388 73.364L81.4866 73.3007C81.5142 73.2679 81.5393 73.2351 81.5644 73.2C81.581 73.1782 81.5961 73.1555 81.6097 73.132C81.6323 73.0969 81.6549 73.0641 81.675 73.0289L81.7177 72.9563L81.773 72.8532L81.8081 72.7759C81.8232 72.7407 81.8408 72.7056 81.8559 72.6681L81.886 72.5884L81.9237 72.4783C81.9336 72.4514 81.942 72.424 81.9488 72.3963C81.9488 72.3612 81.9714 72.3237 81.9815 72.2862C81.9915 72.2487 81.9941 72.23 81.9991 72.2019C82.0041 72.1737 82.0167 72.1269 82.0242 72.0871L82.0393 72.0027C82.0393 71.9652 82.0518 71.9254 82.0569 71.8879C82.0619 71.8504 82.0569 71.8317 82.0569 71.8035C82.0569 71.7754 82.0569 71.7239 82.0569 71.6864C82.0569 71.6489 82.0569 71.6278 82.0569 71.5997C82.0569 71.5716 82.0569 71.5224 82.0569 71.4826C82.0569 71.4427 82.0569 71.4263 82.0569 71.3982C82.0569 71.3701 82.0569 71.3185 82.0569 71.2811C82.0569 71.2436 82.0569 71.2225 82.0569 71.1944C82.0569 71.1662 82.0569 71.117 82.0569 71.0796V70.9929C82.0569 70.9554 82.0569 70.9179 82.0569 70.8804C82.0569 70.8429 82.0569 70.8218 82.0569 70.7914L82.0418 70.6883L82.0267 70.5946C82.0267 70.5641 82.0142 70.5336 82.0091 70.5032C82.0041 70.4727 81.9966 70.4352 81.989 70.4001C81.9815 70.3649 81.989 70.3579 81.989 70.3392C81.9179 70.0176 81.8118 69.7035 81.6725 69.402C81.6524 69.3556 81.6298 69.3102 81.6046 69.2661C81.582 69.2216 81.5569 69.1794 81.5343 69.1396C81.5117 69.0997 81.4866 69.0622 81.4639 69.0248L81.3886 68.9193C81.3653 68.8868 81.3401 68.8555 81.3132 68.8256C81.2986 68.8081 81.2827 68.7917 81.2655 68.7764C81.9765 68.35 82.6448 67.9095 83.2754 67.462C84.926 68.5233 87.5112 68.1063 88.6569 66.6818C89.4558 65.6907 89.0337 64.5356 88.3052 63.4859C89.2272 62.7197 90.109 62.0028 90.9909 61.3772L91.3225 61.1429C91.4305 61.0703 91.5361 61 91.6441 60.932C93.7897 59.545 95.576 58.9686 98.1889 58.4086L99.4249 62.4222L106.186 60.6134L105.163 57.2934L105.977 59.9363L113.896 57.8276C115.715 49.0424 114.903 39.9598 111.55 31.5767L98.3094 35.1193L98.1135 34.4421ZM64.3521 49.9223C64.3521 49.9036 64.3521 49.8872 64.3647 49.8684C64.3595 49.8862 64.3553 49.9042 64.3521 49.9223Z" fill="#CCC6C6"/>
</g>
<path d="M88.5111 48.8772C87.0916 49.8144 86.2801 51.335 84.6597 52.469C83.0392 53.603 77.9667 54.1724 77.9667 54.1724C77.9667 54.1724 74.1152 51.7146 71.0727 50.3908C68.0302 49.067 65.7967 48.1204 64.7918 47.7432C64.1888 47.5089 64.2893 47.0919 64.4953 46.7826C64.2441 47.0497 63.8396 47.3637 63.3723 47.3637C62.905 47.3637 62.7919 47.2535 62.7542 47.1504C62.5658 47.4785 61.4302 47.8252 60.7443 48.3102C60.2644 48.6453 59.9906 48.4531 59.86 48.2376C59.9949 48.5617 60.0204 48.9165 59.9328 49.2544C58.9573 51.6583 57.8056 53.9966 56.4858 56.253C55.4583 57.9282 53.378 58.0126 51.8329 57.4245C45.2429 71.8316 64.7993 76.8713 64.7993 76.8713C64.7993 76.8713 73.9243 69.6854 79.1952 67.0308C84.4662 64.3761 87.7122 60.7914 90.9582 58.521C94.2042 56.2506 96.4327 55.8734 101.299 54.9292C106.166 53.985 115.899 54.1724 125.632 52.2816L125.491 38.5142C123.051 39.1585 89.8779 47.9658 88.5111 48.8772Z" fill="#F4926C"/>
<path d="M88.1066 49.2546L88.0388 49.2311C86.8932 50.1683 86.0917 51.4687 84.6597 52.4692C83.0367 53.6055 77.9667 54.1725 77.9667 54.1725C77.9667 54.1725 74.1152 51.7147 71.0727 50.3909C68.0302 49.0671 65.7967 48.1206 64.7918 47.7433C64.1888 47.509 64.2893 47.092 64.4953 46.7827C64.2441 47.0498 63.8396 47.3638 63.3723 47.3638C62.905 47.3638 62.7919 47.2537 62.7542 47.1506C62.5658 47.4786 61.4302 47.8253 60.7443 48.3103C60.2644 48.6454 59.9906 48.4533 59.86 48.2377C59.9949 48.5618 60.0204 48.9166 59.9328 49.2546C58.9573 51.6584 57.8056 53.9968 56.4858 56.2531C55.4583 57.9283 53.378 58.0127 51.8329 57.4246C45.2429 71.8317 64.7993 76.8715 64.7993 76.8715C64.7993 76.8715 73.9243 69.6855 79.1952 67.0309C84.4662 64.3763 87.7122 60.7915 90.9582 58.5211C91.1818 58.3641 91.4029 58.2165 91.6215 58.076C93.3324 53.9921 91.4883 50.6088 88.1066 49.2546Z" fill="#FC9E7A"/>
<path d="M0 42.4478C8.92146 43.385 15.0064 43.385 22.7119 43.0148C30.4174 42.6447 33.4574 42.2581 36.0928 42.8251C38.7283 43.3921 42.5823 41.8879 46.6448 40.3673C50.7074 38.8467 54.1493 37.9095 55.9733 37.1527C57.7973 36.3959 60.6363 35.6391 63.6788 38.0899C66.7213 40.5406 69.9597 43.7623 69.9597 43.7623L64.0657 46.9862C64.0657 46.9862 70.7587 50.011 74.0021 51.9065C77.2456 53.802 79.2781 54.9337 81.3031 55.8896C83.3281 56.8456 85.7626 57.7804 86.9811 59.1042C88.1996 60.428 89.8201 62.3188 88.6016 63.8324C87.3831 65.3459 84.5466 65.7232 82.9236 64.3994C81.3006 63.0756 79.0721 62.5086 77.8561 61.7518C76.6401 60.995 71.7711 59.1042 71.1632 58.727C70.5552 58.3498 69.7437 58.727 70.7587 59.4838C71.7737 60.2405 74.0021 61.3746 76.4366 63.2654C78.8711 65.1561 80.0871 65.5357 80.8961 65.7232C81.7051 65.9106 82.9236 69.3173 81.0996 70.8285C79.2756 72.3398 76.0296 71.3979 76.0296 71.3979C76.0296 71.3979 76.6376 73.4761 75.0247 74.6125C73.4117 75.7488 71.1707 75.1795 71.1707 75.1795C71.1707 75.1795 71.5777 77.8271 68.7387 78.0145C65.8997 78.202 64.2767 77.2601 62.8572 76.3135C61.4377 75.3669 42.5823 67.0305 39.5423 65.1351C36.5024 63.2396 34.8769 61.9205 31.2264 61.9205C27.5759 61.9205 0 64.1979 0 64.1979V42.4478Z" fill="#FECCA7"/>
<path d="M76.1401 72.0004C76.1263 71.7918 76.0927 71.5848 76.0396 71.3818C73.6076 69.4887 66.3066 64.7629 65.4876 64.3833C64.6685 64.0037 63.6636 64.0061 66.0981 65.5196C68.5326 67.0332 73.6126 70.0557 74.8236 70.9929C75.3487 71.4123 75.7984 71.7497 76.1401 72.0004Z" fill="#EDB28A"/>
<path d="M59.717 67.1271C58.712 66.5577 58.501 66.7475 60.933 68.4508C62.6916 69.6715 68.1988 73.7273 71.1659 75.9133C71.1954 75.6712 71.1954 75.4267 71.1659 75.1846L71.0629 75.0675C68.8394 73.5562 60.732 67.6941 59.717 67.1271Z" fill="#EDB28A"/>
<path d="M81.0321 65.7607C81.6401 68.0686 79.4342 70.6389 77.0273 71.5807C78.1328 71.7401 79.9216 71.7986 81.11 70.8122C82.8435 69.376 81.8335 66.234 81.0321 65.7607Z" fill="#FCD6BE"/>
<path d="M76.0397 71.3818H76.0648L75.8387 71.2178L75.7256 71.2904C75.6502 73.4764 73.1404 74.7393 70.6179 74.5144L70.3667 74.6784L71.1807 75.147C71.1807 75.147 73.4117 75.714 75.0347 74.58C76.6577 73.446 76.0397 71.3818 76.0397 71.3818Z" fill="#FCD6BE"/>
<path d="M84.225 57.2231C86.3178 58.7625 83.9461 63.4391 79.5444 62.5441C80.6449 63.0127 81.9111 63.5492 82.9336 64.3833C84.5566 65.7071 87.3956 65.3205 88.6116 63.8163C89.8276 62.3121 88.2071 60.412 86.9911 59.0882C86.3354 58.3782 85.3304 57.7761 84.225 57.2231Z" fill="#FCD6BE"/>
<path d="M71.1734 58.7106L71.2187 58.7364C69.9273 57.361 69.0279 55.1961 68.7414 54.929C68.3344 54.5494 68.9048 58.1202 70.4448 59.1722C69.9801 58.6216 70.6509 58.3849 71.1734 58.7106Z" fill="#EDB28A"/>
<path d="M68.7414 77.9985C70.8544 77.8579 71.1684 76.3584 71.1935 75.597L69.4349 74.6387C69.9373 76.7614 67.5255 77.8111 64.3774 77.1949C65.7162 77.8558 67.2338 78.1353 68.7414 77.9985Z" fill="#FCD6BE"/>
<path d="M125.519 27.7925C125.519 27.7925 94.5937 35.262 90.5387 36.7849C86.4837 38.3078 84.6673 38.4765 83.0368 38.6593C81.4062 38.842 80.6023 38.6593 78.9818 38.2797C77.3613 37.9002 72.8968 37.5229 70.6683 37.5229C68.4398 37.5229 66.2063 36.0117 63.3673 36.3889C60.5283 36.7662 58.7044 38.8538 57.2823 39.9901C55.8603 41.1265 51.8054 43.0149 51.0014 44.3387C50.1974 45.6625 50.7979 48.3101 50.5944 50.1962C50.3909 52.0823 49.3784 54.1676 49.9864 55.8686C50.5944 57.5696 54.8529 58.8957 56.4759 56.2482C57.7956 53.9918 58.9474 51.6534 59.9229 49.2496C60.1264 48.6826 59.7194 47.9258 59.7194 47.9258C59.7194 47.9258 59.9229 48.863 60.7243 48.3054C61.5258 47.7478 62.9553 47.3682 62.7518 46.9816C62.7518 46.9816 62.5483 47.3588 63.3598 47.3588C64.1713 47.3588 64.7793 46.4216 64.7793 46.4216C64.7793 46.4216 63.7743 47.3588 64.7793 47.7454C65.7842 48.132 68.0228 49.0692 71.0602 50.393C74.0977 51.7168 77.9542 54.1746 77.9542 54.1746C77.9542 54.1746 83.0242 53.6076 84.6472 52.4713C86.2702 51.3349 87.0792 49.826 88.4987 48.8794C89.9182 47.9329 125.619 38.4765 125.619 38.4765L125.519 27.7925Z" fill="#FFA579"/>
<path d="M64.7867 76.8643C62.7592 79.3221 61.7442 80.4585 58.5057 80.0789C55.2673 79.6994 54.6517 76.8643 55.4632 75.3508L59.3172 68.1648C59.3172 68.1648 62.1562 66.274 62.9677 69.3012C63.7792 72.3283 62.7592 75.9131 62.7592 75.9131L64.7867 76.8643Z" fill="#FFA579"/>
<path d="M59.3121 68.1648L55.4582 75.3508C55.1764 75.9334 55.0775 76.5786 55.1731 77.2114C55.2687 77.8443 55.5549 78.4389 55.9983 78.9262C59.375 80.6085 62.1511 78.1881 62.7591 75.9201C62.7591 75.9201 63.7641 72.326 62.9626 69.3012C62.1612 66.2764 59.3121 68.1648 59.3121 68.1648Z" fill="#FCA886"/>
<path d="M55.1593 77.0962C52.6192 78.1881 50.3857 77.6211 49.1723 76.2973C47.9588 74.9735 48.3608 74.0269 48.5643 73.2725C48.7678 72.518 53.6342 66.0865 54.6467 65.1399C55.6592 64.1934 57.2847 63.6264 59.1087 64.7627C60.9327 65.8991 59.7167 68.3545 59.3122 69.1113C58.9077 69.8681 55.1593 77.0962 55.1593 77.0962Z" fill="#F4A082"/>
<path d="M48.5642 73.4597C46.7402 75.1631 42.8862 74.7835 41.2658 72.1359C39.6453 69.4884 42.6853 66.8408 43.4942 65.5193C44.3032 64.1979 48.3607 59.6618 52.2147 60.7912C56.0687 61.9205 53.7649 66.1426 53.7649 66.1426L48.5642 73.4597Z" fill="#FCA886"/>
<path d="M34.98 62.6823C36.397 60.4119 41.6705 64.3833 42.075 65.7071C42.4795 67.0309 40.0475 69.6785 37.2085 69.4887C34.3695 69.2989 34.573 66.6536 34.573 65.3299C34.593 64.4352 34.7297 63.5461 34.98 62.6823Z" fill="#FFA579"/>
<path d="M42.0748 65.7071C41.6703 64.3833 36.3968 60.4119 34.9798 62.6823C34.9798 62.6823 34.8668 63.0454 34.7612 63.5796C34.8919 65.2315 36.0425 67.0309 37.8163 67.0309C39.2634 67.0309 39.6905 67.387 40.4995 68.4578C41.6326 67.6166 42.3034 66.4522 42.0748 65.7071Z" fill="#F4926C"/>
<path d="M64.6865 46.5131C65.4955 45.3791 64.8875 44.8121 64.483 43.6758C64.0786 42.5394 65.9025 40.651 66.714 37.6262C66.7719 37.3848 66.7252 37.1319 66.584 36.9226C66.4428 36.7132 66.2187 36.5644 65.9603 36.5086C65.1134 36.3287 64.2389 36.2906 63.3776 36.3961C60.5386 36.7757 58.7146 38.8539 57.2951 39.9902C55.8756 41.1266 51.8181 43.015 51.0142 44.3388C50.8486 44.6242 50.7373 44.9342 50.6851 45.255C52.695 41.546 58.0086 45.1893 59.8351 48.2165L59.8854 48.2985L59.8628 48.2376C60.001 48.4531 60.2673 48.6453 60.7471 48.3102C61.4406 47.8252 62.5761 47.4785 62.757 47.1504C62.7947 47.2535 62.9329 47.3636 63.3751 47.3636C63.8173 47.3636 64.2419 47.0497 64.4981 46.7826L64.478 46.8177C64.5408 46.717 64.6112 46.6256 64.6865 46.5131Z" fill="#FC9E7A"/>
<path d="M86.6774 44.7159C87.6346 46.902 87.5869 48.0969 88.0617 49.2051C88.2024 49.0903 88.3482 48.9708 88.5014 48.8771C89.9209 47.9399 125.609 38.4765 125.609 38.4765L125.509 27.7925C125.509 27.7925 94.5939 35.262 90.5389 36.7849C86.484 38.3078 84.6675 38.4765 83.037 38.6593C82.0178 38.796 80.9797 38.7443 79.9819 38.507C86.8885 39.9901 84.861 40.5571 86.6774 44.7159Z" fill="#F79779"/>
<path d="M57.8931 72.5158C57.8931 73.6498 59.9206 73.453 59.9206 73.453L61.9481 70.6179C61.9481 70.6179 61.1366 69.6807 60.3251 69.4816C59.5136 69.2824 59.1091 69.4816 59.1091 69.4816L57.8931 72.5158Z" fill="#F7B69F"/>
<path d="M57.893 65.8967C56.7448 65.0954 56.0665 64.9595 56.0665 64.9595C56.0665 64.9595 53.431 67.4196 54.446 68.7434C55.461 70.0672 57.6895 68.5536 58.094 67.9866C58.4985 67.4196 58.9055 66.8503 58.9055 66.8503C58.9055 66.8503 58.7045 66.4637 57.893 65.8967Z" fill="#F7B69F"/>
<path d="M51.8077 62.4923C50.882 62.2258 49.9328 62.0361 48.9713 61.9253C48.9713 61.9253 46.7302 64.198 46.9413 65.5195C47.1523 66.8409 49.8079 68.3146 51.2123 66.9253C52.1645 65.9515 53.0411 64.9156 53.8352 63.8255C53.2927 63.2268 52.5947 62.7678 51.8077 62.4923Z" fill="#F7B69F"/>
<path d="M37.8166 67.0306C36.4725 67.0306 35.4851 65.995 35.0303 64.772C34.8243 65.3718 34.7791 66.0091 35.1811 66.4636C36.0202 67.4008 37.5553 67.9514 38.1733 67.04C38.0603 67.0353 37.9372 67.0306 37.8166 67.0306Z" fill="#F7B69F"/>
<path d="M49.8833 55.7798C51.9108 56.717 54.3428 54.2662 54.3428 54.2662C54.3428 54.2662 55.9658 50.2831 52.9233 50.1074C49.8808 49.9317 49.8833 55.7798 49.8833 55.7798Z" fill="#F7B69F"/>
<g opacity="0.42">
<path opacity="0.44" d="M64.7866 47.3098C68.9898 45.6861 72.2308 40.2058 71.4193 38.875" stroke="#AF6038" stroke-miterlimit="10" stroke-linecap="round"/>
<path opacity="0.44" d="M66.3013 38.8936C66.1531 42.1035 63.9246 41.916 64.5426 43.617C65.1607 45.318 65.1456 46.3466 64.4396 47.155" stroke="#AF6038" stroke-miterlimit="10" stroke-linecap="round"/>
<path opacity="0.44" d="M84.5892 46.6255C84.1847 50.4047 77.2305 53.2538 77.2305 53.2538" stroke="#AF6038" stroke-miterlimit="10" stroke-linecap="round"/>
<path opacity="0.44" d="M58.7568 45.5898C59.333 45.8006 59.8312 46.1626 60.1911 46.6322C60.551 47.1017 60.757 47.6585 60.7843 48.2351" stroke="#AF6038" stroke-miterlimit="10" stroke-linecap="round"/>
<path opacity="0.44" d="M58.4531 44.1748C59.1775 44.2535 59.8523 44.5572 60.3691 45.037C60.8859 45.5169 61.2146 46.1449 61.3022 46.82" stroke="#AF6038" stroke-miterlimit="10" stroke-linecap="round"/>
<path opacity="0.44" d="M73.9594 38.0713C76.6878 39.449 75.4668 44.9292 70.6104 47.5745" stroke="#AF6038" stroke-miterlimit="10" stroke-linecap="round"/>
</g>
<path opacity="0.39" d="M67.877 60.4002C69.1332 61.6959 67.3142 62.1598 64.5305 62.3144C61.7468 62.4691 60.8926 59.5309 62.709 59.2896C65.5455 58.9124 66.764 59.2404 67.877 60.4002Z" fill="#FFD9C0"/>
<path opacity="0.39" d="M71.2637 53.6547C72.2461 53.807 71.5903 52.8909 69.9548 51.3656C68.3192 49.8403 65.6837 51.0446 65.6988 51.8225C65.7465 53.4274 68.382 53.0502 69.3945 53.4274C69.9859 53.6532 70.6301 53.7315 71.2637 53.6547Z" fill="#FFD9C0"/>
<path d="M98.1134 31.631L91.3516 33.4404L99.3895 59.565L106.151 57.7556L98.1134 31.631Z" fill="white"/>
<path d="M125.619 52.2491L105.942 57.0803L98.3193 32.3078L125.619 25.0703V52.2491Z" fill="#5774CD"/>
<path d="M22.5967 66.4853L29.6313 66.4624L29.5296 39.2838L22.495 39.3067L22.5967 66.4853Z" fill="white"/>
<path d="M0 40.0651L22.4908 40.0112L22.5913 65.7842L0 65.8966V40.0651Z" fill="#FFB22C"/>
</symbol>

<symbol id="add"  width="84" height="53" viewBox="0 0 84 53" fill="none">
<rect y="0.5" width="84" height="52" rx="10" fill="#FFB22C"/>
<g clip-path="url(#clip0_326_22009)">
<path d="M52 26.4929C52 26.8064 51.8755 27.09 51.6663 27.294C51.4619 27.5029 51.178 27.6273 50.8591 27.6273H43.1409V35.3392C43.1409 35.9661 42.6278 36.4786 42 36.4786C41.6861 36.4786 41.402 36.3492 41.1928 36.1451C40.9884 35.9362 40.8591 35.6526 40.8591 35.339V27.6273H33.1409C32.5081 27.6273 32 27.1198 32 26.4929C32 26.1795 32.1245 25.8909 32.3337 25.6869C32.5381 25.4828 32.822 25.3534 33.1409 25.3534H40.8589V17.6417C40.8589 17.0148 41.372 16.5073 41.9998 16.5073C42.3137 16.5073 42.5978 16.6367 42.807 16.8406C43.0114 17.0447 43.1408 17.3283 43.1408 17.6417V25.3536H50.8587C51.4917 25.3536 52 25.8611 52 26.4929Z" fill="white"/>
</g>
<defs>
<clipPath id="clip0_326_22009">
<rect width="20" height="20" fill="white" transform="translate(32 16.5)"/>
</clipPath>
</defs>
</symbol>
</defs>
</svg>