<svg aria-hidden="true" style="position: absolute; width: 0; height: 0; overflow: hidden;" version="1.1" xmlns="http://www.w3.org/2000/svg" xmlns:xlink="http://www.w3.org/1999/xlink">
<defs>

<symbol id="contecnt_block" width="126" height="97" viewBox="0 0 126 97" fill="none">
<path d="M62.8095 97C91.5317 97 114.816 75.2858 114.816 48.5C114.816 21.7142 91.5317 0 62.8095 0C34.0872 0 10.8032 21.7142 10.8032 48.5C10.8032 75.2858 34.0872 97 62.8095 97Z" fill="#FFF4EA"/>
<g style="mix-blend-mode:multiply">
<path d="M98.1135 34.4421L91.3502 36.2509L92.2119 39.0625C91.4707 39.2804 90.8979 39.4608 90.5387 39.5967C86.4837 41.108 84.6597 41.2977 83.0367 41.4875C82.896 41.5039 82.7654 41.5156 82.6347 41.5274H82.5493L82.1825 41.5484H82.1548C82.0418 41.5484 81.9313 41.5484 81.8257 41.5484H81.7654L81.4313 41.5367H81.4011C81.2931 41.5367 81.1901 41.5203 81.0846 41.5086H81.0519C80.9414 41.4969 80.8308 41.4828 80.7178 41.4641H80.6977C80.464 41.429 80.2279 41.3844 79.9741 41.3305C79.6701 41.2649 79.3435 41.19 78.9692 41.0962C77.3462 40.719 72.8842 40.3395 70.6557 40.3395C69.1483 40.3395 67.6408 39.653 65.95 39.3203H65.9374H65.8972L65.7917 39.3015L65.445 39.2453L65.3546 39.2336C65.2164 39.2148 65.0782 39.1984 64.9375 39.1867H64.832C64.7013 39.1867 64.5682 39.1703 64.435 39.1656H64.3798C64.2315 39.1656 64.0833 39.1656 63.9326 39.1656H63.8245C63.6688 39.1656 63.513 39.1891 63.3547 39.2101C62.7477 39.2881 62.1556 39.4458 61.596 39.6787C59.3575 38.7907 57.3501 39.3718 55.9432 39.9552C54.1192 40.712 50.6672 41.6562 46.6147 43.1698C42.5623 44.6834 38.7083 46.1946 36.0627 45.6276C34.3995 45.2691 32.5705 45.2879 29.5054 45.4472V42.0873L22.4708 42.1108L22.4858 45.8268V42.8137L11.15 42.8512C10.9184 44.7264 10.8027 46.6125 10.8033 48.5001C10.7937 55.4417 12.3875 62.3037 15.4763 68.6194L22.5914 68.596V69.2989L29.626 69.2755L29.6084 64.7933C30.3295 64.7582 30.8822 64.7371 31.2239 64.7371C32.5329 64.7114 33.8337 64.9371 35.0452 65.4001C35.0206 65.4301 34.9979 65.4614 34.9774 65.4939C34.9774 65.4939 34.8668 65.8547 34.7613 66.3889C34.6434 66.966 34.5804 67.5517 34.5729 68.1391C34.5729 69.4629 34.3694 72.1105 37.2084 72.2979C38.4048 72.3485 39.5785 71.9809 40.4996 71.267L40.6905 71.1194L40.7533 71.0655L40.8764 70.9601L40.9468 70.8945L41.0523 70.7961L41.1227 70.7258L41.2181 70.6274C41.2385 70.6021 41.2603 70.5779 41.2835 70.5547L41.3714 70.454L41.4292 70.3837L41.5146 70.2759L41.5648 70.208L41.6478 70.0908L41.6854 70.0346C41.7602 69.9222 41.8273 69.8056 41.8864 69.6855C41.8937 69.6671 41.9021 69.6491 41.9116 69.6316C41.9291 69.5918 41.9467 69.5543 41.9618 69.5144C41.9769 69.4746 41.9794 69.4723 41.9894 69.4488C41.9995 69.4254 42.0146 69.3809 42.0246 69.3457L42.0447 69.2848L42.5773 69.5472C41.4543 70.9741 40.0423 72.9633 41.2608 74.9502C42.8637 77.5673 46.6424 77.9633 48.4915 76.3302C48.2905 77.0448 48.0794 77.9258 49.1673 79.1113C50.3833 80.4351 52.6143 81.0021 55.1543 79.9103C55.1543 79.9103 55.1543 79.9291 55.1543 79.9384C55.1543 80.0087 55.1744 80.079 55.187 80.147C55.187 80.147 55.187 80.161 55.187 80.168C55.2325 80.409 55.3057 80.6447 55.4055 80.8709C55.5097 81.1034 55.6429 81.3236 55.8025 81.527C56.3376 82.2041 57.2044 82.7336 58.4782 82.8812C61.5508 83.2397 62.6236 82.2392 64.4501 80.0439L64.7642 80.1868L64.7943 80.1985C65.0874 80.3223 65.3887 80.4288 65.6962 80.5171L65.7741 80.5382C65.9048 80.5734 66.0379 80.6062 66.1761 80.6366L66.2841 80.6601C66.6312 80.7294 66.9829 80.7763 67.3368 80.8006H67.4901C67.6308 80.8006 67.7765 80.8124 67.9247 80.8124H68.0981C68.2991 80.8124 68.5026 80.8124 68.7186 80.7889C68.8306 80.7818 68.9422 80.7692 69.0528 80.7514L69.1332 80.7397C69.2337 80.7233 69.3291 80.7022 69.4196 80.6788H69.4322C69.5251 80.653 69.6105 80.6249 69.696 80.5945L69.7588 80.5687C69.8341 80.5382 69.907 80.5054 69.9748 80.4703H69.9924C70.062 80.4327 70.1292 80.3913 70.1934 80.3461L70.2437 80.3133C70.2989 80.2735 70.3517 80.2313 70.3994 80.1891C70.4072 80.185 70.4141 80.1794 70.4195 80.1727C70.4721 80.1264 70.5216 80.0771 70.5678 80.0251L70.6054 79.9853C70.6431 79.9384 70.6808 79.8939 70.7135 79.847C70.7199 79.8396 70.7258 79.8318 70.7311 79.8236C70.7687 79.7716 70.8031 79.7176 70.8341 79.6619L70.8592 79.6174C70.8843 79.5682 70.9094 79.5214 70.932 79.4722C70.9352 79.4632 70.9394 79.4545 70.9446 79.4464C70.9672 79.3902 70.9898 79.3339 71.0099 79.2777C71.011 79.2644 71.011 79.2511 71.0099 79.2379C71.0275 79.1887 71.0426 79.1371 71.0577 79.0879C71.0565 79.0809 71.0565 79.0738 71.0577 79.0668C71.0727 79.0106 71.0853 78.9544 71.0954 78.9005C71.0964 78.8903 71.0964 78.8801 71.0954 78.87C71.0954 78.8185 71.1129 78.7693 71.1205 78.7201C71.1205 78.6662 71.133 78.6146 71.1356 78.5654V78.549C71.1356 78.5209 71.1356 78.4951 71.1356 78.467C71.1356 78.4295 71.1356 78.3944 71.1356 78.3592V78.2562C71.1356 78.2304 71.1356 78.207 71.1356 78.1859V78.1718C71.1356 78.1203 71.1356 78.0781 71.1356 78.0476C71.137 78.0281 71.137 78.0085 71.1356 77.989C71.1356 77.989 73.3665 78.5561 74.9895 77.422C76.0523 76.677 76.1553 75.5289 76.1025 74.826C76.1039 74.8018 76.1039 74.7776 76.1025 74.7534C76.1025 74.737 76.1025 74.7229 76.1025 74.7089C76.1025 74.655 76.1025 74.6058 76.0849 74.5613V74.5214C76.0849 74.4863 76.0849 74.4558 76.0699 74.4254V74.3926C76.0699 74.3574 76.0573 74.327 76.0523 74.3012V74.2848C76.0523 74.2637 76.0523 74.2473 76.0523 74.2356V74.2192H76.0774C76.3938 74.301 76.7151 74.3652 77.0396 74.4113L77.2356 74.4371H77.2733L77.4617 74.4582H77.4919L77.7255 74.4769L77.9516 74.4886H78.0119H78.1953H78.2607H78.5119L78.7631 74.4769H78.831L79.0144 74.4582H79.0923C79.1601 74.4582 79.2254 74.4418 79.2932 74.43H79.346C79.4289 74.416 79.5093 74.3996 79.5973 74.3808L79.6626 74.3668L79.846 74.3176L79.9264 74.2941L80.1047 74.2356L80.1701 74.2098C80.2505 74.1817 80.3284 74.1489 80.4062 74.1137L80.4489 74.0927C80.5117 74.0645 80.5721 74.0317 80.6349 73.9989L80.7052 73.9568C80.7605 73.9263 80.8132 73.8935 80.8635 73.8607C80.8863 73.8472 80.9081 73.8323 80.9288 73.8162C81.0011 73.7672 81.0707 73.7148 81.1373 73.6592C81.1926 73.6147 81.2454 73.5655 81.2956 73.5163L81.3433 73.4671C81.376 73.4319 81.4087 73.3991 81.4388 73.364L81.4866 73.3007C81.5142 73.2679 81.5393 73.2351 81.5644 73.2C81.581 73.1782 81.5961 73.1555 81.6097 73.132C81.6323 73.0969 81.6549 73.0641 81.675 73.0289L81.7177 72.9563L81.773 72.8532L81.8081 72.7759C81.8232 72.7407 81.8408 72.7056 81.8559 72.6681L81.886 72.5884L81.9237 72.4783C81.9336 72.4514 81.942 72.424 81.9488 72.3963C81.9488 72.3612 81.9714 72.3237 81.9815 72.2862C81.9915 72.2487 81.9941 72.23 81.9991 72.2019C82.0041 72.1737 82.0167 72.1269 82.0242 72.0871L82.0393 72.0027C82.0393 71.9652 82.0518 71.9254 82.0569 71.8879C82.0619 71.8504 82.0569 71.8317 82.0569 71.8035C82.0569 71.7754 82.0569 71.7239 82.0569 71.6864C82.0569 71.6489 82.0569 71.6278 82.0569 71.5997C82.0569 71.5716 82.0569 71.5224 82.0569 71.4826C82.0569 71.4427 82.0569 71.4263 82.0569 71.3982C82.0569 71.3701 82.0569 71.3185 82.0569 71.2811C82.0569 71.2436 82.0569 71.2225 82.0569 71.1944C82.0569 71.1662 82.0569 71.117 82.0569 71.0796V70.9929C82.0569 70.9554 82.0569 70.9179 82.0569 70.8804C82.0569 70.8429 82.0569 70.8218 82.0569 70.7914L82.0418 70.6883L82.0267 70.5946C82.0267 70.5641 82.0142 70.5336 82.0091 70.5032C82.0041 70.4727 81.9966 70.4352 81.989 70.4001C81.9815 70.3649 81.989 70.3579 81.989 70.3392C81.9179 70.0176 81.8118 69.7035 81.6725 69.402C81.6524 69.3556 81.6298 69.3102 81.6046 69.2661C81.582 69.2216 81.5569 69.1794 81.5343 69.1396C81.5117 69.0997 81.4866 69.0622 81.4639 69.0248L81.3886 68.9193C81.3653 68.8868 81.3401 68.8555 81.3132 68.8256C81.2986 68.8081 81.2827 68.7917 81.2655 68.7764C81.9765 68.35 82.6448 67.9095 83.2754 67.462C84.926 68.5233 87.5112 68.1063 88.6569 66.6818C89.4558 65.6907 89.0337 64.5356 88.3052 63.4859C89.2272 62.7197 90.109 62.0028 90.9909 61.3772L91.3225 61.1429C91.4305 61.0703 91.5361 61 91.6441 60.932C93.7897 59.545 95.576 58.9686 98.1889 58.4086L99.4249 62.4222L106.186 60.6134L105.163 57.2934L105.977 59.9363L113.896 57.8276C115.715 49.0424 114.903 39.9598 111.55 31.5767L98.3094 35.1193L98.1135 34.4421ZM64.3521 49.9223C64.3521 49.9036 64.3521 49.8872 64.3647 49.8684C64.3595 49.8862 64.3553 49.9042 64.3521 49.9223Z" fill="#CCC6C6"/>
</g>
<path d="M88.5111 48.8772C87.0916 49.8144 86.2801 51.335 84.6597 52.469C83.0392 53.603 77.9667 54.1724 77.9667 54.1724C77.9667 54.1724 74.1152 51.7146 71.0727 50.3908C68.0302 49.067 65.7967 48.1204 64.7918 47.7432C64.1888 47.5089 64.2893 47.0919 64.4953 46.7826C64.2441 47.0497 63.8396 47.3637 63.3723 47.3637C62.905 47.3637 62.7919 47.2535 62.7542 47.1504C62.5658 47.4785 61.4302 47.8252 60.7443 48.3102C60.2644 48.6453 59.9906 48.4531 59.86 48.2376C59.9949 48.5617 60.0204 48.9165 59.9328 49.2544C58.9573 51.6583 57.8056 53.9966 56.4858 56.253C55.4583 57.9282 53.378 58.0126 51.8329 57.4245C45.2429 71.8316 64.7993 76.8713 64.7993 76.8713C64.7993 76.8713 73.9243 69.6854 79.1952 67.0308C84.4662 64.3761 87.7122 60.7914 90.9582 58.521C94.2042 56.2506 96.4327 55.8734 101.299 54.9292C106.166 53.985 115.899 54.1724 125.632 52.2816L125.491 38.5142C123.051 39.1585 89.8779 47.9658 88.5111 48.8772Z" fill="#F4926C"/>
<path d="M88.1066 49.2546L88.0388 49.2311C86.8932 50.1683 86.0917 51.4687 84.6597 52.4692C83.0367 53.6055 77.9667 54.1725 77.9667 54.1725C77.9667 54.1725 74.1152 51.7147 71.0727 50.3909C68.0302 49.0671 65.7967 48.1206 64.7918 47.7433C64.1888 47.509 64.2893 47.092 64.4953 46.7827C64.2441 47.0498 63.8396 47.3638 63.3723 47.3638C62.905 47.3638 62.7919 47.2537 62.7542 47.1506C62.5658 47.4786 61.4302 47.8253 60.7443 48.3103C60.2644 48.6454 59.9906 48.4533 59.86 48.2377C59.9949 48.5618 60.0204 48.9166 59.9328 49.2546C58.9573 51.6584 57.8056 53.9968 56.4858 56.2531C55.4583 57.9283 53.378 58.0127 51.8329 57.4246C45.2429 71.8317 64.7993 76.8715 64.7993 76.8715C64.7993 76.8715 73.9243 69.6855 79.1952 67.0309C84.4662 64.3763 87.7122 60.7915 90.9582 58.5211C91.1818 58.3641 91.4029 58.2165 91.6215 58.076C93.3324 53.9921 91.4883 50.6088 88.1066 49.2546Z" fill="#FC9E7A"/>
<path d="M0 42.4478C8.92146 43.385 15.0064 43.385 22.7119 43.0148C30.4174 42.6447 33.4574 42.2581 36.0928 42.8251C38.7283 43.3921 42.5823 41.8879 46.6448 40.3673C50.7074 38.8467 54.1493 37.9095 55.9733 37.1527C57.7973 36.3959 60.6363 35.6391 63.6788 38.0899C66.7213 40.5406 69.9597 43.7623 69.9597 43.7623L64.0657 46.9862C64.0657 46.9862 70.7587 50.011 74.0021 51.9065C77.2456 53.802 79.2781 54.9337 81.3031 55.8896C83.3281 56.8456 85.7626 57.7804 86.9811 59.1042C88.1996 60.428 89.8201 62.3188 88.6016 63.8324C87.3831 65.3459 84.5466 65.7232 82.9236 64.3994C81.3006 63.0756 79.0721 62.5086 77.8561 61.7518C76.6401 60.995 71.7711 59.1042 71.1632 58.727C70.5552 58.3498 69.7437 58.727 70.7587 59.4838C71.7737 60.2405 74.0021 61.3746 76.4366 63.2654C78.8711 65.1561 80.0871 65.5357 80.8961 65.7232C81.7051 65.9106 82.9236 69.3173 81.0996 70.8285C79.2756 72.3398 76.0296 71.3979 76.0296 71.3979C76.0296 71.3979 76.6376 73.4761 75.0247 74.6125C73.4117 75.7488 71.1707 75.1795 71.1707 75.1795C71.1707 75.1795 71.5777 77.8271 68.7387 78.0145C65.8997 78.202 64.2767 77.2601 62.8572 76.3135C61.4377 75.3669 42.5823 67.0305 39.5423 65.1351C36.5024 63.2396 34.8769 61.9205 31.2264 61.9205C27.5759 61.9205 0 64.1979 0 64.1979V42.4478Z" fill="#FECCA7"/>
<path d="M76.1401 72.0004C76.1263 71.7918 76.0927 71.5848 76.0396 71.3818C73.6076 69.4887 66.3066 64.7629 65.4876 64.3833C64.6685 64.0037 63.6636 64.0061 66.0981 65.5196C68.5326 67.0332 73.6126 70.0557 74.8236 70.9929C75.3487 71.4123 75.7984 71.7497 76.1401 72.0004Z" fill="#EDB28A"/>
<path d="M59.717 67.1271C58.712 66.5577 58.501 66.7475 60.933 68.4508C62.6916 69.6715 68.1988 73.7273 71.1659 75.9133C71.1954 75.6712 71.1954 75.4267 71.1659 75.1846L71.0629 75.0675C68.8394 73.5562 60.732 67.6941 59.717 67.1271Z" fill="#EDB28A"/>
<path d="M81.0321 65.7607C81.6401 68.0686 79.4342 70.6389 77.0273 71.5807C78.1328 71.7401 79.9216 71.7986 81.11 70.8122C82.8435 69.376 81.8335 66.234 81.0321 65.7607Z" fill="#FCD6BE"/>
<path d="M76.0397 71.3818H76.0648L75.8387 71.2178L75.7256 71.2904C75.6502 73.4764 73.1404 74.7393 70.6179 74.5144L70.3667 74.6784L71.1807 75.147C71.1807 75.147 73.4117 75.714 75.0347 74.58C76.6577 73.446 76.0397 71.3818 76.0397 71.3818Z" fill="#FCD6BE"/>
<path d="M84.225 57.2231C86.3178 58.7625 83.9461 63.4391 79.5444 62.5441C80.6449 63.0127 81.9111 63.5492 82.9336 64.3833C84.5566 65.7071 87.3956 65.3205 88.6116 63.8163C89.8276 62.3121 88.2071 60.412 86.9911 59.0882C86.3354 58.3782 85.3304 57.7761 84.225 57.2231Z" fill="#FCD6BE"/>
<path d="M71.1734 58.7106L71.2187 58.7364C69.9273 57.361 69.0279 55.1961 68.7414 54.929C68.3344 54.5494 68.9048 58.1202 70.4448 59.1722C69.9801 58.6216 70.6509 58.3849 71.1734 58.7106Z" fill="#EDB28A"/>
<path d="M68.7414 77.9985C70.8544 77.8579 71.1684 76.3584 71.1935 75.597L69.4349 74.6387C69.9373 76.7614 67.5255 77.8111 64.3774 77.1949C65.7162 77.8558 67.2338 78.1353 68.7414 77.9985Z" fill="#FCD6BE"/>
<path d="M125.519 27.7925C125.519 27.7925 94.5937 35.262 90.5387 36.7849C86.4837 38.3078 84.6673 38.4765 83.0368 38.6593C81.4062 38.842 80.6023 38.6593 78.9818 38.2797C77.3613 37.9002 72.8968 37.5229 70.6683 37.5229C68.4398 37.5229 66.2063 36.0117 63.3673 36.3889C60.5283 36.7662 58.7044 38.8538 57.2823 39.9901C55.8603 41.1265 51.8054 43.0149 51.0014 44.3387C50.1974 45.6625 50.7979 48.3101 50.5944 50.1962C50.3909 52.0823 49.3784 54.1676 49.9864 55.8686C50.5944 57.5696 54.8529 58.8957 56.4759 56.2482C57.7956 53.9918 58.9474 51.6534 59.9229 49.2496C60.1264 48.6826 59.7194 47.9258 59.7194 47.9258C59.7194 47.9258 59.9229 48.863 60.7243 48.3054C61.5258 47.7478 62.9553 47.3682 62.7518 46.9816C62.7518 46.9816 62.5483 47.3588 63.3598 47.3588C64.1713 47.3588 64.7793 46.4216 64.7793 46.4216C64.7793 46.4216 63.7743 47.3588 64.7793 47.7454C65.7842 48.132 68.0228 49.0692 71.0602 50.393C74.0977 51.7168 77.9542 54.1746 77.9542 54.1746C77.9542 54.1746 83.0242 53.6076 84.6472 52.4713C86.2702 51.3349 87.0792 49.826 88.4987 48.8794C89.9182 47.9329 125.619 38.4765 125.619 38.4765L125.519 27.7925Z" fill="#FFA579"/>
<path d="M64.7867 76.8643C62.7592 79.3221 61.7442 80.4585 58.5057 80.0789C55.2673 79.6994 54.6517 76.8643 55.4632 75.3508L59.3172 68.1648C59.3172 68.1648 62.1562 66.274 62.9677 69.3012C63.7792 72.3283 62.7592 75.9131 62.7592 75.9131L64.7867 76.8643Z" fill="#FFA579"/>
<path d="M59.3121 68.1648L55.4582 75.3508C55.1764 75.9334 55.0775 76.5786 55.1731 77.2114C55.2687 77.8443 55.5549 78.4389 55.9983 78.9262C59.375 80.6085 62.1511 78.1881 62.7591 75.9201C62.7591 75.9201 63.7641 72.326 62.9626 69.3012C62.1612 66.2764 59.3121 68.1648 59.3121 68.1648Z" fill="#FCA886"/>
<path d="M55.1593 77.0962C52.6192 78.1881 50.3857 77.6211 49.1723 76.2973C47.9588 74.9735 48.3608 74.0269 48.5643 73.2725C48.7678 72.518 53.6342 66.0865 54.6467 65.1399C55.6592 64.1934 57.2847 63.6264 59.1087 64.7627C60.9327 65.8991 59.7167 68.3545 59.3122 69.1113C58.9077 69.8681 55.1593 77.0962 55.1593 77.0962Z" fill="#F4A082"/>
<path d="M48.5642 73.4597C46.7402 75.1631 42.8862 74.7835 41.2658 72.1359C39.6453 69.4884 42.6853 66.8408 43.4942 65.5193C44.3032 64.1979 48.3607 59.6618 52.2147 60.7912C56.0687 61.9205 53.7649 66.1426 53.7649 66.1426L48.5642 73.4597Z" fill="#FCA886"/>
<path d="M34.98 62.6823C36.397 60.4119 41.6705 64.3833 42.075 65.7071C42.4795 67.0309 40.0475 69.6785 37.2085 69.4887C34.3695 69.2989 34.573 66.6536 34.573 65.3299C34.593 64.4352 34.7297 63.5461 34.98 62.6823Z" fill="#FFA579"/>
<path d="M42.0748 65.7071C41.6703 64.3833 36.3968 60.4119 34.9798 62.6823C34.9798 62.6823 34.8668 63.0454 34.7612 63.5796C34.8919 65.2315 36.0425 67.0309 37.8163 67.0309C39.2634 67.0309 39.6905 67.387 40.4995 68.4578C41.6326 67.6166 42.3034 66.4522 42.0748 65.7071Z" fill="#F4926C"/>
<path d="M64.6865 46.5131C65.4955 45.3791 64.8875 44.8121 64.483 43.6758C64.0786 42.5394 65.9025 40.651 66.714 37.6262C66.7719 37.3848 66.7252 37.1319 66.584 36.9226C66.4428 36.7132 66.2187 36.5644 65.9603 36.5086C65.1134 36.3287 64.2389 36.2906 63.3776 36.3961C60.5386 36.7757 58.7146 38.8539 57.2951 39.9902C55.8756 41.1266 51.8181 43.015 51.0142 44.3388C50.8486 44.6242 50.7373 44.9342 50.6851 45.255C52.695 41.546 58.0086 45.1893 59.8351 48.2165L59.8854 48.2985L59.8628 48.2376C60.001 48.4531 60.2673 48.6453 60.7471 48.3102C61.4406 47.8252 62.5761 47.4785 62.757 47.1504C62.7947 47.2535 62.9329 47.3636 63.3751 47.3636C63.8173 47.3636 64.2419 47.0497 64.4981 46.7826L64.478 46.8177C64.5408 46.717 64.6112 46.6256 64.6865 46.5131Z" fill="#FC9E7A"/>
<path d="M86.6774 44.7159C87.6346 46.902 87.5869 48.0969 88.0617 49.2051C88.2024 49.0903 88.3482 48.9708 88.5014 48.8771C89.9209 47.9399 125.609 38.4765 125.609 38.4765L125.509 27.7925C125.509 27.7925 94.5939 35.262 90.5389 36.7849C86.484 38.3078 84.6675 38.4765 83.037 38.6593C82.0178 38.796 80.9797 38.7443 79.9819 38.507C86.8885 39.9901 84.861 40.5571 86.6774 44.7159Z" fill="#F79779"/>
<path d="M57.8931 72.5158C57.8931 73.6498 59.9206 73.453 59.9206 73.453L61.9481 70.6179C61.9481 70.6179 61.1366 69.6807 60.3251 69.4816C59.5136 69.2824 59.1091 69.4816 59.1091 69.4816L57.8931 72.5158Z" fill="#F7B69F"/>
<path d="M57.893 65.8967C56.7448 65.0954 56.0665 64.9595 56.0665 64.9595C56.0665 64.9595 53.431 67.4196 54.446 68.7434C55.461 70.0672 57.6895 68.5536 58.094 67.9866C58.4985 67.4196 58.9055 66.8503 58.9055 66.8503C58.9055 66.8503 58.7045 66.4637 57.893 65.8967Z" fill="#F7B69F"/>
<path d="M51.8077 62.4923C50.882 62.2258 49.9328 62.0361 48.9713 61.9253C48.9713 61.9253 46.7302 64.198 46.9413 65.5195C47.1523 66.8409 49.8079 68.3146 51.2123 66.9253C52.1645 65.9515 53.0411 64.9156 53.8352 63.8255C53.2927 63.2268 52.5947 62.7678 51.8077 62.4923Z" fill="#F7B69F"/>
<path d="M37.8166 67.0306C36.4725 67.0306 35.4851 65.995 35.0303 64.772C34.8243 65.3718 34.7791 66.0091 35.1811 66.4636C36.0202 67.4008 37.5553 67.9514 38.1733 67.04C38.0603 67.0353 37.9372 67.0306 37.8166 67.0306Z" fill="#F7B69F"/>
<path d="M49.8833 55.7798C51.9108 56.717 54.3428 54.2662 54.3428 54.2662C54.3428 54.2662 55.9658 50.2831 52.9233 50.1074C49.8808 49.9317 49.8833 55.7798 49.8833 55.7798Z" fill="#F7B69F"/>
<g opacity="0.42">
<path opacity="0.44" d="M64.7866 47.3098C68.9898 45.6861 72.2308 40.2058 71.4193 38.875" stroke="#AF6038" stroke-miterlimit="10" stroke-linecap="round"/>
<path opacity="0.44" d="M66.3013 38.8936C66.1531 42.1035 63.9246 41.916 64.5426 43.617C65.1607 45.318 65.1456 46.3466 64.4396 47.155" stroke="#AF6038" stroke-miterlimit="10" stroke-linecap="round"/>
<path opacity="0.44" d="M84.5892 46.6255C84.1847 50.4047 77.2305 53.2538 77.2305 53.2538" stroke="#AF6038" stroke-miterlimit="10" stroke-linecap="round"/>
<path opacity="0.44" d="M58.7568 45.5898C59.333 45.8006 59.8312 46.1626 60.1911 46.6322C60.551 47.1017 60.757 47.6585 60.7843 48.2351" stroke="#AF6038" stroke-miterlimit="10" stroke-linecap="round"/>
<path opacity="0.44" d="M58.4531 44.1748C59.1775 44.2535 59.8523 44.5572 60.3691 45.037C60.8859 45.5169 61.2146 46.1449 61.3022 46.82" stroke="#AF6038" stroke-miterlimit="10" stroke-linecap="round"/>
<path opacity="0.44" d="M73.9594 38.0713C76.6878 39.449 75.4668 44.9292 70.6104 47.5745" stroke="#AF6038" stroke-miterlimit="10" stroke-linecap="round"/>
</g>
<path opacity="0.39" d="M67.877 60.4002C69.1332 61.6959 67.3142 62.1598 64.5305 62.3144C61.7468 62.4691 60.8926 59.5309 62.709 59.2896C65.5455 58.9124 66.764 59.2404 67.877 60.4002Z" fill="#FFD9C0"/>
<path opacity="0.39" d="M71.2637 53.6547C72.2461 53.807 71.5903 52.8909 69.9548 51.3656C68.3192 49.8403 65.6837 51.0446 65.6988 51.8225C65.7465 53.4274 68.382 53.0502 69.3945 53.4274C69.9859 53.6532 70.6301 53.7315 71.2637 53.6547Z" fill="#FFD9C0"/>
<path d="M98.1134 31.631L91.3516 33.4404L99.3895 59.565L106.151 57.7556L98.1134 31.631Z" fill="white"/>
<path d="M125.619 52.2491L105.942 57.0803L98.3193 32.3078L125.619 25.0703V52.2491Z" fill="#5774CD"/>
<path d="M22.5967 66.4853L29.6313 66.4624L29.5296 39.2838L22.495 39.3067L22.5967 66.4853Z" fill="white"/>
<path d="M0 40.0651L22.4908 40.0112L22.5913 65.7842L0 65.8966V40.0651Z" fill="#FFB22C"/>
</symbol>

<symbol id="add"  width="84" height="53" viewBox="0 0 84 53" fill="none">
<rect y="0.5" width="84" height="52" rx="10" fill="#FFB22C"/>
<g clip-path="url(#clip0_326_22009)">
<path d="M52 26.4929C52 26.8064 51.8755 27.09 51.6663 27.294C51.4619 27.5029 51.178 27.6273 50.8591 27.6273H43.1409V35.3392C43.1409 35.9661 42.6278 36.4786 42 36.4786C41.6861 36.4786 41.402 36.3492 41.1928 36.1451C40.9884 35.9362 40.8591 35.6526 40.8591 35.339V27.6273H33.1409C32.5081 27.6273 32 27.1198 32 26.4929C32 26.1795 32.1245 25.8909 32.3337 25.6869C32.5381 25.4828 32.822 25.3534 33.1409 25.3534H40.8589V17.6417C40.8589 17.0148 41.372 16.5073 41.9998 16.5073C42.3137 16.5073 42.5978 16.6367 42.807 16.8406C43.0114 17.0447 43.1408 17.3283 43.1408 17.6417V25.3536H50.8587C51.4917 25.3536 52 25.8611 52 26.4929Z" fill="white"/>
</g>
<defs>
<clipPath id="clip0_326_22009">
<rect width="20" height="20" fill="white" transform="translate(32 16.5)"/>
</clipPath>
</defs>
</symbol>


<symbol id='appstore' width="181" height="52" viewBox="0 0 181 52" fill="none" xmlns="http://www.w3.org/2000/svg">
<path d="M179.994 46.0029C179.994 48.774 177.69 51.0187 174.84 51.0187H6.1611C3.31235 51.0187 1 48.774 1 46.0029V6.00333C1 3.23349 3.31235 0.980957 6.1611 0.980957H174.839C177.69 0.980957 179.993 3.23349 179.993 6.00333L179.994 46.0029Z" fill="white"/>
<path d="M174.296 1.04162C177.4 1.04162 179.926 3.4905 179.926 6.5V45.5C179.926 48.5095 177.4 50.9584 174.296 50.9584H6.69854C3.59463 50.9584 1.06893 48.5095 1.06893 45.5V6.5C1.06893 3.4905 3.59463 1.04162 6.69854 1.04162H174.296ZM174.296 2.74817e-06H6.69854C3.01306 2.74817e-06 -0.00537109 2.92663 -0.00537109 6.5V45.5C-0.00537109 49.0734 3.01306 52 6.69854 52H174.296C177.982 52 181 49.0734 181 45.5V6.5C181 2.92663 177.982 2.74817e-06 174.296 2.74817e-06Z" fill="#A6A6A6"/>
<path d="M40.3899 25.7191C40.351 21.5292 43.9282 19.4908 44.0918 19.3959C42.0659 16.532 38.9258 16.1407 37.8223 16.1095C35.185 15.8404 32.6268 17.6396 31.2833 17.6396C29.9131 17.6396 27.8442 16.1355 25.6145 16.1797C22.7452 16.2226 20.061 17.8333 18.5888 20.3345C15.5506 25.4344 17.8165 32.9289 20.7274 37.0512C22.1834 39.0701 23.8849 41.3243 26.1119 41.245C28.2907 41.1579 29.1046 39.8982 31.7338 39.8982C34.339 39.8982 35.1032 41.245 37.3745 41.1943C39.7128 41.1579 41.185 39.1663 42.5901 37.1292C44.2728 34.8152 44.9486 32.5363 44.9754 32.4193C44.9204 32.4011 40.4342 30.741 40.3899 25.7191Z" fill="black"/>
<path d="M36.0994 13.3977C37.2713 11.9768 38.0731 10.0437 37.8505 8.08203C36.1544 8.15483 34.0333 9.21953 32.8118 10.6092C31.7312 11.8338 30.7658 13.841 31.0152 15.7286C32.9204 15.8664 34.8766 14.7965 36.0994 13.3977Z" fill="black"/>
<path d="M65.7601 13.0118C65.7601 14.5419 65.2868 15.6937 64.3415 16.4672C63.466 17.1809 62.2217 17.5384 60.6101 17.5384C59.811 17.5384 59.1272 17.5046 58.5547 17.437V9.0767C59.3015 8.9597 60.106 8.8999 60.9748 8.8999C62.51 8.8999 63.6671 9.2236 64.4474 9.871C65.3216 10.6029 65.7601 11.6494 65.7601 13.0118ZM64.2785 13.0495C64.2785 12.0576 64.0077 11.2971 63.466 10.7667C62.9243 10.2376 62.1332 9.9724 61.0915 9.9724C60.649 9.9724 60.2722 10.001 59.9598 10.0608V16.4165C60.1328 16.4425 60.4492 16.4542 60.9091 16.4542C61.9844 16.4542 62.8144 16.1643 63.3989 15.5845C63.9835 15.0047 64.2785 14.1597 64.2785 13.0495Z" fill="black"/>
<path d="M73.6157 14.3482C73.6157 15.2907 73.3381 16.0629 72.7831 16.6687C72.2012 17.2914 71.4302 17.6021 70.4675 17.6021C69.5397 17.6021 68.8009 17.3044 68.2499 16.7064C67.7002 16.1097 67.4253 15.357 67.4253 14.4496C67.4253 13.5006 67.7082 12.7219 68.2767 12.1174C68.8452 11.5129 69.6094 11.21 70.5721 11.21C71.4999 11.21 72.2454 11.5077 72.8099 12.1044C73.3462 12.6842 73.6157 13.433 73.6157 14.3482ZM72.1583 14.3924C72.1583 13.8269 72.0322 13.342 71.7815 12.9377C71.4865 12.4489 71.0669 12.2045 70.5212 12.2045C69.9567 12.2045 69.5276 12.4489 69.2327 12.9377C68.9806 13.342 68.8559 13.8347 68.8559 14.4171C68.8559 14.9826 68.9819 15.4675 69.2327 15.8718C69.537 16.3606 69.9607 16.605 70.5078 16.605C71.0441 16.605 71.4651 16.3567 71.7681 15.8588C72.0282 15.4467 72.1583 14.9579 72.1583 14.3924Z" fill="black"/>
<path d="M84.1487 11.335L82.1711 17.4632H80.8839L80.0647 14.8021C79.8569 14.1378 79.688 13.4774 79.5566 12.8222H79.5311C79.4091 13.4956 79.2401 14.1547 79.0229 14.8021L78.1528 17.4632H76.8509L74.9912 11.335H76.4352L77.1499 14.2483C77.3228 14.9373 77.465 15.5938 77.5789 16.2152H77.6044C77.709 15.703 77.8819 15.0504 78.126 14.2613L79.0229 11.3363H80.168L81.0274 14.1989C81.2352 14.897 81.4042 15.5691 81.5342 16.2165H81.5731C81.6683 15.586 81.8118 14.9139 82.0022 14.1989L82.7691 11.3363H84.1487V11.335Z" fill="black"/>
<path d="M91.4332 17.463H90.028V13.953C90.028 12.8714 89.6043 12.3306 88.7543 12.3306C88.3373 12.3306 88.0008 12.4788 87.7393 12.7765C87.4805 13.0742 87.3492 13.4252 87.3492 13.8269V17.4617H85.944V13.0859C85.944 12.5477 85.9266 11.964 85.8931 11.3322H87.1279L87.1936 12.2903H87.2325C87.3961 11.9926 87.6401 11.7469 87.9605 11.5506C88.3413 11.3218 88.7677 11.2061 89.2343 11.2061C89.8242 11.2061 90.315 11.3907 90.7051 11.7612C91.1905 12.2149 91.4332 12.8922 91.4332 13.7918V17.463Z" fill="black"/>
<path d="M95.3081 17.463H93.9043V8.52295H95.3081V17.463Z" fill="black"/>
<path d="M103.581 14.3482C103.581 15.2907 103.303 16.0629 102.748 16.6687C102.166 17.2914 101.394 17.6021 100.433 17.6021C99.5037 17.6021 98.7649 17.3044 98.2152 16.7064C97.6655 16.1097 97.3906 15.357 97.3906 14.4496C97.3906 13.5006 97.6735 12.7219 98.242 12.1174C98.8105 11.5129 99.5748 11.21 100.536 11.21C101.465 11.21 102.209 11.5077 102.775 12.1044C103.312 12.6842 103.581 13.433 103.581 14.3482ZM102.122 14.3924C102.122 13.8269 101.996 13.342 101.745 12.9377C101.452 12.4489 101.031 12.2045 100.486 12.2045C99.9207 12.2045 99.4916 12.4489 99.198 12.9377C98.9459 13.342 98.8212 13.8347 98.8212 14.4171C98.8212 14.9826 98.9473 15.4675 99.198 15.8718C99.5024 16.3606 99.926 16.605 100.473 16.605C101.009 16.605 101.429 16.3567 101.732 15.8588C101.994 15.4467 102.122 14.9579 102.122 14.3924Z" fill="black"/>
<path d="M110.381 17.463H109.12L109.015 16.7571H108.976C108.544 17.32 107.929 17.6021 107.13 17.6021C106.533 17.6021 106.05 17.4162 105.687 17.047C105.357 16.7116 105.192 16.2943 105.192 15.799C105.192 15.0502 105.514 14.4795 106.162 14.0843C106.808 13.6891 107.717 13.4954 108.888 13.5045V13.3901C108.888 12.5828 108.45 12.1798 107.575 12.1798C106.951 12.1798 106.402 12.3319 105.927 12.6335L105.642 11.7391C106.229 11.3868 106.954 11.21 107.81 11.21C109.461 11.21 110.29 12.055 110.29 13.745V16.0018C110.29 16.6141 110.321 17.1016 110.381 17.463ZM108.922 15.357V14.4119C107.372 14.3859 106.598 14.798 106.598 15.6469C106.598 15.9667 106.686 16.2059 106.867 16.3658C107.048 16.5257 107.279 16.605 107.553 16.605C107.862 16.605 108.15 16.5101 108.413 16.3216C108.677 16.1318 108.839 15.8913 108.9 15.5962C108.914 15.5299 108.922 15.4493 108.922 15.357Z" fill="black"/>
<path d="M118.366 17.463H117.119L117.053 16.4789H117.014C116.616 17.2277 115.937 17.6021 114.984 17.6021C114.223 17.6021 113.588 17.3123 113.086 16.7324C112.583 16.1526 112.332 15.3999 112.332 14.4756C112.332 13.4837 112.604 12.6803 113.151 12.0667C113.681 11.4947 114.33 11.2087 115.102 11.2087C115.951 11.2087 116.545 11.4856 116.883 12.0407H116.909V8.52295H118.316V15.812C118.316 16.4087 118.332 16.9586 118.366 17.463ZM116.909 14.8786V13.8568C116.909 13.68 116.896 13.537 116.871 13.4278C116.791 13.1002 116.621 12.8246 116.362 12.6023C116.101 12.38 115.786 12.2682 115.423 12.2682C114.898 12.2682 114.488 12.4697 114.186 12.874C113.887 13.2783 113.736 13.7944 113.736 14.4249C113.736 15.0307 113.879 15.5221 114.168 15.9004C114.472 16.3034 114.882 16.5049 115.396 16.5049C115.857 16.5049 116.226 16.3372 116.506 16.0005C116.777 15.6898 116.909 15.3154 116.909 14.8786Z" fill="black"/>
<path d="M130.383 14.3482C130.383 15.2907 130.106 16.0629 129.551 16.6687C128.969 17.2914 128.199 17.6021 127.235 17.6021C126.309 17.6021 125.57 17.3044 125.017 16.7064C124.468 16.1097 124.193 15.357 124.193 14.4496C124.193 13.5006 124.476 12.7219 125.044 12.1174C125.613 11.5129 126.377 11.21 127.341 11.21C128.268 11.21 129.014 11.5077 129.577 12.1044C130.114 12.6842 130.383 13.433 130.383 14.3482ZM128.927 14.3924C128.927 13.8269 128.801 13.342 128.55 12.9377C128.254 12.4489 127.836 12.2045 127.289 12.2045C126.726 12.2045 126.297 12.4489 126 12.9377C125.748 13.342 125.623 13.8347 125.623 14.4171C125.623 14.9826 125.75 15.4675 126 15.8718C126.305 16.3606 126.728 16.605 127.275 16.605C127.812 16.605 128.234 16.3567 128.537 15.8588C128.796 15.4467 128.927 14.9579 128.927 14.3924Z" fill="black"/>
<path d="M137.938 17.463H136.534V13.953C136.534 12.8714 136.111 12.3306 135.259 12.3306C134.842 12.3306 134.506 12.4788 134.246 12.7765C133.986 13.0742 133.855 13.4252 133.855 13.8269V17.4617H132.449V13.0859C132.449 12.5477 132.433 11.964 132.399 11.3322H133.633L133.699 12.2903H133.738C133.902 11.9926 134.146 11.7469 134.466 11.5506C134.848 11.3218 135.273 11.2061 135.741 11.2061C136.329 11.2061 136.82 11.3907 137.21 11.7612C137.697 12.2149 137.938 12.8922 137.938 13.7918V17.463Z" fill="black"/>
<path d="M147.395 12.3553H145.848V15.3323C145.848 16.0889 146.122 16.4672 146.667 16.4672C146.919 16.4672 147.128 16.4464 147.293 16.4035L147.329 17.437C147.052 17.5384 146.687 17.5891 146.238 17.5891C145.683 17.5891 145.251 17.4253 144.938 17.0977C144.625 16.7701 144.469 16.2189 144.469 15.4454V12.3553H143.545V11.3348H144.469V10.2116L145.846 9.80859V11.3335H147.393V12.3553H147.395Z" fill="black"/>
<path d="M154.833 17.463H153.427V13.979C153.427 12.8805 153.003 12.3306 152.155 12.3306C151.503 12.3306 151.058 12.6491 150.814 13.2861C150.772 13.42 150.748 13.5838 150.748 13.7762V17.4618H149.344V8.52295H150.748V12.2162H150.775C151.217 11.5441 151.852 11.2087 152.673 11.2087C153.255 11.2087 153.737 11.3933 154.119 11.7638C154.595 12.2253 154.833 12.9117 154.833 13.8191V17.463Z" fill="black"/>
<path d="M162.507 14.1089C162.507 14.3533 162.488 14.5587 162.455 14.7264H158.241C158.259 15.3322 158.46 15.7937 158.851 16.1135C159.207 16.3995 159.667 16.5425 160.23 16.5425C160.854 16.5425 161.422 16.4463 161.934 16.2526L162.154 17.199C161.555 17.4512 160.85 17.5773 160.033 17.5773C159.054 17.5773 158.283 17.2978 157.726 16.7388C157.165 16.1798 156.888 15.4297 156.888 14.4885C156.888 13.5642 157.146 12.7946 157.668 12.181C158.212 11.5258 158.948 11.1982 159.878 11.1982C160.787 11.1982 161.477 11.5258 161.944 12.181C162.321 12.701 162.507 13.3445 162.507 14.1089ZM161.166 13.7566C161.177 13.3523 161.084 13.0039 160.894 12.7101C160.65 12.3318 160.279 12.142 159.776 12.142C159.317 12.142 158.943 12.3266 158.658 12.6971C158.424 12.9922 158.286 13.3445 158.241 13.7566H161.166Z" fill="black"/>
<path d="M71.9211 40.9552H68.8762L67.2083 35.8735H61.4107L59.8219 40.9552H56.8574L62.6013 23.6548H66.149L71.9211 40.9552ZM66.7055 33.7415L65.1971 29.224C65.0375 28.7625 64.7385 27.6757 64.2974 25.9649H64.2438C64.0681 26.7007 63.7852 27.7875 63.3964 29.224L61.9148 33.7415H66.7055Z" fill="black"/>
<path d="M86.6924 34.5647C86.6924 36.6863 86.1011 38.3633 84.9186 39.5944C83.8593 40.6903 82.544 41.2376 80.974 41.2376C79.2792 41.2376 78.0618 40.6474 77.3203 39.467H77.2667V46.0385H74.4082V32.5874C74.4082 31.2536 74.372 29.8847 74.3022 28.4807H76.8162L76.9758 30.458H77.0294C77.9827 28.9682 79.4294 28.2246 81.3708 28.2246C82.8886 28.2246 84.1557 28.8057 85.1693 29.9692C86.1856 31.134 86.6924 32.6654 86.6924 34.5647ZM83.7802 34.6661C83.7802 33.4519 83.4987 32.4509 82.9329 31.6631C82.3148 30.8415 81.4848 30.4307 80.4444 30.4307C79.7391 30.4307 79.0982 30.6595 78.5257 31.1106C77.9519 31.5656 77.5764 32.1597 77.4008 32.8955C77.3123 33.2387 77.2681 33.5195 77.2681 33.7405V35.8205C77.2681 36.7279 77.555 37.4936 78.1288 38.1189C78.7027 38.7442 79.4482 39.0562 80.3653 39.0562C81.4419 39.0562 82.2799 38.6532 82.8792 37.8498C83.4799 37.0451 83.7802 35.9843 83.7802 34.6661Z" fill="black"/>
<path d="M101.491 34.5647C101.491 36.6863 100.9 38.3633 99.7157 39.5944C98.6578 40.6903 97.3425 41.2376 95.7724 41.2376C94.0777 41.2376 92.8603 40.6474 92.1202 39.467H92.0665V46.0385H89.208V32.5874C89.208 31.2536 89.1718 29.8847 89.1021 28.4807H91.616L91.7756 30.458H91.8292C92.7812 28.9682 94.2279 28.2246 96.1707 28.2246C97.6871 28.2246 98.9541 28.8057 99.9704 29.9692C100.983 31.134 101.491 32.6654 101.491 34.5647ZM98.5787 34.6661C98.5787 33.4519 98.2958 32.4509 97.73 31.6631C97.1119 30.8415 96.2846 30.4307 95.2428 30.4307C94.5362 30.4307 93.8967 30.6595 93.3228 31.1106C92.749 31.5656 92.3749 32.1597 92.1993 32.8955C92.1121 33.2387 92.0665 33.5195 92.0665 33.7405V35.8205C92.0665 36.7279 92.3534 37.4936 92.9246 38.1189C93.4985 38.7429 94.244 39.0562 95.1637 39.0562C96.2404 39.0562 97.0784 38.6532 97.6777 37.8498C98.2784 37.0451 98.5787 35.9843 98.5787 34.6661Z" fill="black"/>
<path d="M118.036 36.1037C118.036 37.5753 117.509 38.7726 116.451 39.6969C115.289 40.707 113.67 41.2114 111.591 41.2114C109.671 41.2114 108.131 40.8526 106.966 40.1337L107.629 37.8236C108.884 38.5594 110.261 38.9286 111.761 38.9286C112.838 38.9286 113.676 38.692 114.278 38.2214C114.877 37.7508 115.176 37.119 115.176 36.3312C115.176 35.6292 114.929 35.0377 114.434 34.558C113.942 34.0783 113.12 33.6324 111.973 33.2203C108.849 32.0906 107.288 30.4357 107.288 28.2595C107.288 26.8373 107.835 25.6712 108.931 24.7638C110.022 23.8551 111.478 23.4014 113.299 23.4014C114.923 23.4014 116.271 23.6757 117.348 24.223L116.633 26.4824C115.628 25.952 114.491 25.6868 113.218 25.6868C112.213 25.6868 111.427 25.9273 110.864 26.4057C110.388 26.8334 110.149 27.3547 110.149 27.9722C110.149 28.656 110.422 29.2215 110.969 29.6661C111.445 30.0769 112.309 30.5215 113.564 31.0012C115.099 31.6005 116.227 32.3012 116.952 33.1046C117.675 33.9054 118.036 34.9077 118.036 36.1037Z" fill="black"/>
<path d="M127.487 30.5604H124.337V36.6171C124.337 38.1576 124.892 38.9272 126.004 38.9272C126.515 38.9272 126.939 38.8843 127.274 38.7985L127.353 40.9032C126.79 41.1073 126.049 41.21 125.13 41.21C124.001 41.21 123.119 40.8759 122.482 40.209C121.848 39.5408 121.529 38.4202 121.529 36.8459V30.5578H119.652V28.4778H121.529V26.1937L124.337 25.3721V28.4778H127.487V30.5604Z" fill="black"/>
<path d="M141.704 34.6151C141.704 36.5326 141.138 38.1069 140.009 39.338C138.825 40.6055 137.254 41.2373 135.295 41.2373C133.407 41.2373 131.904 40.6302 130.783 39.416C129.662 38.2018 129.102 36.6691 129.102 34.8218C129.102 32.8887 129.678 31.3053 130.835 30.0742C131.99 28.8418 133.548 28.2256 135.506 28.2256C137.394 28.2256 138.913 28.8327 140.06 30.0482C141.157 31.2273 141.704 32.7496 141.704 34.6151ZM138.738 34.7048C138.738 33.5543 138.484 32.5676 137.971 31.7447C137.372 30.7489 136.515 30.2523 135.405 30.2523C134.256 30.2523 133.383 30.7502 132.783 31.7447C132.27 32.5689 132.016 33.5712 132.016 34.7568C132.016 35.9073 132.27 36.894 132.783 37.7156C133.401 38.7114 134.265 39.208 135.379 39.208C136.47 39.208 137.327 38.701 137.945 37.6896C138.472 36.8511 138.738 35.854 138.738 34.7048Z" fill="black"/>
<path d="M150.995 30.9182C150.712 30.8675 150.41 30.8415 150.094 30.8415C149.088 30.8415 148.311 31.2094 147.764 31.9465C147.288 32.5965 147.049 33.4181 147.049 34.41V40.9555H144.192L144.219 32.4093C144.219 30.9715 144.182 29.6624 144.111 28.482H146.601L146.706 30.8688H146.785C147.087 30.0485 147.563 29.3881 148.214 28.8928C148.851 28.4469 149.539 28.2246 150.28 28.2246C150.544 28.2246 150.783 28.2428 150.995 28.2753V30.9182Z" fill="black"/>
<path d="M163.779 34.1279C163.779 34.6245 163.746 35.0431 163.675 35.385H155.099C155.133 36.6174 155.547 37.5599 156.343 38.2099C157.066 38.791 158.001 39.0822 159.148 39.0822C160.418 39.0822 161.576 38.8859 162.618 38.492L163.066 40.416C161.849 40.9308 160.411 41.1869 158.753 41.1869C156.758 41.1869 155.192 40.6175 154.052 39.48C152.915 38.3425 152.345 36.815 152.345 34.8988C152.345 33.0177 152.875 31.4512 153.935 30.2019C155.046 28.8681 156.546 28.2012 158.434 28.2012C160.288 28.2012 161.692 28.8681 162.645 30.2019C163.4 31.2614 163.779 32.5718 163.779 34.1279ZM161.054 33.409C161.072 32.5874 160.886 31.8776 160.499 31.2783C160.004 30.5074 159.244 30.1226 158.221 30.1226C157.286 30.1226 156.526 30.4983 155.945 31.2523C155.469 31.8516 155.186 32.5705 155.099 33.4077H161.054V33.409Z" fill="black"/>
</symbol>

<symbol id='googleplay'  width="179" height="52" viewBox="0 0 179 52" fill="none" xmlns="http://www.w3.org/2000/svg">
<path d="M172.37 52H6.62963C2.98499 52 0 49.0734 0 45.5V6.5C0 2.92663 2.98499 2.74817e-06 6.62963 2.74817e-06H172.37C176.015 2.74817e-06 179 2.92663 179 6.5V45.5C179 49.0734 176.015 52 172.37 52Z" fill="white"/>
<path d="M172.37 1.04162C175.44 1.04162 177.938 3.4905 177.938 6.5V45.5C177.938 48.5095 175.44 50.9584 172.37 50.9584H6.62963C3.56011 50.9584 1.0624 48.5095 1.0624 45.5V6.5C1.0624 3.4905 3.56011 1.04162 6.62963 1.04162H172.37ZM172.37 2.74817e-06H6.62963C2.98499 2.74817e-06 0 2.92663 0 6.5V45.5C0 49.0734 2.98499 52 6.62963 52H172.37C176.015 52 179 49.0734 179 45.5V6.5C179 2.92663 176.015 2.74817e-06 172.37 2.74817e-06Z" fill="#A6A6A6"/>
<path d="M13.8361 9.80044C13.4466 10.2002 13.2212 10.8226 13.2212 11.6286V40.3781C13.2212 41.1841 13.4466 41.8064 13.8361 42.2062L13.9322 42.2939L30.3637 26.1902V25.8099L13.9322 9.7062L13.8361 9.80044Z" fill="url(#paint0_linear_749_7837)"/>
<path d="M35.8349 31.5605L30.3638 26.1899V25.8097L35.8415 20.439L35.9641 20.5089L42.4512 24.1278C44.3026 25.1548 44.3026 26.8448 42.4512 27.8783L35.9641 31.4907L35.8349 31.5605Z" fill="url(#paint1_linear_749_7837)"/>
<path d="M35.964 31.4907L30.3636 25.9998L13.8359 42.206C14.4508 42.8397 15.4536 42.9161 16.5939 42.2823L35.964 31.4907Z" fill="url(#paint2_linear_749_7837)"/>
<path d="M35.964 20.5091L16.5939 9.71751C15.4536 9.09025 14.4508 9.16663 13.8359 9.80038L30.3636 26L35.964 20.5091Z" fill="url(#paint3_linear_749_7837)"/>
<path d="M62.8723 13.3172C62.8723 14.4027 62.5408 15.2721 61.8878 15.9204C61.137 16.6891 60.1591 17.0758 58.9608 17.0758C57.8156 17.0758 56.8377 16.6826 56.0355 15.9074C55.2317 15.1209 54.8306 14.1557 54.8306 13.0003C54.8306 11.8449 55.2317 10.8797 56.0355 10.0997C56.8377 9.31806 57.8156 8.9248 58.9608 8.9248C59.531 8.9248 60.0746 9.04018 60.5934 9.25468C61.1105 9.4708 61.5315 9.7633 61.8364 10.1241L61.1436 10.8098C60.6116 10.1939 59.8873 9.89006 58.9608 9.89006C58.1255 9.89006 57.4012 10.1761 56.7863 10.7529C56.178 11.3314 55.8731 12.0806 55.8731 13.0003C55.8731 13.9201 56.178 14.6757 56.7863 15.2542C57.4012 15.8246 58.1255 16.1171 58.9608 16.1171C59.8475 16.1171 60.5934 15.8246 61.1818 15.2477C61.5696 14.8658 61.79 14.3393 61.848 13.6666H58.9608V12.7273H62.8126C62.859 12.9304 62.8723 13.1271 62.8723 13.3172Z" fill="black" stroke="black" stroke-width="0.16" stroke-miterlimit="10"/>
<path d="M68.9832 10.0606H65.3651V12.5306H68.6269V13.4699H65.3651V15.9399H68.9832V16.897H64.3408V9.10352H68.9832V10.0606Z" fill="black" stroke="black" stroke-width="0.16" stroke-miterlimit="10"/>
<path d="M73.2958 16.897H72.2715V10.0606H70.0522V9.10352H75.5167V10.0606H73.2958V16.897Z" fill="black" stroke="black" stroke-width="0.16" stroke-miterlimit="10"/>
<path d="M79.4712 16.897V9.10352H80.4955V16.897H79.4712Z" fill="black" stroke="black" stroke-width="0.16" stroke-miterlimit="10"/>
<path d="M85.0267 16.897H84.0108V10.0606H81.7832V9.10352H87.2543V10.0606H85.0267V16.897Z" fill="black" stroke="black" stroke-width="0.16" stroke-miterlimit="10"/>
<path d="M97.6001 15.8944C96.8161 16.6826 95.8449 17.0758 94.6864 17.0758C93.5212 17.0758 92.55 16.6826 91.766 15.8944C90.9837 15.1079 90.5942 14.1427 90.5942 13.0003C90.5942 11.8579 90.9837 10.8927 91.766 10.1062C92.55 9.31805 93.5212 8.9248 94.6864 8.9248C95.8383 8.9248 96.8095 9.31805 97.5935 10.1127C98.3824 10.9057 98.7719 11.8644 98.7719 13.0003C98.7719 14.1427 98.3824 15.1079 97.6001 15.8944ZM92.5235 15.2412C93.1135 15.8246 93.8312 16.1171 94.6864 16.1171C95.535 16.1171 96.2593 15.8246 96.8427 15.2412C97.431 14.6578 97.7294 13.9087 97.7294 13.0003C97.7294 12.0919 97.431 11.3428 96.8427 10.7594C96.2593 10.1761 95.535 9.88355 94.6864 9.88355C93.8312 9.88355 93.1135 10.1761 92.5235 10.7594C91.9351 11.3428 91.6368 12.0919 91.6368 13.0003C91.6368 13.9087 91.9351 14.6578 92.5235 15.2412Z" fill="black" stroke="black" stroke-width="0.16" stroke-miterlimit="10"/>
<path d="M100.208 16.897V9.10352H101.452L105.317 15.1648H105.361L105.317 13.6665V9.10352H106.339V16.897H105.272L101.224 10.5368H101.18L101.224 12.0415V16.897H100.208Z" fill="black" stroke="black" stroke-width="0.16" stroke-miterlimit="10"/>
<path d="M90.342 28.2783C87.2277 28.2783 84.6836 30.602 84.6836 33.8082C84.6836 36.9883 87.2277 39.3364 90.342 39.3364C93.4629 39.3364 96.007 36.9883 96.007 33.8082C96.007 30.602 93.4629 28.2783 90.342 28.2783ZM90.342 37.1589C88.6332 37.1589 87.1631 35.776 87.1631 33.8082C87.1631 31.8143 88.6332 30.4558 90.342 30.4558C92.0507 30.4558 93.5275 31.8143 93.5275 33.8082C93.5275 35.776 92.0507 37.1589 90.342 37.1589ZM77.9959 28.2783C74.875 28.2783 72.3376 30.602 72.3376 33.8082C72.3376 36.9883 74.875 39.3364 77.9959 39.3364C81.1152 39.3364 83.6543 36.9883 83.6543 33.8082C83.6543 30.602 81.1152 28.2783 77.9959 28.2783ZM77.9959 37.1589C76.2855 37.1589 74.8104 35.776 74.8104 33.8082C74.8104 31.8143 76.2855 30.4558 77.9959 30.4558C79.7047 30.4558 81.1748 31.8143 81.1748 33.8082C81.1748 35.776 79.7047 37.1589 77.9959 37.1589ZM63.3047 29.9732V32.3229H69.0277C68.8603 33.6359 68.4128 34.6012 67.7266 35.2739C66.8913 36.0864 65.5902 36.9883 63.3047 36.9883C59.7827 36.9883 57.0248 34.2014 57.0248 30.7483C57.0248 27.2952 59.7827 24.5083 63.3047 24.5083C65.209 24.5083 66.5946 25.2379 67.6173 26.1837L69.3062 24.5278C67.8758 23.1888 65.9731 22.1602 63.3047 22.1602C58.475 22.1602 54.416 26.013 54.416 30.7483C54.416 35.4835 58.475 39.3364 63.3047 39.3364C65.9151 39.3364 67.8758 38.4979 69.4172 36.9249C70.9967 35.3763 71.489 33.1988 71.489 31.4405C71.489 30.8945 71.4426 30.3924 71.3597 29.9732H63.3047ZM123.379 31.7948C122.913 30.5582 121.476 28.2783 118.549 28.2783C115.649 28.2783 113.234 30.5192 113.234 33.8082C113.234 36.9054 115.624 39.3364 118.828 39.3364C121.418 39.3364 122.913 37.7878 123.528 36.8859L121.606 35.6298C120.964 36.5495 120.091 37.1589 118.828 37.1589C117.573 37.1589 116.673 36.595 116.096 35.4835L123.639 32.4237L123.379 31.7948ZM115.689 33.6359C115.624 31.5039 117.378 30.4119 118.634 30.4119C119.618 30.4119 120.454 30.8945 120.732 31.5852L115.689 33.6359ZM109.558 39H112.037V22.75H109.558V39ZM105.497 29.51H105.414C104.858 28.8633 103.795 28.2783 102.449 28.2783C99.6251 28.2783 97.0429 30.7093 97.0429 33.826C97.0429 36.9249 99.6251 39.3364 102.449 39.3364C103.795 39.3364 104.858 38.7465 105.414 38.0803H105.497V38.8733C105.497 40.9874 104.345 42.1233 102.487 42.1233C100.973 42.1233 100.033 41.0508 99.645 40.1489L97.4887 41.0313C98.1102 42.497 99.756 44.3008 102.487 44.3008C105.395 44.3008 107.847 42.6238 107.847 38.5434V28.6147H105.497V29.51ZM102.661 37.1589C100.953 37.1589 99.5223 35.7565 99.5223 33.826C99.5223 31.8777 100.953 30.4558 102.661 30.4558C104.345 30.4558 105.673 31.8777 105.673 33.826C105.673 35.7565 104.345 37.1589 102.661 37.1589ZM134.988 22.75H129.057V39H131.53V32.8429H134.988C137.734 32.8429 140.427 30.8945 140.427 27.7957C140.427 24.6984 137.727 22.75 134.988 22.75ZM135.052 30.5825H131.53V25.0104H135.052C136.899 25.0104 137.953 26.5135 137.953 27.7957C137.953 29.0534 136.899 30.5825 135.052 30.5825ZM150.338 28.2474C148.552 28.2474 146.694 29.0209 145.93 30.7353L148.124 31.6372C148.596 30.7353 149.465 30.4428 150.383 30.4428C151.666 30.4428 152.967 31.1984 152.987 32.5325V32.7032C152.539 32.4497 151.581 32.0743 150.403 32.0743C148.04 32.0743 145.631 33.3499 145.631 35.7305C145.631 37.908 147.567 39.3104 149.743 39.3104C151.407 39.3104 152.326 38.5743 152.902 37.7179H152.987V38.974H155.375V32.7405C155.375 29.8594 153.181 28.2474 150.338 28.2474ZM150.04 37.1524C149.231 37.1524 148.104 36.7592 148.104 35.776C148.104 34.5183 149.51 34.0357 150.726 34.0357C151.815 34.0357 152.326 34.2713 152.987 34.5817C152.793 36.0864 151.472 37.1524 150.04 37.1524ZM164.077 28.6033L161.234 35.6477H161.15L158.211 28.6033H155.544L159.96 38.4475L157.44 43.9254H160.024L166.828 28.6033H164.077ZM141.786 39H144.266V22.75H141.786V39Z" fill="black"/>
<defs>
<linearGradient id="paint0_linear_749_7837" x1="28.9048" y1="40.6775" x2="7.09196" y2="18.4296" gradientUnits="userSpaceOnUse">
<stop stop-color="#00A0FF"/>
<stop offset="0.0066" stop-color="#00A1FF"/>
<stop offset="0.2601" stop-color="#00BEFF"/>
<stop offset="0.5122" stop-color="#00D2FF"/>
<stop offset="0.7604" stop-color="#00DFFF"/>
<stop offset="1" stop-color="#00E3FF"/>
</linearGradient>
<linearGradient id="paint1_linear_749_7837" x1="44.862" y1="25.998" x2="12.7787" y2="25.998" gradientUnits="userSpaceOnUse">
<stop stop-color="#FFE000"/>
<stop offset="0.4087" stop-color="#FFBD00"/>
<stop offset="0.7754" stop-color="#FFA500"/>
<stop offset="1" stop-color="#FF9C00"/>
</linearGradient>
<linearGradient id="paint2_linear_749_7837" x1="32.9187" y1="23.0149" x2="3.33864" y2="-7.15501" gradientUnits="userSpaceOnUse">
<stop stop-color="#FF3A44"/>
<stop offset="1" stop-color="#C31162"/>
</linearGradient>
<linearGradient id="paint3_linear_749_7837" x1="9.67558" y1="51.7709" x2="22.8844" y2="38.2988" gradientUnits="userSpaceOnUse">
<stop stop-color="#32A071"/>
<stop offset="0.0685" stop-color="#2DA771"/>
<stop offset="0.4762" stop-color="#15CF74"/>
<stop offset="0.8009" stop-color="#06E775"/>
<stop offset="1" stop-color="#00F076"/>
</linearGradient>
</defs>
</symbol>

<symbol id='logo' width="111" height="40" viewBox="0 0 111 40" fill="none" xmlns="http://www.w3.org/2000/svg">
<path d="M16.0876 34.5765C11.5342 34.5765 7.09373 34.579 2.65331 34.5753C0.776639 34.5738 0.0447637 33.8544 0.0438482 31.9984C0.0399885 24.1712 0.0402917 16.344 0.0434374 8.5168C0.0442157 6.58005 0.754916 5.87691 2.7038 5.87649C12.0738 5.87448 21.4439 5.8745 30.8139 5.87656C32.7681 5.87699 33.4827 6.58023 33.4835 8.51068C33.4866 16.3379 33.4869 24.1651 33.4833 31.9922C33.4825 33.8466 32.7462 34.5741 30.8765 34.5755C25.9845 34.5793 21.0925 34.5766 16.0876 34.5765ZM6.09445 9.76531C5.81355 9.95796 5.29418 10.1438 5.28848 10.3443C5.22891 12.4386 5.25173 14.5352 5.25173 16.6764C5.63934 16.6958 5.89599 16.7197 6.15265 16.7198C11.3503 16.7219 16.548 16.7159 21.7456 16.7264C22.5787 16.7281 23.3113 16.6026 23.3212 15.5766C23.3312 14.5339 22.5879 14.4261 21.7582 14.4283C17.4645 14.4392 13.1708 14.4329 8.87704 14.4326C8.47811 14.4326 8.07917 14.4326 7.61641 14.4326C7.61641 13.6155 7.61641 12.9582 7.61641 12.3243C7.72841 12.2626 7.79188 12.197 7.85542 12.1969C12.8256 12.1912 17.7961 12.1651 22.7659 12.2076C24.0126 12.2182 25.2058 13.3121 25.5595 14.5107C26.265 16.9016 24.6314 19.0164 22.0035 19.0257C16.8437 19.044 11.6836 19.0169 6.5236 19.0087C6.12519 19.008 5.72678 19.0086 5.32114 19.0086C5.32114 22.9518 5.32114 26.7353 5.32114 30.5712C7.62985 30.5712 9.86681 30.5712 12.2356 30.5712C12.2356 29.0063 12.2356 27.5227 12.2356 25.9572C13.8671 25.9572 15.3688 25.9199 16.8657 25.9873C17.1809 26.0015 17.5788 26.3366 17.7666 26.6328C18.451 27.7123 19.013 28.8716 19.7293 29.9274C19.9702 30.2824 20.5275 30.6085 20.9511 30.6226C23.0579 30.6928 25.1684 30.6585 27.2776 30.6487C27.5099 30.6476 27.7419 30.5678 28.0764 30.5054C27.0073 28.6743 25.9929 26.9602 25.0015 25.2329C23.9319 23.3694 23.8855 23.3391 21.4911 23.7532C22.3214 25.2374 23.132 26.6865 23.963 28.1718C21.5097 28.4341 21.5101 28.4338 20.3525 26.438C19.975 25.7871 19.5488 25.1594 19.2291 24.4814C18.9137 23.8124 18.4786 23.5697 17.7301 23.5862C15.509 23.6351 13.2861 23.6003 11.0639 23.607C10.7078 23.6081 10.3518 23.6541 9.89165 23.6866C9.89165 25.2585 9.89165 26.7124 9.89165 28.2062C9.0781 28.2062 8.37942 28.2062 7.55092 28.2062C7.55092 26.2792 7.60388 24.404 7.52907 22.534C7.49037 21.5665 7.82688 21.3402 8.74377 21.3516C13.0369 21.4052 17.331 21.3902 21.6247 21.4017C23.9118 21.4079 25.859 20.6799 27.1337 18.6857C28.3512 16.7811 28.4047 14.7661 27.3229 12.7919C26.2136 10.7673 24.4105 9.78591 22.1264 9.77433C16.8536 9.74761 11.5805 9.76544 6.09445 9.76531Z" fill="#FFB22C"/>
<path d="M61.099 23.4456C60.2078 22.5192 59.3913 21.5456 58.5963 20.5548C58.5539 20.5019 58.6989 20.1897 58.7473 20.1921C58.9441 20.2016 59.2017 20.2275 59.3193 20.3554C59.6475 20.7128 59.9172 21.1239 60.3421 21.6897C60.4008 21.26 60.4664 20.9987 60.4675 20.7371C60.476 18.7042 60.4622 16.6711 60.4756 14.6382C60.4843 13.3096 61.0524 12.6183 62.0784 12.63C63.1015 12.6417 63.6688 13.3267 63.6738 14.6636C63.6887 18.5789 63.6789 22.4943 63.6793 26.4096C63.6794 27.2999 63.4646 28.0692 62.4979 28.3625C61.5687 28.6444 61.0139 28.1011 60.5265 27.4242C58.8125 25.0439 57.0955 22.6657 55.3783 20.2876C55.1471 19.9675 54.9079 19.6532 54.5006 19.1048C54.5006 21.6361 54.5067 23.8773 54.4951 26.1184C54.493 26.527 54.4858 26.9569 54.3635 27.3393C54.1166 28.1108 53.4675 28.6313 52.7387 28.3814C52.1785 28.1893 51.4291 27.5198 51.3908 27.015C51.2344 24.956 51.3091 22.8787 51.3314 20.8085C51.3335 20.6143 51.5659 20.4226 51.6914 20.2298C51.8175 20.4226 52.0431 20.6107 52.0524 20.809C52.0929 21.673 52.0705 22.54 52.0708 23.4058C52.0713 24.4223 51.9969 25.4471 52.1086 26.4512C52.1537 26.8573 52.5535 27.4812 52.882 27.5455C53.593 27.6847 53.6536 27.0348 53.6534 26.4773C53.6523 23.8419 53.6464 21.2066 53.6594 18.5713C53.6613 18.1873 53.7564 17.8038 53.8531 17.0886C54.3284 17.6107 54.6155 17.8723 54.839 18.1801C56.916 21.0406 58.967 23.9202 61.0697 26.7616C61.3421 27.1297 61.8651 27.3122 62.2719 27.5807C62.4672 27.1055 62.8258 26.6323 62.8317 26.1547C62.8783 22.3906 62.8576 18.6255 62.8575 14.8608C62.8575 14.7478 62.9024 14.6041 62.8498 14.5271C62.589 14.1456 62.3024 13.7816 62.0248 13.4114C61.7817 13.7726 61.3387 14.1281 61.3281 14.496C61.2628 16.753 61.3045 19.0128 61.2899 21.2716C61.2854 21.9795 61.2172 22.6871 61.099 23.4456Z" fill="black"/>
<path d="M90.8433 19.7591C90.5982 19.8566 90.4006 19.8875 90.203 19.9184C90.1895 19.7241 90.093 19.4775 90.1768 19.3443C90.5365 18.7723 90.9291 18.2172 91.3542 17.692C91.4947 17.5185 91.7692 17.4535 91.9824 17.3389C92.074 17.5634 92.2405 17.7866 92.2448 18.0128C92.2701 19.3303 92.2572 20.6485 92.2573 21.9665C92.2574 23.5105 92.2099 25.057 92.2938 26.5964C92.3129 26.9456 92.788 27.2699 93.0533 27.6056C93.3185 27.2681 93.8099 26.9335 93.8144 26.5925C93.8677 22.4886 93.8616 18.3836 93.8257 14.2793C93.8228 13.942 93.5227 13.3582 93.3026 13.3292C92.9577 13.2838 92.432 13.5135 92.2117 13.8016C90.9555 15.4444 89.7696 17.1408 88.5537 18.8145C88.319 19.1375 88.057 19.4407 87.7028 19.8844C87.2479 19.2966 86.8792 18.8436 86.5359 18.3721C85.4512 16.8819 84.4029 15.3638 83.2761 13.9063C83.026 13.5828 82.512 13.4632 82.1195 13.2497C81.9252 13.6568 81.6036 14.0516 81.5629 14.4735C81.4763 15.3689 81.5495 16.2788 81.529 17.1821C81.5211 17.53 81.4368 17.8761 81.3873 18.2231C81.2728 18.2413 81.1584 18.2594 81.0439 18.2776C80.937 17.9904 80.7475 17.7059 80.7378 17.4155C80.7014 16.3246 80.5985 15.2114 80.7725 14.1478C80.871 13.5463 81.3405 12.8163 81.8581 12.5188C82.5585 12.1164 83.2996 12.4957 83.7985 13.1936C85.0627 14.9618 86.34 16.7205 87.6954 18.5986C88.9386 16.8863 90.1403 15.2646 91.3029 13.6153C91.8547 12.8326 92.4402 12.141 93.5098 12.4805C94.5647 12.8154 94.696 13.6933 94.6911 14.6647C94.6713 18.5809 94.6881 22.4973 94.6796 26.4136C94.6768 27.6685 94.0455 28.4388 93.0581 28.4496C92.0746 28.4603 91.4664 27.7081 91.4305 26.4236C91.419 26.0097 91.4292 25.5952 91.4287 25.1809C91.4263 23.2981 91.4244 21.4153 91.4186 19.5325C91.4183 19.4638 91.3791 19.3952 91.3209 19.2058C91.1488 19.4006 91.0199 19.5466 90.8433 19.7591Z" fill="black"/>
<path d="M47.6308 21.6078C46.7231 21.7785 45.8844 21.9405 45.0392 21.9875C44.0339 22.0434 43.023 22.0007 41.9566 22.0007C41.9566 23.1086 41.9566 24.1049 41.9566 25.2319C43.6048 25.2319 45.2121 25.219 46.8189 25.2403C47.2619 25.2462 47.7479 25.2567 48.1373 25.4339C49.1352 25.8882 49.3031 27.2427 48.5081 27.9904C47.8595 28.6004 45.6701 28.6571 44.8014 27.8083C45.371 27.748 45.9421 27.6996 46.5097 27.6245C47.1507 27.5397 48.1573 27.9516 48.1592 26.8364C48.1611 25.7519 47.1825 26.0292 46.5164 26.0202C44.7553 25.9963 42.9937 26.0121 41.1802 26.0121C41.1802 24.3902 41.1802 22.8956 41.1802 21.2193C42.6264 21.2193 44.0394 21.2194 45.4523 21.2192C45.791 21.2191 46.176 21.3193 46.4567 21.1913C46.809 21.0306 47.0759 20.6824 47.3796 20.4151C47.0791 20.1469 46.7913 19.666 46.4757 19.6469C45.0508 19.561 43.616 19.5604 42.1886 19.6205C41.3341 19.6565 41.0633 19.3644 41.1088 18.523C41.1734 17.3304 41.1252 16.1316 41.1252 14.9756C42.1239 14.9756 42.985 14.9756 43.8461 14.9756C43.8621 15.1234 43.8781 15.2712 43.8941 15.4191C43.2705 15.5097 42.6469 15.6003 41.9553 15.7009C41.9553 16.6612 41.9553 17.6583 41.9553 18.7866C43.3639 18.7866 44.7905 18.6974 46.1969 18.8274C46.8195 18.8849 47.6348 19.2441 47.9293 19.7294C48.1774 20.1381 47.7984 20.9274 47.6308 21.6078Z" fill="black"/>
<path d="M104.724 21.9957C103.167 21.9989 101.706 21.9989 100.204 21.9989C100.204 23.0852 100.204 24.0924 100.204 25.236C101.971 25.236 103.721 25.2351 105.471 25.2363C106.42 25.237 107.145 25.6429 107.198 26.6237C107.224 27.1049 106.938 27.7175 106.592 28.0783C106.039 28.6557 103.918 28.5964 103.059 27.8213C103.581 27.7572 104.104 27.7048 104.624 27.6261C105.298 27.524 106.398 27.9938 106.42 26.87C106.443 25.658 105.308 26.041 104.592 26.0241C102.905 25.9844 101.216 26.0114 99.4637 26.0114C99.4637 24.3811 99.4637 22.8543 99.4637 21.2201C101.102 21.2201 102.677 21.2196 104.252 21.2204C104.859 21.2208 105.572 21.2969 105.604 20.4353C105.637 19.5465 104.918 19.606 104.31 19.6041C102.955 19.5998 101.6 19.5813 100.246 19.612C99.6155 19.6262 99.3702 19.4046 99.3881 18.7621C99.4227 17.5228 99.3982 16.2817 99.3982 14.9834C100.334 14.9834 101.21 14.9834 102.085 14.9834C102.102 15.1317 102.118 15.2801 102.135 15.4284C101.514 15.513 100.892 15.5975 100.213 15.6899C100.213 16.6588 100.213 17.6587 100.213 18.7877C101.674 18.7877 103.127 18.7729 104.579 18.7925C105.692 18.8076 106.457 19.419 106.439 20.3361C106.42 21.3476 105.854 21.9222 104.724 21.9957Z" fill="black"/>
<path d="M67.699 13.1077C67.3284 13.4737 67.0417 13.8038 66.755 14.134C67.1388 14.3661 67.5034 14.7461 67.9106 14.799C68.7244 14.9047 69.5646 14.8759 70.3881 14.8187C71.18 14.7637 71.4273 15.0494 71.4183 15.8423C71.3807 19.1518 71.4023 22.462 71.4025 25.7719C71.4025 26.0728 71.3124 26.417 71.4281 26.6642C71.592 27.0142 71.9086 27.2928 72.1599 27.6018C72.4425 27.281 72.955 26.9702 72.9695 26.6377C73.0496 24.7982 73.0083 22.9533 73.0088 21.1103C73.0089 20.847 72.9655 20.5728 73.0264 20.3242C73.0687 20.1519 73.2553 20.015 73.3775 19.8623C73.5043 20.0089 73.7406 20.1547 73.7417 20.3023C73.758 22.5959 73.792 24.8915 73.7108 27.1827C73.6821 27.9948 72.9567 28.5423 72.2213 28.3879C71.6389 28.2657 71.0357 27.7109 70.6873 27.1854C70.4389 26.8108 70.5792 26.166 70.5783 25.6417C70.5723 22.3372 70.5752 19.0326 70.5752 15.5984C69.5185 15.5984 68.5135 15.6387 67.5133 15.5864C66.6119 15.5393 66.0562 15.0316 65.9842 14.0984C65.921 13.2781 66.3078 12.7077 67.0806 12.4715C67.5248 12.3357 68.0695 12.2666 67.699 13.1077Z" fill="black"/>
<path d="M83.8833 27.2614C83.4869 28.1591 82.8723 28.6038 81.9719 28.3781C81.0218 28.1399 80.7121 27.419 80.7219 26.4881C80.7405 24.7191 80.703 22.9491 80.7468 21.181C80.756 20.8113 81.016 20.4478 81.1604 20.0814C81.2829 20.4322 81.5039 20.7808 81.5113 21.134C81.5499 22.9777 81.4982 24.824 81.5717 26.6656C81.5845 26.9868 82.045 27.29 82.2988 27.6015C82.592 27.2868 82.9234 26.9978 83.1608 26.6455C83.2657 26.4898 83.1803 26.2056 83.1803 25.9797C83.1805 23.4953 83.1805 21.0108 83.1805 18.5263C83.1805 18.1583 83.1805 17.7902 83.1805 17.0503C83.6946 17.4771 84.0178 17.6575 84.2197 17.9284C85.0509 19.0435 85.839 20.1907 86.6549 21.3174C87.4613 22.431 87.8749 22.4303 88.696 21.3533C88.9138 21.0676 89.1605 20.804 89.5588 20.337C89.9799 21.5663 89.2057 22.097 88.688 22.5493C87.9882 23.1606 87.1103 23.0799 86.4708 22.3555C85.9012 21.7102 85.4429 20.967 84.9309 20.2703C84.6963 19.9511 84.4508 19.6399 84.2103 19.3251C84.1068 19.3425 84.0033 19.3599 83.8998 19.3773C83.8998 21.9755 83.8998 24.5737 83.8833 27.2614Z" fill="black"/>
<path d="M44.5609 12.406C45.5774 12.4071 46.4815 12.3972 47.3851 12.4123C48.379 12.4288 48.9193 12.996 49.0154 13.9382C49.1043 14.8084 48.3584 15.5587 47.3862 15.586C46.6154 15.6077 45.8418 15.5282 45.0695 15.4936C45.0601 15.3524 45.0507 15.2112 45.0414 15.07C45.2878 14.9924 45.5305 14.8669 45.7814 14.8473C46.2682 14.8093 46.7991 14.9447 47.2371 14.793C47.6106 14.6636 47.8796 14.2325 48.1948 13.9348C47.8785 13.6766 47.578 13.2228 47.2429 13.1957C46.0829 13.1019 44.9109 13.1559 43.7434 13.1549C42.7643 13.1541 41.784 13.1835 40.8062 13.1472C39.8315 13.111 39.4283 13.5456 39.4849 14.5033C39.5204 15.1038 39.5293 15.7119 39.4704 16.3087C39.4477 16.5385 39.2039 16.7464 39.0609 16.9643C38.9392 16.7656 38.7221 16.5713 38.7126 16.3674C38.6739 15.5407 38.6397 14.7056 38.7159 13.8841C38.805 12.9249 39.3987 12.4136 40.3809 12.4095C41.7367 12.4038 43.0925 12.4067 44.5609 12.406Z" fill="black"/>
<path d="M73.0174 16.7203C73.0173 16.0607 73.0173 15.5066 73.0173 14.8436C74.1072 14.8436 75.0782 14.8556 76.0487 14.8394C76.7058 14.8284 77.5805 14.9807 77.6075 14.0144C77.6353 13.0228 76.7613 13.1553 76.1 13.1518C74.1845 13.1417 72.269 13.1518 70.3535 13.1451C69.9994 13.1438 69.6455 13.101 69.2916 13.0774C69.2644 12.9694 69.2372 12.8614 69.21 12.7535C69.4477 12.6395 69.6844 12.4289 69.9232 12.4265C72.2516 12.4034 74.5806 12.3943 76.9088 12.4272C77.8348 12.4403 78.3495 13.0187 78.4389 13.9155C78.5225 14.7543 77.8497 15.5249 76.9529 15.5747C75.9429 15.6308 74.9273 15.5876 73.6803 15.5876C73.6803 16.5811 73.6803 17.5359 73.6803 18.4907C73.5057 18.4989 73.3312 18.507 73.1567 18.5152C73.1103 17.9521 73.0638 17.389 73.0174 16.7203Z" fill="black"/>
<path d="M106.401 15.3946C105.303 15.6212 104.287 15.8226 103.341 15.3238C103.344 15.1636 103.347 15.0033 103.35 14.8431C103.984 14.8431 104.619 14.8512 105.253 14.8408C105.846 14.831 106.537 14.721 106.415 13.9965C106.358 13.6576 105.66 13.2031 105.237 13.1864C103.136 13.1034 101.03 13.1572 98.9254 13.1448C98.0713 13.1398 97.6892 13.5399 97.7061 14.3841C97.723 15.2348 97.7098 16.0861 97.7098 17.012C97.392 16.9411 97.1339 16.9106 97.1338 16.8795C97.1303 15.665 97.0303 14.4291 97.2399 13.2488C97.3035 12.8908 98.2228 12.4713 98.7653 12.4491C100.979 12.3586 103.202 12.3437 105.413 12.4558C106.006 12.4858 106.78 12.929 107.097 13.4226C107.532 14.0999 107.216 14.8732 106.401 15.3946Z" fill="black"/>
<path d="M38.6909 26.9734C38.6851 23.8745 38.6851 20.8744 38.6851 17.8744C38.8721 17.8573 39.0591 17.8403 39.2461 17.8232C39.3346 18.1956 39.4961 18.5672 39.4996 18.9404C39.5227 21.3792 39.544 23.8191 39.4961 26.2572C39.476 27.2808 39.845 27.7065 40.8746 27.6216C41.5455 27.5662 42.226 27.5864 42.8995 27.6225C43.2271 27.64 43.5486 27.7716 43.8728 27.8516C43.8806 27.9541 43.8883 28.0566 43.8961 28.1591C43.6584 28.2588 43.4234 28.4358 43.1824 28.4444C42.2455 28.4779 41.3062 28.4759 40.3687 28.4528C39.4661 28.4305 38.9114 27.9475 38.6909 26.9734Z" fill="black"/>
<path d="M57.5916 17.9307C57.8017 18.463 57.9608 18.9316 58.1198 19.4001C57.7502 19.0943 57.3059 18.845 57.024 18.4728C55.9147 17.0081 54.8783 15.4882 53.7618 14.0293C53.5252 13.7202 53.0654 13.5818 52.7084 13.3648C52.4935 13.7553 52.1228 14.1344 52.0933 14.5385C52.0087 15.6961 52.0796 16.8644 52.0454 18.0272C52.0395 18.2278 51.8184 18.422 51.6966 18.6192C51.5712 18.4227 51.3417 18.2285 51.3372 18.0293C51.3071 16.6785 51.2361 15.3176 51.374 13.9802C51.4228 13.5067 51.9305 12.9119 52.3843 12.6879C53.075 12.3471 53.7692 12.6455 54.2455 13.3072C55.3409 14.8293 56.4418 16.3473 57.5916 17.9307Z" fill="black"/>
<path d="M101.882 27.7422C101.783 28.0129 101.621 28.4042 101.436 28.4159C100.464 28.4773 99.4824 28.4905 98.5104 28.427C97.622 28.369 97.0004 27.8614 96.9882 26.9312C96.9512 24.116 96.9655 21.3001 96.981 18.4846C96.9822 18.2707 97.1501 18.0577 97.2405 17.8442C97.3397 17.8491 97.4389 17.854 97.5381 17.8588C97.597 18.2217 97.7045 18.5843 97.7068 18.9475C97.7222 21.3126 97.7111 23.6778 97.7161 26.043C97.7192 27.5217 97.8225 27.6123 99.3383 27.6298C100.162 27.6393 100.985 27.6677 101.882 27.7422Z" fill="black"/>
<path d="M6.2011 9.76493C11.5806 9.76512 16.8537 9.74729 22.1266 9.77401C24.4107 9.78559 26.2137 10.767 27.323 12.7916C28.4048 14.7658 28.3513 16.7807 27.1338 18.6854C25.8591 20.6796 23.9119 21.4076 21.6248 21.4014C17.3311 21.3899 13.0371 21.4049 8.7439 21.3513C7.827 21.3399 7.4905 21.5661 7.5292 22.5336C7.604 24.4037 7.55104 26.2789 7.55104 28.2059C8.37954 28.2059 9.07823 28.2059 9.89177 28.2059C9.89177 26.7121 9.89177 25.2582 9.89177 23.6863C10.3519 23.6538 10.7079 23.6078 11.064 23.6067C13.2862 23.6 15.5091 23.6348 17.7302 23.5859C18.4788 23.5694 18.9138 23.8121 19.2293 24.4811C19.549 25.1591 19.9751 25.7868 20.3526 26.4377C21.5102 28.4335 21.5099 28.4337 23.9631 28.1715C23.1322 26.6861 22.3215 25.2371 21.4912 23.7529C23.8856 23.3388 23.932 23.369 25.0016 25.2326C25.993 26.9599 27.0074 28.674 28.0765 30.5051C27.742 30.5675 27.51 30.6473 27.2777 30.6484C25.1686 30.6582 23.0581 30.6925 20.9512 30.6223C20.5277 30.6082 19.9704 30.2821 19.7294 29.927C19.0131 28.8713 18.4512 27.712 17.7667 26.6325C17.5789 26.3363 17.181 26.0012 16.8659 25.987C15.3689 25.9195 13.8672 25.9568 12.2357 25.9568C12.2357 27.5223 12.2357 29.006 12.2357 30.5709C9.86693 30.5709 7.62997 30.5709 5.32126 30.5709C5.32126 26.7349 5.32126 22.9515 5.32126 19.0083C5.72691 19.0083 6.12532 19.0077 6.52373 19.0084C11.6837 19.0165 16.8438 19.0437 22.0037 19.0254C24.6316 19.0161 26.2651 16.9013 25.5596 14.5104C25.2059 13.3118 24.0128 12.2179 22.7661 12.2073C17.7962 12.1648 12.8258 12.1909 7.85555 12.1966C7.792 12.1966 7.72853 12.2622 7.61653 12.324C7.61653 12.9579 7.61653 13.6152 7.61653 14.4323C8.07929 14.4323 8.47823 14.4323 8.87717 14.4323C13.1709 14.4326 17.4646 14.4389 21.7583 14.4279C22.588 14.4258 23.3313 14.5335 23.3213 15.5763C23.3114 16.6023 22.5788 16.7278 21.7458 16.7261C16.5481 16.7156 11.3504 16.7216 6.15277 16.7195C5.89611 16.7194 5.63946 16.6954 5.25186 16.676C5.25186 14.5349 5.22903 12.4383 5.2886 10.344C5.2943 10.1435 5.81367 9.95764 6.2011 9.76493Z" fill="#FEFAF8"/>
</symbol>

<symbol id='facebook'  width="40" height="40" viewBox="0 0 40 40" fill="none" xmlns="http://www.w3.org/2000/svg">
<g clip-path="url(#clip0_1835_5492)">
<path d="M0 19.976C0 8.92 8.75739 -0.00399866 19.6043 1.34416e-06C30.4317 0.00400134 39.1343 8.964 39.1304 20.1C39.1265 31.1 30.33 40.008 19.483 40C8.72609 39.992 0 31.024 0 19.976ZM21.6274 33.54C21.6274 29.404 21.6274 25.316 21.6274 21.204C22.993 21.204 24.3235 21.204 25.693 21.204C25.8965 19.596 26.0961 18.012 26.3035 16.38C24.7226 16.38 23.1887 16.38 21.5687 16.38C21.6117 15.012 21.6117 13.684 21.7135 12.36C21.7683 11.664 22.2496 11.192 22.9226 11.06C23.4822 10.952 24.0613 10.944 24.6326 10.924C25.2274 10.904 25.8261 10.92 26.4326 10.92C26.4326 9.464 26.4326 8.056 26.4326 6.548C24.9809 6.52 23.5487 6.44 22.1204 6.48C19.4439 6.556 17.3387 8.464 16.9083 11.164C16.7987 11.844 16.7713 12.54 16.7517 13.232C16.7283 14.268 16.7439 15.304 16.7439 16.392C15.3704 16.392 14.0361 16.392 12.7017 16.392C12.7017 18.02 12.7017 19.6 12.7017 21.212C14.0517 21.212 15.3783 21.212 16.7517 21.212C16.7517 25.34 16.7517 29.436 16.7517 33.54C18.3913 33.54 19.9761 33.54 21.6274 33.54Z" fill="#FFB22C"/>
</g>
<defs>
<clipPath id="clip0_1835_5492">
<rect width="39.1304" height="40" fill="white"/>
</clipPath>
</defs>
</symbol>



<symbol id='instagram'  width="41" height="40" viewBox="0 0 41 40" fill="none" xmlns="http://www.w3.org/2000/svg">
<g clip-path="url(#clip0_1835_5495)">
<path d="M21.4024 40.0001C20.5704 40.0001 19.7344 40.0001 18.9024 40.0001C18.4144 39.9401 17.9264 39.8881 17.4384 39.8201C13.7504 39.2961 10.4344 37.8881 7.55439 35.5201C3.73039 32.3761 1.35039 28.3681 0.462391 23.4881C0.326391 22.7481 0.254391 22.0001 0.150391 21.2521C0.150391 20.4201 0.150391 19.5841 0.150391 18.7521C0.278391 17.8801 0.370391 17.0001 0.534391 16.1321C2.17839 7.54407 9.49439 0.896069 18.1864 0.100069C22.4584 -0.291931 26.5184 0.472069 30.1784 2.72807C37.3384 7.14007 40.6544 13.6201 40.0384 22.0081C39.7464 25.9761 38.2024 29.5201 35.6784 32.5961C32.5384 36.4241 28.5184 38.8041 23.6384 39.6921C22.8984 39.8241 22.1464 39.9001 21.4024 40.0001ZM8.60639 20.0121C8.67839 21.9121 8.68239 23.8281 8.83839 25.7321C9.08239 28.6441 11.1104 30.8241 13.9904 31.2321C15.4384 31.4401 16.9224 31.4641 18.3904 31.4641C20.8744 31.4641 23.3664 31.4761 25.8424 31.3001C28.1384 31.1361 29.8864 29.9601 30.8984 27.8321C31.3384 26.9041 31.5384 25.9041 31.5504 24.8801C31.5904 22.1881 31.6144 19.4921 31.6144 16.7961C31.6144 15.9521 31.5544 15.1041 31.4704 14.2641C31.1704 11.3481 29.1984 9.18407 26.3064 8.76407C24.8704 8.55607 23.4024 8.53207 21.9464 8.53207C19.4504 8.53207 16.9424 8.52007 14.4544 8.69207C11.3504 8.90407 9.09039 11.1961 8.83439 14.3001C8.67839 16.1961 8.67839 18.1001 8.60639 20.0121Z" fill="#FFB22C"/>
<path d="M10.7021 19.9798C10.7541 18.2358 10.7581 16.5038 10.8621 14.7758C11.0061 12.3758 12.5261 10.7878 14.9301 10.7238C18.4021 10.6318 21.8781 10.6278 25.3501 10.7238C27.8021 10.7878 29.3701 12.3598 29.4381 14.8238C29.5301 18.2958 29.5262 21.7718 29.4342 25.2398C29.3702 27.6118 27.7742 29.1518 25.4022 29.2878C21.9061 29.4878 18.4021 29.4878 14.9061 29.2878C12.5341 29.1518 11.0141 27.6118 10.8701 25.2318C10.7581 23.4838 10.7501 21.7238 10.7021 19.9798ZM20.1581 25.8958C23.4141 25.8918 26.0342 23.2758 26.0462 20.0198C26.0582 16.7558 23.4142 14.1078 20.1461 14.1118C16.8901 14.1158 14.2701 16.7318 14.2581 19.9878C14.2461 23.2518 16.8901 25.8998 20.1581 25.8958ZM26.2661 15.2438C27.0421 15.2518 27.6581 14.6398 27.6581 13.8718C27.6581 13.1158 27.0541 12.5078 26.3021 12.5038C25.5261 12.4958 24.9141 13.1038 24.9141 13.8798C24.9141 14.6318 25.5101 15.2358 26.2661 15.2438Z" fill="#FFB22C"/>
<path d="M23.9783 20.0118C23.9743 22.1158 22.2583 23.8278 20.1503 23.8278C18.0303 23.8278 16.3103 22.0958 16.3223 19.9718C16.3343 17.8718 18.0623 16.1638 20.1663 16.1758C22.2743 16.1838 23.9823 17.9038 23.9783 20.0118Z" fill="#FFB22C"/>
</g>
<defs>
<clipPath id="clip0_1835_5495">
<rect width="40" height="40" fill="white" transform="translate(0.130371)"/>
</clipPath>
</defs>
</symbol>

<symbol id='twitter'  width="41" height="40" viewBox="0 0 41 40" fill="none" xmlns="http://www.w3.org/2000/svg">
<g clip-path="url(#clip0_1835_5500)">
<path d="M40.1307 18.832C40.1307 19.612 40.1307 20.396 40.1307 21.176C40.0427 21.86 39.9787 22.544 39.8627 23.224C39.1067 27.7 37.1107 31.54 33.7627 34.6C28.6907 39.236 22.7187 40.896 15.9867 39.548C11.1227 38.576 7.17868 36.008 4.19068 32.06C0.886681 27.688 -0.381319 22.736 0.318681 17.312C0.834681 13.292 2.48268 9.752 5.18268 6.732C8.28268 3.268 12.1267 1.108 16.7187 0.308C17.4587 0.18 18.2107 0.1 18.9547 0C19.7347 0 20.5187 0 21.2987 0C21.4107 0.024 21.5227 0.06 21.6387 0.068C24.6587 0.288 27.4947 1.128 30.0907 2.676C35.4187 5.848 38.6867 10.484 39.8187 16.596C39.9587 17.332 40.0307 18.084 40.1307 18.832ZM15.3907 24.748C14.4707 25.352 13.5467 25.756 12.5427 25.92C11.8787 26.028 11.1987 26.024 10.5267 26.1C10.3907 26.116 10.2067 26.236 10.1547 26.356C10.1187 26.44 10.2467 26.628 10.3427 26.728C10.4507 26.832 10.6067 26.892 10.7427 26.964C13.7907 28.516 16.9547 28.744 20.1907 27.684C25.1267 26.072 27.9787 21.308 28.0907 16.772C28.1027 16.292 28.2427 15.952 28.5987 15.62C29.0987 15.152 29.5347 14.612 29.9787 14.088C30.0507 14 30.0387 13.84 30.0627 13.712C29.9227 13.704 29.7707 13.656 29.6467 13.692C29.2787 13.8 28.9187 13.944 28.5907 14.056C28.8907 13.532 29.2027 13.016 29.4827 12.48C29.5427 12.368 29.4947 12.196 29.4987 12.056C29.3547 12.072 29.1987 12.056 29.0707 12.108C28.4907 12.332 27.9187 12.576 27.3467 12.816C27.0227 12.952 26.7627 12.876 26.4907 12.656C25.4867 11.836 24.3227 11.556 23.0547 11.748C20.8827 12.08 19.3227 13.976 19.4907 16.24C19.5147 16.58 19.3987 16.696 19.0747 16.636C18.9867 16.62 18.8947 16.624 18.8027 16.608C15.9547 16.172 13.5747 14.88 11.6947 12.688C11.3707 12.312 11.2667 12.324 11.0507 12.792C10.2907 14.428 10.4667 15.968 11.5387 17.408C11.6107 17.504 11.6867 17.592 11.7627 17.684C11.4667 17.656 11.2347 17.552 10.9987 17.456C10.6747 17.324 10.5707 17.392 10.5707 17.744C10.5747 18.716 10.8747 19.6 11.5067 20.328C11.9067 20.788 12.4067 21.164 12.8267 21.548C12.7507 21.548 12.6067 21.56 12.4667 21.544C11.9827 21.496 11.8947 21.6 12.0827 22.048C12.6867 23.5 13.7747 24.38 15.3907 24.748Z" fill="#FFB22C"/>
</g>
<defs>
<clipPath id="clip0_1835_5500">
<rect width="40" height="40" fill="white" transform="translate(0.130371)"/>
</clipPath>
</defs>
</symbol>

<symbol id='telegram' width="41" height="40" viewBox="0 0 41 40" fill="none" xmlns="http://www.w3.org/2000/svg">
<g clip-path="url(#clip0_1835_5503)">
<path d="M0.130371 21.2474C0.130371 20.4154 0.130371 19.5795 0.130371 18.7475C0.218371 18.0675 0.286371 17.3835 0.402371 16.7035C1.10237 12.5677 2.91837 8.98775 5.85837 5.99984C8.85037 2.95592 12.4624 1.03997 16.6824 0.307992C17.4104 0.179995 18.1464 0.0999973 18.8784 0C19.7104 0 20.5464 0 21.3784 0C21.7504 0.0479987 22.1224 0.0999973 22.4944 0.143996C27.1064 0.703981 31.0984 2.59993 34.3144 5.92784C39.3184 11.1077 41.0944 17.3075 39.6384 24.3513C37.8024 33.2551 29.5944 39.9109 20.5024 39.9989C16.3544 40.0389 12.5184 38.9829 9.07438 36.655C4.37437 33.4751 1.48237 29.0752 0.438371 23.4874C0.302371 22.7474 0.230371 21.9954 0.130371 21.2474ZM19.8544 26.3393C19.9624 26.4113 20.0504 26.4673 20.1304 26.5273C21.6304 27.6312 23.1264 28.7352 24.6264 29.8392C25.6864 30.6192 26.4184 30.3352 26.6944 29.0392C27.3904 25.7713 28.0864 22.5034 28.7824 19.2355C29.1704 17.4155 29.5584 15.5996 29.9344 13.7796C30.0464 13.2396 30.1344 12.6677 29.6464 12.2517C29.1664 11.8437 28.6624 12.0917 28.1744 12.2797C23.4224 14.1116 18.6704 15.9476 13.9144 17.7835C12.3024 18.4075 10.6864 19.0235 9.08237 19.6595C8.71037 19.8075 8.27037 20.0035 8.29037 20.4714C8.31037 20.9554 8.78237 21.0594 9.16237 21.1794C10.6224 21.6434 12.0904 22.0914 13.5504 22.5634C13.8584 22.6634 14.0984 22.6394 14.3824 22.4594C17.9744 20.1794 21.5784 17.9195 25.1784 15.6516C25.3544 15.5396 25.5304 15.4156 25.7264 15.3596C25.8664 15.3196 26.0344 15.3836 26.1904 15.4036C26.1224 15.5196 26.0744 15.6516 25.9864 15.7476C25.8664 15.8836 25.7224 15.9956 25.5864 16.1196C22.7744 18.6595 19.9664 21.1994 17.1464 23.7354C16.8984 23.9593 16.7744 24.1833 16.7584 24.5313C16.7224 25.4673 16.6344 26.3993 16.5664 27.3353C16.5264 27.9312 16.4904 28.5232 16.4504 29.1272C16.8624 29.1592 17.1344 28.9672 17.3824 28.7272C18.1944 27.9392 19.0104 27.1513 19.8544 26.3393Z" fill="#FFB22C"/>
</g>
<defs>
<clipPath id="clip0_1835_5503">
<rect width="40" height="40" fill="white" transform="translate(0.130371)"/>
</clipPath>
</defs>
</symbol>
<symbol id="filter-setting"  width="84" height="53" viewBox="0 0 84 53" fill="none">
<path
              d="M28.1665 6.66675H24.1665"
              stroke="black"
              stroke-width="3.33333"
              stroke-linecap="round"
              stroke-linejoin="round"
            />
            <path
              d="M18.8332 6.66675H4.1665"
              stroke="black"
              stroke-width="3.33333"
              stroke-linecap="round"
              stroke-linejoin="round"
            />
            <path
              d="M9.49984 16H4.1665"
              stroke="black"
              stroke-width="3.33333"
              stroke-linecap="round"
              stroke-linejoin="round"
            />
            <path
              d="M29.4997 16H14.833"
              stroke="black"
              stroke-width="3.33333"
              stroke-linecap="round"
              stroke-linejoin="round"
            />
            <path
              d="M28.1665 25.3333H24.1665"
              stroke="black"
              stroke-width="3.33333"
              stroke-linecap="round"
              stroke-linejoin="round"
            />
            <path
              d="M18.8332 25.3333H4.1665"
              stroke="black"
              stroke-width="3.33333"
              stroke-linecap="round"
              stroke-linejoin="round"
            />
            <path
              d="M18.833 21.8667V27.2"
              stroke="#FFB22C"
              stroke-width="3.33333"
              stroke-linecap="round"
              stroke-linejoin="round"
            />
            <path
              d="M14.833 13.3333V18.6666"
              stroke="#FFB22C"
              stroke-width="3.33333"
              stroke-linecap="round"
              stroke-linejoin="round"
            />
            <path
              d="M18.833 4V9.33333"
              stroke="#FFB22C"
              stroke-width="3.33333"
              stroke-linecap="round"
              stroke-linejoin="round"
            />
</symbol>

<symbol  id='burger'   xmlns="http://www.w3.org/2000/svg"
        width="32"
        height="32"
        viewBox="0 0 32 32"
        fill="none">
        <path
          d="M21.3763 8.61953H3.32763C3.07954 8.61953 2.83537 8.70956 2.65026 8.87926C2.46399 9.05002 2.35195 9.28945 2.35195 9.54728C2.35195 9.80511 2.46399 10.0445 2.65026 10.2153C2.83537 10.385 3.07954 10.475 3.32763 10.475H21.3763C21.6244 10.475 21.8685 10.385 22.0536 10.2153C22.2399 10.0445 22.352 9.80511 22.352 9.54728C22.352 9.28945 22.2399 9.05002 22.0536 8.87926C21.8685 8.70956 21.6244 8.61953 21.3763 8.61953Z"
          fill="#0B0B0B"
          stroke="black"
          stroke-width="0.8"
        />
        <path
          d="M21.3763 15.0723H3.32763C3.07954 15.0723 2.83537 15.1623 2.65026 15.332C2.46399 15.5028 2.35195 15.7422 2.35195 16C2.35195 16.2579 2.46399 16.4973 2.65026 16.6681C2.83537 16.8378 3.07954 16.9278 3.32763 16.9278H21.3763C21.6244 16.9278 21.8685 16.8378 22.0536 16.6681C22.2399 16.4973 22.352 16.2579 22.352 16C22.352 15.7422 22.2399 15.5028 22.0536 15.332C21.8685 15.1623 21.6244 15.0723 21.3763 15.0723Z"
          fill="#0B0B0B"
          stroke="black"
          stroke-width="0.8"
        />
        <path
          d="M21.3763 21.525H3.32763C3.07954 21.525 2.83537 21.6151 2.65026 21.7848C2.46399 21.9555 2.35195 22.195 2.35195 22.4528C2.35195 22.7106 2.46399 22.9501 2.65026 23.1208C2.83537 23.2905 3.07955 23.3805 3.32763 23.3805H21.3763C21.6244 23.3805 21.8685 23.2905 22.0536 23.1208C22.2399 22.9501 22.352 22.7106 22.352 22.4528C22.352 22.195 22.2399 21.9555 22.0536 21.7848C21.8685 21.6151 21.6244 21.525 21.3763 21.525Z"
          fill="#0B0B0B"
          stroke="black"
          stroke-width="0.8"
        />
      </symbol>

     <symbol  id='logo'    xmlns="http://www.w3.org/2000/svg"
        width="111"
        height="40"
        viewBox="0 0 111 40"
        fill="none">
        <path
          d="M16.0876 34.5764C11.5342 34.5764 7.09373 34.5789 2.65331 34.5752C0.776639 34.5737 0.0447637 33.8543 0.0438482 31.9982C0.0399885 24.171 0.0402917 16.3439 0.0434374 8.51667C0.0442157 6.57993 0.754916 5.87679 2.7038 5.87637C12.0738 5.87436 21.4439 5.87438 30.8139 5.87644C32.7681 5.87687 33.4827 6.58011 33.4835 8.51056C33.4866 16.3377 33.4869 24.1649 33.4833 31.9921C33.4825 33.8464 32.7462 34.574 30.8765 34.5754C25.9845 34.5791 21.0925 34.5765 16.0876 34.5764ZM6.09445 9.76519C5.81355 9.95784 5.29418 10.1437 5.28848 10.3442C5.22891 12.4385 5.25173 14.5351 5.25173 16.6762C5.63934 16.6956 5.89599 16.7196 6.15265 16.7197C11.3503 16.7218 16.548 16.7158 21.7456 16.7263C22.5787 16.728 23.3113 16.6025 23.3212 15.5765C23.3312 14.5337 22.5879 14.426 21.7582 14.4281C17.4645 14.4391 13.1708 14.4328 8.87704 14.4325C8.47811 14.4325 8.07917 14.4325 7.61641 14.4325C7.61641 13.6154 7.61641 12.9581 7.61641 12.3242C7.72841 12.2624 7.79188 12.1968 7.85542 12.1968C12.8256 12.1911 17.7961 12.165 22.7659 12.2075C24.0126 12.2181 25.2058 13.312 25.5595 14.5106C26.265 16.9015 24.6314 19.0163 22.0035 19.0256C16.8437 19.0439 11.6836 19.0167 6.5236 19.0086C6.12519 19.0079 5.72678 19.0085 5.32114 19.0085C5.32114 22.9517 5.32114 26.7351 5.32114 30.5711C7.62985 30.5711 9.86681 30.5711 12.2356 30.5711C12.2356 29.0062 12.2356 27.5225 12.2356 25.957C13.8671 25.957 15.3688 25.9197 16.8657 25.9872C17.1809 26.0014 17.5788 26.3365 17.7666 26.6327C18.451 27.7122 19.013 28.8715 19.7293 29.9272C19.9702 30.2823 20.5275 30.6084 20.9511 30.6225C23.0579 30.6927 25.1684 30.6584 27.2776 30.6486C27.5099 30.6475 27.7419 30.5677 28.0764 30.5053C27.0073 28.6742 25.9929 26.9601 25.0015 25.2328C23.9319 23.3692 23.8855 23.339 21.4911 23.7531C22.3214 25.2373 23.132 26.6863 23.963 28.1717C21.5097 28.4339 21.5101 28.4337 20.3525 26.4379C19.975 25.787 19.5488 25.1593 19.2291 24.4813C18.9137 23.8123 18.4786 23.5696 17.7301 23.5861C15.509 23.6349 13.2861 23.6002 11.0639 23.6069C10.7078 23.608 10.3518 23.6539 9.89165 23.6865C9.89165 25.2584 9.89165 26.7123 9.89165 28.2061C9.0781 28.2061 8.37942 28.2061 7.55092 28.2061C7.55092 26.2791 7.60388 24.4039 7.52907 22.5338C7.49037 21.5663 7.82688 21.3401 8.74377 21.3515C13.0369 21.4051 17.331 21.3901 21.6247 21.4016C23.9118 21.4078 25.859 20.6798 27.1337 18.6856C28.3512 16.7809 28.4047 14.766 27.3229 12.7918C26.2136 10.7672 24.4105 9.78578 22.1264 9.77421C16.8536 9.74748 11.5805 9.76531 6.09445 9.76519Z"
          fill="#FFB22C"
        />
        <path
          d="M61.099 23.4453C60.2078 22.5189 59.3913 21.5454 58.5963 20.5545C58.5539 20.5017 58.6989 20.1895 58.7473 20.1918C58.9441 20.2014 59.2017 20.2272 59.3193 20.3552C59.6475 20.7125 59.9172 21.1237 60.3421 21.6895C60.4008 21.2597 60.4664 20.9984 60.4675 20.7368C60.476 18.7039 60.4622 16.6709 60.4756 14.638C60.4843 13.3093 61.0524 12.6181 62.0784 12.6298C63.1015 12.6415 63.6688 13.3264 63.6738 14.6633C63.6887 18.5786 63.6789 22.494 63.6793 26.4094C63.6794 27.2997 63.4646 28.069 62.4979 28.3623C61.5687 28.6442 61.0139 28.1009 60.5265 27.424C58.8125 25.0436 57.0955 22.6654 55.3783 20.2874C55.1471 19.9673 54.9079 19.6529 54.5006 19.1046C54.5006 21.6358 54.5067 23.877 54.4951 26.1181C54.493 26.5268 54.4858 26.9566 54.3635 27.3391C54.1166 28.1106 53.4675 28.631 52.7387 28.3811C52.1785 28.189 51.4291 27.5195 51.3908 27.0147C51.2344 24.9558 51.3091 22.8784 51.3314 20.8082C51.3335 20.6141 51.5659 20.4224 51.6914 20.2296C51.8175 20.4224 52.0431 20.6105 52.0524 20.8087C52.0929 21.6727 52.0705 22.5397 52.0708 23.4056C52.0713 24.4221 51.9969 25.4469 52.1086 26.451C52.1537 26.857 52.5535 27.481 52.882 27.5453C53.593 27.6844 53.6536 27.0346 53.6534 26.477C53.6523 23.8417 53.6464 21.2063 53.6594 18.5711C53.6613 18.1871 53.7564 17.8035 53.8531 17.0884C54.3284 17.6105 54.6155 17.872 54.839 18.1798C56.916 21.0404 58.967 23.92 61.0697 26.7614C61.3421 27.1294 61.8651 27.312 62.2719 27.5805C62.4672 27.1052 62.8258 26.6321 62.8317 26.1545C62.8783 22.3903 62.8576 18.6253 62.8575 14.8605C62.8575 14.7476 62.9024 14.6039 62.8498 14.5269C62.589 14.1453 62.3024 13.7813 62.0248 13.4112C61.7817 13.7724 61.3387 14.1278 61.3281 14.4958C61.2628 16.7527 61.3045 19.0126 61.2899 21.2713C61.2854 21.9793 61.2172 22.6868 61.099 23.4453Z"
          fill="black"
        />
        <path
          d="M90.8433 19.759C90.5982 19.8565 90.4006 19.8874 90.203 19.9183C90.1895 19.7239 90.093 19.4774 90.1768 19.3442C90.5365 18.7722 90.9291 18.2171 91.3542 17.6919C91.4947 17.5184 91.7692 17.4534 91.9824 17.3388C92.074 17.5633 92.2405 17.7864 92.2448 18.0127C92.2701 19.3302 92.2572 20.6484 92.2573 21.9664C92.2574 23.5103 92.2099 25.0569 92.2938 26.5962C92.3129 26.9454 92.788 27.2698 93.0533 27.6055C93.3185 27.268 93.8099 26.9333 93.8144 26.5924C93.8677 22.4885 93.8616 18.3835 93.8257 14.2792C93.8228 13.9419 93.5227 13.3581 93.3026 13.3291C92.9577 13.2837 92.432 13.5134 92.2117 13.8015C90.9555 15.4443 89.7696 17.1407 88.5537 18.8144C88.319 19.1374 88.057 19.4406 87.7028 19.8843C87.2479 19.2965 86.8792 18.8435 86.5359 18.372C85.4512 16.8817 84.4029 15.3637 83.2761 13.9062C83.026 13.5826 82.512 13.463 82.1195 13.2495C81.9252 13.6566 81.6036 14.0514 81.5629 14.4734C81.4763 15.3688 81.5495 16.2787 81.529 17.182C81.5211 17.5299 81.4368 17.876 81.3873 18.223C81.2728 18.2411 81.1584 18.2593 81.0439 18.2775C80.937 17.9903 80.7475 17.7058 80.7378 17.4153C80.7014 16.3245 80.5985 15.2113 80.7725 14.1477C80.871 13.5462 81.3405 12.8162 81.8581 12.5187C82.5585 12.1163 83.2996 12.4956 83.7985 13.1935C85.0627 14.9616 86.34 16.7204 87.6954 18.5985C88.9386 16.8862 90.1403 15.2644 91.3029 13.6152C91.8547 12.8325 92.4402 12.1409 93.5098 12.4804C94.5647 12.8153 94.696 13.6932 94.6911 14.6646C94.6713 18.5808 94.6881 22.4972 94.6796 26.4135C94.6768 27.6684 94.0455 28.4387 93.0581 28.4494C92.0746 28.4602 91.4664 27.7079 91.4305 26.4234C91.419 26.0095 91.4292 25.595 91.4287 25.1808C91.4263 23.298 91.4244 21.4152 91.4186 19.5324C91.4183 19.4637 91.3791 19.3951 91.3209 19.2057C91.1488 19.4005 91.0199 19.5465 90.8433 19.759Z"
          fill="black"
        />
        <path
          d="M47.6308 21.6079C46.7231 21.7786 45.8844 21.9406 45.0392 21.9876C44.0339 22.0436 43.023 22.0008 41.9566 22.0008C41.9566 23.1088 41.9566 24.105 41.9566 25.232C43.6048 25.232 45.2121 25.2191 46.8189 25.2404C47.2619 25.2463 47.7479 25.2568 48.1373 25.4341C49.1352 25.8883 49.3031 27.2428 48.5081 27.9905C47.8595 28.6005 45.6701 28.6572 44.8014 27.8084C45.371 27.7482 45.9421 27.6997 46.5097 27.6246C47.1507 27.5398 48.1573 27.9518 48.1592 26.8365C48.1611 25.752 47.1825 26.0294 46.5164 26.0203C44.7553 25.9964 42.9937 26.0122 41.1802 26.0122C41.1802 24.3903 41.1802 22.8957 41.1802 21.2194C42.6264 21.2194 44.0394 21.2196 45.4523 21.2193C45.791 21.2193 46.176 21.3195 46.4567 21.1914C46.809 21.0307 47.0759 20.6825 47.3796 20.4152C47.0791 20.147 46.7913 19.6661 46.4757 19.6471C45.0508 19.5611 43.616 19.5606 42.1886 19.6206C41.3341 19.6566 41.0633 19.3645 41.1088 18.5231C41.1734 17.3305 41.1252 16.1317 41.1252 14.9757C42.1239 14.9757 42.985 14.9757 43.8461 14.9757C43.8621 15.1235 43.8781 15.2714 43.8941 15.4192C43.2705 15.5098 42.6469 15.6005 41.9553 15.701C41.9553 16.6613 41.9553 17.6585 41.9553 18.7867C43.3639 18.7867 44.7905 18.6976 46.1969 18.8275C46.8195 18.8851 47.6348 19.2443 47.9293 19.7295C48.1774 20.1382 47.7984 20.9275 47.6308 21.6079Z"
          fill="black"
        />
        <path
          d="M104.724 21.9958C103.167 21.999 101.706 21.999 100.204 21.999C100.204 23.0854 100.204 24.0925 100.204 25.2361C101.971 25.2361 103.721 25.2352 105.471 25.2364C106.42 25.2371 107.145 25.6431 107.198 26.6238C107.224 27.105 106.938 27.7176 106.592 28.0784C106.039 28.6558 103.918 28.5965 103.059 27.8214C103.581 27.7573 104.104 27.7049 104.624 27.6262C105.298 27.5241 106.398 27.9939 106.42 26.8701C106.443 25.6581 105.308 26.0411 104.592 26.0243C102.905 25.9845 101.216 26.0115 99.4637 26.0115C99.4637 24.3812 99.4637 22.8544 99.4637 21.2203C101.102 21.2203 102.677 21.2197 104.252 21.2206C104.859 21.2209 105.572 21.297 105.604 20.4354C105.637 19.5467 104.918 19.6061 104.31 19.6042C102.955 19.5999 101.6 19.5814 100.246 19.6121C99.6155 19.6264 99.3702 19.4048 99.3881 18.7622C99.4227 17.5229 99.3982 16.2819 99.3982 14.9835C100.334 14.9835 101.21 14.9835 102.085 14.9835C102.102 15.1319 102.118 15.2802 102.135 15.4285C101.514 15.5131 100.892 15.5976 100.213 15.69C100.213 16.6589 100.213 17.6588 100.213 18.7879C101.674 18.7879 103.127 18.773 104.579 18.7927C105.692 18.8077 106.457 19.4191 106.439 20.3362C106.42 21.3478 105.854 21.9223 104.724 21.9958Z"
          fill="black"
        />
        <path
          d="M67.699 13.1078C67.3284 13.4738 67.0417 13.8039 66.755 14.1341C67.1388 14.3662 67.5034 14.7463 67.9106 14.7991C68.7244 14.9048 69.5646 14.876 70.3881 14.8188C71.18 14.7638 71.4273 15.0496 71.4183 15.8424C71.3807 19.1519 71.4023 22.4621 71.4025 25.772C71.4025 26.0729 71.3124 26.4171 71.4281 26.6643C71.592 27.0144 71.9086 27.2929 72.1599 27.602C72.4425 27.2811 72.955 26.9703 72.9695 26.6379C73.0496 24.7983 73.0083 22.9534 73.0088 21.1104C73.0089 20.8471 72.9655 20.5729 73.0264 20.3243C73.0687 20.152 73.2553 20.0151 73.3775 19.8624C73.5043 20.009 73.7406 20.1549 73.7417 20.3024C73.758 22.596 73.792 24.8916 73.7108 27.1828C73.6821 27.9949 72.9567 28.5424 72.2213 28.3881C71.6389 28.2658 71.0357 27.711 70.6873 27.1855C70.4389 26.8109 70.5792 26.1661 70.5783 25.6419C70.5723 22.3373 70.5752 19.0327 70.5752 15.5985C69.5185 15.5985 68.5135 15.6389 67.5133 15.5866C66.6119 15.5395 66.0562 15.0318 65.9842 14.0985C65.921 13.2782 66.3078 12.7078 67.0806 12.4716C67.5248 12.3358 68.0695 12.2667 67.699 13.1078Z"
          fill="black"
        />
        <path
          d="M83.8833 27.2615C83.4869 28.1592 82.8723 28.604 81.9719 28.3782C81.0218 28.14 80.7121 27.4191 80.7219 26.4883C80.7405 24.7192 80.703 22.9492 80.7468 21.1811C80.756 20.8114 81.016 20.4479 81.1604 20.0816C81.2829 20.4323 81.5039 20.7809 81.5113 21.1341C81.5499 22.9778 81.4982 24.8241 81.5717 26.6658C81.5845 26.9869 82.045 27.2902 82.2988 27.6017C82.592 27.2869 82.9234 26.9979 83.1608 26.6456C83.2657 26.4899 83.1803 26.2057 83.1803 25.9798C83.1805 23.4954 83.1805 21.0109 83.1805 18.5265C83.1805 18.1584 83.1805 17.7903 83.1805 17.0504C83.6946 17.4772 84.0178 17.6576 84.2197 17.9285C85.0509 19.0437 85.839 20.1908 86.6549 21.3175C87.4613 22.4311 87.8749 22.4304 88.696 21.3534C88.9138 21.0677 89.1605 20.8041 89.5588 20.3372C89.9799 21.5665 89.2057 22.0971 88.688 22.5494C87.9882 23.1607 87.1103 23.08 86.4708 22.3556C85.9012 21.7103 85.4429 20.9671 84.9309 20.2705C84.6963 19.9513 84.4508 19.6401 84.2103 19.3252C84.1068 19.3426 84.0033 19.36 83.8998 19.3774C83.8998 21.9756 83.8998 24.5738 83.8833 27.2615Z"
          fill="black"
        />
        <path
          d="M44.5609 12.4057C45.5774 12.4068 46.4815 12.397 47.3851 12.412C48.379 12.4286 48.9193 12.9957 49.0154 13.938C49.1043 14.8081 48.3584 15.5585 47.3862 15.5858C46.6154 15.6074 45.8418 15.5279 45.0695 15.4933C45.0601 15.3521 45.0507 15.2109 45.0414 15.0697C45.2878 14.9921 45.5305 14.8666 45.7814 14.847C46.2682 14.809 46.7991 14.9444 47.2371 14.7927C47.6106 14.6634 47.8796 14.2322 48.1948 13.9346C47.8785 13.6764 47.578 13.2226 47.2429 13.1955C46.0829 13.1017 44.9109 13.1557 43.7434 13.1547C42.7643 13.1539 41.784 13.1833 40.8062 13.147C39.8315 13.1108 39.4283 13.5454 39.4849 14.5031C39.5204 15.1035 39.5293 15.7117 39.4704 16.3085C39.4477 16.5382 39.2039 16.7462 39.0609 16.9641C38.9392 16.7654 38.7221 16.5711 38.7126 16.3671C38.6739 15.5405 38.6397 14.7054 38.7159 13.8838C38.805 12.9247 39.3987 12.4134 40.3809 12.4092C41.7367 12.4036 43.0925 12.4065 44.5609 12.4057Z"
          fill="black"
        />
        <path
          d="M73.0174 16.7201C73.0173 16.0604 73.0173 15.5064 73.0173 14.8434C74.1072 14.8434 75.0782 14.8554 76.0487 14.8392C76.7058 14.8282 77.5805 14.9805 77.6075 14.0142C77.6353 13.0226 76.7613 13.1551 76.1 13.1516C74.1845 13.1415 72.269 13.1516 70.3535 13.1448C69.9994 13.1436 69.6455 13.1007 69.2916 13.0771C69.2644 12.9692 69.2372 12.8612 69.21 12.7532C69.4477 12.6392 69.6844 12.4287 69.9232 12.4263C72.2516 12.4032 74.5806 12.3941 76.9088 12.427C77.8348 12.4401 78.3495 13.0184 78.4389 13.9152C78.5225 14.7541 77.8497 15.5246 76.9529 15.5745C75.9429 15.6306 74.9273 15.5874 73.6803 15.5874C73.6803 16.5808 73.6803 17.5356 73.6803 18.4905C73.5057 18.4986 73.3312 18.5068 73.1567 18.5149C73.1103 17.9518 73.0638 17.3888 73.0174 16.7201Z"
          fill="black"
        />
        <path
          d="M106.401 15.3945C105.303 15.6211 104.287 15.8225 103.341 15.3237C103.344 15.1634 103.347 15.0032 103.35 14.843C103.984 14.843 104.619 14.8511 105.253 14.8407C105.846 14.8309 106.537 14.7209 106.415 13.9964C106.358 13.6574 105.66 13.203 105.237 13.1863C103.136 13.1033 101.03 13.1571 98.9254 13.1447C98.0713 13.1397 97.6892 13.5398 97.7061 14.384C97.723 15.2347 97.7098 16.086 97.7098 17.0119C97.392 16.9409 97.1339 16.9105 97.1338 16.8794C97.1303 15.6649 97.0303 14.429 97.2399 13.2487C97.3035 12.8907 98.2228 12.4712 98.7653 12.449C100.979 12.3585 103.202 12.3436 105.413 12.4556C106.006 12.4857 106.78 12.9289 107.097 13.4225C107.532 14.0998 107.216 14.873 106.401 15.3945Z"
          fill="black"
        />
        <path
          d="M38.6909 26.9736C38.6851 23.8747 38.6851 20.8747 38.6851 17.8746C38.8721 17.8576 39.0591 17.8405 39.2461 17.8235C39.3346 18.1958 39.4961 18.5675 39.4996 18.9406C39.5227 21.3795 39.544 23.8193 39.4961 26.2575C39.476 27.281 39.845 27.7067 40.8746 27.6218C41.5455 27.5665 42.226 27.5866 42.8995 27.6227C43.2271 27.6403 43.5486 27.7718 43.8728 27.8518C43.8806 27.9543 43.8883 28.0568 43.8961 28.1593C43.6584 28.259 43.4234 28.436 43.1824 28.4446C42.2455 28.4781 41.3062 28.4761 40.3687 28.453C39.4661 28.4307 38.9114 27.9478 38.6909 26.9736Z"
          fill="black"
        />
        <path
          d="M57.5916 17.9308C57.8017 18.4631 57.9608 18.9317 58.1198 19.4003C57.7502 19.0945 57.3059 18.8451 57.024 18.4729C55.9147 17.0083 54.8783 15.4883 53.7618 14.0294C53.5252 13.7203 53.0654 13.582 52.7084 13.365C52.4935 13.7555 52.1228 14.1346 52.0933 14.5386C52.0087 15.6963 52.0796 16.8645 52.0454 18.0273C52.0395 18.2279 51.8184 18.4222 51.6966 18.6193C51.5712 18.4228 51.3417 18.2286 51.3372 18.0294C51.3071 16.6787 51.2361 15.3178 51.374 13.9803C51.4228 13.5068 51.9305 12.912 52.3843 12.6881C53.075 12.3472 53.7692 12.6456 54.2455 13.3073C55.3409 14.8294 56.4418 16.3474 57.5916 17.9308Z"
          fill="black"
        />
        <path
          d="M101.882 27.7421C101.783 28.0128 101.621 28.4041 101.436 28.4158C100.464 28.4772 99.4824 28.4904 98.5104 28.4269C97.622 28.3689 97.0004 27.8612 96.9882 26.9311C96.9512 24.1159 96.9655 21.3 96.981 18.4844C96.9822 18.2705 97.1501 18.0575 97.2405 17.8441C97.3397 17.849 97.4389 17.8538 97.5381 17.8587C97.597 18.2216 97.7045 18.5841 97.7068 18.9474C97.7222 21.3125 97.7111 23.6777 97.7161 26.0428C97.7192 27.5216 97.8225 27.6122 99.3383 27.6297C100.162 27.6392 100.985 27.6676 101.882 27.7421Z"
          fill="black"
        />
        <path
          d="M6.2011 9.76518C11.5806 9.76536 16.8537 9.74753 22.1266 9.77426C24.4107 9.78583 26.2137 10.7673 27.323 12.7918C28.4048 14.7661 28.3513 16.781 27.1338 18.6857C25.8591 20.6799 23.9119 21.4078 21.6248 21.4017C17.3311 21.3901 13.0371 21.4052 8.7439 21.3516C7.827 21.3401 7.4905 21.5664 7.5292 22.5339C7.604 24.404 7.55104 26.2792 7.55104 28.2061C8.37954 28.2061 9.07823 28.2061 9.89177 28.2061C9.89177 26.7123 9.89177 25.2584 9.89177 23.6866C10.3519 23.654 10.7079 23.608 11.064 23.607C13.2862 23.6003 15.5091 23.635 17.7302 23.5861C18.4788 23.5696 18.9138 23.8123 19.2293 24.4813C19.549 25.1593 19.9751 25.787 20.3526 26.4379C21.5102 28.4338 21.5099 28.434 23.9631 28.1718C23.1322 26.6864 22.3215 25.2373 21.4912 23.7531C23.8856 23.339 23.932 23.3693 25.0016 25.2328C25.993 26.9601 27.0074 28.6743 28.0765 30.5053C27.742 30.5677 27.51 30.6476 27.2777 30.6486C25.1686 30.6585 23.0581 30.6927 20.9512 30.6225C20.5277 30.6084 19.9704 30.2824 19.7294 29.9273C19.0131 28.8715 18.4512 27.7122 17.7667 26.6328C17.5789 26.3365 17.181 26.0014 16.8659 25.9872C15.3689 25.9198 13.8672 25.9571 12.2357 25.9571C12.2357 27.5226 12.2357 29.0062 12.2357 30.5712C9.86693 30.5712 7.62997 30.5712 5.32126 30.5712C5.32126 26.7352 5.32126 22.9517 5.32126 19.0085C5.72691 19.0085 6.12532 19.008 6.52373 19.0086C11.6837 19.0168 16.8438 19.0439 22.0037 19.0256C24.6316 19.0163 26.2651 16.9016 25.5596 14.5106C25.2059 13.312 24.0128 12.2182 22.7661 12.2075C17.7962 12.165 12.8258 12.1911 7.85555 12.1968C7.792 12.1969 7.72853 12.2625 7.61653 12.3242C7.61653 12.9581 7.61653 13.6155 7.61653 14.4325C8.07929 14.4325 8.47823 14.4325 8.87717 14.4325C13.1709 14.4328 17.4646 14.4391 21.7583 14.4282C22.588 14.4261 23.3313 14.5338 23.3213 15.5765C23.3114 16.6026 22.5788 16.728 21.7458 16.7264C16.5481 16.7158 11.3504 16.7218 6.15277 16.7197C5.89611 16.7196 5.63946 16.6957 5.25186 16.6763C5.25186 14.5352 5.22903 12.4385 5.2886 10.3442C5.2943 10.1438 5.81367 9.95789 6.2011 9.76518Z"
          fill="white"
        />
</symbol>

<symbol     id='show-more'   width="25"
          height="26"
          viewBox="0 0 25 26"
          fill="none"
          xmlns="http://www.w3.org/2000/svg"> 
          <path
            d="M7.86379 14.2495H10.5289V6.82642H14.4711V14.2495H17.1362L12.4999 19.3561L7.86379 14.2495ZM11.2789 7.57642V14.9995H9.55786L12.4999 18.2403L15.442 14.9995H13.7211V7.57642H11.2789Z"
            fill="#FFB22C"
          />
          <path
            d="M11.2789 7.57642V14.9995H9.55786L12.4999 18.2403L15.442 14.9995H13.7211V7.57642H11.2789Z"
            fill="#FFB22C"
          />
          <path
            d="M7.86379 14.2495H10.5289V6.82642H14.4711V14.2495H17.1362L12.4999 19.3561L7.86379 14.2495ZM11.2789 7.57642V14.9995H9.55786L12.4999 18.2403L15.442 14.9995H13.7211V7.57642H11.2789Z"
            stroke="#FFB22C"
            stroke-width="0.5"
          />
          <path
            d="M11.2789 7.57642V14.9995H9.55786L12.4999 18.2403L15.442 14.9995H13.7211V7.57642H11.2789Z"
            stroke="#FFB22C"
            stroke-width="0.5"
          />
          <path
            d="M0.5 13.0001C0.5 6.44266 5.88331 1.10791 12.5002 1.10791V1.85791C6.29675 1.85791 1.25 6.85629 1.25 13.0001C1.25 19.1439 6.29675 24.1423 12.5002 24.1423C18.7032 24.1423 23.75 19.1439 23.75 13.0001H24.5C24.5 19.5575 19.1169 24.8923 12.5002 24.8923C5.88331 24.8923 0.5 19.5575 0.5 13.0001Z"
            fill="#0B0B0B"
            stroke="#0B0B0B"
          />
          <path
            d="M12.5001 1.85791V1.10791C12.6263 1.10791 12.7527 1.1096 12.8779 1.11372L12.8536 1.86335C12.7364 1.85941 12.6182 1.85791 12.5001 1.85791Z"
            fill="#0B0B0B"
          />
          <path
            d="M13.5875 1.90922L13.6583 1.1626C13.9233 1.18772 14.191 1.22222 14.4541 1.26479L14.3339 2.00504C14.0871 1.9651 13.8361 1.93285 13.5875 1.90922ZM15.0723 2.15035L15.2414 1.41985C15.5009 1.47985 15.7617 1.5496 16.0167 1.62685L15.799 2.3446C15.56 2.27204 15.3155 2.20679 15.0723 2.15035ZM16.5121 2.58722L16.7774 1.88579C17.0264 1.97991 17.2758 2.08397 17.5188 2.19497L17.2073 2.87729C16.9793 2.77304 16.7455 2.67554 16.5121 2.58722ZM17.8812 3.21272L18.2378 2.55291C18.472 2.67947 18.7053 2.81579 18.931 2.9581L18.5313 3.59279C18.3196 3.45929 18.101 3.33141 17.8812 3.21272ZM19.1543 4.01504L19.5957 3.40866C19.8111 3.56541 20.0241 3.73172 20.2285 3.90235L19.748 4.47797C19.5561 4.31785 19.3565 4.16204 19.1543 4.01504ZM20.3091 4.97972L20.8274 4.43747C21.0205 4.62197 21.2095 4.8151 21.389 5.01103L20.8356 5.51728C20.6675 5.33372 20.4903 5.15279 20.3091 4.97972ZM21.325 6.08897L21.9108 5.6206C22.0773 5.82872 22.2387 6.04529 22.3906 6.2641L21.7746 6.69179C21.6323 6.48685 21.481 6.28416 21.325 6.08897ZM22.1826 7.32366L22.826 6.93816C22.9626 7.16653 23.0935 7.40278 23.2148 7.63997L22.5468 7.98103C22.4333 7.75885 22.3107 7.5376 22.1826 7.32366ZM22.8653 8.66147L23.555 8.36691C23.6598 8.61235 23.7573 8.86397 23.8448 9.11504L23.1366 9.36178C23.0547 9.12685 22.9634 8.89116 22.8653 8.66147ZM23.3598 10.0799L24.0831 9.88191C24.1535 10.139 24.2159 10.4018 24.2684 10.6634L23.533 10.8113C23.4841 10.5667 23.4256 10.3205 23.3598 10.0799ZM23.6562 11.5531L24.3998 11.4554C24.4336 11.7123 24.4589 11.974 24.4756 12.2333L23.7271 12.2812C23.7115 12.0385 23.6877 11.7935 23.6562 11.5531Z"
            fill="#0B0B0B"
          />
          <path
            d="M23.7446 12.6461L24.4942 12.6228C24.4981 12.7479 24.5 12.8739 24.5 13.0001H23.75C23.75 12.8816 23.7483 12.7634 23.7446 12.6461Z"
            fill="#0B0B0B"
          />
        </symbol>

         <symbol>
     
          </symbol>
</svg>